<svg xmlns="http://www.w3.org/2000/svg" xmlns:xlink="http://www.w3.org/1999/xlink" width="542.15" height="346.896" viewBox="0 0 542.15 346.896"><defs><style>.a{fill:#b5dfea;}.b{fill:#90cedd;}.b,.r{opacity:0.55;}.c{fill:#d7f0f9;}.d{fill:#0582c1;}.e{fill:#79c9e8;}.f{fill:#fff;}.g{fill:#ffbf4d;}.h{fill:#00668e;}.i{fill:#05556d;}.j{fill:#f98d3d;}.k{fill:#ed701b;}.l{fill:none;}.m{fill:#efaa3a;}.n{fill:#f98d2b;opacity:0.29;mix-blend-mode:multiply;}.n,.r{isolation:isolate;}.o{fill:#49b4d6;}.p{fill:#ff9f50;}.q{fill:#f77e2d;}.r{mix-blend-mode:overlay;fill:url(#a);}</style><linearGradient id="a" x1="0.5" y1="1.719" x2="0.5" y2="0.109" gradientUnits="objectBoundingBox"><stop offset="0" stop-color="#fff"/><stop offset="0.118" stop-color="#fff" stop-opacity="0.824"/><stop offset="0.3" stop-color="#fff" stop-opacity="0.576"/><stop offset="0.475" stop-color="#fff" stop-opacity="0.373"/><stop offset="0.636" stop-color="#fff" stop-opacity="0.212"/><stop offset="0.783" stop-color="#fff" stop-opacity="0.094"/><stop offset="0.909" stop-color="#fff" stop-opacity="0.024"/><stop offset="1" stop-color="#fff" stop-opacity="0"/></linearGradient></defs><g transform="translate(-34.043 -147.104)"><g transform="translate(34.043)"><path class="a" d="M560,447.634a15.974,15.974,0,0,0,15.98-15.719c.668-43.487,4.171-107.632-77.726-125.372-66.273-14.356-26.98-132.135-205.466-124.525-128.123,5.463-94.085,113.456-193.7,122.45C32.8,310.452,32.222,394.291,34.77,432.706a15.979,15.979,0,0,0,15.949,14.928Z" transform="translate(-34.043 46.366)"/><g transform="translate(190.879 228.031)"><path class="b" d="M459.444,306.543c-66.273-14.356-26.98-132.135-205.466-124.525-30.472,1.3-51.76,8.4-67.867,18.592,5.426-.709,11.185-1.211,17.323-1.472,178.485-7.61,139.192,110.169,205.466,124.525,81.023,17.552,78.459,80.52,77.749,123.971H521.19a15.974,15.974,0,0,0,15.98-15.719C537.838,388.428,541.341,324.283,459.444,306.543Z" transform="translate(-186.11 -181.666)"/></g><g transform="translate(141.6)"><g transform="translate(0 198.791)"><path class="c" d="M390.268,182.942,180.712,158.483A16.326,16.326,0,0,0,162.6,172.806l-15.641,134a16.325,16.325,0,0,0,14.323,18.108l209.556,24.461a16.326,16.326,0,0,0,18.108-14.323l15.64-134A16.325,16.325,0,0,0,390.268,182.942Z" transform="translate(-146.851 -158.371)"/><path class="d" d="M400.154,214.314l1.548-13.263a16.325,16.325,0,0,0-14.322-18.109L177.824,158.483a16.326,16.326,0,0,0-18.108,14.323l-1.549,13.264Z" transform="translate(-143.963 -158.371)"/><g transform="translate(46.608 57.69)"><path class="e" d="M185.483,255.479l26.563-46.8a8.58,8.58,0,0,1,8.458-4.288h0a8.582,8.582,0,0,1,7.529,9.517l-5.526,47.342.236.028a5.947,5.947,0,0,1,5.217,6.595h0a5.947,5.947,0,0,1-6.595,5.217l-.237-.028-1.007,8.622A6.42,6.42,0,0,1,213,287.315h0a6.42,6.42,0,0,1-5.633-7.122l1.005-8.622-19.123-2.232a5.957,5.957,0,0,1-5.226-6.606l.507-4.346A7.727,7.727,0,0,1,185.483,255.479Zm24.359,3.5,3.427-29.36a.188.188,0,0,0-.35-.114L197.224,257.2a.786.786,0,0,0,.592,1.169l11.154,1.3A.785.785,0,0,0,209.842,258.98Z" transform="translate(-183.983 -204.331)"/><path class="e" d="M278.879,266.38l26.564-46.8a8.58,8.58,0,0,1,8.458-4.288h0a8.581,8.581,0,0,1,7.528,9.518L315.9,272.15l.236.028a5.945,5.945,0,0,1,5.217,6.595h0a5.944,5.944,0,0,1-6.595,5.215l-.236-.028-1.007,8.622a6.421,6.421,0,0,1-7.122,5.633h0a6.422,6.422,0,0,1-5.633-7.122l1.007-8.622-19.123-2.232a5.956,5.956,0,0,1-5.226-6.606l.507-4.344A7.7,7.7,0,0,1,278.879,266.38Zm24.36,3.5,3.427-29.36a.188.188,0,0,0-.35-.114L290.62,268.1a.786.786,0,0,0,.592,1.167l11.155,1.3A.786.786,0,0,0,303.239,269.881Z" transform="translate(-160.146 -201.548)"/><path class="e" d="M237.656,226.944c1.544-13.228,9.394-19.973,22.151-18.484s18.841,9.861,17.3,23.089l-5.017,42.992c-1.545,13.229-9.4,19.974-22.151,18.486s-18.842-9.861-17.3-23.09Zm7.878,45.335c-.689,5.9,1.647,8.453,5.78,8.935s6.994-1.457,7.683-7.363l5.212-44.646c.689-5.9-1.647-8.453-5.782-8.935s-6.994,1.459-7.683,7.364Z" transform="translate(-171.625 -203.329)"/></g><g transform="translate(30.163 13.733)"><path class="f" d="M179.626,174.207a4.387,4.387,0,1,1-3.85-4.865A4.388,4.388,0,0,1,179.626,174.207Z" transform="translate(-170.881 -169.312)"/><path class="e" d="M196.372,176.163a4.387,4.387,0,1,1-3.849-4.867A4.388,4.388,0,0,1,196.372,176.163Z" transform="translate(-166.607 -168.813)"/><path class="g" d="M213.731,178.189a4.388,4.388,0,1,1-3.85-4.867A4.388,4.388,0,0,1,213.731,178.189Z" transform="translate(-162.177 -168.296)"/></g></g></g><g transform="translate(109.127 278.886)"><path class="h" d="M145.465,299.363a112.75,112.75,0,0,0-2.359,25.381c.422,11.488-.944,87-.944,87h9.223s13.13-59.142,13.62-63.813,7.1-51.376,7.1-51.376Z" transform="translate(-115.575 -203.198)"/><path class="d" d="M149.679,296.048s2.124,16.135,5.733,27.6,21.348,88.227,21.348,88.227h9.223s-1.7-59.142-2.336-63.813-5.307-51.376-5.307-51.376Z" transform="translate(-113.657 -203.327)"/><path class="d" d="M171.853,388.311v6.437h17.558a1.007,1.007,0,0,0,.556-1.846c-2.567-1.71-6.68-4.066-10.5-4.59Z" transform="translate(-107.997 -179.779)"/><path class="d" d="M142.537,388.311v6.437h17.557a1.007,1.007,0,0,0,.557-1.846c-2.568-1.71-6.68-4.066-10.5-4.59Z" transform="translate(-115.479 -179.779)"/><g transform="translate(36.155 7.43)"><path class="h" d="M172.365,238.336s6.039-9.169-.894-10.064c-5.325-.687-7.514.9-7.514.9s-6.129-.675-9.484,2.232c-2.3,1.993-10.736,17.445,2.907,23.037s10.736-8.723,10.736-8.723Z" transform="translate(-149.784 -228.1)"/><path class="i" d="M171.472,228.272c-5.325-.687-7.514.9-7.514.9s-6.129-.675-9.484,2.232c-2.3,1.993-10.736,17.445,2.907,23.037,6.413,2.628,9.168.857,10.289-1.756-12.945,3.64-14.348-11.96-12.213-16.4,2.168-4.511,7.373-2.429,7.373-2.429,2.036-5.124,8.67-4.568,11.4-4.17A3.742,3.742,0,0,0,171.472,228.272Z" transform="translate(-149.784 -228.1)"/><path class="j" d="M162.322,240.729s-1.789-1.79-3.131,0-.447,5.814,1.789,6.038c0,0-.67,5.815-5.144,5.592v4.7h10.512v-3.579s6.486-2.684,6.262-8.052a29.643,29.643,0,0,0-1.79-9.169S167.242,240.281,162.322,240.729Z" transform="translate(-148.24 -226.018)"/><path class="k" d="M163.07,251.747c1.041.433.859,1.09.905,2.075h1.513v-3.579s-2.548.81-6.279-1.317A16.513,16.513,0,0,0,163.07,251.747Z" transform="translate(-147.379 -222.784)"/></g><path class="j" d="M165.255,233.232s-5.449-2.17-6.085-.542c-.417,1.064.643,1.983,2.1,2.911l-1.283.211a.338.338,0,0,0-.163.592c.358.289,1.346.483,3.405.555Z" transform="translate(-111.258 -219.652)"/><g transform="translate(7.358 13.372)"><path class="l" d="M138.178,282.257l7.3,23.526-.13-1.187.13,1.187,2.465-34.259Z" transform="translate(-123.95 -222.958)"/><path class="g" d="M212.389,246.688c-10.389-7.7-38.766-13.855-38.766-13.855l-2.338,4.262s25.761,9.983,24.06,11.47c-1,.879-13.587,6.646-17.848,8.587a6.771,6.771,0,0,1-2.93.6l-13.043-.074a20.584,20.584,0,0,0-16.814,7.386c-6.618,7.615-17.867,25.251-17.867,25.251l18.949,27.868,2.1,3.078.018-.036-.018.259s.674.074,1.867.184c6.092.565,25.613,2.108,35.947-.083l.286-.065L185.5,275.8a177.2,177.2,0,0,0,27.193-26.316A1.909,1.909,0,0,0,212.389,246.688Zm-63.583,62.346-1.849-4.039-5.888-12.866,9.771-10.944L149.083,305.2Z" transform="translate(-126.843 -232.833)"/></g><path class="m" d="M143.1,290.322l1.849,4.039-.9,12.192-.018.037-2.1-3.078Z" transform="translate(-115.632 -204.788)"/><path class="n" d="M170.638,271.344c-1.755,1.274-1.31,12.581-1.743,19.651-.726,11.838-1.432,22.082-.911,28.686a52.663,52.663,0,0,0,7.266-.911l.286-.065-.49-45.717a177.2,177.2,0,0,0,27.193-26.316,1.909,1.909,0,0,0-.305-2.8A232.733,232.733,0,0,1,170.638,271.344Z" transform="translate(-109.031 -216.644)"/><path class="h" d="M178.984,346.112c-.459-3.37-3.019-28.624-4.408-42.427l-6.629.729s9.67,79.5,10.305,105.51h3.068S179.622,350.782,178.984,346.112Z" transform="translate(-108.994 -201.378)"/><path class="d" d="M148.47,245.624l-2-3.582a13.543,13.543,0,1,0-2.342,3.188Z" transform="translate(-120.981 -222.18)"/><g transform="translate(6.493 12.235)"><path class="f" d="M126.154,231.988h.526v1.887c0,.577.172.825.579.825.318,0,.54-.158.832-.52v-2.192h.521v3.087h-.432l-.044-.483h-.02a1.3,1.3,0,0,1-1.015.56c-.655,0-.946-.42-.946-1.206Z" transform="translate(-126.154 -231.911)"/><path class="f" d="M129.968,235.35v1.042h-.522V232h.433l.044.355h.019a1.6,1.6,0,0,1,.985-.432c.793,0,1.219.616,1.219,1.575,0,1.048-.629,1.664-1.334,1.664a1.428,1.428,0,0,1-.857-.356Zm.756-.621c.508,0,.882-.464.882-1.226,0-.679-.228-1.137-.812-1.137a1.3,1.3,0,0,0-.826.419v1.62A1.221,1.221,0,0,0,130.724,234.729Z" transform="translate(-125.314 -231.927)"/><path class="f" d="M132.747,234.391a1.387,1.387,0,0,0,.908.369c.407,0,.61-.216.61-.483,0-.316-.368-.457-.705-.584-.438-.159-.92-.369-.92-.889,0-.5.394-.877,1.061-.877a1.547,1.547,0,0,1,.959.349l-.247.33a1.149,1.149,0,0,0-.705-.272c-.388,0-.565.21-.565.444,0,.286.336.4.685.533.444.166.94.35.94.934,0,.5-.4.921-1.131.921a1.855,1.855,0,0,1-1.15-.427Z" transform="translate(-124.538 -231.927)"/><path class="f" d="M135.679,233.87a.4.4,0,1,1-.38.407A.384.384,0,0,1,135.679,233.87Z" transform="translate(-123.82 -231.431)"/><path class="f" d="M137.444,233.87a.4.4,0,1,1-.38.407A.384.384,0,0,1,137.444,233.87Z" transform="translate(-123.369 -231.431)"/></g></g><g transform="translate(48.996 381.273)"><g transform="translate(16.396)"><path class="e" d="M105.477,387.53s-2.843-2.656-.935-12.728,6.748-19.745,4.374-30.671-20.994-38.478-21.056-40.31-5.744,32.052,3.885,45.4,10.787,17.979,10.359,25,.1,12.673,1.155,14.3Z" transform="translate(-86.139 -303.749)"/><path class="o" d="M103.365,367.258c-1.12,4.492-1.795,15.758-.006,18.456.167.251.408.108.705-.357-.545-1.863-.9-5.126.128-10.569,1.908-10.072,6.748-19.745,4.374-30.671s-20.994-38.478-21.056-40.31c0,0,2.805,22.954,12.255,38.755C106.529,353.872,104.484,362.764,103.365,367.258Z" transform="translate(-85.789 -303.735)"/></g><g transform="translate(37.527 24.577)"><path class="e" d="M104.576,381.833s-5.47-13.657,3.8-25.481,24.1-27.007,24.39-33.022c0,0,3.811,28.558-8.256,36.641s-20.528,9.374-18.437,21.811Z" transform="translate(-102.973 -323.329)"/><path class="o" d="M117.328,354.229c-13.453,9.793-14.554,21.074-12.466,26.306a1.328,1.328,0,0,0,.875.788c-1.8-12,6.589-13.371,18.5-21.353,12.066-8.084,8.256-36.641,8.256-36.641S130.782,344.437,117.328,354.229Z" transform="translate(-102.702 -323.329)"/></g><g transform="translate(0 19.141)"><path class="e" d="M103.21,383.245a47.744,47.744,0,0,0,.821-15.039c-.934-7.807-9.089-12.2-16.708-20.445-3.921-4.243-5.081-26.679-2.65-28.763,0,0-13.454,16.3-11.379,28.241s24.022,19.7,26.053,25.463a32.016,32.016,0,0,1,1.864,10.61Z" transform="translate(-73.077 -318.998)"/><g transform="translate(5.42)"><path class="o" d="M79.023,325.353c-4.446,12.041.112,26.625,14.883,35.684,10.874,6.668,7.411,20.534,7.411,20.534l1.776-5.47a43.432,43.432,0,0,0-.164-7.956c-.934-7.807-9.089-12.2-16.708-20.445-3.782-4.092-4.993-25.1-2.895-28.46A72.108,72.108,0,0,0,79.023,325.353Z" transform="translate(-77.394 -318.936)"/><path class="o" d="M82.12,319.3c.153-.192.245-.3.245-.3A1.354,1.354,0,0,0,82.12,319.3Z" transform="translate(-76.188 -318.998)"/></g></g><g transform="translate(41.945 53.852)"><path class="e" d="M106.493,375.284s3.153-11.7,10.952-13.274,16.753-13.1,17.238-15.359C134.683,346.651,133.367,368.384,106.493,375.284Z" transform="translate(-106.493 -346.651)"/><path class="o" d="M116.382,365.877c-4.779,2.389-6.766,5.6-7.471,8.52,23.927-7.695,25.155-27.747,25.155-27.747a8.657,8.657,0,0,1-1.216,2.286C130.5,353.048,124.822,361.657,116.382,365.877Z" transform="translate(-105.876 -346.651)"/></g><path class="g" d="M128.231,366.03H87.442l4.844,30.464a4.759,4.759,0,0,0,4.7,4.012h21.7a4.758,4.758,0,0,0,4.7-4.012Z" transform="translate(-69.41 -287.853)"/><path class="p" d="M127.429,371.07l.8-5.041H87.442l.8,5.041Z" transform="translate(-69.41 -287.853)"/><path class="p" d="M114.005,366.03l-4.844,30.464a4.759,4.759,0,0,1-4.7,4.012h9.881a4.758,4.758,0,0,0,4.7-4.012l4.844-30.464Z" transform="translate(-65.066 -287.853)"/></g><g transform="translate(204.802 377.833)"><rect class="g" width="184.346" height="37.482" transform="translate(0 27.287)"/><rect class="n" width="184.346" height="9.098" transform="translate(0 27.287)"/><path class="q" d="M210.89,322.747h16.826l-4.51,9.1H206.372Z" transform="translate(-194.862 -295.46)"/><path class="q" d="M241.088,322.747h16.826l-4.51,9.1H236.578Z" transform="translate(-187.152 -295.46)"/><path class="q" d="M271.287,322.747h16.826l-4.51,9.1H266.778Z" transform="translate(-179.445 -295.46)"/><path class="q" d="M301.487,322.747H318.3l-4.51,9.1H296.977Z" transform="translate(-171.737 -295.46)"/><path class="q" d="M348.376,322.747V323l-4.392,8.847H327.177l4.51-9.1Z" transform="translate(-164.029 -295.46)"/><rect class="e" width="12.996" height="51.249" transform="translate(22.948 64.772)"/><rect class="o" width="2.952" height="51.249" transform="translate(32.991 64.772)"/><rect class="e" width="12.996" height="51.249" transform="translate(149.413 64.772)"/><rect class="o" width="3.842" height="51.249" transform="translate(158.567 64.772)"/><rect class="o" width="12.996" height="6.454" transform="translate(22.948 64.732)"/><rect class="o" width="12.996" height="6.454" transform="translate(149.413 64.732)"/><rect class="e" width="12.996" height="5.82" transform="translate(22.948 21.431)"/><rect class="o" width="2.952" height="5.82" transform="translate(32.991 21.431)"/><rect class="e" width="12.996" height="5.82" transform="translate(149.413 21.431)"/><rect class="o" width="3.842" height="5.82" transform="translate(158.567 21.431)"/><rect class="o" width="12.996" height="0.733" transform="translate(22.948 26.522)"/><rect class="o" width="12.996" height="0.733" transform="translate(149.413 26.522)"/><g transform="translate(0 27.287)"><path class="d" d="M230.056,322.747l-18.591,37.482H197.2v-5.171l16.029-32.311Z" transform="translate(-197.202 -322.747)"/><path class="d" d="M243.951,322.747,225.36,360.229h16.825l18.591-37.482Z" transform="translate(-190.016 -322.747)"/><path class="d" d="M290.976,322.747l-18.591,37.482H255.559l18.591-37.482Z" transform="translate(-182.308 -322.747)"/><path class="d" d="M321.166,322.747l-18.582,37.482H285.759l18.591-37.482Z" transform="translate(-174.6 -322.747)"/><path class="d" d="M334.549,322.747l-18.591,37.482h16.816L351.239,323Z" transform="translate(-166.893 -322.747)"/></g><g transform="translate(11.51 27.287)"><path class="h" d="M227.716,322.747l-4.51,9.1H206.372l4.519-9.1Z" transform="translate(-206.372 -322.747)"/><path class="h" d="M257.913,322.747l-4.51,9.1H236.578l4.51-9.1Z" transform="translate(-198.662 -322.747)"/><path class="h" d="M288.113,322.747l-4.51,9.1H266.778l4.51-9.1Z" transform="translate(-190.954 -322.747)"/><path class="h" d="M318.3,322.747l-4.51,9.1H296.977l4.51-9.1Z" transform="translate(-183.247 -322.747)"/><path class="h" d="M348.376,323l-4.392,8.847H327.177l4.51-9.1Z" transform="translate(-175.539 -322.747)"/></g><rect class="r" width="176.032" height="18.748" transform="translate(5.137 43.503)"/><circle class="g" cx="11.587" cy="11.587" r="11.587" transform="matrix(0.987, -0.161, 0.161, 0.987, 15.809, 3.723)"/><path class="d" d="M226.709,312.67a5.251,5.251,0,1,0-5.252,5.251A5.251,5.251,0,0,0,226.709,312.67Z" transform="translate(-192.352 -299.372)"/><circle class="g" cx="11.587" cy="11.587" r="11.587" transform="matrix(0.987, -0.161, 0.161, 0.987, 142.537, 3.723)"/><path class="d" d="M327.669,312.67a5.251,5.251,0,1,0-5.251,5.251A5.251,5.251,0,0,0,327.669,312.67Z" transform="translate(-166.584 -299.372)"/></g><g transform="translate(395.586 424.168)"><path class="g" d="M411.643,403.635H352.932l8.98-21.769v-.013l3.613-8.783.994-2.409,1.622-3.919.333-.8,3.611-8.784.664-1.6,6.4-15.541a3.4,3.4,0,0,1,6.277,0l6.4,15.541.664,1.6,3.611,8.784.333.8,1.621,3.919,1,2.409,3.613,8.783v.013Z" transform="translate(-348.241 -337.922)"/><path class="n" d="M356.78,382.838l-3.847,9.333h58.714l-3.847-9.333Z" transform="translate(-348.24 -326.458)"/><rect class="e" width="67.243" height="9.506" transform="translate(0 60.133)"/><rect class="o" width="14.528" height="9.506" transform="translate(52.715 60.133)"/><g transform="translate(13.672 0.006)"><path class="n" d="M404.207,398.05h-8.3l-6.672-16.18v-.011l-3.611-8.784-1-2.407L383,366.747l-.331-.8-3.611-8.784-.664-1.6-5.381-13.084,1.008-2.456a3.4,3.4,0,0,1,6.277,0l6.4,15.541.664,1.6,3.611,8.784.333.8,1.621,3.92,1,2.407,3.613,8.784v.011Z" transform="translate(-356.787 -337.927)"/><g transform="translate(0 19.233)"><path class="d" d="M392.942,362.033H365.313l3.612-8.784H389.33Z" transform="translate(-358.752 -353.249)"/><path class="d" d="M400.837,374.707v.012h-40.75v-.012l3.612-8.784h33.526Z" transform="translate(-360.086 -350.014)"/><path class="h" d="M389.747,362.033h-8.3l-3.612-8.784h8.3Z" transform="translate(-355.558 -353.249)"/><path class="h" d="M394.974,374.707v.012h-8.3v-.012l-3.612-8.784h8.3Z" transform="translate(-354.224 -350.014)"/></g></g></g><g transform="translate(10.242 147.104)"><path class="c" d="M116.707,229.242a8.826,8.826,0,0,0,8.793-7.531,17.537,17.537,0,0,0-17.36-19.905c-.4,0-.79.018-1.181.044A18.611,18.611,0,0,0,69.8,203.423c0,.456.021.906.054,1.354a18.613,18.613,0,0,0-27.626,14.907c-.005.074-.01.148-.014.222a8.87,8.87,0,0,0,8.889,9.335Z" transform="translate(-42.203 -99.935)"/><path class="c" d="M450.405,239.375c13.855,0,14.623-20.852.784-21.525-.379-.018-.759-.028-1.141-.028a23.118,23.118,0,0,0-7.081,1.108,23.774,23.774,0,0,0-47.023.751A22.007,22.007,0,0,0,381,218.229c-12.115,3.12-9.572,21.146,2.938,21.146Z" transform="translate(42.257 -96.306)"/><path class="c" d="M317.844,157.523c13.851,0,14.618-20.846.783-21.518-.378-.018-.758-.028-1.141-.028a23.108,23.108,0,0,0-7.078,1.108,23.766,23.766,0,0,0-47.008.749,22,22,0,0,0-14.937-1.451c-12.112,3.119-9.569,21.139,2.937,21.139Z" transform="translate(8.43 -117.193)"/><circle class="g" cx="33.207" cy="33.207" r="33.207" transform="translate(72.538 12.446)"/><path class="p" d="M130.421,127.113a33.2,33.2,0,0,1-18.208,60.973c-.092,0-.181-.006-.272-.008a33.2,33.2,0,1,0,18.481-60.965Z" transform="translate(-24.404 -114.661)"/></g></g></g></svg>