<svg xmlns="http://www.w3.org/2000/svg" width="16.573" height="17.424" viewBox="0 0 16.573 17.424"><defs><style>.a{fill:#393939;fill-rule:evenodd;}</style></defs><path class="a" d="M20.387,43.3a.648.648,0,0,0-.278.063c-.1.04-.2.087-.3.127l-.143.059-.185.073v0a17.461,17.461,0,0,1-6.068,1.333c-.071,0-.143,0-.214,0-3.068,0-5.572-1.422-8.1-2.824a.574.574,0,0,0-.267-.071.464.464,0,0,0-.315.122.431.431,0,0,0-.135.314.5.5,0,0,0,.2.385c2.371,2.059,4.97,3.972,8.465,3.973.068,0,.138,0,.208,0a13.746,13.746,0,0,0,6.689-2.027l.011-.008a6.745,6.745,0,0,0,.752-.519.591.591,0,0,0,.252-.465A.556.556,0,0,0,20.387,43.3Z" transform="translate(-4.384 -29.436)"/><path class="a" d="M20,11.467c-.537.04-1.157.081-1.776.163a9.145,9.145,0,0,0-2.683.662,3.968,3.968,0,0,0-2.56,3.881,3.371,3.371,0,0,0,3.551,3.676,6.817,6.817,0,0,0,1.692-.206,5.156,5.156,0,0,0,2.231-1.529,6.443,6.443,0,0,0,1.362,1.57.577.577,0,0,0,.577-.041c.5-.413,1.364-1.157,1.817-1.569a.446.446,0,0,0,.041-.618,3.091,3.091,0,0,1-.908-2.19V11.548c0-1.569.124-3.015-1.032-4.087a5.551,5.551,0,0,0-3.592-1.2h-.5c-2.1.122-4.335,1.031-4.831,3.633a.386.386,0,0,0,.331.495l2.312.289a.525.525,0,0,0,.413-.453A1.887,1.887,0,0,1,18.22,8.781h.166a1.624,1.624,0,0,1,1.321.62A3.1,3.1,0,0,1,20,11.136v.331Zm-.454,4.913a2,2,0,0,1-1.322,1.075c-.082,0-.206.041-.33.041-.908,0-1.445-.7-1.445-1.735a2.172,2.172,0,0,1,1.775-2.23A8.137,8.137,0,0,1,20,13.365v.5A4.384,4.384,0,0,1,19.543,16.38Z" transform="translate(-9.639 -6.264)"/></svg>