<svg version="1.2" baseProfile="tiny-ps" xmlns="http://www.w3.org/2000/svg" viewBox="0 0 1676 531" width="1676" height="531">
	<title>banner-bg-01-svg</title>
	<defs>
		<linearGradient id="grd1" gradientUnits="userSpaceOnUse"  x1="60.166" y1="291.62" x2="100.967" y2="291.62">
			<stop offset="0" stop-color="#ff1847"  />
			<stop offset="1" stop-color="#f53100"  />
		</linearGradient>
		<linearGradient id="grd2" gradientUnits="userSpaceOnUse"  x1="60.166" y1="126.555" x2="100.967" y2="126.555">
			<stop offset="0" stop-color="#ff1847"  />
			<stop offset="1" stop-color="#f53100"  />
		</linearGradient>
		<linearGradient id="grd3" gradientUnits="userSpaceOnUse"  x1="968.193" y1="355.62" x2="1008.994" y2="355.62">
			<stop offset="0" stop-color="#ff1847"  />
			<stop offset="1" stop-color="#f53100"  />
		</linearGradient>
		<linearGradient id="grd4" gradientUnits="userSpaceOnUse"  x1="968.193" y1="190.555" x2="1008.994" y2="190.555">
			<stop offset="0" stop-color="#ff1847"  />
			<stop offset="1" stop-color="#f53100"  />
		</linearGradient>
	</defs>
	<style>
		tspan { white-space:pre }
		.shp0 { fill: #ffffff } 
		.shp1 { fill: #34cbd7 } 
		.shp2 { fill: #dfdfdf } 
		.shp3 { fill: url(#grd1) } 
		.shp4 { fill: #06c1cf } 
		.shp5 { fill: #ee3e38 } 
		.shp6 { fill: url(#grd2) } 
		.shp7 { fill: url(#grd3) } 
		.shp8 { fill: url(#grd4) } 
		.shp9 { fill: #1cc6d3 } 
		.shp10 { opacity: 0.71;fill: #1cc6d3 } 
		.shp11 { opacity: 0.212;fill: #ffffff } 
		.shp12 { fill: #d3dff5 } 
		.shp13 { fill: #fefefe } 
		.shp14 { fill: #f86e51 } 
		.txt15 { font-size: 18px;fill: #ffffff;font-weight: 250;font-family: "Manrope-ExtraLight", "Manrope" } 
		.shp16 { fill: #1dc6d3 } 
		.shp17 { fill: #f2c85b } 
		.txt18 { font-size: 17px;fill: #ffffff;font-weight: 250;font-family: "Manrope-ExtraLight", "Manrope" } 
		.shp19 { opacity: 0.741;fill: #eff7fc } 
		.shp20 { fill: #49d9ee } 
		.shp21 { opacity: 0.114;fill: #012426 } 
	</style>
	<g id="Layer">
		<g id="Layer" style="opacity: 0.42">
			<g id="Layer" style="opacity: 0.2">
				<g id="Layer">
					<path id="Layer" class="shp0" d="M66.91 175.17L335.63 175.17C338.18 175.17 340.7 175.67 343.06 176.65C345.41 177.62 347.55 179.05 349.35 180.86C351.16 182.66 352.59 184.8 353.56 187.15C354.54 189.51 355.04 192.03 355.04 194.58L355.04 223.69C355.04 226.24 354.54 228.77 353.56 231.12C352.59 233.48 351.16 235.62 349.35 237.42C347.55 239.22 345.41 240.65 343.06 241.63C340.7 242.6 338.18 243.1 335.63 243.1L66.91 243.1C64.36 243.1 61.84 242.6 59.48 241.63C57.13 240.65 54.99 239.22 53.18 237.42C51.38 235.62 49.95 233.48 48.98 231.12C48 228.77 47.5 226.24 47.5 223.69L47.5 194.58C47.5 192.03 48 189.51 48.98 187.15C49.95 184.8 51.38 182.66 53.18 180.86C54.99 179.05 57.13 177.62 59.48 176.65C61.84 175.67 64.36 175.17 66.91 175.17L66.91 175.17Z" />
				</g>
				<path id="Layer" class="shp1" d="M80.57 188.69C88.82 188.69 96.26 193.66 99.41 201.28C102.57 208.9 100.83 217.68 94.99 223.51C89.16 229.35 80.38 231.09 72.76 227.94C65.14 224.78 60.17 217.34 60.17 209.09C60.17 206.41 60.69 203.76 61.72 201.28C62.74 198.81 64.25 196.56 66.14 194.66C68.04 192.77 70.28 191.27 72.76 190.24C75.23 189.22 77.89 188.69 80.57 188.69L80.57 188.69Z" />
				<g id="Layer">
					<path id="Layer" class="shp0" d="M90.78 215.1C90.38 214.76 90.02 214.38 89.7 213.96C89.38 213.54 89.11 213.09 88.88 212.61C88.66 212.14 88.49 211.63 88.38 211.12C88.27 210.61 88.21 210.08 88.21 209.55L88.21 206.53C88.21 205.63 88.04 204.74 87.73 203.89C87.41 203.04 86.95 202.26 86.35 201.58C85.76 200.9 85.05 200.33 84.26 199.89C83.47 199.46 82.6 199.17 81.71 199.04L81.71 197.87C81.7 197.59 81.58 197.33 81.38 197.13C81.18 196.93 80.91 196.82 80.63 196.82C80.34 196.82 80.07 196.93 79.87 197.13C79.67 197.33 79.55 197.59 79.54 197.87L79.54 199.04C78.65 199.17 77.79 199.46 76.99 199.89C76.2 200.33 75.49 200.9 74.9 201.58C74.31 202.26 73.84 203.04 73.53 203.89C73.21 204.74 73.05 205.63 73.04 206.53L73.04 209.55C73.04 210.08 72.99 210.61 72.87 211.12C72.76 211.64 72.59 212.14 72.37 212.62C72.14 213.1 71.87 213.55 71.55 213.97C71.23 214.39 70.86 214.77 70.46 215.11C70.16 215.36 69.95 215.7 69.86 216.07C69.76 216.45 69.78 216.84 69.91 217.21C70.05 217.57 70.29 217.88 70.61 218.1C70.93 218.32 71.3 218.44 71.69 218.44L89.56 218.44C89.95 218.44 90.33 218.32 90.65 218.1C90.97 217.88 91.21 217.56 91.34 217.2C91.48 216.83 91.49 216.44 91.39 216.06C91.29 215.69 91.08 215.35 90.78 215.1L90.78 215.1Z" />
					<path id="Layer" class="shp0" d="M80.63 222.77C81.1 222.77 81.56 222.69 81.99 222.54C82.43 222.38 82.84 222.15 83.2 221.86C83.56 221.56 83.86 221.21 84.1 220.81C84.34 220.42 84.52 219.98 84.61 219.53L76.65 219.53C76.75 219.98 76.92 220.42 77.16 220.81C77.4 221.21 77.71 221.56 78.06 221.86C78.42 222.15 78.83 222.38 79.27 222.54C79.71 222.69 80.17 222.77 80.63 222.77Z" />
				</g>
				<path id="Layer" class="shp2" d="M120.15 194.21L329.59 194.21C329.99 194.21 330.39 194.29 330.76 194.44C331.13 194.59 331.47 194.82 331.75 195.1C332.04 195.39 332.26 195.72 332.41 196.09C332.57 196.46 332.65 196.86 332.65 197.26L332.65 199.29C332.65 199.7 332.57 200.09 332.41 200.46C332.26 200.83 332.04 201.17 331.75 201.45C331.47 201.74 331.13 201.96 330.76 202.11C330.39 202.27 329.99 202.35 329.59 202.35L120.15 202.35C119.75 202.35 119.35 202.27 118.98 202.11C118.61 201.96 118.27 201.74 117.99 201.45C117.7 201.17 117.48 200.83 117.33 200.46C117.17 200.09 117.09 199.7 117.09 199.29L117.09 197.26C117.09 196.86 117.17 196.46 117.33 196.09C117.48 195.72 117.7 195.39 117.99 195.1C118.27 194.82 118.61 194.59 118.98 194.44C119.35 194.29 119.75 194.21 120.15 194.21L120.15 194.21Z" />
				<path id="Layer" class="shp2" d="M120.18 214.92L263.52 214.92C263.93 214.92 264.33 215 264.7 215.15C265.08 215.31 265.42 215.54 265.71 215.82C265.99 216.11 266.22 216.45 266.38 216.83C266.53 217.2 266.61 217.6 266.61 218.01L266.61 220.07C266.61 220.47 266.53 220.88 266.38 221.25C266.22 221.63 265.99 221.97 265.71 222.25C265.42 222.54 265.08 222.77 264.7 222.92C264.33 223.08 263.93 223.16 263.52 223.16L120.18 223.16C119.78 223.16 119.38 223.08 119 222.92C118.63 222.77 118.29 222.54 118 222.25C117.71 221.97 117.48 221.63 117.33 221.25C117.17 220.88 117.09 220.47 117.09 220.07L117.09 218.01C117.09 217.6 117.17 217.2 117.33 216.83C117.48 216.45 117.71 216.11 118 215.82C118.29 215.54 118.63 215.31 119 215.15C119.38 215 119.78 214.92 120.18 214.92L120.18 214.92Z" />
			</g>
			<g id="Layer" style="opacity: 0.302">
				<g id="Layer">
					<path id="Layer" class="shp0" d="M66.91 257.7L335.63 257.7C338.18 257.7 340.7 258.2 343.06 259.18C345.41 260.15 347.55 261.58 349.35 263.39C351.16 265.19 352.59 267.33 353.56 269.68C354.54 272.04 355.04 274.56 355.04 277.11L355.04 306.23C355.04 308.77 354.54 311.3 353.56 313.65C352.59 316.01 351.16 318.15 349.35 319.95C347.55 321.75 345.41 323.18 343.06 324.16C340.7 325.13 338.18 325.64 335.63 325.64L66.91 325.64C64.36 325.64 61.84 325.13 59.48 324.16C57.13 323.18 54.99 321.75 53.18 319.95C51.38 318.15 49.95 316.01 48.98 313.65C48 311.3 47.5 308.77 47.5 306.23L47.5 277.11C47.5 274.56 48 272.04 48.98 269.68C49.95 267.33 51.38 265.19 53.18 263.39C54.99 261.58 57.13 260.15 59.48 259.18C61.84 258.2 64.36 257.7 66.91 257.7L66.91 257.7Z" />
				</g>
				<path id="Layer" class="shp3" d="M80.57 271.22C88.82 271.22 96.26 276.19 99.41 283.81C102.57 291.44 100.83 300.21 94.99 306.04C89.16 311.88 80.38 313.62 72.76 310.47C65.14 307.31 60.17 299.87 60.17 291.62C60.17 288.94 60.69 286.29 61.72 283.81C62.74 281.34 64.25 279.09 66.14 277.2C68.04 275.3 70.28 273.8 72.76 272.77C75.23 271.75 77.89 271.22 80.57 271.22L80.57 271.22Z" />
				<g id="Layer">
					<path id="Layer" class="shp0" d="M90.78 297.63C90.38 297.29 90.02 296.91 89.7 296.49C89.38 296.07 89.11 295.62 88.88 295.14C88.66 294.67 88.49 294.17 88.38 293.65C88.27 293.14 88.21 292.61 88.21 292.09L88.21 289.07C88.21 288.16 88.04 287.27 87.73 286.42C87.41 285.58 86.95 284.79 86.35 284.11C85.76 283.43 85.05 282.86 84.26 282.43C83.47 281.99 82.6 281.71 81.71 281.58L81.71 280.41C81.7 280.13 81.58 279.86 81.38 279.66C81.18 279.47 80.91 279.36 80.63 279.36C80.34 279.36 80.07 279.47 79.87 279.66C79.67 279.86 79.55 280.13 79.54 280.41L79.54 281.58C78.65 281.71 77.79 281.99 76.99 282.43C76.2 282.86 75.49 283.43 74.9 284.11C74.31 284.79 73.84 285.58 73.53 286.42C73.21 287.27 73.05 288.16 73.04 289.07L73.04 292.09C73.04 292.61 72.99 293.14 72.87 293.65C72.76 294.17 72.59 294.67 72.37 295.15C72.14 295.63 71.87 296.08 71.55 296.5C71.23 296.92 70.86 297.3 70.46 297.64C70.16 297.89 69.95 298.23 69.86 298.6C69.76 298.98 69.78 299.37 69.91 299.74C70.05 300.1 70.29 300.41 70.61 300.64C70.93 300.86 71.3 300.98 71.69 300.98L89.56 300.98C89.95 300.98 90.33 300.86 90.65 300.63C90.97 300.41 91.21 300.1 91.34 299.73C91.48 299.37 91.49 298.97 91.39 298.59C91.29 298.22 91.08 297.88 90.78 297.63L90.78 297.63Z" />
					<path id="Layer" class="shp0" d="M80.63 305.31C81.1 305.31 81.56 305.23 81.99 305.07C82.43 304.91 82.84 304.68 83.2 304.39C83.56 304.1 83.86 303.74 84.1 303.35C84.34 302.95 84.52 302.51 84.61 302.06L76.65 302.06C76.75 302.51 76.92 302.95 77.16 303.35C77.4 303.74 77.71 304.1 78.06 304.39C78.42 304.68 78.83 304.91 79.27 305.07C79.71 305.23 80.17 305.31 80.63 305.31Z" />
				</g>
				<path id="Layer" class="shp2" d="M120.15 276.74L329.59 276.74C329.99 276.74 330.39 276.82 330.76 276.97C331.13 277.13 331.47 277.35 331.75 277.63C332.04 277.92 332.26 278.25 332.41 278.62C332.57 278.99 332.65 279.39 332.65 279.79L332.65 281.83C332.65 282.23 332.57 282.62 332.41 282.99C332.26 283.37 332.04 283.7 331.75 283.99C331.47 284.27 331.13 284.49 330.76 284.65C330.39 284.8 329.99 284.88 329.59 284.88L120.15 284.88C119.75 284.88 119.35 284.8 118.98 284.65C118.61 284.49 118.27 284.27 117.99 283.99C117.7 283.7 117.48 283.37 117.33 282.99C117.17 282.62 117.09 282.23 117.09 281.83L117.09 279.79C117.09 279.39 117.17 278.99 117.33 278.62C117.48 278.25 117.7 277.92 117.99 277.63C118.27 277.35 118.61 277.13 118.98 276.97C119.35 276.82 119.75 276.74 120.15 276.74L120.15 276.74Z" />
				<path id="Layer" class="shp2" d="M120.18 297.45L263.52 297.45C263.93 297.45 264.33 297.53 264.7 297.68C265.08 297.84 265.42 298.07 265.71 298.35C265.99 298.64 266.22 298.98 266.38 299.36C266.53 299.73 266.61 300.13 266.61 300.54L266.61 302.6C266.61 303.01 266.53 303.41 266.38 303.78C266.22 304.16 265.99 304.5 265.71 304.79C265.42 305.07 265.08 305.3 264.7 305.46C264.33 305.61 263.93 305.69 263.52 305.69L120.18 305.69C119.78 305.69 119.38 305.61 119 305.46C118.63 305.3 118.29 305.07 118 304.79C117.71 304.5 117.48 304.16 117.33 303.78C117.17 303.41 117.09 303.01 117.09 302.6L117.09 300.54C117.09 300.13 117.17 299.73 117.33 299.36C117.48 298.98 117.71 298.64 118 298.35C118.29 298.07 118.63 297.84 119 297.68C119.38 297.53 119.78 297.45 120.18 297.45L120.18 297.45Z" />
			</g>
			<g id="Layer" style="opacity: 0.902">
				<g id="Layer">
					<path id="Layer" class="shp0" d="M390.47 92.64L659.19 92.64C661.74 92.64 664.26 93.14 666.62 94.11C668.97 95.09 671.11 96.52 672.91 98.32C674.72 100.12 676.15 102.26 677.12 104.62C678.1 106.97 678.6 109.5 678.6 112.05L678.6 141.16C678.6 143.71 678.1 146.23 677.12 148.59C676.15 150.94 674.72 153.08 672.91 154.89C671.11 156.69 668.97 158.12 666.62 159.09C664.26 160.07 661.74 160.57 659.19 160.57L390.47 160.57C387.92 160.57 385.4 160.07 383.04 159.09C380.69 158.12 378.55 156.69 376.75 154.89C374.94 153.08 373.51 150.94 372.54 148.59C371.56 146.23 371.06 143.71 371.06 141.16L371.06 112.05C371.06 109.5 371.56 106.97 372.54 104.62C373.51 102.26 374.94 100.12 376.75 98.32C378.55 96.52 380.69 95.09 383.04 94.11C385.4 93.14 387.92 92.64 390.47 92.64L390.47 92.64Z" />
				</g>
				<path id="Layer" class="shp4" d="M404.13 106.15C412.38 106.15 419.82 111.13 422.97 118.75C426.13 126.37 424.39 135.15 418.55 140.98C412.72 146.81 403.94 148.56 396.32 145.4C388.7 142.24 383.73 134.81 383.73 126.55C383.73 123.88 384.25 121.22 385.28 118.75C386.31 116.27 387.81 114.02 389.7 112.13C391.6 110.24 393.85 108.73 396.32 107.71C398.8 106.68 401.45 106.15 404.13 106.15L404.13 106.15Z" />
				<g id="Layer">
					<path id="Layer" class="shp0" d="M414.35 132.57C413.94 132.23 413.58 131.85 413.26 131.43C412.94 131.01 412.67 130.56 412.44 130.08C412.22 129.6 412.05 129.1 411.94 128.59C411.83 128.07 411.77 127.55 411.77 127.02L411.77 124C411.77 123.1 411.61 122.2 411.29 121.36C410.97 120.51 410.51 119.73 409.91 119.05C409.32 118.36 408.61 117.79 407.82 117.36C407.03 116.93 406.16 116.64 405.27 116.51L405.27 115.34C405.26 115.06 405.14 114.79 404.94 114.6C404.74 114.4 404.47 114.29 404.19 114.29C403.91 114.29 403.64 114.4 403.43 114.6C403.23 114.79 403.11 115.06 403.11 115.34L403.11 116.51C402.21 116.64 401.35 116.93 400.55 117.36C399.76 117.79 399.05 118.36 398.46 119.05C397.87 119.73 397.4 120.51 397.09 121.36C396.77 122.2 396.61 123.1 396.61 124L396.61 127.02C396.61 127.55 396.55 128.07 396.43 128.59C396.32 129.1 396.15 129.61 395.93 130.08C395.71 130.56 395.43 131.02 395.11 131.44C394.79 131.85 394.42 132.24 394.02 132.58C393.73 132.83 393.52 133.16 393.42 133.54C393.32 133.91 393.34 134.31 393.47 134.67C393.61 135.04 393.85 135.35 394.17 135.57C394.49 135.79 394.86 135.91 395.25 135.91L413.12 135.91C413.51 135.91 413.89 135.79 414.21 135.57C414.53 135.35 414.77 135.03 414.9 134.67C415.04 134.3 415.06 133.9 414.96 133.53C414.86 133.15 414.64 132.82 414.35 132.57L414.35 132.57Z" />
					<path id="Layer" class="shp0" d="M404.19 140.24C404.66 140.24 405.12 140.16 405.55 140C405.99 139.85 406.4 139.62 406.76 139.32C407.12 139.03 407.43 138.68 407.67 138.28C407.91 137.88 408.08 137.45 408.17 136.99L400.22 136.99C400.31 137.45 400.48 137.88 400.72 138.28C400.96 138.68 401.27 139.03 401.63 139.32C401.99 139.62 402.39 139.85 402.83 140C403.27 140.16 403.73 140.24 404.19 140.24Z" />
				</g>
				<path id="Layer" class="shp2" d="M443.71 111.67L653.16 111.67C653.56 111.67 653.95 111.75 654.32 111.91C654.69 112.06 655.03 112.29 655.31 112.57C655.6 112.85 655.82 113.19 655.97 113.56C656.13 113.93 656.21 114.33 656.21 114.73L656.21 116.76C656.21 117.16 656.13 117.56 655.97 117.93C655.82 118.3 655.6 118.64 655.31 118.92C655.03 119.2 654.69 119.43 654.32 119.58C653.95 119.74 653.56 119.81 653.16 119.81L443.71 119.81C443.31 119.81 442.91 119.74 442.54 119.58C442.17 119.43 441.83 119.2 441.55 118.92C441.27 118.64 441.04 118.3 440.89 117.93C440.73 117.56 440.66 117.16 440.66 116.76L440.66 114.73C440.66 114.33 440.73 113.93 440.89 113.56C441.04 113.19 441.27 112.85 441.55 112.57C441.83 112.29 442.17 112.06 442.54 111.91C442.91 111.75 443.31 111.67 443.71 111.67L443.71 111.67Z" />
				<path id="Layer" class="shp2" d="M443.75 132.38L587.08 132.38C587.49 132.38 587.89 132.46 588.26 132.62C588.64 132.77 588.98 133 589.27 133.29C589.55 133.58 589.78 133.92 589.94 134.29C590.09 134.67 590.17 135.07 590.17 135.47L590.17 137.54C590.17 137.94 590.09 138.34 589.94 138.72C589.78 139.09 589.55 139.43 589.27 139.72C588.98 140.01 588.64 140.24 588.26 140.39C587.89 140.55 587.49 140.63 587.08 140.63L443.75 140.63C443.34 140.63 442.94 140.55 442.56 140.39C442.19 140.24 441.85 140.01 441.56 139.72C441.27 139.43 441.05 139.09 440.89 138.72C440.73 138.34 440.66 137.94 440.66 137.54L440.66 135.47C440.66 135.07 440.73 134.67 440.89 134.29C441.05 133.92 441.27 133.58 441.56 133.29C441.85 133 442.19 132.77 442.56 132.62C442.94 132.46 443.34 132.38 443.75 132.38L443.75 132.38Z" />
			</g>
			<g id="Layer" style="opacity: 0.2">
				<g id="Layer">
					<path id="Layer" class="shp0" d="M391.4 175.17L660.12 175.17C662.66 175.17 665.19 175.67 667.54 176.65C669.9 177.62 672.04 179.05 673.84 180.86C675.64 182.66 677.07 184.8 678.05 187.15C679.02 189.51 679.53 192.03 679.53 194.58L679.53 223.69C679.53 226.24 679.02 228.77 678.05 231.12C677.07 233.48 675.64 235.62 673.84 237.42C672.04 239.22 669.9 240.65 667.54 241.63C665.19 242.6 662.66 243.1 660.12 243.1L391.4 243.1C388.85 243.1 386.32 242.6 383.97 241.63C381.61 240.65 379.47 239.22 377.67 237.42C375.87 235.62 374.44 233.48 373.46 231.12C372.49 228.77 371.99 226.24 371.99 223.69L371.99 194.58C371.99 192.03 372.49 189.51 373.46 187.15C374.44 184.8 375.87 182.66 377.67 180.86C379.47 179.05 381.61 177.62 383.97 176.65C386.32 175.67 388.85 175.17 391.4 175.17L391.4 175.17Z" />
				</g>
				<path id="Layer" class="shp5" d="M405.05 188.69C413.31 188.69 420.74 193.66 423.9 201.28C427.06 208.9 425.31 217.68 419.48 223.51C413.64 229.35 404.87 231.09 397.25 227.94C389.62 224.78 384.65 217.34 384.65 209.09C384.65 206.41 385.18 203.76 386.21 201.28C387.23 198.81 388.73 196.56 390.63 194.66C392.52 192.77 394.77 191.27 397.25 190.24C399.72 189.22 402.38 188.69 405.05 188.69L405.05 188.69Z" />
				<g id="Layer">
					<path id="Layer" class="shp0" d="M415.27 215.1C414.87 214.76 414.51 214.38 414.19 213.96C413.87 213.54 413.59 213.09 413.37 212.61C413.15 212.14 412.98 211.63 412.87 211.12C412.75 210.61 412.7 210.08 412.7 209.55L412.7 206.53C412.7 205.63 412.53 204.74 412.22 203.89C411.9 203.04 411.43 202.26 410.84 201.58C410.25 200.9 409.54 200.33 408.75 199.89C407.95 199.46 407.09 199.17 406.2 199.04L406.2 197.87C406.19 197.59 406.07 197.33 405.87 197.13C405.67 196.93 405.4 196.82 405.11 196.82C404.83 196.82 404.56 196.93 404.36 197.13C404.16 197.33 404.04 197.59 404.03 197.87L404.03 199.04C403.14 199.17 402.27 199.46 401.48 199.89C400.69 200.33 399.98 200.9 399.39 201.58C398.8 202.26 398.33 203.04 398.01 203.89C397.7 204.74 397.53 205.63 397.53 206.53L397.53 209.55C397.53 210.08 397.47 210.61 397.36 211.12C397.25 211.64 397.08 212.14 396.85 212.62C396.63 213.1 396.36 213.55 396.04 213.97C395.72 214.39 395.35 214.77 394.95 215.11C394.65 215.36 394.44 215.7 394.35 216.07C394.25 216.45 394.27 216.84 394.4 217.21C394.54 217.57 394.78 217.88 395.1 218.1C395.41 218.32 395.79 218.44 396.18 218.44L414.05 218.44C414.44 218.44 414.82 218.32 415.14 218.1C415.46 217.88 415.7 217.56 415.83 217.2C415.96 216.83 415.98 216.44 415.88 216.06C415.78 215.69 415.57 215.35 415.27 215.1L415.27 215.1Z" />
					<path id="Layer" class="shp0" d="M405.12 222.77C405.58 222.77 406.04 222.69 406.48 222.54C406.92 222.38 407.33 222.15 407.69 221.86C408.05 221.56 408.35 221.21 408.59 220.81C408.83 220.42 409 219.98 409.1 219.53L401.14 219.53C401.24 219.98 401.41 220.42 401.65 220.81C401.89 221.21 402.19 221.56 402.55 221.86C402.91 222.15 403.32 222.38 403.76 222.54C404.19 222.69 404.65 222.77 405.12 222.77Z" />
				</g>
				<path id="Layer" class="shp2" d="M444.63 194.21L654.08 194.21C654.48 194.21 654.88 194.29 655.25 194.44C655.62 194.59 655.96 194.82 656.24 195.1C656.52 195.39 656.75 195.72 656.9 196.09C657.06 196.46 657.13 196.86 657.13 197.26L657.13 199.29C657.13 199.7 657.06 200.09 656.9 200.46C656.75 200.83 656.52 201.17 656.24 201.45C655.96 201.74 655.62 201.96 655.25 202.11C654.88 202.27 654.48 202.35 654.08 202.35L444.63 202.35C444.23 202.35 443.84 202.27 443.47 202.11C443.1 201.96 442.76 201.74 442.48 201.45C442.19 201.17 441.97 200.83 441.81 200.46C441.66 200.09 441.58 199.7 441.58 199.29L441.58 197.26C441.58 196.86 441.66 196.46 441.81 196.09C441.97 195.72 442.19 195.39 442.48 195.1C442.76 194.82 443.1 194.59 443.47 194.44C443.84 194.29 444.23 194.21 444.63 194.21L444.63 194.21Z" />
				<path id="Layer" class="shp2" d="M444.67 214.92L588.01 214.92C588.41 214.92 588.82 215 589.19 215.15C589.57 215.31 589.91 215.54 590.19 215.82C590.48 216.11 590.71 216.45 590.86 216.83C591.02 217.2 591.1 217.6 591.1 218.01L591.1 220.07C591.1 220.47 591.02 220.88 590.86 221.25C590.71 221.63 590.48 221.97 590.19 222.25C589.91 222.54 589.57 222.77 589.19 222.92C588.82 223.08 588.41 223.16 588.01 223.16L444.67 223.16C444.27 223.16 443.87 223.08 443.49 222.92C443.12 222.77 442.77 222.54 442.49 222.25C442.2 221.97 441.97 221.63 441.82 221.25C441.66 220.88 441.58 220.47 441.58 220.07L441.58 218.01C441.58 217.6 441.66 217.2 441.82 216.83C441.97 216.45 442.2 216.11 442.49 215.82C442.77 215.54 443.12 215.31 443.49 215.15C443.87 215 444.27 214.92 444.67 214.92L444.67 214.92Z" />
			</g>
			<g id="Layer" style="opacity: 0.302">
				<g id="Layer">
					<path id="Layer" class="shp0" d="M391.4 258.63L660.12 258.63C662.66 258.63 665.19 259.13 667.54 260.11C669.9 261.08 672.04 262.51 673.84 264.32C675.64 266.12 677.07 268.26 678.05 270.61C679.02 272.97 679.53 275.49 679.53 278.04L679.53 307.15C679.53 309.7 679.02 312.23 678.05 314.58C677.07 316.94 675.64 319.08 673.84 320.88C672.04 322.68 669.9 324.11 667.54 325.09C665.19 326.06 662.66 326.56 660.12 326.56L391.4 326.56C388.85 326.56 386.32 326.06 383.97 325.09C381.61 324.11 379.47 322.68 377.67 320.88C375.87 319.08 374.44 316.94 373.46 314.58C372.49 312.23 371.99 309.7 371.99 307.15L371.99 278.04C371.99 275.49 372.49 272.97 373.46 270.61C374.44 268.26 375.87 266.12 377.67 264.32C379.47 262.51 381.61 261.08 383.97 260.11C386.32 259.13 388.85 258.63 391.4 258.63L391.4 258.63Z" />
				</g>
				<path id="Layer" class="shp1" d="M405.05 272.15C413.31 272.15 420.74 277.12 423.9 284.74C427.06 292.36 425.31 301.14 419.48 306.97C413.64 312.81 404.87 314.55 397.25 311.4C389.62 308.24 384.65 300.8 384.65 292.55C384.65 289.87 385.18 287.22 386.21 284.74C387.23 282.27 388.73 280.02 390.63 278.12C392.52 276.23 394.77 274.73 397.25 273.7C399.72 272.68 402.38 272.15 405.05 272.15L405.05 272.15Z" />
				<g id="Layer">
					<path id="Layer" class="shp0" d="M415.27 298.56C414.87 298.22 414.51 297.84 414.19 297.42C413.87 297 413.59 296.55 413.37 296.07C413.15 295.6 412.98 295.09 412.87 294.58C412.75 294.07 412.7 293.54 412.7 293.01L412.7 290C412.7 289.09 412.53 288.2 412.22 287.35C411.9 286.5 411.43 285.72 410.84 285.04C410.25 284.36 409.54 283.79 408.75 283.35C407.95 282.92 407.09 282.63 406.2 282.5L406.2 281.34C406.19 281.05 406.07 280.79 405.87 280.59C405.67 280.39 405.4 280.28 405.11 280.28C404.83 280.28 404.56 280.39 404.36 280.59C404.16 280.79 404.04 281.05 404.03 281.34L404.03 282.5C403.14 282.63 402.27 282.92 401.48 283.35C400.69 283.79 399.98 284.36 399.39 285.04C398.8 285.72 398.33 286.5 398.01 287.35C397.7 288.2 397.53 289.09 397.53 290L397.53 293.01C397.53 293.54 397.47 294.07 397.36 294.58C397.25 295.1 397.08 295.6 396.85 296.08C396.63 296.56 396.36 297.01 396.04 297.43C395.72 297.85 395.35 298.23 394.95 298.57C394.65 298.82 394.44 299.16 394.35 299.53C394.25 299.91 394.27 300.3 394.4 300.67C394.54 301.03 394.78 301.34 395.1 301.56C395.41 301.78 395.79 301.9 396.18 301.9L414.05 301.9C414.44 301.9 414.82 301.78 415.14 301.56C415.46 301.34 415.7 301.02 415.83 300.66C415.96 300.29 415.98 299.9 415.88 299.52C415.78 299.15 415.57 298.81 415.27 298.56L415.27 298.56Z" />
					<path id="Layer" class="shp0" d="M405.12 306.23C405.58 306.23 406.04 306.15 406.48 306C406.92 305.84 407.33 305.61 407.69 305.32C408.05 305.02 408.35 304.67 408.59 304.27C408.83 303.88 409 303.44 409.1 302.99L401.14 302.99C401.24 303.44 401.41 303.88 401.65 304.27C401.89 304.67 402.19 305.02 402.55 305.32C402.91 305.61 403.32 305.84 403.76 306C404.19 306.15 404.65 306.23 405.12 306.23Z" />
				</g>
				<path id="Layer" class="shp2" d="M444.63 277.67L654.08 277.67C654.48 277.67 654.88 277.75 655.25 277.9C655.62 278.05 655.96 278.28 656.24 278.56C656.52 278.85 656.75 279.18 656.9 279.55C657.06 279.92 657.13 280.32 657.13 280.72L657.13 282.75C657.13 283.16 657.06 283.55 656.9 283.92C656.75 284.29 656.52 284.63 656.24 284.91C655.96 285.2 655.62 285.42 655.25 285.57C654.88 285.73 654.48 285.81 654.08 285.81L444.63 285.81C444.23 285.81 443.84 285.73 443.47 285.57C443.1 285.42 442.76 285.2 442.48 284.91C442.19 284.63 441.97 284.29 441.81 283.92C441.66 283.55 441.58 283.16 441.58 282.75L441.58 280.72C441.58 280.32 441.66 279.92 441.81 279.55C441.97 279.18 442.19 278.85 442.48 278.56C442.76 278.28 443.1 278.05 443.47 277.9C443.84 277.75 444.23 277.67 444.63 277.67L444.63 277.67Z" />
				<path id="Layer" class="shp2" d="M444.67 298.38L588.01 298.38C588.41 298.38 588.82 298.46 589.19 298.61C589.57 298.77 589.91 299 590.19 299.28C590.48 299.57 590.71 299.91 590.86 300.29C591.02 300.66 591.1 301.06 591.1 301.47L591.1 303.53C591.1 303.93 591.02 304.34 590.86 304.71C590.71 305.09 590.48 305.43 590.19 305.71C589.91 306 589.57 306.23 589.19 306.38C588.82 306.54 588.41 306.62 588.01 306.62L444.67 306.62C444.27 306.62 443.87 306.54 443.49 306.38C443.12 306.23 442.77 306 442.49 305.71C442.2 305.43 441.97 305.09 441.82 304.71C441.66 304.34 441.58 303.93 441.58 303.53L441.58 301.47C441.58 301.06 441.66 300.66 441.82 300.29C441.97 299.91 442.2 299.57 442.49 299.28C442.77 299 443.12 298.77 443.49 298.61C443.87 298.46 444.27 298.38 444.67 298.38L444.67 298.38Z" />
			</g>
			<g id="Layer" style="opacity: 0.988">
				<g id="Layer">
					<g id="Layer">
						<path id="Layer" class="shp0" d="M66.91 92.64L335.63 92.64C338.18 92.64 340.7 93.14 343.06 94.11C345.41 95.09 347.55 96.52 349.35 98.32C351.16 100.12 352.59 102.26 353.56 104.62C354.54 106.97 355.04 109.5 355.04 112.05L355.04 141.16C355.04 143.71 354.54 146.23 353.56 148.59C352.59 150.94 351.16 153.08 349.35 154.89C347.55 156.69 345.41 158.12 343.06 159.09C340.7 160.07 338.18 160.57 335.63 160.57L66.91 160.57C64.36 160.57 61.84 160.07 59.48 159.09C57.13 158.12 54.99 156.69 53.18 154.89C51.38 153.08 49.95 150.94 48.98 148.59C48 146.23 47.5 143.71 47.5 141.16L47.5 112.05C47.5 109.5 48 106.97 48.98 104.62C49.95 102.26 51.38 100.12 53.18 98.32C54.99 96.52 57.13 95.09 59.48 94.11C61.84 93.14 64.36 92.64 66.91 92.64L66.91 92.64Z" />
					</g>
					<path id="Layer" class="shp6" d="M80.57 106.15C88.82 106.15 96.26 111.13 99.41 118.75C102.57 126.37 100.83 135.15 94.99 140.98C89.16 146.81 80.38 148.56 72.76 145.4C65.14 142.24 60.17 134.81 60.17 126.55C60.17 123.88 60.69 121.22 61.72 118.75C62.74 116.27 64.25 114.02 66.14 112.13C68.04 110.24 70.28 108.73 72.76 107.71C75.23 106.68 77.89 106.15 80.57 106.15L80.57 106.15Z" />
					<g id="Layer">
						<path id="Layer" class="shp0" d="M90.78 132.57C90.38 132.23 90.02 131.85 89.7 131.43C89.38 131.01 89.11 130.56 88.88 130.08C88.66 129.6 88.49 129.1 88.38 128.59C88.27 128.07 88.21 127.55 88.21 127.02L88.21 124C88.21 123.1 88.04 122.2 87.73 121.36C87.41 120.51 86.95 119.73 86.35 119.05C85.76 118.36 85.05 117.79 84.26 117.36C83.47 116.93 82.6 116.64 81.71 116.51L81.71 115.34C81.7 115.06 81.58 114.79 81.38 114.6C81.18 114.4 80.91 114.29 80.63 114.29C80.34 114.29 80.07 114.4 79.87 114.6C79.67 114.79 79.55 115.06 79.54 115.34L79.54 116.51C78.65 116.64 77.79 116.93 76.99 117.36C76.2 117.79 75.49 118.36 74.9 119.05C74.31 119.73 73.84 120.51 73.53 121.36C73.21 122.2 73.05 123.1 73.04 124L73.04 127.02C73.04 127.55 72.99 128.07 72.87 128.59C72.76 129.1 72.59 129.61 72.37 130.08C72.14 130.56 71.87 131.02 71.55 131.44C71.23 131.85 70.86 132.24 70.46 132.58C70.16 132.83 69.95 133.16 69.86 133.54C69.76 133.91 69.78 134.31 69.91 134.67C70.05 135.04 70.29 135.35 70.61 135.57C70.93 135.79 71.3 135.91 71.69 135.91L89.56 135.91C89.95 135.91 90.33 135.79 90.65 135.57C90.97 135.35 91.21 135.03 91.34 134.67C91.48 134.3 91.49 133.9 91.39 133.53C91.29 133.15 91.08 132.82 90.78 132.57L90.78 132.57Z" />
						<path id="Layer" class="shp0" d="M80.63 140.24C81.1 140.24 81.56 140.16 81.99 140C82.43 139.85 82.84 139.62 83.2 139.32C83.56 139.03 83.86 138.68 84.1 138.28C84.34 137.88 84.52 137.45 84.61 136.99L76.65 136.99C76.75 137.45 76.92 137.88 77.16 138.28C77.4 138.68 77.71 139.03 78.06 139.32C78.42 139.62 78.83 139.85 79.27 140C79.71 140.16 80.17 140.24 80.63 140.24Z" />
					</g>
					<path id="Layer" class="shp2" d="M120.15 111.67L329.59 111.67C329.99 111.67 330.39 111.75 330.76 111.91C331.13 112.06 331.47 112.29 331.75 112.57C332.04 112.85 332.26 113.19 332.41 113.56C332.57 113.93 332.65 114.33 332.65 114.73L332.65 116.76C332.65 117.16 332.57 117.56 332.41 117.93C332.26 118.3 332.04 118.64 331.75 118.92C331.47 119.2 331.13 119.43 330.76 119.58C330.39 119.74 329.99 119.81 329.59 119.81L120.15 119.81C119.75 119.81 119.35 119.74 118.98 119.58C118.61 119.43 118.27 119.2 117.99 118.92C117.7 118.64 117.48 118.3 117.33 117.93C117.17 117.56 117.09 117.16 117.09 116.76L117.09 114.73C117.09 114.33 117.17 113.93 117.33 113.56C117.48 113.19 117.7 112.85 117.99 112.57C118.27 112.29 118.61 112.06 118.98 111.91C119.35 111.75 119.75 111.67 120.15 111.67L120.15 111.67Z" />
					<path id="Layer" class="shp2" d="M120.18 132.38L263.52 132.38C263.93 132.38 264.33 132.46 264.7 132.62C265.08 132.77 265.42 133 265.71 133.29C265.99 133.58 266.22 133.92 266.38 134.29C266.53 134.67 266.61 135.07 266.61 135.47L266.61 137.54C266.61 137.94 266.53 138.34 266.38 138.72C266.22 139.09 265.99 139.43 265.71 139.72C265.42 140.01 265.08 140.24 264.7 140.39C264.33 140.55 263.93 140.63 263.52 140.63L120.18 140.63C119.78 140.63 119.38 140.55 119 140.39C118.63 140.24 118.29 140.01 118 139.72C117.71 139.43 117.48 139.09 117.33 138.72C117.17 138.34 117.09 137.94 117.09 137.54L117.09 135.47C117.09 135.07 117.17 134.67 117.33 134.29C117.48 133.92 117.71 133.58 118 133.29C118.29 133 118.63 132.77 119 132.62C119.38 132.46 119.78 132.38 120.18 132.38L120.18 132.38Z" />
				</g>
			</g>
		</g>
		<g id="Layer" style="opacity: 0.651">
			<g id="Layer" style="opacity: 0.2">
				<g id="Layer">
					<path id="Layer" class="shp0" d="M974.94 239.17L1243.65 239.17C1246.2 239.17 1248.73 239.67 1251.08 240.65C1253.44 241.62 1255.58 243.05 1257.38 244.86C1259.18 246.66 1260.61 248.8 1261.59 251.15C1262.56 253.51 1263.07 256.03 1263.07 258.58L1263.07 287.69C1263.07 290.24 1262.56 292.77 1261.59 295.12C1260.61 297.48 1259.18 299.62 1257.38 301.42C1255.58 303.22 1253.44 304.65 1251.08 305.63C1248.73 306.6 1246.2 307.1 1243.65 307.1L974.94 307.1C972.39 307.1 969.86 306.6 967.51 305.63C965.15 304.65 963.01 303.22 961.21 301.42C959.41 299.62 957.98 297.48 957 295.12C956.03 292.77 955.53 290.24 955.53 287.69L955.53 258.58C955.53 256.03 956.03 253.51 957 251.15C957.98 248.8 959.41 246.66 961.21 244.86C963.01 243.05 965.15 241.62 967.51 240.65C969.86 239.67 972.39 239.17 974.94 239.17L974.94 239.17Z" />
				</g>
				<path id="Layer" class="shp1" d="M988.59 252.69C996.84 252.69 1004.28 257.66 1007.44 265.28C1010.6 272.9 1008.85 281.68 1003.02 287.51C997.18 293.35 988.41 295.09 980.79 291.94C973.16 288.78 968.19 281.34 968.19 273.09C968.19 270.41 968.72 267.76 969.75 265.28C970.77 262.81 972.27 260.56 974.17 258.66C976.06 256.77 978.31 255.27 980.79 254.24C983.26 253.22 985.91 252.69 988.59 252.69L988.59 252.69Z" />
				<g id="Layer">
					<path id="Layer" class="shp0" d="M998.81 279.1C998.41 278.76 998.04 278.38 997.73 277.96C997.41 277.54 997.13 277.09 996.91 276.61C996.69 276.14 996.52 275.63 996.41 275.12C996.29 274.61 996.24 274.08 996.24 273.55L996.24 270.53C996.23 269.63 996.07 268.74 995.75 267.89C995.44 267.04 994.97 266.26 994.38 265.58C993.79 264.9 993.08 264.33 992.29 263.89C991.49 263.46 990.63 263.17 989.74 263.04L989.74 261.88C989.73 261.59 989.61 261.33 989.41 261.13C989.21 260.93 988.94 260.82 988.65 260.82C988.37 260.82 988.1 260.93 987.9 261.13C987.7 261.33 987.58 261.59 987.57 261.88L987.57 263.04C986.68 263.17 985.81 263.46 985.02 263.89C984.23 264.33 983.52 264.9 982.93 265.58C982.33 266.26 981.87 267.04 981.55 267.89C981.24 268.74 981.07 269.63 981.07 270.53L981.07 273.55C981.07 274.08 981.01 274.61 980.9 275.12C980.79 275.64 980.62 276.14 980.39 276.62C980.17 277.1 979.9 277.55 979.58 277.97C979.26 278.39 978.89 278.77 978.49 279.11C978.19 279.36 977.98 279.7 977.88 280.07C977.79 280.45 977.81 280.84 977.94 281.21C978.08 281.57 978.32 281.88 978.64 282.1C978.95 282.32 979.33 282.44 979.72 282.44L997.59 282.44C997.98 282.44 998.36 282.32 998.68 282.1C998.99 281.88 999.24 281.56 999.37 281.2C999.5 280.83 999.52 280.44 999.42 280.06C999.32 279.69 999.11 279.35 998.81 279.1L998.81 279.1Z" />
					<path id="Layer" class="shp0" d="M988.66 286.77C989.12 286.77 989.58 286.69 990.02 286.54C990.46 286.38 990.87 286.15 991.22 285.86C991.58 285.56 991.89 285.21 992.13 284.81C992.37 284.42 992.54 283.98 992.64 283.53L984.68 283.53C984.77 283.98 984.94 284.42 985.19 284.81C985.43 285.21 985.73 285.56 986.09 285.86C986.45 286.15 986.86 286.38 987.3 286.54C987.73 286.69 988.19 286.77 988.66 286.77Z" />
				</g>
				<path id="Layer" class="shp2" d="M1028.17 258.21L1237.62 258.21C1238.02 258.21 1238.42 258.29 1238.79 258.44C1239.16 258.59 1239.5 258.82 1239.78 259.1C1240.06 259.39 1240.29 259.72 1240.44 260.09C1240.59 260.46 1240.67 260.86 1240.67 261.26L1240.67 263.29C1240.67 263.7 1240.59 264.09 1240.44 264.46C1240.29 264.83 1240.06 265.17 1239.78 265.45C1239.5 265.74 1239.16 265.96 1238.79 266.11C1238.42 266.27 1238.02 266.35 1237.62 266.35L1028.17 266.35C1027.77 266.35 1027.38 266.27 1027.01 266.11C1026.63 265.96 1026.3 265.74 1026.01 265.45C1025.73 265.17 1025.51 264.83 1025.35 264.46C1025.2 264.09 1025.12 263.7 1025.12 263.29L1025.12 261.26C1025.12 260.86 1025.2 260.46 1025.35 260.09C1025.51 259.72 1025.73 259.39 1026.01 259.1C1026.3 258.82 1026.63 258.59 1027.01 258.44C1027.38 258.29 1027.77 258.21 1028.17 258.21L1028.17 258.21Z" />
				<path id="Layer" class="shp2" d="M1028.21 278.92L1171.55 278.92C1171.95 278.92 1172.36 279 1172.73 279.15C1173.11 279.31 1173.45 279.54 1173.73 279.82C1174.02 280.11 1174.25 280.45 1174.4 280.83C1174.56 281.2 1174.64 281.6 1174.64 282.01L1174.64 284.07C1174.64 284.47 1174.56 284.88 1174.4 285.25C1174.25 285.63 1174.02 285.97 1173.73 286.25C1173.45 286.54 1173.11 286.77 1172.73 286.92C1172.36 287.08 1171.95 287.16 1171.55 287.16L1028.21 287.16C1027.81 287.16 1027.4 287.08 1027.03 286.92C1026.65 286.77 1026.31 286.54 1026.03 286.25C1025.74 285.97 1025.51 285.63 1025.36 285.25C1025.2 284.88 1025.12 284.47 1025.12 284.07L1025.12 282.01C1025.12 281.6 1025.2 281.2 1025.36 280.83C1025.51 280.45 1025.74 280.11 1026.03 279.82C1026.31 279.54 1026.65 279.31 1027.03 279.15C1027.4 279 1027.81 278.92 1028.21 278.92L1028.21 278.92Z" />
			</g>
			<g id="Layer" style="opacity: 0.302">
				<g id="Layer">
					<path id="Layer" class="shp0" d="M974.94 321.7L1243.65 321.7C1246.2 321.7 1248.73 322.2 1251.08 323.18C1253.44 324.15 1255.58 325.58 1257.38 327.39C1259.18 329.19 1260.61 331.33 1261.59 333.68C1262.56 336.04 1263.07 338.56 1263.07 341.11L1263.07 370.23C1263.07 372.77 1262.56 375.3 1261.59 377.65C1260.61 380.01 1259.18 382.15 1257.38 383.95C1255.58 385.75 1253.44 387.18 1251.08 388.16C1248.73 389.13 1246.2 389.64 1243.65 389.64L974.94 389.64C972.39 389.64 969.86 389.13 967.51 388.16C965.15 387.18 963.01 385.75 961.21 383.95C959.41 382.15 957.98 380.01 957 377.65C956.03 375.3 955.53 372.77 955.53 370.23L955.53 341.11C955.53 338.56 956.03 336.04 957 333.68C957.98 331.33 959.41 329.19 961.21 327.39C963.01 325.58 965.15 324.15 967.51 323.18C969.86 322.2 972.39 321.7 974.94 321.7L974.94 321.7Z" />
				</g>
				<path id="Layer" class="shp7" d="M988.59 335.22C996.84 335.22 1004.28 340.19 1007.44 347.81C1010.6 355.44 1008.85 364.21 1003.02 370.04C997.18 375.88 988.41 377.62 980.79 374.47C973.16 371.31 968.19 363.87 968.19 355.62C968.19 352.94 968.72 350.29 969.75 347.81C970.77 345.34 972.27 343.09 974.17 341.2C976.06 339.3 978.31 337.8 980.79 336.77C983.26 335.75 985.91 335.22 988.59 335.22L988.59 335.22Z" />
				<g id="Layer">
					<path id="Layer" class="shp0" d="M998.81 361.63C998.41 361.29 998.04 360.91 997.73 360.49C997.41 360.07 997.13 359.62 996.91 359.14C996.69 358.67 996.52 358.17 996.41 357.65C996.29 357.14 996.24 356.61 996.24 356.09L996.24 353.07C996.23 352.16 996.07 351.27 995.75 350.42C995.44 349.58 994.97 348.79 994.38 348.11C993.79 347.43 993.08 346.86 992.29 346.43C991.49 345.99 990.63 345.71 989.74 345.58L989.74 344.41C989.73 344.13 989.61 343.86 989.41 343.66C989.21 343.47 988.94 343.36 988.65 343.36C988.37 343.36 988.1 343.47 987.9 343.66C987.7 343.86 987.58 344.13 987.57 344.41L987.57 345.58C986.68 345.71 985.81 345.99 985.02 346.43C984.23 346.86 983.52 347.43 982.93 348.11C982.33 348.79 981.87 349.58 981.55 350.42C981.24 351.27 981.07 352.16 981.07 353.07L981.07 356.09C981.07 356.61 981.01 357.14 980.9 357.65C980.79 358.17 980.62 358.67 980.39 359.15C980.17 359.63 979.9 360.08 979.58 360.5C979.26 360.92 978.89 361.3 978.49 361.64C978.19 361.89 977.98 362.23 977.88 362.6C977.79 362.98 977.81 363.37 977.94 363.74C978.08 364.1 978.32 364.41 978.64 364.64C978.95 364.86 979.33 364.98 979.72 364.98L997.59 364.98C997.98 364.98 998.36 364.86 998.68 364.63C998.99 364.41 999.24 364.1 999.37 363.73C999.5 363.37 999.52 362.97 999.42 362.59C999.32 362.22 999.11 361.88 998.81 361.63L998.81 361.63Z" />
					<path id="Layer" class="shp0" d="M988.66 369.31C989.12 369.31 989.58 369.23 990.02 369.07C990.46 368.91 990.87 368.68 991.22 368.39C991.58 368.1 991.89 367.74 992.13 367.35C992.37 366.95 992.54 366.51 992.64 366.06L984.68 366.06C984.77 366.51 984.94 366.95 985.19 367.35C985.43 367.74 985.73 368.1 986.09 368.39C986.45 368.68 986.86 368.91 987.3 369.07C987.73 369.23 988.19 369.31 988.66 369.31Z" />
				</g>
				<path id="Layer" class="shp2" d="M1028.17 340.74L1237.62 340.74C1238.02 340.74 1238.42 340.82 1238.79 340.97C1239.16 341.13 1239.5 341.35 1239.78 341.63C1240.06 341.92 1240.29 342.25 1240.44 342.62C1240.59 342.99 1240.67 343.39 1240.67 343.79L1240.67 345.83C1240.67 346.23 1240.59 346.62 1240.44 346.99C1240.29 347.37 1240.06 347.7 1239.78 347.99C1239.5 348.27 1239.16 348.49 1238.79 348.65C1238.42 348.8 1238.02 348.88 1237.62 348.88L1028.17 348.88C1027.77 348.88 1027.38 348.8 1027.01 348.65C1026.63 348.49 1026.3 348.27 1026.01 347.99C1025.73 347.7 1025.51 347.37 1025.35 346.99C1025.2 346.62 1025.12 346.23 1025.12 345.83L1025.12 343.79C1025.12 343.39 1025.2 342.99 1025.35 342.62C1025.51 342.25 1025.73 341.92 1026.01 341.63C1026.3 341.35 1026.63 341.13 1027.01 340.97C1027.38 340.82 1027.77 340.74 1028.17 340.74L1028.17 340.74Z" />
				<path id="Layer" class="shp2" d="M1028.21 361.45L1171.55 361.45C1171.95 361.45 1172.36 361.53 1172.73 361.68C1173.11 361.84 1173.45 362.07 1173.73 362.35C1174.02 362.64 1174.25 362.98 1174.4 363.36C1174.56 363.73 1174.64 364.13 1174.64 364.54L1174.64 366.6C1174.64 367.01 1174.56 367.41 1174.4 367.78C1174.25 368.16 1174.02 368.5 1173.73 368.79C1173.45 369.07 1173.11 369.3 1172.73 369.46C1172.36 369.61 1171.95 369.69 1171.55 369.69L1028.21 369.69C1027.81 369.69 1027.4 369.61 1027.03 369.46C1026.65 369.3 1026.31 369.07 1026.03 368.79C1025.74 368.5 1025.51 368.16 1025.36 367.78C1025.2 367.41 1025.12 367.01 1025.12 366.6L1025.12 364.54C1025.12 364.13 1025.2 363.73 1025.36 363.36C1025.51 362.98 1025.74 362.64 1026.03 362.35C1026.31 362.07 1026.65 361.84 1027.03 361.68C1027.4 361.53 1027.81 361.45 1028.21 361.45L1028.21 361.45Z" />
			</g>
			<g id="Layer" style="opacity: 0.902">
				<g id="Layer">
					<path id="Layer" class="shp0" d="M1298.5 156.64L1567.22 156.64C1569.76 156.64 1572.29 157.14 1574.64 158.11C1577 159.09 1579.14 160.52 1580.94 162.32C1582.74 164.12 1584.17 166.26 1585.15 168.62C1586.12 170.97 1586.63 173.5 1586.63 176.05L1586.63 205.16C1586.63 207.71 1586.12 210.23 1585.15 212.59C1584.17 214.94 1582.74 217.08 1580.94 218.89C1579.14 220.69 1577 222.12 1574.64 223.09C1572.29 224.07 1569.76 224.57 1567.22 224.57L1298.5 224.57C1295.95 224.57 1293.42 224.07 1291.07 223.09C1288.71 222.12 1286.57 220.69 1284.77 218.89C1282.97 217.08 1281.54 214.94 1280.56 212.59C1279.59 210.23 1279.09 207.71 1279.09 205.16L1279.09 176.05C1279.09 173.5 1279.59 170.97 1280.56 168.62C1281.54 166.26 1282.97 164.12 1284.77 162.32C1286.57 160.52 1288.71 159.09 1291.07 158.11C1293.42 157.14 1295.95 156.64 1298.5 156.64L1298.5 156.64Z" />
				</g>
				<path id="Layer" class="shp4" d="M1312.15 170.15C1320.41 170.15 1327.84 175.13 1331 182.75C1334.16 190.37 1332.41 199.15 1326.58 204.98C1320.74 210.81 1311.97 212.56 1304.35 209.4C1296.72 206.24 1291.75 198.81 1291.75 190.55C1291.75 187.88 1292.28 185.22 1293.31 182.75C1294.33 180.27 1295.83 178.02 1297.73 176.13C1299.62 174.24 1301.87 172.73 1304.35 171.71C1306.82 170.68 1309.48 170.15 1312.15 170.15L1312.15 170.15Z" />
				<g id="Layer">
					<path id="Layer" class="shp0" d="M1322.37 196.57C1321.97 196.23 1321.61 195.85 1321.29 195.43C1320.97 195.01 1320.69 194.56 1320.47 194.08C1320.25 193.6 1320.08 193.1 1319.97 192.59C1319.85 192.07 1319.8 191.55 1319.8 191.02L1319.8 188C1319.8 187.1 1319.63 186.2 1319.32 185.36C1319 184.51 1318.53 183.73 1317.94 183.05C1317.35 182.36 1316.64 181.79 1315.85 181.36C1315.05 180.93 1314.19 180.64 1313.3 180.51L1313.3 179.34C1313.29 179.06 1313.17 178.79 1312.97 178.6C1312.77 178.4 1312.5 178.29 1312.21 178.29C1311.93 178.29 1311.66 178.4 1311.46 178.6C1311.26 178.79 1311.14 179.06 1311.13 179.34L1311.13 180.51C1310.24 180.64 1309.37 180.93 1308.58 181.36C1307.79 181.79 1307.08 182.36 1306.49 183.05C1305.9 183.73 1305.43 184.51 1305.11 185.36C1304.8 186.2 1304.63 187.1 1304.63 188L1304.63 191.02C1304.63 191.55 1304.57 192.07 1304.46 192.59C1304.35 193.1 1304.18 193.61 1303.95 194.08C1303.73 194.56 1303.46 195.02 1303.14 195.44C1302.82 195.85 1302.45 196.24 1302.05 196.58C1301.75 196.83 1301.54 197.16 1301.45 197.54C1301.35 197.91 1301.37 198.31 1301.5 198.67C1301.64 199.04 1301.88 199.35 1302.2 199.57C1302.51 199.79 1302.89 199.91 1303.28 199.91L1321.15 199.91C1321.54 199.91 1321.92 199.79 1322.24 199.57C1322.56 199.35 1322.8 199.03 1322.93 198.67C1323.06 198.3 1323.08 197.9 1322.98 197.53C1322.88 197.15 1322.67 196.82 1322.37 196.57L1322.37 196.57Z" />
					<path id="Layer" class="shp0" d="M1312.22 204.24C1312.68 204.24 1313.14 204.16 1313.58 204C1314.02 203.85 1314.43 203.62 1314.79 203.32C1315.15 203.03 1315.45 202.68 1315.69 202.28C1315.93 201.88 1316.1 201.45 1316.2 200.99L1308.24 200.99C1308.34 201.45 1308.51 201.88 1308.75 202.28C1308.99 202.68 1309.29 203.03 1309.65 203.32C1310.01 203.62 1310.42 203.85 1310.86 204C1311.29 204.16 1311.75 204.24 1312.22 204.24Z" />
				</g>
				<path id="Layer" class="shp2" d="M1351.73 175.67L1561.18 175.67C1561.58 175.67 1561.98 175.75 1562.35 175.91C1562.72 176.06 1563.06 176.29 1563.34 176.57C1563.62 176.85 1563.85 177.19 1564 177.56C1564.16 177.93 1564.23 178.33 1564.23 178.73L1564.23 180.76C1564.23 181.16 1564.16 181.56 1564 181.93C1563.85 182.3 1563.62 182.64 1563.34 182.92C1563.06 183.2 1562.72 183.43 1562.35 183.58C1561.98 183.74 1561.58 183.81 1561.18 183.81L1351.73 183.81C1351.33 183.81 1350.94 183.74 1350.57 183.58C1350.2 183.43 1349.86 183.2 1349.58 182.92C1349.29 182.64 1349.07 182.3 1348.91 181.93C1348.76 181.56 1348.68 181.16 1348.68 180.76L1348.68 178.73C1348.68 178.33 1348.76 177.93 1348.91 177.56C1349.07 177.19 1349.29 176.85 1349.58 176.57C1349.86 176.29 1350.2 176.06 1350.57 175.91C1350.94 175.75 1351.33 175.67 1351.73 175.67L1351.73 175.67Z" />
				<path id="Layer" class="shp2" d="M1351.77 196.38L1495.11 196.38C1495.51 196.38 1495.92 196.46 1496.29 196.62C1496.67 196.77 1497.01 197 1497.29 197.29C1497.58 197.58 1497.81 197.92 1497.96 198.29C1498.12 198.67 1498.2 199.07 1498.2 199.47L1498.2 201.54C1498.2 201.94 1498.12 202.34 1497.96 202.72C1497.81 203.09 1497.58 203.43 1497.29 203.72C1497.01 204.01 1496.67 204.24 1496.29 204.39C1495.92 204.55 1495.51 204.63 1495.11 204.63L1351.77 204.63C1351.37 204.63 1350.97 204.55 1350.59 204.39C1350.22 204.24 1349.87 204.01 1349.59 203.72C1349.3 203.43 1349.07 203.09 1348.92 202.72C1348.76 202.34 1348.68 201.94 1348.68 201.54L1348.68 199.47C1348.68 199.07 1348.76 198.67 1348.92 198.29C1349.07 197.92 1349.3 197.58 1349.59 197.29C1349.87 197 1350.22 196.77 1350.59 196.62C1350.97 196.46 1351.37 196.38 1351.77 196.38L1351.77 196.38Z" />
			</g>
			<g id="Layer" style="opacity: 0.2">
				<g id="Layer">
					<path id="Layer" class="shp0" d="M1299.42 239.17L1568.14 239.17C1570.69 239.17 1573.22 239.67 1575.57 240.65C1577.93 241.62 1580.07 243.05 1581.87 244.86C1583.67 246.66 1585.1 248.8 1586.08 251.15C1587.05 253.51 1587.55 256.03 1587.55 258.58L1587.55 287.69C1587.55 290.24 1587.05 292.77 1586.08 295.12C1585.1 297.48 1583.67 299.62 1581.87 301.42C1580.07 303.22 1577.93 304.65 1575.57 305.63C1573.22 306.6 1570.69 307.1 1568.14 307.1L1299.42 307.1C1296.88 307.1 1294.35 306.6 1292 305.63C1289.64 304.65 1287.5 303.22 1285.7 301.42C1283.9 299.62 1282.47 297.48 1281.49 295.12C1280.52 292.77 1280.01 290.24 1280.01 287.69L1280.01 258.58C1280.01 256.03 1280.52 253.51 1281.49 251.15C1282.47 248.8 1283.9 246.66 1285.7 244.86C1287.5 243.05 1289.64 241.62 1292 240.65C1294.35 239.67 1296.88 239.17 1299.42 239.17L1299.42 239.17Z" />
				</g>
				<path id="Layer" class="shp5" d="M1313.08 252.69C1321.33 252.69 1328.77 257.66 1331.93 265.28C1335.09 272.9 1333.34 281.68 1327.51 287.51C1321.67 293.35 1312.9 295.09 1305.27 291.94C1297.65 288.78 1292.68 281.34 1292.68 273.09C1292.68 270.41 1293.21 267.76 1294.23 265.28C1295.26 262.81 1296.76 260.56 1298.66 258.66C1300.55 256.77 1302.8 255.27 1305.27 254.24C1307.75 253.22 1310.4 252.69 1313.08 252.69L1313.08 252.69Z" />
				<g id="Layer">
					<path id="Layer" class="shp0" d="M1323.3 279.1C1322.9 278.76 1322.53 278.38 1322.21 277.96C1321.89 277.54 1321.62 277.09 1321.4 276.61C1321.18 276.14 1321.01 275.63 1320.89 275.12C1320.78 274.61 1320.72 274.08 1320.72 273.55L1320.72 270.53C1320.72 269.63 1320.56 268.74 1320.24 267.89C1319.93 267.04 1319.46 266.26 1318.87 265.58C1318.28 264.9 1317.57 264.33 1316.77 263.89C1315.98 263.46 1315.12 263.17 1314.22 263.04L1314.22 261.88C1314.22 261.59 1314.1 261.33 1313.9 261.13C1313.69 260.93 1313.42 260.82 1313.14 260.82C1312.86 260.82 1312.59 260.93 1312.39 261.13C1312.19 261.33 1312.07 261.59 1312.06 261.88L1312.06 263.04C1311.17 263.17 1310.3 263.46 1309.51 263.89C1308.72 264.33 1308.01 264.9 1307.41 265.58C1306.82 266.26 1306.36 267.04 1306.04 267.89C1305.72 268.74 1305.56 269.63 1305.56 270.53L1305.56 273.55C1305.56 274.08 1305.5 274.61 1305.39 275.12C1305.27 275.64 1305.1 276.14 1304.88 276.62C1304.66 277.1 1304.38 277.55 1304.06 277.97C1303.74 278.39 1303.38 278.77 1302.97 279.11C1302.68 279.36 1302.47 279.7 1302.37 280.07C1302.27 280.45 1302.29 280.84 1302.43 281.21C1302.56 281.57 1302.81 281.88 1303.12 282.1C1303.44 282.32 1303.82 282.44 1304.21 282.44L1322.08 282.44C1322.47 282.44 1322.85 282.32 1323.16 282.1C1323.48 281.88 1323.72 281.56 1323.86 281.2C1323.99 280.83 1324.01 280.44 1323.91 280.06C1323.81 279.69 1323.6 279.35 1323.3 279.1L1323.3 279.1Z" />
					<path id="Layer" class="shp0" d="M1313.15 286.77C1313.61 286.77 1314.07 286.69 1314.51 286.54C1314.95 286.38 1315.35 286.15 1315.71 285.86C1316.07 285.56 1316.38 285.21 1316.62 284.81C1316.86 284.42 1317.03 283.98 1317.12 283.53L1309.17 283.53C1309.26 283.98 1309.43 284.42 1309.67 284.81C1309.91 285.21 1310.22 285.56 1310.58 285.86C1310.94 286.15 1311.35 286.38 1311.78 286.54C1312.22 286.69 1312.68 286.77 1313.15 286.77Z" />
				</g>
				<path id="Layer" class="shp2" d="M1352.66 258.21L1562.11 258.21C1562.51 258.21 1562.91 258.29 1563.28 258.44C1563.65 258.59 1563.98 258.82 1564.27 259.1C1564.55 259.39 1564.78 259.72 1564.93 260.09C1565.08 260.46 1565.16 260.86 1565.16 261.26L1565.16 263.29C1565.16 263.7 1565.08 264.09 1564.93 264.46C1564.78 264.83 1564.55 265.17 1564.27 265.45C1563.98 265.74 1563.65 265.96 1563.28 266.11C1562.91 266.27 1562.51 266.35 1562.11 266.35L1352.66 266.35C1352.26 266.35 1351.86 266.27 1351.49 266.11C1351.12 265.96 1350.79 265.74 1350.5 265.45C1350.22 265.17 1349.99 264.83 1349.84 264.46C1349.69 264.09 1349.61 263.7 1349.61 263.29L1349.61 261.26C1349.61 260.86 1349.69 260.46 1349.84 260.09C1349.99 259.72 1350.22 259.39 1350.5 259.1C1350.79 258.82 1351.12 258.59 1351.49 258.44C1351.86 258.29 1352.26 258.21 1352.66 258.21L1352.66 258.21Z" />
				<path id="Layer" class="shp2" d="M1352.7 278.92L1496.04 278.92C1496.44 278.92 1496.84 279 1497.22 279.15C1497.59 279.31 1497.93 279.54 1498.22 279.82C1498.51 280.11 1498.74 280.45 1498.89 280.83C1499.05 281.2 1499.13 281.6 1499.13 282.01L1499.13 284.07C1499.13 284.47 1499.05 284.88 1498.89 285.25C1498.74 285.63 1498.51 285.97 1498.22 286.25C1497.93 286.54 1497.59 286.77 1497.22 286.92C1496.84 287.08 1496.44 287.16 1496.04 287.16L1352.7 287.16C1352.29 287.16 1351.89 287.08 1351.52 286.92C1351.14 286.77 1350.8 286.54 1350.51 286.25C1350.23 285.97 1350 285.63 1349.84 285.25C1349.69 284.88 1349.61 284.47 1349.61 284.07L1349.61 282.01C1349.61 281.6 1349.69 281.2 1349.84 280.83C1350 280.45 1350.23 280.11 1350.51 279.82C1350.8 279.54 1351.14 279.31 1351.52 279.15C1351.89 279 1352.29 278.92 1352.7 278.92L1352.7 278.92Z" />
			</g>
			<g id="Layer" style="opacity: 0.302">
				<g id="Layer">
					<path id="Layer" class="shp0" d="M1299.42 322.63L1568.14 322.63C1570.69 322.63 1573.22 323.13 1575.57 324.11C1577.93 325.08 1580.07 326.51 1581.87 328.32C1583.67 330.12 1585.1 332.26 1586.08 334.61C1587.05 336.97 1587.55 339.49 1587.55 342.04L1587.55 371.15C1587.55 373.7 1587.05 376.23 1586.08 378.58C1585.1 380.94 1583.67 383.08 1581.87 384.88C1580.07 386.68 1577.93 388.11 1575.57 389.09C1573.22 390.06 1570.69 390.56 1568.14 390.56L1299.42 390.56C1296.88 390.56 1294.35 390.06 1292 389.09C1289.64 388.11 1287.5 386.68 1285.7 384.88C1283.9 383.08 1282.47 380.94 1281.49 378.58C1280.52 376.23 1280.01 373.7 1280.01 371.15L1280.01 342.04C1280.01 339.49 1280.52 336.97 1281.49 334.61C1282.47 332.26 1283.9 330.12 1285.7 328.32C1287.5 326.51 1289.64 325.08 1292 324.11C1294.35 323.13 1296.88 322.63 1299.42 322.63L1299.42 322.63Z" />
				</g>
				<path id="Layer" class="shp1" d="M1313.08 336.15C1321.33 336.15 1328.77 341.12 1331.93 348.74C1335.09 356.36 1333.34 365.14 1327.51 370.97C1321.67 376.81 1312.9 378.55 1305.27 375.4C1297.65 372.24 1292.68 364.8 1292.68 356.55C1292.68 353.87 1293.21 351.22 1294.23 348.74C1295.26 346.27 1296.76 344.02 1298.66 342.12C1300.55 340.23 1302.8 338.73 1305.27 337.7C1307.75 336.68 1310.4 336.15 1313.08 336.15L1313.08 336.15Z" />
				<g id="Layer">
					<path id="Layer" class="shp0" d="M1323.3 362.56C1322.9 362.22 1322.53 361.84 1322.21 361.42C1321.89 361 1321.62 360.55 1321.4 360.07C1321.18 359.6 1321.01 359.09 1320.89 358.58C1320.78 358.07 1320.72 357.54 1320.72 357.01L1320.72 354C1320.72 353.09 1320.56 352.2 1320.24 351.35C1319.93 350.5 1319.46 349.72 1318.87 349.04C1318.28 348.36 1317.57 347.79 1316.77 347.35C1315.98 346.92 1315.12 346.63 1314.22 346.5L1314.22 345.34C1314.22 345.05 1314.1 344.79 1313.9 344.59C1313.69 344.39 1313.42 344.28 1313.14 344.28C1312.86 344.28 1312.59 344.39 1312.39 344.59C1312.19 344.79 1312.07 345.05 1312.06 345.34L1312.06 346.5C1311.17 346.63 1310.3 346.92 1309.51 347.35C1308.72 347.79 1308.01 348.36 1307.41 349.04C1306.82 349.72 1306.36 350.5 1306.04 351.35C1305.72 352.2 1305.56 353.09 1305.56 354L1305.56 357.01C1305.56 357.54 1305.5 358.07 1305.39 358.58C1305.27 359.1 1305.1 359.6 1304.88 360.08C1304.66 360.56 1304.38 361.01 1304.06 361.43C1303.74 361.85 1303.38 362.23 1302.97 362.57C1302.68 362.82 1302.47 363.16 1302.37 363.53C1302.27 363.91 1302.29 364.3 1302.43 364.67C1302.56 365.03 1302.81 365.34 1303.12 365.56C1303.44 365.78 1303.82 365.9 1304.21 365.9L1322.08 365.9C1322.47 365.9 1322.85 365.78 1323.16 365.56C1323.48 365.34 1323.72 365.02 1323.86 364.66C1323.99 364.29 1324.01 363.9 1323.91 363.52C1323.81 363.15 1323.6 362.81 1323.3 362.56L1323.3 362.56Z" />
					<path id="Layer" class="shp0" d="M1313.15 370.23C1313.61 370.23 1314.07 370.15 1314.51 370C1314.95 369.84 1315.35 369.61 1315.71 369.32C1316.07 369.02 1316.38 368.67 1316.62 368.27C1316.86 367.88 1317.03 367.44 1317.12 366.99L1309.17 366.99C1309.26 367.44 1309.43 367.88 1309.67 368.27C1309.91 368.67 1310.22 369.02 1310.58 369.32C1310.94 369.61 1311.35 369.84 1311.78 370C1312.22 370.15 1312.68 370.23 1313.15 370.23Z" />
				</g>
				<path id="Layer" class="shp2" d="M1352.66 341.67L1562.11 341.67C1562.51 341.67 1562.91 341.75 1563.28 341.9C1563.65 342.05 1563.98 342.28 1564.27 342.56C1564.55 342.85 1564.78 343.18 1564.93 343.55C1565.08 343.92 1565.16 344.32 1565.16 344.72L1565.16 346.75C1565.16 347.16 1565.08 347.55 1564.93 347.92C1564.78 348.29 1564.55 348.63 1564.27 348.91C1563.98 349.2 1563.65 349.42 1563.28 349.57C1562.91 349.73 1562.51 349.81 1562.11 349.81L1352.66 349.81C1352.26 349.81 1351.86 349.73 1351.49 349.57C1351.12 349.42 1350.79 349.2 1350.5 348.91C1350.22 348.63 1349.99 348.29 1349.84 347.92C1349.69 347.55 1349.61 347.16 1349.61 346.75L1349.61 344.72C1349.61 344.32 1349.69 343.92 1349.84 343.55C1349.99 343.18 1350.22 342.85 1350.5 342.56C1350.79 342.28 1351.12 342.05 1351.49 341.9C1351.86 341.75 1352.26 341.67 1352.66 341.67L1352.66 341.67Z" />
				<path id="Layer" class="shp2" d="M1352.7 362.38L1496.04 362.38C1496.44 362.38 1496.84 362.46 1497.22 362.61C1497.59 362.77 1497.93 363 1498.22 363.28C1498.51 363.57 1498.74 363.91 1498.89 364.29C1499.05 364.66 1499.13 365.06 1499.13 365.47L1499.13 367.53C1499.13 367.93 1499.05 368.34 1498.89 368.71C1498.74 369.09 1498.51 369.43 1498.22 369.71C1497.93 370 1497.59 370.23 1497.22 370.38C1496.84 370.54 1496.44 370.62 1496.04 370.62L1352.7 370.62C1352.29 370.62 1351.89 370.54 1351.52 370.38C1351.14 370.23 1350.8 370 1350.51 369.71C1350.23 369.43 1350 369.09 1349.84 368.71C1349.69 368.34 1349.61 367.93 1349.61 367.53L1349.61 365.47C1349.61 365.06 1349.69 364.66 1349.84 364.29C1350 363.91 1350.23 363.57 1350.51 363.28C1350.8 363 1351.14 362.77 1351.52 362.61C1351.89 362.46 1352.29 362.38 1352.7 362.38L1352.7 362.38Z" />
			</g>
			<g id="Layer" style="opacity: 0.988">
				<g id="Layer">
					<g id="Layer">
						<path id="Layer" class="shp0" d="M974.94 156.64L1243.65 156.64C1246.2 156.64 1248.73 157.14 1251.08 158.11C1253.44 159.09 1255.58 160.52 1257.38 162.32C1259.18 164.12 1260.61 166.26 1261.59 168.62C1262.56 170.97 1263.07 173.5 1263.07 176.05L1263.07 205.16C1263.07 207.71 1262.56 210.23 1261.59 212.59C1260.61 214.94 1259.18 217.08 1257.38 218.89C1255.58 220.69 1253.44 222.12 1251.08 223.09C1248.73 224.07 1246.2 224.57 1243.65 224.57L974.94 224.57C972.39 224.57 969.86 224.07 967.51 223.09C965.15 222.12 963.01 220.69 961.21 218.89C959.41 217.08 957.98 214.94 957 212.59C956.03 210.23 955.53 207.71 955.53 205.16L955.53 176.05C955.53 173.5 956.03 170.97 957 168.62C957.98 166.26 959.41 164.12 961.21 162.32C963.01 160.52 965.15 159.09 967.51 158.11C969.86 157.14 972.39 156.64 974.94 156.64L974.94 156.64Z" />
					</g>
					<path id="Layer" class="shp8" d="M988.59 170.15C996.84 170.15 1004.28 175.13 1007.44 182.75C1010.6 190.37 1008.85 199.15 1003.02 204.98C997.18 210.81 988.41 212.56 980.79 209.4C973.16 206.24 968.19 198.81 968.19 190.55C968.19 187.88 968.72 185.22 969.75 182.75C970.77 180.27 972.27 178.02 974.17 176.13C976.06 174.24 978.31 172.73 980.79 171.71C983.26 170.68 985.91 170.15 988.59 170.15L988.59 170.15Z" />
					<g id="Layer">
						<path id="Layer" class="shp0" d="M998.81 196.57C998.41 196.23 998.04 195.85 997.73 195.43C997.41 195.01 997.13 194.56 996.91 194.08C996.69 193.6 996.52 193.1 996.41 192.59C996.29 192.07 996.24 191.55 996.24 191.02L996.24 188C996.23 187.1 996.07 186.2 995.75 185.36C995.44 184.51 994.97 183.73 994.38 183.05C993.79 182.36 993.08 181.79 992.29 181.36C991.49 180.93 990.63 180.64 989.74 180.51L989.74 179.34C989.73 179.06 989.61 178.79 989.41 178.6C989.21 178.4 988.94 178.29 988.65 178.29C988.37 178.29 988.1 178.4 987.9 178.6C987.7 178.79 987.58 179.06 987.57 179.34L987.57 180.51C986.68 180.64 985.81 180.93 985.02 181.36C984.23 181.79 983.52 182.36 982.93 183.05C982.33 183.73 981.87 184.51 981.55 185.36C981.24 186.2 981.07 187.1 981.07 188L981.07 191.02C981.07 191.55 981.01 192.07 980.9 192.59C980.79 193.1 980.62 193.61 980.39 194.08C980.17 194.56 979.9 195.02 979.58 195.44C979.26 195.85 978.89 196.24 978.49 196.58C978.19 196.83 977.98 197.16 977.88 197.54C977.79 197.91 977.81 198.31 977.94 198.67C978.08 199.04 978.32 199.35 978.64 199.57C978.95 199.79 979.33 199.91 979.72 199.91L997.59 199.91C997.98 199.91 998.36 199.79 998.68 199.57C998.99 199.35 999.24 199.03 999.37 198.67C999.5 198.3 999.52 197.9 999.42 197.53C999.32 197.15 999.11 196.82 998.81 196.57L998.81 196.57Z" />
						<path id="Layer" class="shp0" d="M988.66 204.24C989.12 204.24 989.58 204.16 990.02 204C990.46 203.85 990.87 203.62 991.22 203.32C991.58 203.03 991.89 202.68 992.13 202.28C992.37 201.88 992.54 201.45 992.64 200.99L984.68 200.99C984.77 201.45 984.94 201.88 985.19 202.28C985.43 202.68 985.73 203.03 986.09 203.32C986.45 203.62 986.86 203.85 987.3 204C987.73 204.16 988.19 204.24 988.66 204.24Z" />
					</g>
					<path id="Layer" class="shp2" d="M1028.17 175.67L1237.62 175.67C1238.02 175.67 1238.42 175.75 1238.79 175.91C1239.16 176.06 1239.5 176.29 1239.78 176.57C1240.06 176.85 1240.29 177.19 1240.44 177.56C1240.59 177.93 1240.67 178.33 1240.67 178.73L1240.67 180.76C1240.67 181.16 1240.59 181.56 1240.44 181.93C1240.29 182.3 1240.06 182.64 1239.78 182.92C1239.5 183.2 1239.16 183.43 1238.79 183.58C1238.42 183.74 1238.02 183.81 1237.62 183.81L1028.17 183.81C1027.77 183.81 1027.38 183.74 1027.01 183.58C1026.63 183.43 1026.3 183.2 1026.01 182.92C1025.73 182.64 1025.51 182.3 1025.35 181.93C1025.2 181.56 1025.12 181.16 1025.12 180.76L1025.12 178.73C1025.12 178.33 1025.2 177.93 1025.35 177.56C1025.51 177.19 1025.73 176.85 1026.01 176.57C1026.3 176.29 1026.63 176.06 1027.01 175.91C1027.38 175.75 1027.77 175.67 1028.17 175.67L1028.17 175.67Z" />
					<path id="Layer" class="shp2" d="M1028.21 196.38L1171.55 196.38C1171.95 196.38 1172.36 196.46 1172.73 196.62C1173.11 196.77 1173.45 197 1173.73 197.29C1174.02 197.58 1174.25 197.92 1174.4 198.29C1174.56 198.67 1174.64 199.07 1174.64 199.47L1174.64 201.54C1174.64 201.94 1174.56 202.34 1174.4 202.72C1174.25 203.09 1174.02 203.43 1173.73 203.72C1173.45 204.01 1173.11 204.24 1172.73 204.39C1172.36 204.55 1171.95 204.63 1171.55 204.63L1028.21 204.63C1027.81 204.63 1027.4 204.55 1027.03 204.39C1026.65 204.24 1026.31 204.01 1026.03 203.72C1025.74 203.43 1025.51 203.09 1025.36 202.72C1025.2 202.34 1025.12 201.94 1025.12 201.54L1025.12 199.47C1025.12 199.07 1025.2 198.67 1025.36 198.29C1025.51 197.92 1025.74 197.58 1026.03 197.29C1026.31 197 1026.65 196.77 1027.03 196.62C1027.4 196.46 1027.81 196.38 1028.21 196.38L1028.21 196.38Z" />
				</g>
			</g>
		</g>
		<g id="Layer">
			<g id="Layer">
				<path id="Layer" class="shp9" d="M438.55 0L1179.43 0C1183.66 0 1187.85 0.83 1191.75 2.45C1195.66 4.07 1199.21 6.44 1202.2 9.43C1205.2 12.43 1207.57 15.98 1209.19 19.89C1210.81 23.79 1211.64 27.98 1211.64 32.21L1211.64 497.09L407.41 497.09L407.41 31.14C407.41 27.05 408.22 23 409.78 19.22C411.35 15.44 413.64 12.01 416.53 9.12C419.42 6.23 422.86 3.94 426.63 2.37C430.41 0.81 434.46 0 438.55 0L438.55 0Z" />
				<path id="Layer" class="shp9" d="M456.8 42.95L1161.17 42.95C1165.4 42.95 1169.59 43.78 1173.5 45.4C1177.41 47.02 1180.96 49.39 1183.95 52.38C1186.94 55.37 1189.32 58.93 1190.93 62.83C1192.55 66.74 1193.39 70.93 1193.39 75.16L1193.39 443.3L425.67 443.3L425.67 74.09C425.67 70 426.47 65.95 428.04 62.17C429.6 58.39 431.89 54.96 434.79 52.07C437.68 49.18 441.11 46.88 444.89 45.32C448.66 43.75 452.71 42.95 456.8 42.95L456.8 42.95Z" />
				<path id="Layer" class="shp10" d="M457.08 42.95L1161 42.95C1165.27 42.95 1169.5 43.79 1173.44 45.42C1177.38 47.06 1180.97 49.45 1183.98 52.47C1187 55.49 1189.4 59.07 1191.03 63.01C1192.66 66.95 1193.5 71.18 1193.5 75.45L1193.5 443.72L425.66 443.72L425.66 74.37C425.66 70.24 426.48 66.16 428.06 62.34C429.63 58.53 431.95 55.07 434.87 52.15C437.78 49.23 441.25 46.92 445.06 45.34C448.87 43.76 452.96 42.95 457.08 42.95L457.08 42.95Z" />
				<path id="Layer" class="shp0" d="M1133.03 28.13C1129.71 28.13 1127.03 25.45 1127.03 22.13C1127.03 18.81 1129.71 16.13 1133.03 16.13C1136.34 16.13 1139.03 18.81 1139.03 22.13C1139.03 25.45 1136.34 28.13 1133.03 28.13Z" />
				<path id="Layer" class="shp0" d="M1157.03 28.13C1153.71 28.13 1151.03 25.45 1151.03 22.13C1151.03 18.81 1153.71 16.13 1157.03 16.13C1160.34 16.13 1163.03 18.81 1163.03 22.13C1163.03 25.45 1160.34 28.13 1157.03 28.13Z" />
				<path id="Layer" class="shp0" d="M1182.03 28.13C1178.71 28.13 1176.03 25.45 1176.03 22.13C1176.03 18.81 1178.71 16.13 1182.03 16.13C1185.34 16.13 1188.03 18.81 1188.03 22.13C1188.03 25.45 1185.34 28.13 1182.03 28.13Z" />
				<path id="Layer" class="shp11" d="M438.35 15.3L646.6 15.3C647.21 15.3 647.81 15.42 648.37 15.65C648.93 15.88 649.44 16.23 649.87 16.66C650.3 17.09 650.64 17.6 650.88 18.16C651.11 18.72 651.23 19.32 651.23 19.93L651.23 23.02C651.23 23.63 651.11 24.23 650.88 24.79C650.64 25.35 650.3 25.86 649.87 26.29C649.44 26.72 648.93 27.07 648.37 27.3C647.81 27.53 647.21 27.65 646.6 27.65L438.35 27.65C437.74 27.65 437.14 27.53 436.58 27.3C436.02 27.07 435.5 26.72 435.07 26.29C434.64 25.86 434.3 25.35 434.07 24.79C433.84 24.23 433.72 23.63 433.72 23.02L433.72 19.93C433.72 19.32 433.84 18.72 434.07 18.16C434.3 17.6 434.64 17.09 435.07 16.66C435.5 16.23 436.02 15.88 436.58 15.65C437.14 15.42 437.74 15.3 438.35 15.3L438.35 15.3Z" />
			</g>
			<path id="Layer" class="shp12" d="M435.41 41.13L1185.41 41.13C1186.72 41.13 1188.02 41.39 1189.24 41.89C1190.45 42.39 1191.55 43.13 1192.48 44.06C1193.41 44.98 1194.15 46.09 1194.65 47.3C1195.15 48.51 1195.41 49.81 1195.41 51.13L1195.41 530.13L425.41 530.13L425.41 51.13C425.41 49.81 425.67 48.51 426.17 47.3C426.67 46.09 427.41 44.98 428.34 44.06C429.27 43.13 430.37 42.39 431.58 41.89C432.8 41.39 434.1 41.13 435.41 41.13L435.41 41.13Z" />
		</g>
		<g id="Layer">
			<g id="Layer">
				<g id="Layer">
					<path id="Layer" class="shp13" d="M546.53 118.56L762.53 118.56C765.15 118.56 767.75 119.08 770.18 120.08C772.61 121.09 774.81 122.56 776.67 124.42C778.53 126.28 780 128.48 781 130.91C782.01 133.33 782.53 135.94 782.53 138.56L782.53 462.56C782.53 465.19 782.01 467.79 781 470.22C780 472.64 778.53 474.85 776.67 476.7C774.81 478.56 772.61 480.03 770.18 481.04C767.75 482.04 765.15 482.56 762.53 482.56L546.53 482.56C543.9 482.56 541.3 482.04 538.87 481.04C536.45 480.03 534.24 478.56 532.38 476.7C530.53 474.85 529.05 472.64 528.05 470.22C527.04 467.79 526.53 465.19 526.53 462.56L526.53 138.56C526.53 135.94 527.04 133.33 528.05 130.91C529.05 128.48 530.53 126.28 532.38 124.42C534.24 122.56 536.45 121.09 538.87 120.08C541.3 119.08 543.9 118.56 546.53 118.56L546.53 118.56Z" />
				</g>
				<path id="Layer" class="shp13" d="M462.27 117.47L502.71 117.47C503.2 117.47 503.69 117.57 504.14 117.76C504.6 117.95 505.01 118.22 505.36 118.57C505.71 118.92 505.98 119.33 506.17 119.78C506.36 120.24 506.45 120.72 506.45 121.22L506.45 161.87C506.45 162.36 506.36 162.85 506.17 163.3C505.98 163.76 505.71 164.17 505.36 164.52C505.01 164.87 504.6 165.14 504.14 165.33C503.69 165.52 503.2 165.62 502.71 165.62L462.27 165.62C461.78 165.62 461.29 165.52 460.84 165.33C460.38 165.14 459.97 164.87 459.62 164.52C459.27 164.17 459 163.76 458.81 163.3C458.62 162.85 458.53 162.36 458.53 161.87L458.53 121.22C458.53 120.72 458.62 120.24 458.81 119.78C459 119.33 459.27 118.92 459.62 118.57C459.97 118.22 460.38 117.95 460.84 117.76C461.29 117.57 461.78 117.47 462.27 117.47L462.27 117.47Z" />
				<path id="Layer" class="shp13" d="M462.27 240.97L502.71 240.97C503.2 240.97 503.69 241.07 504.14 241.26C504.6 241.44 505.01 241.72 505.36 242.07C505.71 242.42 505.98 242.83 506.17 243.28C506.36 243.74 506.45 244.22 506.45 244.71L506.45 285.37C506.45 285.86 506.36 286.35 506.17 286.8C505.98 287.26 505.71 287.67 505.36 288.02C505.01 288.37 504.6 288.64 504.14 288.83C503.69 289.02 503.2 289.11 502.71 289.11L462.27 289.11C461.78 289.11 461.29 289.02 460.84 288.83C460.38 288.64 459.97 288.37 459.62 288.02C459.27 287.67 459 287.26 458.81 286.8C458.62 286.35 458.53 285.86 458.53 285.37L458.53 244.71C458.53 244.22 458.62 243.74 458.81 243.28C459 242.83 459.27 242.42 459.62 242.07C459.97 241.72 460.38 241.44 460.84 241.26C461.29 241.07 461.78 240.97 462.27 240.97L462.27 240.97Z" />
				<path id="Layer" class="shp13" d="M462.27 179.22L502.71 179.22C503.2 179.22 503.69 179.32 504.14 179.51C504.6 179.69 505.01 179.97 505.36 180.32C505.71 180.67 505.98 181.08 506.17 181.53C506.36 181.99 506.45 182.47 506.45 182.96L506.45 223.62C506.45 224.11 506.36 224.6 506.17 225.05C505.98 225.51 505.71 225.92 505.36 226.27C505.01 226.62 504.6 226.89 504.14 227.08C503.69 227.27 503.2 227.36 502.71 227.36L462.27 227.36C461.78 227.36 461.29 227.27 460.84 227.08C460.38 226.89 459.97 226.62 459.62 226.27C459.27 225.92 459 225.51 458.81 225.05C458.62 224.6 458.53 224.11 458.53 223.62L458.53 182.96C458.53 182.47 458.62 181.99 458.81 181.53C459 181.08 459.27 180.67 459.62 180.32C459.97 179.97 460.38 179.69 460.84 179.51C461.29 179.32 461.78 179.22 462.27 179.22L462.27 179.22Z" />
				<path id="Layer" class="shp13" d="M462.27 302.72L502.71 302.72C503.2 302.72 503.69 302.82 504.14 303C504.6 303.19 505.01 303.47 505.36 303.82C505.71 304.16 505.98 304.58 506.17 305.03C506.36 305.49 506.45 305.97 506.45 306.46L506.45 347.12C506.45 347.61 506.36 348.1 506.17 348.55C505.98 349.01 505.71 349.42 505.36 349.77C505.01 350.12 504.6 350.39 504.14 350.58C503.69 350.77 503.2 350.86 502.71 350.86L462.27 350.86C461.78 350.86 461.29 350.77 460.84 350.58C460.38 350.39 459.97 350.12 459.62 349.77C459.27 349.42 459 349.01 458.81 348.55C458.62 348.1 458.53 347.61 458.53 347.12L458.53 306.46C458.53 305.97 458.62 305.49 458.81 305.03C459 304.58 459.27 304.16 459.62 303.82C459.97 303.47 460.38 303.19 460.84 303C461.29 302.82 461.78 302.72 462.27 302.72L462.27 302.72Z" />
				<path id="Layer" class="shp13" d="M804.69 118.47L1151.12 118.47C1151.98 118.47 1152.83 118.64 1153.62 118.97C1154.41 119.3 1155.13 119.78 1155.74 120.39C1156.35 120.99 1156.83 121.71 1157.15 122.5C1157.48 123.3 1157.65 124.15 1157.65 125L1157.65 154.4C1157.65 155.26 1157.48 156.11 1157.15 156.9C1156.83 157.69 1156.35 158.41 1155.74 159.02C1155.13 159.62 1154.41 160.11 1153.62 160.43C1152.83 160.76 1151.98 160.93 1151.12 160.93L804.69 160.93C803.83 160.93 802.98 160.76 802.19 160.43C801.4 160.11 800.68 159.62 800.07 159.02C799.46 158.41 798.98 157.69 798.66 156.9C798.33 156.11 798.16 155.26 798.16 154.4L798.16 125C798.16 124.15 798.33 123.3 798.66 122.5C798.98 121.71 799.46 120.99 800.07 120.39C800.68 119.78 801.4 119.3 802.19 118.97C802.98 118.64 803.83 118.47 804.69 118.47L804.69 118.47Z" />
				<path id="Layer" class="shp13" d="M804.69 382.37L1151.12 382.37C1151.98 382.37 1152.83 382.54 1153.62 382.87C1154.41 383.2 1155.13 383.68 1155.74 384.29C1156.35 384.89 1156.83 385.61 1157.15 386.4C1157.48 387.2 1157.65 388.05 1157.65 388.9L1157.65 392.17C1157.65 393.03 1157.48 393.88 1157.15 394.67C1156.83 395.46 1156.35 396.18 1155.74 396.79C1155.13 397.4 1154.41 397.88 1153.62 398.21C1152.83 398.54 1151.98 398.7 1151.12 398.7L804.69 398.7C803.83 398.7 802.98 398.54 802.19 398.21C801.4 397.88 800.68 397.4 800.07 396.79C799.46 396.18 798.98 395.46 798.66 394.67C798.33 393.88 798.16 393.03 798.16 392.17L798.16 388.9C798.16 388.05 798.33 387.2 798.66 386.4C798.98 385.61 799.46 384.89 800.07 384.29C800.68 383.68 801.4 383.2 802.19 382.87C802.98 382.54 803.83 382.37 804.69 382.37L804.69 382.37Z" />
				<path id="Layer" class="shp13" d="M804.69 416.99L1034.62 416.99C1035.48 416.99 1036.33 417.16 1037.12 417.49C1037.92 417.82 1038.64 418.3 1039.24 418.9C1039.85 419.51 1040.33 420.23 1040.66 421.02C1040.99 421.82 1041.16 422.67 1041.16 423.52L1041.16 426.79C1041.16 427.65 1040.99 428.5 1040.66 429.29C1040.33 430.08 1039.85 430.8 1039.24 431.41C1038.64 432.02 1037.92 432.5 1037.13 432.83C1036.33 433.16 1035.48 433.32 1034.63 433.32L804.69 433.32C803.83 433.32 802.98 433.16 802.19 432.83C801.4 432.5 800.68 432.02 800.07 431.41C799.46 430.8 798.98 430.08 798.66 429.29C798.33 428.5 798.16 427.65 798.16 426.79L798.16 423.52C798.16 422.67 798.33 421.82 798.66 421.02C798.98 420.23 799.46 419.51 800.07 418.91C800.68 418.3 801.4 417.82 802.19 417.49C802.98 417.16 803.83 416.99 804.69 416.99L804.69 416.99Z" />
				<path id="Layer" class="shp13" d="M804.69 347.75L1152.12 347.75C1152.98 347.75 1153.83 347.92 1154.62 348.25C1155.41 348.58 1156.13 349.06 1156.74 349.66C1157.35 350.27 1157.83 350.99 1158.15 351.78C1158.48 352.58 1158.65 353.43 1158.65 354.28L1158.65 357.55C1158.65 358.41 1158.48 359.26 1158.15 360.05C1157.83 360.84 1157.35 361.56 1156.74 362.17C1156.13 362.78 1155.41 363.26 1154.62 363.59C1153.83 363.91 1152.98 364.08 1152.12 364.08L804.69 364.08C803.83 364.08 802.98 363.91 802.19 363.59C801.4 363.26 800.68 362.78 800.07 362.17C799.46 361.56 798.98 360.84 798.66 360.05C798.33 359.26 798.16 358.41 798.16 357.55L798.16 354.28C798.16 353.43 798.33 352.58 798.66 351.78C798.98 350.99 799.46 350.27 800.07 349.66C800.68 349.06 801.4 348.58 802.19 348.25C802.98 347.92 803.83 347.75 804.69 347.75L804.69 347.75Z" />
				<path id="Layer" class="shp13" d="M805.69 313.13L1152.12 313.13C1152.98 313.13 1153.83 313.3 1154.62 313.63C1155.41 313.96 1156.13 314.44 1156.74 315.04C1157.35 315.65 1157.83 316.37 1158.15 317.16C1158.48 317.96 1158.65 318.81 1158.65 319.66L1158.65 322.93C1158.65 323.79 1158.48 324.64 1158.15 325.43C1157.83 326.22 1157.35 326.94 1156.74 327.55C1156.13 328.16 1155.41 328.64 1154.62 328.97C1153.83 329.29 1152.98 329.46 1152.12 329.46L805.69 329.46C804.83 329.46 803.98 329.29 803.19 328.97C802.4 328.64 801.68 328.16 801.07 327.55C800.46 326.94 799.98 326.22 799.66 325.43C799.33 324.64 799.16 323.79 799.16 322.93L799.16 319.66C799.16 318.81 799.33 317.96 799.66 317.16C799.98 316.37 800.46 315.65 801.07 315.04C801.68 314.44 802.4 313.96 803.19 313.63C803.98 313.3 804.83 313.13 805.69 313.13L805.69 313.13Z" />
				<path id="Layer" class="shp13" d="M804.69 179.22L1001.96 179.22C1002.82 179.22 1003.67 179.39 1004.46 179.72C1005.25 180.05 1005.97 180.53 1006.58 181.13C1007.18 181.74 1007.66 182.46 1007.99 183.25C1008.32 184.05 1008.49 184.9 1008.49 185.75L1008.49 215.15C1008.49 216.01 1008.32 216.86 1007.99 217.65C1007.66 218.44 1007.18 219.16 1006.58 219.77C1005.97 220.37 1005.25 220.85 1004.46 221.18C1003.67 221.51 1002.82 221.68 1001.96 221.68L804.69 221.68C803.83 221.68 802.98 221.51 802.19 221.18C801.4 220.85 800.68 220.37 800.07 219.77C799.46 219.16 798.98 218.44 798.66 217.65C798.33 216.86 798.16 216.01 798.16 215.15L798.16 185.75C798.16 184.9 798.33 184.05 798.66 183.25C798.98 182.46 799.46 181.74 800.07 181.13C800.68 180.53 801.4 180.05 802.19 179.72C802.98 179.39 803.83 179.22 804.69 179.22L804.69 179.22Z" />
			</g>
			<g id="Layer">
				<path id="Layer" class="shp14" d="M654.53 302.56C643.47 302.56 634.53 293.62 634.53 282.56C634.53 271.5 643.47 262.56 654.53 262.56C665.59 262.56 674.53 271.5 674.53 282.56C674.53 293.62 665.59 302.56 654.53 302.56Z" />
				<text id="01" style="transform: matrix(1,0,0,1,646.102,289.063)" >
					<tspan x="0" y="0" class="txt15">01</tspan>
				</text>
			</g>
			<g id="Layer">
				<path id="Layer" class="shp16" d="M1130.03 93.35C1137.91 93.35 1145.02 98.11 1148.04 105.39C1151.06 112.68 1149.39 121.07 1143.81 126.64C1138.24 132.22 1129.85 133.89 1122.56 130.87C1115.28 127.85 1110.53 120.74 1110.53 112.85C1110.53 110.29 1111.03 107.76 1112.01 105.39C1112.99 103.03 1114.43 100.88 1116.24 99.07C1118.05 97.26 1120.2 95.82 1122.56 94.84C1124.93 93.86 1127.47 93.35 1130.03 93.35L1130.03 93.35Z" />
				<text id="01" style="transform: matrix(1,0,0,1,1121.102,120.063)" >
					<tspan x="0" y="0" class="txt15">01</tspan>
				</text>
			</g>
			<g id="Layer">
				<path id="Layer" class="shp17" d="M1143.03 321.35C1132.24 321.35 1123.53 312.64 1123.53 301.85C1123.53 291.07 1132.24 282.35 1143.03 282.35C1153.81 282.35 1162.53 291.07 1162.53 301.85C1162.53 312.64 1153.81 321.35 1143.03 321.35Z" />
				<text id="01" style="transform: matrix(1,0,0,1,1134.57,309.063)" >
					<tspan x="0" y="0" class="txt18">01</tspan>
				</text>
			</g>
		</g>
		<path id="Layer" class="shp19" d="M434.53 41.13L1184.53 41.13C1185.84 41.13 1187.14 41.39 1188.35 41.89C1189.57 42.39 1190.67 43.13 1191.6 44.06C1192.53 44.98 1193.26 46.09 1193.76 47.3C1194.27 48.51 1194.53 49.81 1194.53 51.13L1194.53 530.13L424.53 530.13L424.53 51.13C424.53 49.81 424.78 48.51 425.29 47.3C425.79 46.09 426.53 44.98 427.45 44.06C428.38 43.13 429.49 42.39 430.7 41.89C431.91 41.39 433.21 41.13 434.53 41.13L434.53 41.13Z" />
		<path id="Layer" class="shp20" d="M810.03 304.13C793.16 304.13 779.53 290.49 779.53 273.63C779.53 256.76 793.16 243.13 810.03 243.13C826.89 243.13 840.53 256.76 840.53 273.63C840.53 290.49 826.89 304.13 810.03 304.13Z" />
		<path id="Layer" class="shp21" d="M823.96 274.45C824.24 274.63 824.46 274.88 824.62 275.17C824.78 275.47 824.86 275.79 824.86 276.13C824.86 276.46 824.78 276.79 824.62 277.08C824.46 277.37 824.24 277.62 823.96 277.8L806.62 289.11C806.32 289.31 805.97 289.42 805.61 289.43C805.25 289.45 804.89 289.37 804.57 289.19C804.26 289.02 803.99 288.77 803.81 288.46C803.62 288.15 803.53 287.8 803.53 287.44L803.53 264.82C803.53 264.46 803.62 264.11 803.81 263.8C803.99 263.49 804.26 263.23 804.57 263.06C804.89 262.89 805.25 262.81 805.61 262.82C805.97 262.84 806.32 262.95 806.62 263.14L823.96 274.45Z" />
		<path id="Layer" class="shp0" d="M822.96 272.45C823.24 272.63 823.46 272.88 823.62 273.17C823.78 273.47 823.86 273.79 823.86 274.13C823.86 274.46 823.78 274.79 823.62 275.08C823.46 275.37 823.24 275.62 822.96 275.8L805.62 287.11C805.32 287.31 804.97 287.42 804.61 287.43C804.25 287.45 803.89 287.37 803.57 287.19C803.26 287.02 802.99 286.77 802.81 286.46C802.62 286.15 802.53 285.8 802.53 285.44L802.53 262.82C802.53 262.46 802.62 262.11 802.81 261.8C802.99 261.49 803.26 261.23 803.57 261.06C803.89 260.89 804.25 260.81 804.61 260.82C804.97 260.84 805.32 260.95 805.62 261.14L822.96 272.45Z" />
	</g>
</svg>