<svg xmlns="http://www.w3.org/2000/svg" width="14.963" height="14.963" viewBox="0 0 14.963 14.963">
  <g id="Group_157" data-name="Group 157" transform="translate(1.25 1.25)">
    <path id="Line_18" data-name="Line 18" d="M0,13.713a1.246,1.246,0,0,1-.884-.366,1.25,1.25,0,0,1,0-1.768L11.579-.884a1.25,1.25,0,0,1,1.768,0,1.25,1.25,0,0,1,0,1.768L.884,13.347A1.246,1.246,0,0,1,0,13.713Z" fill="#fff"/>
    <path id="Line_19" data-name="Line 19" d="M12.463,13.713a1.246,1.246,0,0,1-.884-.366L-.884.884a1.25,1.25,0,0,1,0-1.768,1.25,1.25,0,0,1,1.768,0L13.347,11.579a1.25,1.25,0,0,1-.884,2.134Z" fill="#fff"/>
  </g>
</svg>
