<svg xmlns="http://www.w3.org/2000/svg" width="15.525" height="17.25" viewBox="0 0 15.525 17.25"><defs><style>.a{fill:#a1afc7;}</style></defs><path class="a" d="M6.45,9.763H8.175v1.725H6.45ZM18.525,5.45V17.525A1.73,1.73,0,0,1,16.8,19.25H4.725A1.725,1.725,0,0,1,3,17.525L3.009,5.45A1.717,1.717,0,0,1,4.725,3.725h.863V2H7.313V3.725h6.9V2h1.725V3.725H16.8A1.73,1.73,0,0,1,18.525,5.45ZM4.725,7.175H16.8V5.45H4.725ZM16.8,17.525V8.9H4.725v8.625Zm-3.45-6.038h1.725V9.763H13.35Zm-3.45,0h1.725V9.763H9.9Z" transform="translate(-3 -2)"/></svg>