<svg xmlns="http://www.w3.org/2000/svg" width="65.927" height="65.927" viewBox="0 0 65.927 65.927"><defs><style>.a{fill:#a1afc7;stroke:#fff;}</style></defs><path class="a" d="M9.989,0V47.446a2.5,2.5,0,0,1-4.994,0V17.48h2.5V12.486H0V47.446a7.528,7.528,0,0,0,7.492,7.492H32.463a16.1,16.1,0,0,1-.78-4.994H14.515a7.287,7.287,0,0,0,.468-2.5V4.994H54.938V32.463a13.439,13.439,0,0,1,4.994,2.5V0H9.989Zm9.989,9.989v9.989H49.944V9.989Zm0,14.983v4.994H32.463V24.972Zm17.48,0v4.994H49.944V24.972Zm-17.48,7.492v4.994H32.463V32.463Zm29.966,2.5A14.983,14.983,0,1,0,64.927,49.944,14.951,14.951,0,0,0,49.944,34.961ZM19.977,39.955v4.994H32.463V39.955Zm29.966,0a10.283,10.283,0,0,1,5.073,1.327L41.282,55.016a10.283,10.283,0,0,1-1.327-5.073A9.782,9.782,0,0,1,49.944,39.955Zm8.662,4.916a10.284,10.284,0,0,1,1.327,5.072,9.782,9.782,0,0,1-9.989,9.989,10.284,10.284,0,0,1-5.072-1.327Z" transform="translate(0.5 0.5)"/></svg>