<svg id="OBJECTS" xmlns="http://www.w3.org/2000/svg" xmlns:xlink="http://www.w3.org/1999/xlink" width="252.855" height="265.444" viewBox="0 0 252.855 265.444">
  <defs>
    <linearGradient id="linear-gradient" x1="1.002" y1="0.501" x2="0" y2="0.501" gradientUnits="objectBoundingBox">
      <stop offset="0" stop-color="#b7c6d2"/>
      <stop offset="0.465" stop-color="#a5b7c6"/>
      <stop offset="1" stop-color="#5e8aa2"/>
    </linearGradient>
    <linearGradient id="linear-gradient-2" x1="-0.105" y1="0.495" x2="0.901" y2="0.495" xlink:href="#linear-gradient"/>
    <linearGradient id="linear-gradient-3" x1="-0.191" y1="0.409" x2="0.971" y2="0.559" gradientUnits="objectBoundingBox">
      <stop offset="0" stop-color="#a5b7c6"/>
      <stop offset="1" stop-color="#e6e7e8"/>
    </linearGradient>
    <radialGradient id="radial-gradient" cx="-0.657" cy="0.979" r="1.503" gradientUnits="objectBoundingBox">
      <stop offset="0" stop-color="#053b7c"/>
      <stop offset="0.161" stop-color="#184595"/>
      <stop offset="0.785" stop-color="#606bf1"/>
      <stop offset="1" stop-color="#878cf0"/>
    </radialGradient>
    <radialGradient id="radial-gradient-2" cx="-0.265" cy="1.67" r="1.492" xlink:href="#radial-gradient"/>
    <radialGradient id="radial-gradient-3" cx="1.166" cy="1.553" r="2.6" xlink:href="#radial-gradient"/>
    <radialGradient id="radial-gradient-4" cx="-0.396" cy="2.064" r="4.385" xlink:href="#radial-gradient"/>
    <radialGradient id="radial-gradient-5" cx="-0.866" cy="0.866" r="2.215" xlink:href="#radial-gradient"/>
    <radialGradient id="radial-gradient-6" cx="0.659" cy="1.488" r="1.247" xlink:href="#radial-gradient"/>
    <radialGradient id="radial-gradient-7" cx="0.417" cy="0.93" r="1.31" xlink:href="#radial-gradient"/>
    <radialGradient id="radial-gradient-8" cx="1.423" cy="0.959" r="1.985" xlink:href="#radial-gradient"/>
    <clipPath id="clip-path">
      <path id="Path_7855" data-name="Path 7855" d="M127.323,247.9v16.466c0,1.162-.752,2.323-2.323,3.211l.068-16.466A3.912,3.912,0,0,0,127.323,247.9Z" transform="translate(-125 -247.9)"/>
    </clipPath>
    <linearGradient id="linear-gradient-4" x1="0.159" y1="0.029" x2="0.609" y2="0.65" xlink:href="#linear-gradient-3"/>
    <linearGradient id="linear-gradient-5" x1="1" y1="0.5" x2="0.34" y2="0.5" gradientUnits="objectBoundingBox">
      <stop offset="0" stop-color="#5e8aa2"/>
      <stop offset="0.129" stop-color="#a5b7c6"/>
      <stop offset="0.212" stop-color="#a1b5c4"/>
      <stop offset="0.288" stop-color="#96aebe"/>
      <stop offset="0.361" stop-color="#84a2b5"/>
      <stop offset="0.431" stop-color="#6a91a7"/>
      <stop offset="0.447" stop-color="#638da4"/>
      <stop offset="0.774" stop-color="#a5b7c6"/>
      <stop offset="1" stop-color="#b7c6d2"/>
    </linearGradient>
    <linearGradient id="linear-gradient-6" x1="0.016" y1="0.074" x2="1" y2="0.941" gradientUnits="objectBoundingBox">
      <stop offset="0" stop-color="#5e8aa2"/>
      <stop offset="0.535" stop-color="#a5b7c6"/>
      <stop offset="1" stop-color="#b7c6d2"/>
    </linearGradient>
    <linearGradient id="linear-gradient-7" x1="-0.687" y1="1.121" x2="1.123" y2="0.173" xlink:href="#linear-gradient-6"/>
    <linearGradient id="linear-gradient-8" x1="-0.344" y1="0.822" x2="0.972" y2="0.319" gradientUnits="objectBoundingBox">
      <stop offset="0" stop-color="#a5b7c6"/>
      <stop offset="1" stop-color="#f9fbfc"/>
    </linearGradient>
    <linearGradient id="linear-gradient-9" x1="1.297" y1="0.413" x2="-0.164" y2="0.622" gradientUnits="objectBoundingBox">
      <stop offset="0" stop-color="#1cc6d3"/>
      <stop offset="1" stop-color="#532e8e"/>
    </linearGradient>
    <linearGradient id="linear-gradient-10" x1="4.469" y1="-0.925" x2="-0.463" y2="0.847" gradientUnits="objectBoundingBox">
      <stop offset="0" stop-color="#ae4777"/>
      <stop offset="1" stop-color="#532e8e"/>
    </linearGradient>
    <linearGradient id="linear-gradient-11" x1="0.878" y1="0.2" x2="-0.059" y2="1.103" xlink:href="#linear-gradient-9"/>
    <linearGradient id="linear-gradient-12" x1="1.319" y1="0.418" x2="-2.636" y2="0.779" xlink:href="#linear-gradient-9"/>
    <linearGradient id="linear-gradient-13" x1="0.283" y1="1.11" x2="0.746" y2="-0.204" gradientUnits="objectBoundingBox">
      <stop offset="0" stop-color="#1cc6d3"/>
      <stop offset="1" stop-color="#a3509b"/>
    </linearGradient>
    <linearGradient id="linear-gradient-14" x1="1.001" y1="0.501" x2="-0.002" y2="0.501" xlink:href="#linear-gradient-13"/>
    <linearGradient id="linear-gradient-15" x1="1.246" y1="0.294" x2="-1.179" y2="0.944" gradientUnits="objectBoundingBox">
      <stop offset="0.195" stop-color="#f9fbfc"/>
      <stop offset="1" stop-color="#a5b7c6"/>
    </linearGradient>
    <linearGradient id="linear-gradient-16" x1="0.991" y1="0.503" x2="-0.008" y2="0.503" xlink:href="#linear-gradient-15"/>
    <linearGradient id="linear-gradient-17" x1="-0.705" y1="0.498" x2="0.778" y2="0.498" xlink:href="#linear-gradient-15"/>
    <linearGradient id="linear-gradient-18" x1="0.93" y1="0.752" x2="-0.103" y2="0.169" xlink:href="#linear-gradient"/>
  </defs>
  <g id="Group_18011" data-name="Group 18011" transform="translate(0)">
    <path id="Path_7826" data-name="Path 7826" d="M111.464,252.1c14.348,0,25.964,5.124,25.964,11.479a5.76,5.76,0,0,1-1.025,3.211c-3.143,4.783-13.118,8.267-24.939,8.267s-21.8-3.485-24.939-8.267a5.759,5.759,0,0,1-1.025-3.211C85.5,257.224,97.115,252.1,111.464,252.1Z" transform="translate(93.222 -125.63)" fill="#d5e1e7"/>
    <g id="Group_17941" data-name="Group 17941" transform="translate(18.311 118.579)">
      <path id="Path_7827" data-name="Path 7827" d="M308.039,276.728c3.075,1.776,3.075,4.646.068,6.491L198.787,346.762a12.3,12.3,0,0,1-11.137,0l-60.331-34.846c-3.075-1.776-3.075-4.646,0-6.491l109.321-63.543a12.3,12.3,0,0,1,11.137,0Z" transform="translate(-125.012 -240.55)" fill="#d5e1e7"/>
    </g>
    <g id="Group_17951" data-name="Group 17951" transform="translate(177.403 43.045)">
      <g id="Group_17942" data-name="Group 17942" transform="translate(10.133 48.169)">
        <path id="Path_7828" data-name="Path 7828" d="M100.24,216.321c2.733,2.87,8.677,4.783,15.442,4.783,6.833,0,12.709-1.981,15.442-4.783a5.355,5.355,0,0,0,1.64-3.621v37.1c0,4.646-7.652,8.4-17.081,8.4S98.6,254.447,98.6,249.8V212.7A5.355,5.355,0,0,0,100.24,216.321Z" transform="translate(-98.6 -204.364)" fill="url(#linear-gradient)"/>
        <path id="Path_7829" data-name="Path 7829" d="M100.8,209.632a3.349,3.349,0,0,0,.615,1.913c1.845-2.87,7.789-4.919,14.895-4.919,7.038,0,13.05,2.118,14.895,4.919a3.349,3.349,0,0,0,.615-1.913c0-3.758-6.9-6.833-15.51-6.833C107.769,202.731,100.8,205.806,100.8,209.632Z" transform="translate(-99.16 -201.228)" fill="url(#linear-gradient-2)"/>
        <path id="Path_7830" data-name="Path 7830" d="M101.7,213.219c1.845,2.87,7.789,4.919,14.895,4.919,7.038,0,13.05-2.118,14.895-4.919-1.845-2.87-7.789-4.919-14.895-4.919S103.545,210.418,101.7,213.219Z" transform="translate(-99.445 -202.971)" fill="#6077a8"/>
        <path id="Path_7831" data-name="Path 7831" d="M115.581,202c8.541,0,15.51,3.075,15.51,6.833a3.349,3.349,0,0,1-.615,1.913c-1.845,2.87-7.789,4.919-14.895,4.919-7.038,0-13.05-2.118-14.895-4.919a3.349,3.349,0,0,1-.615-1.913C100.071,205.078,107.041,202,115.581,202Zm0,15.3c6.833,0,12.709-1.981,15.442-4.783a5.355,5.355,0,0,0,1.64-3.621c0-4.646-7.652-8.4-17.081-8.4S98.5,204.258,98.5,208.9a5.355,5.355,0,0,0,1.64,3.621C102.8,215.327,108.749,217.308,115.581,217.308Z" transform="translate(-98.432 -200.5)" fill="url(#linear-gradient-3)"/>
      </g>
      <path id="Path_7832" data-name="Path 7832" d="M128.04,213.6c.888,0,1.64.342,1.64.752a.251.251,0,0,1-.068.2,2.118,2.118,0,0,1-1.571.547,1.877,1.877,0,0,1-1.571-.547.251.251,0,0,1-.068-.2C126.4,213.942,127.152,213.6,128.04,213.6Z" transform="translate(-104.378 -156.48)" fill="#dfe4e9"/>
      <path id="Path_7833" data-name="Path 7833" d="M124.24,216.5c.888,0,1.64.342,1.64.752a.251.251,0,0,1-.068.205,2.119,2.119,0,0,1-1.571.547,1.877,1.877,0,0,1-1.571-.547.251.251,0,0,1-.068-.205C122.6,216.842,123.352,216.5,124.24,216.5Z" transform="translate(-97.982 -157.399)" fill="#dfe4e9"/>
      <path id="Path_7834" data-name="Path 7834" d="M118.94,213.6c.888,0,1.64.342,1.64.752a.251.251,0,0,1-.068.2,2.118,2.118,0,0,1-1.571.547,1.877,1.877,0,0,1-1.571-.547.251.251,0,0,1-.068-.2C117.3,213.942,118.052,213.6,118.94,213.6Z" transform="translate(-89.061 -156.48)" fill="#dfe4e9"/>
      <path id="Path_7835" data-name="Path 7835" d="M116,217.3c.683,0,1.3.273,1.3.547,0,.068,0,.137-.068.137a2.05,2.05,0,0,1-2.46,0,.239.239,0,0,0-.068-.137C114.7,217.5,115.247,217.3,116,217.3Z" transform="translate(-84.001 -157.652)" fill="#dfe4e9"/>
      <path id="Path_7836" data-name="Path 7836" d="M133.066,214.2c.752,0,1.367.273,1.367.615,0,.068,0,.137-.068.137-.137.273-.683.41-1.3.41a1.8,1.8,0,0,1-1.3-.41.212.212,0,0,1-.068-.137C131.7,214.473,132.315,214.2,133.066,214.2Z" transform="translate(-112.753 -156.67)" fill="#dfe4e9"/>
      <g id="Group_17943" data-name="Group 17943" transform="translate(28.898 26.116)">
        <path id="Path_7837" data-name="Path 7837" d="M112.936,200.32h0a.745.745,0,0,0,.683-.752,64.258,64.258,0,0,1,4.578-30.4.673.673,0,0,0-1.23-.547,65.265,65.265,0,0,0-4.646,31.088C112.253,200.047,112.594,200.32,112.936,200.32Z" transform="translate(-112.023 -168.223)" fill="url(#radial-gradient)"/>
      </g>
      <path id="Path_7838" data-name="Path 7838" d="M90.514,166.143c.683-3.69-2.6-4.783-.41-10.59,3.075-7.926,18.038-21.591,19.473-20.293,1.5,1.367-6.969,21.8-11.137,26.1-2.05,2.118-7.106,3.006-7.857,6.149C90.583,166.963,90.514,166.69,90.514,166.143Z" transform="translate(-59.132 -131.639)" fill="url(#radial-gradient-2)"/>
      <path id="Path_7839" data-name="Path 7839" d="M154.636,178.823a5.11,5.11,0,0,0-.342,4.236c.068.2.137.342.2.547.683,1.708,3.348-.82,5.944-2.938C158.94,178.413,157.164,177.046,154.636,178.823Z" transform="translate(-154 -145.207)" fill="#10418a"/>
      <path id="Path_7840" data-name="Path 7840" d="M132.159,176.933c2.528-1.776,4.373-.41,5.739,1.845,1.64,2.6,2.665,6.354,3.553,7.926,1.708,2.938,6.081,1.435,7.994,3.895l.82-.41a4.849,4.849,0,0,1,.683-3.485c.615-.957,1.64-1.776,1.913-2.87a4.481,4.481,0,0,0-.068-1.367,13.534,13.534,0,0,0-4.441-7.652c-6.149-5.466-11-1.162-11-1.162S133.662,174.405,132.159,176.933Z" transform="translate(-131.523 -143.317)" fill="url(#radial-gradient-3)"/>
      <path id="Path_7841" data-name="Path 7841" d="M66.4,186.6c2.255-4.1,7.174-6.423,12.982-5.329,5.808,1.162,16.876,7.721,16.74,9.361-.068,1.64-9.5,1.3-13.733.752s-6.9,1.093-9.7.478S66.4,186.6,66.4,186.6Z" transform="translate(-29.823 -146.156)" fill="url(#radial-gradient-4)"/>
      <g id="Group_17944" data-name="Group 17944" transform="translate(31.372 38.688)">
        <path id="Path_7842" data-name="Path 7842" d="M107.049,208.4h0a.685.685,0,0,0,.683-.683c0-7.994,2.46-18.175,5.876-19.814a.673.673,0,1,0-.547-1.23c-4.031,1.913-6.7,12.435-6.628,21.044A.565.565,0,0,0,107.049,208.4Z" transform="translate(-106.423 -186.623)" fill="url(#radial-gradient-5)"/>
      </g>
      <path id="Path_7843" data-name="Path 7843" d="M128.629,167.647c.615-3.621-6.9-3.826-8.951-6.764-2.05-2.87,3.758-30.883,7.926-30.883s7.789,25.759,7.379,28.56c-.41,2.733-5.056,6.081-5.739,10.112Z" transform="translate(-104.831 -130)" fill="url(#radial-gradient-6)"/>
      <g id="Group_17945" data-name="Group 17945" transform="translate(23.279 23.29)">
        <path id="Path_7844" data-name="Path 7844" d="M126.978,200.923h.068a.8.8,0,0,0,.615-.752c-.683-5.944-2.87-26.169-2.118-35.324a.743.743,0,0,0-.615-.752.689.689,0,0,0-.752.615c-.82,9.292,1.435,29.585,2.118,35.6A.727.727,0,0,0,126.978,200.923Z" transform="translate(-124 -164.087)" fill="url(#radial-gradient-7)"/>
      </g>
      <g id="Group_17946" data-name="Group 17946" transform="translate(11.999 34.252)">
        <path id="Path_7845" data-name="Path 7845" d="M141.014,204.434h0a.685.685,0,0,0,.683-.683c-.137-7.174-2.665-14.758-7.721-23.3a.692.692,0,0,0-1.162.752c4.919,8.267,7.379,15.646,7.516,22.616A.675.675,0,0,0,141.014,204.434Z" transform="translate(-132.7 -180.131)" fill="url(#radial-gradient-8)"/>
      </g>
      <g id="Group_17947" data-name="Group 17947" transform="translate(32.544 9.241)">
        <path id="Path_7846" data-name="Path 7846" d="M96.33,165.85a.147.147,0,0,0,.137-.137c5.193-14.075,12.982-21.8,13.05-21.864a.193.193,0,1,0-.273-.273c-.068.068-7.926,7.857-13.118,22a.366.366,0,0,0,.2.273Z" transform="translate(-96.125 -143.525)" fill="#dfe4e9"/>
      </g>
      <g id="Group_17948" data-name="Group 17948" transform="translate(38.01 39.179)">
        <path id="Path_7847" data-name="Path 7847" d="M95.659,191.891a.147.147,0,0,0,.137-.137c0-.068,0-.2-.137-.2-.752-.2-18.243-5.808-25.622-3.758-.068,0-.137.137-.137.2s.137.137.2.137c7.379-1.981,25.349,3.69,25.554,3.758Z" transform="translate(-69.9 -187.341)" fill="#dfe4e9"/>
      </g>
      <g id="Group_17949" data-name="Group 17949" transform="translate(22.892 4.1)">
        <path id="Path_7848" data-name="Path 7848" d="M129.077,166.883h0c.137,0,.2-.068.137-.2,0-.137-1.708-16.466-.888-30.473,0-.068-.068-.2-.137-.2-.137,0-.2.068-.2.137-.82,14.075.888,30.4.888,30.541A.181.181,0,0,0,129.077,166.883Z" transform="translate(-127.761 -136)" fill="#dfe4e9"/>
      </g>
      <g id="Group_17950" data-name="Group 17950" transform="translate(6.375 30.156)">
        <path id="Path_7849" data-name="Path 7849" d="M148.888,187.708h0c.137-.068.2-.137.137-.2-.2-.615-5.056-14.758-10.727-13.255-.068,0-.137.137-.137.2s.137.137.2.137c5.329-1.435,10.249,12.913,10.317,13.05A.251.251,0,0,0,148.888,187.708Z" transform="translate(-138.161 -174.136)" fill="#dfe4e9"/>
      </g>
      <path id="Path_7850" data-name="Path 7850" d="M110.608,217.5c.957,0,1.708.342,1.708.752a.251.251,0,0,1-.068.2,2.733,2.733,0,0,1-3.28,0,.251.251,0,0,1-.068-.2C108.9,217.842,109.652,217.5,110.608,217.5Z" transform="translate(-75.058 -157.715)" fill="#dfe4e9"/>
      <path id="Path_7851" data-name="Path 7851" d="M139.425,213.4c.547,0,1.025.2,1.025.41,0,.068,0,.068-.068.137a1.51,1.51,0,0,1-1.913,0c0-.068-.068-.068-.068-.137C138.468,213.6,138.878,213.4,139.425,213.4Z" transform="translate(-123.347 -156.417)" fill="#dfe4e9"/>
      <path id="Path_7852" data-name="Path 7852" d="M131.225,219.3c.547,0,1.025.2,1.025.41,0,.068,0,.068-.068.137a1.51,1.51,0,0,1-1.913,0c0-.068-.068-.068-.068-.137C130.268,219.5,130.678,219.3,131.225,219.3Z" transform="translate(-109.545 -158.285)" fill="#dfe4e9"/>
      <path id="Path_7853" data-name="Path 7853" d="M110.125,212.7c.547,0,1.025.2,1.025.41,0,.068,0,.068-.068.137a1.51,1.51,0,0,1-1.913,0c0-.068-.068-.068-.068-.137C109.1,212.9,109.578,212.7,110.125,212.7Z" transform="translate(-74.028 -156.195)" fill="#dfe4e9"/>
    </g>
    <g id="Group_17957" data-name="Group 17957" transform="translate(18.157 84.143)">
      <g id="Group_17956" data-name="Group 17956">
        <g id="Group_17955" data-name="Group 17955">
          <g id="Group_17953" data-name="Group 17953" transform="translate(183.18 39.458)">
            <g id="Group_17952" data-name="Group 17952" transform="translate(0)" clip-path="url(#clip-path)">
              <path id="Path_7854" data-name="Path 7854" d="M125,247.9v0" transform="translate(-122.677 -247.9)" fill="#0d7d7d"/>
            </g>
          </g>
          <path id="Path_7856" data-name="Path 7856" d="M393,306.266l.068-16.466c0,1.162.752,2.323,2.323,3.28l-.068,16.466C393.752,308.589,393,307.428,393,306.266Z" transform="translate(-393 -221.714)" fill="none"/>
          <g id="Group_17954" data-name="Group 17954" transform="translate(0.154)">
            <path id="Path_7857" data-name="Path 7857" d="M308.039,226.328c3.075,1.776,3.075,4.646.068,6.491L198.787,296.362a12.3,12.3,0,0,1-11.137,0l-60.331-34.846c-3.075-1.776-3.075-4.646,0-6.491l109.321-63.543a12.3,12.3,0,0,1,11.137,0Z" transform="translate(-125.012 -190.15)" fill="url(#linear-gradient-4)"/>
          </g>
        </g>
      </g>
      <path id="Path_7858" data-name="Path 7858" d="M125,293.026c0,1.162.752,2.323,2.323,3.28l60.331,34.846a6.056,6.056,0,0,0,1.162.547c.273.137.615.2.957.342l.82.2c.273.068.547.068.752.137a2.8,2.8,0,0,0,.752.068,2.562,2.562,0,0,1,.752.068h.82a3.9,3.9,0,0,0,.888-.068,5.274,5.274,0,0,0,1.025-.137,9.7,9.7,0,0,0,1.5-.342,9.883,9.883,0,0,0,1.708-.752L243.2,305.393l29.38-17.081,35.529-20.634.068-.068a5.656,5.656,0,0,0,1.025-.752,3.42,3.42,0,0,0,.478-.547c.137-.137.205-.342.342-.478l.2-.41a4.355,4.355,0,0,0,.137-.478,1.013,1.013,0,0,0,.068-.478L310.5,248v.273a.251.251,0,0,1-.068.2v.137a.251.251,0,0,1-.068.2c0,.068,0,.068-.068.137a.212.212,0,0,1-.068.137c-.068.137-.137.2-.137.342-.068.068-.068.137-.137.273l-.2.2a3.423,3.423,0,0,1-.478.547h0l-.2.2-.205.2a1.488,1.488,0,0,1-.547.342l-.068.068-44.412,25.827-20.5,11.957-44.411,25.827c-.2.068-.342.2-.547.273a5.13,5.13,0,0,1-1.23.478l-.615.205c-.273.068-.615.137-.888.2h0c-.137,0-.342.068-.478.068s-.342.068-.478.068h0c-.2,0-.41.068-.615.068h-1.093a2.562,2.562,0,0,1-.752-.068h-.068c-.2,0-.342-.068-.547-.068h-.137a.411.411,0,0,1-.273-.068h-.137c-.137,0-.273-.068-.41-.068-.068,0-.2-.068-.273-.068-.2-.068-.342-.068-.547-.137-.068,0-.068,0-.137-.068-.273-.068-.547-.2-.82-.273-.2-.068-.342-.137-.547-.2a2.769,2.769,0,0,1-.615-.342l-60.331-34.846a3.873,3.873,0,0,1-2.323-3.28Z" transform="translate(-125 -208.474)" fill="url(#linear-gradient-5)"/>
    </g>
    <g id="Group_17958" data-name="Group 17958" transform="translate(111.968 189.603)">
      <path id="Path_7859" data-name="Path 7859" d="M126.7,377.774l32.933,19.131,57.6-33.274L184.3,344.5Z" transform="translate(-126.7 -344.5)" fill="#d5e1e7"/>
    </g>
    <path id="Path_7860" data-name="Path 7860" d="M273,302.707l20.976-12.094h.068l3.211-1.913,29.858,17.218L304.7,318.831l-1.845-1.025-1.845,1.093Z" transform="translate(-224.574 -137.223)" fill="#e6e7e8"/>
    <g id="Group_17963" data-name="Group 17963" transform="translate(111.968 180.721)">
      <g id="Group_17962" data-name="Group 17962">
        <g id="Group_17959" data-name="Group 17959" transform="translate(0 33.206)">
          <path id="Path_7861" data-name="Path 7861" d="M211,380.1v3.348l32.933,19.131V399.3Z" transform="translate(-211 -380.1)" fill="url(#linear-gradient-6)"/>
        </g>
        <g id="Group_17960" data-name="Group 17960" transform="translate(32.933 19.131)">
          <path id="Path_7862" data-name="Path 7862" d="M126.7,392.774v3.28l57.6-33.274V359.5Z" transform="translate(-126.7 -359.5)" fill="url(#linear-gradient-7)"/>
        </g>
        <g id="Group_17961" data-name="Group 17961">
          <path id="Path_7863" data-name="Path 7863" d="M126.7,364.706l32.933,19.2,57.6-33.274L184.3,331.5Z" transform="translate(-126.7 -331.5)" fill="url(#linear-gradient-8)"/>
        </g>
      </g>
    </g>
    <path id="Path_7864" data-name="Path 7864" d="M195.57,363.19s-.547,5.124-9.361,1.025S170.7,350.55,170.7,350.55l11.137-2.05Z" transform="translate(-23.134 -156.164)" fill="#d5e1e7"/>
    <path id="Path_7865" data-name="Path 7865" d="M213.579,378.59s-.547,5.124-9.361,1.025a36.727,36.727,0,0,1-13.118-9.839l8.746-5.876Z" transform="translate(-55.081 -161.042)" fill="#d5e1e7"/>
    <g id="Group_17967" data-name="Group 17967" transform="translate(53.345 148.198)">
      <path id="Path_7866" data-name="Path 7866" d="M318.785,305.39l-19.131,11.069L274.1,301.7l19.131-11Z" transform="translate(-270.342 -286.054)" fill="#56548c"/>
      <path id="Path_7867" data-name="Path 7867" d="M319.985,303.458l-19.131,11.069L275.3,299.769,294.431,288.7Z" transform="translate(-272.362 -285.42)" fill="#606bf1"/>
      <g id="Group_17964" data-name="Group 17964" transform="translate(6.969 5.329)">
        <path id="Path_7868" data-name="Path 7868" d="M300.7,313.769l16.4-9.5L295.3,291.7l-16.4,9.5Zm15.715-9.5L300.7,313.359,279.583,301.2,295.3,292.11Z" transform="translate(-278.9 -291.7)" fill="#878cf0"/>
      </g>
      <g id="Group_17966" data-name="Group 17966" transform="translate(0)">
        <path id="Path_7869" data-name="Path 7869" d="M304.193,305.9v3.758L288,319.018v-3.758Z" transform="translate(-265.248 -290.868)" fill="#f9b0a1"/>
        <path id="Path_7870" data-name="Path 7870" d="M288,315.919l15.647-9.019v2.323L288,318.31Z" transform="translate(-264.701 -291.185)" fill="#f9f8f7"/>
        <path id="Path_7871" data-name="Path 7871" d="M326.945,301.561l-16.193,9.361L288,297.8l9.7-5.6v3.758l13.05,7.516,9.7-5.671Z" transform="translate(-288 -286.529)" fill="#fa9887"/>
        <path id="Path_7872" data-name="Path 7872" d="M334.452,313.518v3.758L311.7,304.158V300.4Z" transform="translate(-311.7 -289.126)" fill="#f47d6f"/>
        <path id="Path_7873" data-name="Path 7873" d="M332.028,313.257v2.186L318.5,307.655V305.4Z" transform="translate(-313.922 -290.71)" fill="#f15d57"/>
        <path id="Path_7874" data-name="Path 7874" d="M307.2,294.9v3.758l-9.7,5.671v-3.758Z" transform="translate(-274.748 -287.384)" fill="#fddf94"/>
        <path id="Path_7875" data-name="Path 7875" d="M297.5,301.229l9.156-5.329v2.323l-9.156,5.329Z" transform="translate(-274.201 -287.701)" fill="#f9f8f7"/>
        <path id="Path_7876" data-name="Path 7876" d="M320.252,291.416l-9.7,5.671-13.05-7.516,9.771-5.671Z" transform="translate(-287.798 -283.9)" fill="#fbd15b"/>
        <path id="Path_7877" data-name="Path 7877" d="M320.706,288.93l-4.919,2.8L313.6,290.57l4.919-2.87Z" transform="translate(-299.252 -285.104)" fill="#f9e4c7"/>
        <path id="Path_7878" data-name="Path 7878" d="M324.75,299.716v3.758l-13.05-7.516V292.2Z" transform="translate(-301.998 -286.529)" fill="#e8bb49"/>
        <g id="Group_17965" data-name="Group 17965" transform="translate(19.746 11.479)">
          <path id="Path_7879" data-name="Path 7879" d="M313.942,302l-.342-.2v3.758l.342.205Z" transform="translate(-312.234 -301.048)" fill="#fddf94"/>
          <path id="Path_7880" data-name="Path 7880" d="M315.5,304.458l.41.2V300.9l-.41-.2Z" transform="translate(-315.5 -300.7)" fill="#fddf94"/>
        </g>
      </g>
    </g>
    <path id="Path_7881" data-name="Path 7881" d="M217.011,282.85c1.5,1.093,2.6,4.3,2.528,6.491-.068,1.571,0,11.547,0,16.4l29.38-17.081-8.882-11.274-7.721-9.839-33.138-18.038c-8.472-1.093-19.678,2.391-18.721,8.336C181.277,263.036,215.508,281.757,217.011,282.85Z" transform="translate(-83.111 -124.745)"/>
    <g id="Group_17972" data-name="Group 17972" transform="translate(96.595 34.427)">
      <path id="Path_7882" data-name="Path 7882" d="M199.862,198.5l-1.162,2.6.752,4.373.888.478.547-.478V200Z" transform="translate(-144.176 -143.079)" fill="#e3be8f"/>
      <path id="Path_7883" data-name="Path 7883" d="M251.243,190.772a4.571,4.571,0,0,0,1.162.478c.137.068.273.068.41.137a28.69,28.69,0,0,0,4.851,1.025,114.575,114.575,0,0,0,11.684.957c.957,0,1.572.068,1.572.068a4.6,4.6,0,0,1,.068-.683V191.8c.068-.615.068-1.367.137-2.255a4.2,4.2,0,0,1,.068-.888c0-.273.068-.615.068-.888a2.8,2.8,0,0,1,.068-.752c0-.41.068-.82.068-1.23v-.478c.068-.82.068-1.64.137-2.46,0-.273.068-.547.068-.82v-.273a1.5,1.5,0,0,1,.068-.547h0a1.332,1.332,0,0,1,.068-.547c0-.342.068-.752.068-1.093v-1.23c0-.41.068-.82.068-1.162v-.342c.068-.82.068-1.5.137-1.981v-.273c.2-2.6-.137-10.727-7.584-12.777a10.957,10.957,0,0,0-3.485-.41,7.685,7.685,0,0,0-6.286,3.826h0C252.063,170.753,251.584,179.362,251.243,190.772Z" transform="translate(-251.243 -131.32)" fill="url(#linear-gradient-9)"/>
      <path id="Path_7884" data-name="Path 7884" d="M272.086,233.933c1.776.068,4.783,0,4.783,0h0a5.516,5.516,0,0,1-2.46-1.3c-2.938-2.938-4.373-17.628-4.031-27.33v-.068c-.137-.068-.273-.068-.41-.137l-.068.137s.342,28.287.888,28.56A4.136,4.136,0,0,0,272.086,233.933Z" transform="translate(-268.807 -145.17)" fill="url(#linear-gradient-10)"/>
      <path id="Path_7885" data-name="Path 7885" d="M204.257,263.93c12.23,8.267,23.982,14.348,25.9,17.628,1.913,3.348-.888,43.387-.068,44.07a6.44,6.44,0,0,0,1.162.342c.547.137,1.3.2,2.186.342,3.485.41,8.814.478,11.615-.957a3.1,3.1,0,0,0,1.23-1.025h.068a13.343,13.343,0,0,0,.137-1.571c.068-.41.068-.82.137-1.23.2-1.776.342-3.485.547-5.124a10.268,10.268,0,0,0,.137-1.367c.068-.888.205-1.776.273-2.665.068-.41.068-.888.137-1.3.137-.82.2-1.708.273-2.46.068-.41.068-.82.137-1.23.137-.82.2-1.571.273-2.323.205-1.913.478-3.69.683-5.4.2-1.366.342-2.665.478-3.963h0l.2-1.845c.137-1.23.273-2.391.342-3.553.068-.547.068-1.093.137-1.64h0c0-.547.068-1.093.068-1.571.068-1.708.068-3.348.068-4.919-.068-1.367-.137-2.665-.273-3.963-.068-.273-.068-.547-.137-.82-.615-3.963-4.031-8.472-8.336-12.709-.41-.342-.752-.752-1.162-1.093s-.752-.683-1.162-1.093c-.2-.2-.41-.342-.615-.547l-1.23-1.025c-.615-.547-1.23-1.025-1.845-1.5a15.005,15.005,0,0,0-1.23-.957c-.41-.342-.82-.615-1.23-.957-.41-.273-.82-.615-1.162-.888l-.615-.41c-.547-.41-1.093-.82-1.571-1.162h0c-.683-.547-1.367-1.025-1.981-1.435-.137-.068-.273-.2-.41-.273-.683-.478-1.367-.888-1.913-1.3a3.79,3.79,0,0,1-.547-.41c-.41-.273-.752-.478-1.093-.752-.888-.615-1.5-.957-1.845-1.162h0c-2.255-.068-4.168-.137-5.4-.2-4.373-.342-14.417-.342-19.473-1.913H192.3C192.505,247.737,192.3,255.867,204.257,263.93Z" transform="translate(-189.294 -158.632)" fill="#91a0b8"/>
      <path id="Path_7886" data-name="Path 7886" d="M222.994,162.434a7.453,7.453,0,0,1,6.286-3.826,10.956,10.956,0,0,1,3.485.41c7.447,2.118,7.789,10.249,7.584,12.777v.273c0,.478-.068,1.162-.137,1.981v.342c0,.342-.068.752-.068,1.162v1.23c0,.342-.068.752-.068,1.093a1.332,1.332,0,0,1-.068.547h0a1.5,1.5,0,0,1-.068.547v.273a3.326,3.326,0,0,1-.068.82c-.068.82-.068,1.64-.137,2.46V183c0,.41-.068.82-.068,1.23a2.8,2.8,0,0,1-.068.752c0,.273-.068.615-.068.888a3.9,3.9,0,0,1-.068.888c-.068.888-.068,1.64-.137,2.255v.957a2.425,2.425,0,0,1-.068.683s-.615,0-1.571-.068v.068s-1.025,12.913-.41,13.733c.342.478,8.267,2.528,15.237,4.031,1.64.342,3.28.683,4.714,1.025h0a7.148,7.148,0,0,0,1.981-1.367,1.4,1.4,0,0,0,.342-.478c-1.981-2.391-2.733-6.9-2.6-12.025a63.058,63.058,0,0,1,1.776-13.255,28.76,28.76,0,0,0,.615-3.348,59.427,59.427,0,0,0-.615-16.671,20.247,20.247,0,0,1-3.416,1.913h0c-3.28,1.162-5.193-.137-6.149-1.435h0a11.064,11.064,0,0,1-2.6-.068,7.251,7.251,0,0,1-1.572-.342c-2.938-.82-6.423-3.075-6.833-9.5l-.068-.068a21.493,21.493,0,0,1-5.4,2.118c-.478.137-1.025.273-1.5.41A12.432,12.432,0,0,0,222.994,162.434Z" transform="translate(-219.577 -128.604)" fill="url(#linear-gradient-11)"/>
      <path id="Path_7887" data-name="Path 7887" d="M229.6,167a15.611,15.611,0,0,0,3.143,3.211c1.571,1.025,5.056.2,7.174-1.435-3.28,1.162-5.193-.137-6.149-1.435h0a11.066,11.066,0,0,1-2.6-.068A6.909,6.909,0,0,1,229.6,167Z" transform="translate(-204.32 -133.102)" fill="#fff"/>
      <path id="Path_7888" data-name="Path 7888" d="M262.6,189.1a4.57,4.57,0,0,0,1.162.478c.137.068.273.068.41.137a28.692,28.692,0,0,0,4.851,1.025c-.137-4.168-.41-18.106.615-23.914a19.566,19.566,0,0,1,2.665-7.242,12.562,12.562,0,0,1,3.348-3.485c-.478.137-1.025.273-1.5.41a11.72,11.72,0,0,0-8.062,6.9h0C263.42,169.082,262.942,177.691,262.6,189.1Z" transform="translate(-262.6 -129.649)" fill="#fff"/>
      <path id="Path_7889" data-name="Path 7889" d="M212.5,149.808h0c.547,7.652,5.4,9.5,8.472,9.839-.068-.683-.478-5.329.137-5.329.683,0,1.162,2.938,2.118,4.783a2.769,2.769,0,0,0,.342.615c1.23,1.708,4.168,3.416,9.566-.478a.943.943,0,0,0,.273-.2A15.157,15.157,0,0,0,236,156.5c3.28-3.963,4.714-9.292,5.193-11.342.137-.547.2-.888.2-.888v-.068a25.782,25.782,0,0,1-4.168-.82,12.721,12.721,0,0,0-3.553-.2,1.783,1.783,0,0,0-1.435.752.067.067,0,0,1-.068.068,5.041,5.041,0,0,1-3.826,1.708c-2.665.2-1.435,5.6-4.441,4.168-2.938-1.435,2.733-5.944-1.025-6.833s-2.733,3.348-4.168,5.193-4.1-.615-4.1-.615h0A4.287,4.287,0,0,1,212.5,149.808Z" transform="translate(-194.12 -125.476)" fill="#eed7ba"/>
      <path id="Path_7890" data-name="Path 7890" d="M201.541,124.16c-1.913,4.168,1.913,6.833,1.435,11.41a9.865,9.865,0,0,1-.888,3.826h0s2.665,2.46,4.1.683.41-6.081,4.168-5.193-1.981,5.4,1.025,6.833,1.776-3.963,4.441-4.168a4.977,4.977,0,0,0,3.895-1.776,2.273,2.273,0,0,1,1.435-.752,12.718,12.718,0,0,1,3.553.2,36.711,36.711,0,0,0,4.168.82c3.28.342,7.243.068,7.721-3.553.683-5.671-4.031-4.3-5.876-7.038s-1.093-4.851-3.758-5.876-4.509.41-6.013-.2-3.553-2.528-6.9-1.845-3.485,3.416-5.056,3.963C207.349,122.179,203.454,119.992,201.541,124.16Z" transform="translate(-181.522 -117.387)" fill="#053b7c"/>
      <path id="Path_7891" data-name="Path 7891" d="M238.834,159.6c-.615,0-.2,4.646-.137,5.329a11.066,11.066,0,0,0,2.6.068h0a2.77,2.77,0,0,1-.342-.615C240,162.538,239.449,159.6,238.834,159.6Z" transform="translate(-211.777 -130.758)" fill="#e3be8f"/>
      <path id="Path_7892" data-name="Path 7892" d="M207.4,207.238h.137c1.708.957,10.932.82,12.845.752h.068v-.068a25.274,25.274,0,0,1,.41-9.087V198.7c-.41-.068-6.423-1.572-7.106-2.186s-.478-6.559-.478-7.311a6.285,6.285,0,0,1-3.553,1.367,26.348,26.348,0,0,1-.615,3.348A68.427,68.427,0,0,0,207.4,207.238Z" transform="translate(-170.094 -140.134)" fill="#eed7ba"/>
      <path id="Path_7893" data-name="Path 7893" d="M218.9,235.167h0a38.879,38.879,0,0,0,5.261.82c-1.913-1.23-3.143-2.05-3.28-2.186A6.174,6.174,0,0,1,218.9,235.167Z" transform="translate(-181.253 -154.261)" fill="#07459e"/>
      <path id="Path_7894" data-name="Path 7894" d="M221.765,180.87a3.033,3.033,0,0,0,.547-.683c.068-13.255-1.845-17.286-1.845-17.286h0a15.156,15.156,0,0,1-2.6,2.528.944.944,0,0,0-.273.2,59.427,59.427,0,0,1,.615,16.671A7.025,7.025,0,0,0,221.765,180.87Z" transform="translate(-178.515 -131.803)" fill="url(#linear-gradient-12)"/>
      <path id="Path_7895" data-name="Path 7895" d="M169.908,250.247c.342.2.957.615,1.845,1.162.342.2.683.478,1.093.752a3.79,3.79,0,0,1,.547.41c.615.41,1.23.82,1.913,1.3.137.068.273.2.41.273.615.41,1.3.957,1.981,1.435h0c.547.342,1.025.752,1.571,1.162l.615.41c.41.273.752.615,1.162.888.41.342.82.615,1.23.957s.82.615,1.23.957c.615.478,1.23,1.025,1.845,1.5l1.23,1.025c.205.2.41.342.615.547.41.342.752.683,1.162,1.093.41.342.752.752,1.162,1.093,4.3,4.168,7.721,8.677,8.336,12.709.068.273.068.547.137.82a38.6,38.6,0,0,1,.273,3.963c.068,1.571,0,3.211-.068,4.919,0,.547-.068,1.093-.068,1.572h0c-.068.547-.068,1.093-.137,1.64-.068,1.162-.2,2.323-.342,3.553l-.2,1.845h0c-.137,1.3-.273,2.6-.478,3.963-.2,1.708-.478,3.553-.683,5.4-.068.752-.2,1.5-.273,2.323-.068.41-.068.82-.137,1.23-.068.82-.2,1.64-.273,2.46-.068.41-.068.82-.137,1.3-.137.888-.2,1.776-.273,2.665a9.26,9.26,0,0,0-.137,1.367,10.866,10.866,0,0,0,3.416,1.025,10.08,10.08,0,0,0,2.87,0l1.23-.2c.2-.068.41-.068.615-.137a5.122,5.122,0,0,0,1.093-.342c.342-.137.683-.2.957-.342.41-.2.82-.342,1.162-.547.137-.068.2-.068.273-.137a2.971,2.971,0,0,0,.478-.273.239.239,0,0,0,.137-.068.337.337,0,0,1,.2-.068l.2-.683c1.776-8.336,7.174-38.467,5.261-46.461-1.913-7.926-8.472-11.479-15.3-16.125-1.23-.82-2.665-1.776-4.236-2.87-.137,0-.273.068-.41.068-2.391.342-9.429.41-15.988.41-1.23,0-2.528,0-3.69-.068A31.546,31.546,0,0,1,169.908,250.247Z" transform="translate(-136.975 -159.297)" fill="#91a0b8"/>
      <path id="Path_7896" data-name="Path 7896" d="M196.578,247.386q1.435,3.69,3.69,4.714c3.006,1.435,11.069-1.093,17.9-.683a54.73,54.73,0,0,1,14.417,3.416h0s15.442,1.913,17.218-.683c.82-1.3-4.578-3.075-9.087-3.553-1.708-.2-5.4-.547-9.224-.957-2.391,0-4.783-.068-6.833-.137h0c-2.255-.068-4.168-.137-5.4-.2-4.373-.342-14.417-.342-19.473-1.913h0C199.79,247.318,198.15,247.386,196.578,247.386Z" transform="translate(-191.727 -158.554)" fill="#fff"/>
      <path id="Path_7897" data-name="Path 7897" d="M190.5,371.1a3.915,3.915,0,0,0,.137,1.23c.342.683,15.92,11.547,19.951,8.267.137-.137.342-.273.41-.478-1.776.478-3.895,0-6.491-.752C201.637,378.479,193.711,373.218,190.5,371.1Z" transform="translate(-148.685 -197.75)" fill="#f9fbfc"/>
      <path id="Path_7898" data-name="Path 7898" d="M189.777,368.091c3.143,2.118,11.069,7.379,14.007,8.267.273.068.547.137.752.2,2.255.615,4.1.957,5.739.547,2.733-3.895-6.559-15.51-6.559-15.51h0a13.265,13.265,0,0,1-4.1,1.093h0a34.81,34.81,0,0,1-9.634-.41v.068A47.117,47.117,0,0,0,189.777,368.091Z" transform="translate(-147.962 -194.741)" fill="url(#linear-gradient-13)"/>
      <path id="Path_7899" data-name="Path 7899" d="M203.183,203.3c-.137.752-1.162,5.329-.41,9.087v.068a15.177,15.177,0,0,0,3.621-.615l.068-.068a6.373,6.373,0,0,1-3.28-5.056A14.287,14.287,0,0,1,203.183,203.3Z" transform="translate(-152.349 -144.6)" fill="#e3be8f"/>
      <path id="Path_7900" data-name="Path 7900" d="M196.711,201.293a19.8,19.8,0,0,0-.068,3.485,6.223,6.223,0,0,0,3.28,5.056.845.845,0,0,1,.2.137h.137l.137-.41,3.28-1.5a16,16,0,0,0-.41-8.062l-1.162.342a9.522,9.522,0,0,1,.273,4.509c-2.733-1.367.2-7.106-3.28-7.857-1.367-.273-2.118,1.708-2.391,4.168h0S196.711,201.224,196.711,201.293Z" transform="translate(-145.877 -142.593)" fill="#eed7ba"/>
      <path id="Path_7901" data-name="Path 7901" d="M190.518,197.389c-3.211-1.093-8.336-1.093-7.038,1.845a6.014,6.014,0,0,1,.342,1.025l1.162-.342c0-.137-.068-.273,0-.273a46.859,46.859,0,0,1,2.87,5.124,13.619,13.619,0,0,0,4.168.068l2.528-1.162a2.256,2.256,0,0,0,.342-1.571C194.14,198.277,193.661,198.482,190.518,197.389Z" transform="translate(-127.659 -142.515)" fill="#eed7ba"/>
      <path id="Path_7902" data-name="Path 7902" d="M187.6,200.9v.273a16,16,0,0,1,.41,8.062l6.628-3.143a13.959,13.959,0,0,1-4.168-.068C190.47,205.956,187.873,200.831,187.6,200.9Z" transform="translate(-130.343 -143.839)" fill="#e3be8f"/>
      <path id="Path_7903" data-name="Path 7903" d="M170.6,357.13c8.2,7.379,15.783,10.59,18.311,8.609a1.225,1.225,0,0,0,.342-.478c-1.845.478-3.963-.137-6.628-1.093-2.6-.888-8.609-5.671-11.82-8.267A3.573,3.573,0,0,0,170.6,357.13Z" transform="translate(-113.343 -192.935)" fill="#f9fbfc"/>
      <path id="Path_7904" data-name="Path 7904" d="M170.464,352.981c3.28,2.665,9.224,7.379,11.82,8.267a29.986,29.986,0,0,0,3.348,1.025,6.707,6.707,0,0,0,3.28.068c1.3-3.075-5.671-15.373-5.671-15.373l-.068-.068a.239.239,0,0,0-.137.068,3.912,3.912,0,0,0-.478.273c-.068.068-.2.068-.273.137-.342.2-.752.342-1.162.547a3.952,3.952,0,0,1-.957.342c-.342.137-.683.2-1.093.342-.2.068-.41.068-.615.137l-1.23.2a13.411,13.411,0,0,1-2.87,0,11.422,11.422,0,0,1-3.416-1.025C170.806,349.5,170.6,351.2,170.464,352.981Z" transform="translate(-113.071 -190.085)" fill="url(#linear-gradient-14)"/>
      <path id="Path_7905" data-name="Path 7905" d="M242.488,148.6a2.573,2.573,0,0,0,2.05,3.28s-1.093,1.913-1.845,1.5-1.093-3.075-1.093-3.075a2.487,2.487,0,0,0,.615-.82A8.724,8.724,0,0,0,242.488,148.6Z" transform="translate(-217.14 -127.274)" fill="#e3be8f"/>
      <path id="Path_7906" data-name="Path 7906" d="M211.485,198.046s-2.255,3.143-1.435,4.988c.752,1.64,8.609,2.87,10.8,3.211.068.547.137,1.162.2,1.708v.068h-.068c-1.981,0-11.137.2-12.845-.752H208a63.058,63.058,0,0,1,1.776-13.255,28.76,28.76,0,0,0,.615-3.348,6.83,6.83,0,0,0,3.553-1.366v.888a5.5,5.5,0,0,1-2.87,1.64C210.665,192.17,211.485,198.046,211.485,198.046Z" transform="translate(-170.694 -140.165)" fill="#e3be8f"/>
      <g id="Group_17971" data-name="Group 17971" transform="translate(51.312 59.11)">
        <path id="Path_7907" data-name="Path 7907" d="M199.5,226.027a5.4,5.4,0,0,0,.957,2.391l.2-.068.2-.547,3.485-11.342L202.78,215.3l-.137.41L199.5,226.027Z" transform="translate(-199.5 -207.511)" fill="#91a6b5"/>
        <path id="Path_7908" data-name="Path 7908" d="M175.4,225.414a4.185,4.185,0,0,0,4.1,1.64c4.031-.478,7.379-1.913,8.746-.957l.137-.137.137-.41,7.243-19.951-16.535,7.857L175.742,224.8l-.2.547Z" transform="translate(-174.443 -204.438)" fill="#a5b7c6"/>
        <path id="Path_7909" data-name="Path 7909" d="M178.68,210.186l6.559-3.143,2.528-1.162,4.1-1.981,1.708,1.093-16.535,7.857-1.64-1.162Z" transform="translate(-172.257 -203.9)" fill="#bdcad5"/>
        <g id="Group_17968" data-name="Group 17968" transform="translate(2.05 10.932)">
          <path id="Path_7910" data-name="Path 7910" d="M201.8,221.571l.41-1.366.068-.2.752.547-.478,1.5Z" transform="translate(-201.8 -219.932)" fill="#9aadba"/>
          <path id="Path_7911" data-name="Path 7911" d="M201.6,219.968l.137-.068.752.547-.137.068Z" transform="translate(-201.122 -219.9)" fill="#bdcad5"/>
          <path id="Path_7912" data-name="Path 7912" d="M202.078,220.768l.137-.068-.478,1.5-.137.068Z" transform="translate(-200.848 -220.153)" fill="#a5b7c6"/>
        </g>
        <g id="Group_17969" data-name="Group 17969" transform="translate(1.23 13.938)">
          <path id="Path_7913" data-name="Path 7913" d="M203.1,225.971l.41-1.367v-.2l.752.547-.478,1.5Z" transform="translate(-203.1 -224.332)" fill="#9aadba"/>
          <path id="Path_7914" data-name="Path 7914" d="M202.9,224.368l.2-.068.683.547-.137.068Z" transform="translate(-202.49 -224.3)" fill="#bdcad5"/>
          <path id="Path_7915" data-name="Path 7915" d="M203.378,225.168l.137-.068-.478,1.5-.137.068Z" transform="translate(-202.217 -224.553)" fill="#a5b7c6"/>
        </g>
        <g id="Group_17970" data-name="Group 17970" transform="translate(17.683 2.885)">
          <path id="Path_7916" data-name="Path 7916" d="M178.235,209c-.41.683-.478,1.367-.137,1.572s.957-.137,1.367-.82.478-1.367.137-1.571S178.645,208.38,178.235,209Z" transform="translate(-177.88 -208.122)" fill="#bdcad5"/>
          <path id="Path_7917" data-name="Path 7917" d="M178.681,209.3c-.273.478-.342.957-.137,1.162.273.137.683-.137.957-.615s.342-.957.137-1.162C179.433,208.547,179.023,208.82,178.681,209.3Z" transform="translate(-178.189 -208.289)" fill="#053b7c"/>
          <path id="Path_7918" data-name="Path 7918" d="M179.048,209.7c-.137.2-.137.41-.068.41.068.068.273-.068.41-.2.137-.2.137-.41.068-.41C179.389,209.423,179.184,209.56,179.048,209.7Z" transform="translate(-178.282 -208.55)" fill="#878cf0"/>
        </g>
      </g>
      <path id="Path_7919" data-name="Path 7919" d="M217.1,236.215c7.652.2,19.473.2,22.821-.273.137,0,.273-.068.41-.068,4.236-.957,10.112-7.447,9.361-9.292a1.158,1.158,0,0,0-.41-.547c-1.3-.957-4.714.478-8.746.957a3.942,3.942,0,0,1-4.1-1.64,5.7,5.7,0,0,1-.957-2.391s.615-6.081-.752-6.218-1.981,1.776-2.46,3.28-3.348,6.423-4.714,7.038c-.068.068-.273.068-.478.068a37.355,37.355,0,0,1-5.261-.82c-7.447-1.5-19.541-4.509-19.951-5.056-.615-.82.41-13.733.41-13.733v-.068c-3.485-.137-11.957-.547-16.535-2.05v.068c-.273,9.7,1.093,24.392,4.031,27.33a5.928,5.928,0,0,0,2.46,1.3c5.056,1.64,15.1,1.572,19.473,1.913C212.932,236.078,214.845,236.146,217.1,236.215Z" transform="translate(-184.167 -145.265)" fill="#eed7ba"/>
      <path id="Path_7920" data-name="Path 7920" d="M187.449,205.4h0c4.578,1.435,13.05,1.845,16.535,1.981v.068s0,.41-.068,1.093c-1.981.068-8.951.547-13.733-.41,0,0,.137,18.516,2.87,21.249,2.733,2.8,25.554,6.764,48.648,4.646,2.733-.273,5.944-2.528,8.609-4.441-1.845,2.528-5.329,5.6-8.131,6.218-.137,0-.273.068-.41.068-3.28.478-15.1.478-22.821.273-2.255-.068-4.168-.137-5.4-.2-4.373-.342-14.417-.342-19.473-1.913a5.516,5.516,0,0,1-2.46-1.3C188.543,229.792,187.108,215.1,187.449,205.4Z" transform="translate(-185.878 -145.265)" fill="#e3be8f"/>
      <path id="Path_7921" data-name="Path 7921" d="M212.3,144.071c1.64-.41,3.211.273,4.509.683a8.143,8.143,0,0,0,4.509.41c.137-.547.2-.888.2-.888v-.068a25.789,25.789,0,0,1-4.168-.82,12.719,12.719,0,0,0-3.553-.2,1.782,1.782,0,0,0-1.435.752A.212.212,0,0,0,212.3,144.071Z" transform="translate(-174.106 -125.546)" fill="#e3be8f"/>
      <path id="Path_7922" data-name="Path 7922" d="M241.3,215.6c.273.342,4.851,1.571,10.044,2.87a40.988,40.988,0,0,1-3.006-6.559c-.068-.137-.137-.342-.2-.478-1.435-4.1-4.168-18.175-4.1-23.436-.342,5.739-.82,13.938-.82,13.938s-.615,0-1.571-.068v.068C241.707,201.938,240.682,214.852,241.3,215.6Z" transform="translate(-223.601 -139.754)" fill="#fff"/>
      <path id="Path_7923" data-name="Path 7923" d="M175.3,250.437c.342.2.957.615,1.845,1.162.342.2.683.478,1.093.752a3.789,3.789,0,0,1,.547.41c.615.41,1.23.82,1.913,1.3.137.068.273.2.41.273.615.41,1.3.957,1.981,1.435h0c.547.342,1.025.752,1.571,1.162l.615.41c.41.273.752.615,1.162.888.41.342.82.615,1.23.957s.82.615,1.23.957c.615.478,1.23,1.025,1.845,1.5l1.23,1.025c.2.2.41.342.615.547.41.342.752.683,1.162,1.093.41.342.752.752,1.162,1.093,4.3,4.168,7.721,8.677,8.336,12.708.068.273.068.547.137.82a38.61,38.61,0,0,1,.273,3.963c.068,1.571,0,3.211-.068,4.919,0,.547-.068,1.093-.068,1.572h0c-.068.547-.068,1.093-.137,1.64-.068,1.162-.2,2.323-.342,3.553l-.2,1.845h0c-.137,1.3-.273,2.6-.478,3.963-.2,1.708-.478,3.553-.683,5.4-.068.752-.2,1.5-.273,2.323-.068.41-.068.82-.137,1.23-.068.82-.2,1.64-.273,2.46-.068.41-.068.82-.137,1.3-.137.888-.2,1.776-.273,2.665a9.257,9.257,0,0,0-.137,1.366c-.2,1.64-.342,3.348-.547,5.124,3.28,2.665,9.224,7.379,11.82,8.267a29.981,29.981,0,0,0,3.348,1.025c-2.05-1.845-4.714-4.3-6.7-6.218a15.771,15.771,0,0,1-4.578-7.174s5.671-41.883,2.665-48.169c-2.186-4.578-18.994-14.622-27.877-19.678A28.017,28.017,0,0,1,175.3,250.437Z" transform="translate(-142.367 -159.487)" fill="#fff"/>
      <path id="Path_7924" data-name="Path 7924" d="M225.529,263.8c12.23,8.267,23.982,14.348,25.9,17.628,1.913,3.348-.888,43.387-.068,44.07a6.44,6.44,0,0,0,1.162.342c.547.137,1.3.2,2.186.342-.137-4.714,3.28-42.02,2.05-45.778s-15.51-11.137-26.032-17.97c-8.609-5.6-12.5-10.454-13.528-15.237h-3.485C213.777,247.61,213.572,255.741,225.529,263.8Z" transform="translate(-210.565 -158.505)" fill="#fff"/>
      <path id="Path_7925" data-name="Path 7925" d="M198.914,368.376c3.143,2.118,11.069,7.379,14.007,8.267.273.068.547.137.752.2-2.528-2.05-5.466-4.373-6.9-5.671A18.006,18.006,0,0,1,201.51,364a23.408,23.408,0,0,0,7.174-1.093,34.809,34.809,0,0,1-9.634-.41v.068C199.051,362.5,198.846,366.326,198.914,368.376Z" transform="translate(-157.099 -195.026)" fill="#d5e1e7"/>
      <path id="Path_7926" data-name="Path 7926" d="M186,231a5.4,5.4,0,0,0,.957,2.391,4.185,4.185,0,0,0,4.1,1.64c4.031-.478,7.379-1.913,8.746-.957l.137-.137.137-.41c-3.075.2-10.454.615-11.547.273a3.767,3.767,0,0,1-1.23-.957c-.478-.615-.957-1.3-1.3-1.845Z" transform="translate(-134.688 -153.374)" fill="#d5e1e7"/>
    </g>
    <g id="Group_17975" data-name="Group 17975" transform="translate(52.115 81.307)">
      <g id="Group_17974" data-name="Group 17974" transform="translate(0)">
        <path id="Path_7927" data-name="Path 7927" d="M318.868,197.615v-.82c0-.068,0-.137.068-.137,0-.068,0-.137.068-.137,0-.068,0-.137.068-.137,0-.068,0-.137.068-.137a.238.238,0,0,1,.068-.137c0-.068.068-.068.068-.137s.068-.068.068-.137.068-.068.068-.137.068-.068.068-.137a.238.238,0,0,1,.068-.137c0-.068.068-.137.068-.2.068-.068.068-.2.137-.273a.518.518,0,0,0,.137-.273h0l.068-.068c.068-.068.137-.2.2-.273s.068-.137.137-.2l.137-.137.137-.137.137-.137h0l.068-.068.137-.137.137-.137.137-.137.068-.068h0a.067.067,0,0,0,.068-.068c.068-.068.068-.068.137-.068s.068-.068.137-.068.068-.068.137-.068.068-.068.137-.068h0l11.069-6.423.068-.068c.068,0,.068-.068.137-.068s.068-.068.137-.068.068-.068.137-.068.068,0,.137-.068h.068c.068,0,.068,0,.137-.068h.82a.251.251,0,0,1,.2.068c.068,0,.137.068.273.137l2.87,1.64a.987.987,0,0,0-.478-.137h0a1.458,1.458,0,0,0-.547,0h0a1.608,1.608,0,0,0-.547.137h0a2.427,2.427,0,0,0-.615.273l-11.069,6.423-.615.41h0a2.079,2.079,0,0,0-.547.547h0a5.161,5.161,0,0,0-.752.957l-.068.068a2.97,2.97,0,0,0-.273.478h0c-.068.2-.2.342-.273.547h0c-.137.342-.273.752-.41,1.093h0a1.505,1.505,0,0,0-.068.547h0v.547l.068,12.709a2.324,2.324,0,0,0,.068.683h0c.068.2.068.41.2.547h0a1.5,1.5,0,0,0,.2.342c0,.068.068.068.068.137a.682.682,0,0,0,.342.273l-2.87-1.64a1.2,1.2,0,0,1-.342-.273.239.239,0,0,1-.068-.137l-.137-.137c-.068-.068-.068-.137-.137-.2h0c0-.068-.068-.068-.068-.137a.238.238,0,0,0-.068-.137c0-.068,0-.068-.068-.137v-.068h0v-.615h0L318.8,198.23A5.579,5.579,0,0,0,318.868,197.615Z" transform="translate(-318.8 -186)" fill="#3e52c6"/>
        <g id="Group_17973" data-name="Group 17973" transform="translate(2.869 1.263)">
          <path id="Path_7928" data-name="Path 7928" d="M320.375,194.716a6.69,6.69,0,0,0-3.075,5.261l.068,12.709c0,1.913,1.367,2.733,3.075,1.708l11.069-6.423a6.69,6.69,0,0,0,3.075-5.261L334.518,190c0-1.913-1.367-2.733-3.075-1.708Z" transform="translate(-317.3 -187.849)" fill="#606bf1"/>
        </g>
      </g>
    </g>
    <g id="Group_17978" data-name="Group 17978" transform="translate(67.283 40.039)">
      <g id="Group_17977" data-name="Group 17977" transform="translate(0)">
        <path id="Path_7929" data-name="Path 7929" d="M301.8,135.439v-.957c0-.068,0-.068.068-.137,0-.068,0-.068.068-.137,0-.068,0-.068.068-.137,0-.068,0-.068.068-.137,0-.068,0-.068.068-.137,0-.068,0-.068.068-.137,0-.068,0-.068.068-.137,0-.068.068-.068.068-.137s.068-.068.068-.137.068-.068.068-.137c.068-.068.068-.137.137-.2s.068-.137.137-.2h0a.067.067,0,0,1,.068-.068c.068-.068.137-.137.137-.2l.137-.137c0-.068.068-.068.068-.137s.068-.068.068-.137.068-.068.068-.137h0l.068-.068.137-.137c.068-.068.068-.068.137-.068s.068-.068.137-.068a.067.067,0,0,0,.068-.068h0l.068-.068c.068,0,.068-.068.137-.068s.068-.068.137-.068.068-.068.137-.068.068-.068.137-.068h0l9.019-5.193a.067.067,0,0,0,.068-.068l.068-.068a577.186,577.186,0,0,1,.137-.137.067.067,0,0,0,.068-.068h.888c.068,0,.137,0,.137.068.068,0,.137.068.2.068l2.323,1.367c-.137-.068-.2-.137-.342-.137h-.41c-.137,0-.273.068-.478.068h0c-.137.068-.342.137-.478.2l-9.019,5.193a2.076,2.076,0,0,0-.478.342h0c-.137.137-.342.273-.478.41h0a7.261,7.261,0,0,0-.615.752.067.067,0,0,1-.068.068,1.5,1.5,0,0,1-.2.342h0l-.2.41h0c-.137.273-.2.615-.342.888h0a1.013,1.013,0,0,0-.068.478h0v10.864a1.5,1.5,0,0,0,.068.547h0a.732.732,0,0,0,.137.41h0a.943.943,0,0,0,.2.273l.068.068c.068.068.2.137.273.2l-2.323-1.367c-.068-.068-.2-.137-.273-.205l-.068-.068c0-.068-.068-.068-.068-.137a.239.239,0,0,0-.068-.137h0c0-.068-.068-.068-.068-.137s0-.068-.068-.137V146.1h0v-.615h0V135.1C301.8,135.576,301.8,135.507,301.8,135.439Z" transform="translate(-301.8 -125.6)" fill="#14939c"/>
        <g id="Group_17976" data-name="Group 17976" transform="translate(2.323 1.526)">
          <path id="Path_7930" data-name="Path 7930" d="M303.16,133.345a5.546,5.546,0,0,0-2.46,4.3v10.385c0,1.571,1.093,2.186,2.528,1.435l9.019-5.193a5.546,5.546,0,0,0,2.46-4.3V129.587c0-1.571-1.093-2.186-2.528-1.435Z" transform="translate(-300.7 -127.833)" fill="#1cc6d3"/>
        </g>
      </g>
    </g>
    <g id="Group_17981" data-name="Group 17981" transform="translate(94.272)">
      <g id="Group_17980" data-name="Group 17980">
        <path id="Path_7931" data-name="Path 7931" d="M270.4,72.944v-.957a576.714,576.714,0,0,0,.137-.137.067.067,0,0,1,.068-.068c0-.068.068-.068.068-.137s.068-.068.068-.137h0v-.068c0-.068.068-.068.137-.137l.068-.068.068-.068.068-.068.068-.068h0l.068-.068.068-.068.068-.068.068-.068h.068l.068-.068.068-.068a288.526,288.526,0,0,0,.137-.137h0l5.944-3.416h.068a.067.067,0,0,0,.068-.068h.888c.068,0,.068.068.137.068l1.5.888c-.068-.068-.137-.068-.273-.068h-.273a.411.411,0,0,0-.273.068h0c-.137.068-.2.068-.342.137l-5.944,3.416c-.137.068-.2.137-.342.2h0c-.137.068-.2.2-.273.273h0c-.137.137.041.349-.1.486v.068c-.068.068-.068.137-.137.273h0c-.068.068-.068.2-.137.273h0l-.2.615h0c0,.068-.068.2-.068.273h0v.273l.164,6.608V81.2h0c0,.137.068.2.068.273h0c0,.068.068.137.137.2a.067.067,0,0,0,.068.068c.068.068.137.137.2.137l-1.981-.672c-.068-.068-.137-.068-.205-.137a.067.067,0,0,0-.068-.068l-.068-.068c0-.068-.068-.068-.068-.137h0a.067.067,0,0,0-.068-.068v-.2h0v-.342h0V73.354A1.338,1.338,0,0,0,270.4,72.944Z" transform="translate(-270.2 -67)" fill="#283448"/>
        <g id="Group_17979" data-name="Group 17979" transform="translate(1.708 0.484)">
          <path id="Path_7932" data-name="Path 7932" d="M270.74,71.324a3.673,3.673,0,0,0-1.64,2.8v6.833c0,1.025.752,1.435,1.64.957l5.944-3.416a3.673,3.673,0,0,0,1.64-2.8V68.864c0-1.025-.752-1.435-1.64-.957Z" transform="translate(-269.1 -67.709)" fill="#617392"/>
        </g>
      </g>
    </g>
    <g id="Group_17984" data-name="Group 17984" transform="translate(128.435 3.895)">
      <g id="Group_17983" data-name="Group 17983" transform="translate(0)">
        <path id="Path_7933" data-name="Path 7933" d="M207.168,84.315V83.5c0-.068,0-.137.068-.137,0-.068,0-.137.068-.137,0-.068,0-.137.068-.137,0-.068,0-.137.068-.137a.239.239,0,0,1,.068-.137c0-.068.068-.068.068-.137s.068-.068.068-.137.068-.068.068-.137.068-.068.068-.137a.239.239,0,0,1,.068-.137c0-.068.068-.137.068-.2.068-.068.068-.2.137-.273a.518.518,0,0,0,.137-.273h0l.068-.068c.068-.068.137-.2.2-.273s.068-.137.137-.2l.137-.137.137-.137.137-.137h0l.068-.068.137-.137.137-.137.137-.137.068-.068h0a.067.067,0,0,0,.068-.068c.068-.068.068-.068.137-.068s.068-.068.137-.068.068-.068.137-.068.068-.068.137-.068h0l11.069-6.423.068-.068c.068,0,.068-.068.137-.068s.068-.068.137-.068.068-.068.137-.068.068,0,.137-.068h.068c.068,0,.068,0,.137-.068h.82a.251.251,0,0,1,.2.068c.068,0,.137.068.273.137l2.87,1.64a.987.987,0,0,0-.478-.137h0a1.458,1.458,0,0,0-.547,0h0a1.608,1.608,0,0,0-.547.137h0a2.427,2.427,0,0,0-.615.273l-11.069,6.423-.615.41h0a2.079,2.079,0,0,0-.547.547h0a5.159,5.159,0,0,0-.752.957l-.068.068a2.971,2.971,0,0,0-.273.478h0c-.068.2-.2.342-.273.547h0c-.137.342-.273.752-.41,1.093h0a1.5,1.5,0,0,0-.068.547h0v.547l.068,12.709a2.324,2.324,0,0,0,.068.683h0c.068.2.068.41.2.547h0a1.493,1.493,0,0,0,.2.342c0,.068.068.068.068.137a.682.682,0,0,0,.342.273l-2.87-1.64a1.2,1.2,0,0,1-.342-.273.239.239,0,0,1-.068-.137l-.137-.137c-.068-.068-.068-.137-.137-.2h0c0-.068-.068-.068-.068-.137a.238.238,0,0,0-.068-.137c0-.068,0-.068-.068-.137v-.068h0v-.615h0L207.1,84.93C207.168,84.384,207.168,84.315,207.168,84.315Z" transform="translate(-207.1 -72.7)" fill="#3e52c6"/>
        <g id="Group_17982" data-name="Group 17982" transform="translate(2.87 1.263)">
          <path id="Path_7934" data-name="Path 7934" d="M208.675,81.416a6.69,6.69,0,0,0-3.075,5.261l.068,12.709c0,1.913,1.367,2.733,3.075,1.708l11.069-6.423a6.69,6.69,0,0,0,3.075-5.261L222.818,76.7c0-1.913-1.367-2.733-3.075-1.708Z" transform="translate(-205.6 -74.549)" fill="#606bf1"/>
        </g>
      </g>
    </g>
    <g id="Group_17987" data-name="Group 17987" transform="translate(212.629 164.425)">
      <g id="Group_17985" data-name="Group 17985" transform="translate(0 6.405)">
        <path id="Path_7935" data-name="Path 7935" d="M60.411,325.48c-1.981,1.162-1.981,3.006,0,4.168l12.982,7.584a7.821,7.821,0,0,0,7.174,0l13.05-7.584c1.981-1.161,1.981-3.006,0-4.168L80.635,317.9a7.82,7.82,0,0,0-7.174,0Z" transform="translate(-58.925 -317.025)" fill="#d5e1e7"/>
      </g>
      <path id="Path_7936" data-name="Path 7936" d="M62.751,321.015h0a3.33,3.33,0,0,0,.2.478.067.067,0,0,0,.068.068,1.812,1.812,0,0,0,.342.41c.068.068.2.137.273.2a.943.943,0,0,0,.273.2l11,6.423a2.425,2.425,0,0,0,.615.273.239.239,0,0,1,.137.068c.137.068.273.068.41.137s.273.068.41.137a1.332,1.332,0,0,0,.547.068h.137c.2,0,.478.068.752.068h.137a2.324,2.324,0,0,0,.683-.068h.137a2.426,2.426,0,0,0,.683-.137H79.7l.615-.2c.068,0,.068,0,.137-.068a3.191,3.191,0,0,0,.683-.342L92.2,322.313a2.281,2.281,0,0,0,1.3-1.776V327.1a2.138,2.138,0,0,1-1.3,1.776l-11.069,6.423a2.428,2.428,0,0,1-.615.273h-.068c-.068,0-.068,0-.137.068-.137.068-.273.068-.41.137-.068,0-.137.068-.2.068h-.273c-.137,0-.273.068-.41.068H77.031a.512.512,0,0,1-.342-.068c-.068,0-.137,0-.137-.068a.971.971,0,0,1-.41-.137.251.251,0,0,1-.2-.068c-.068,0-.137-.068-.2-.068a.239.239,0,0,1-.137-.068c-.2-.068-.41-.2-.615-.273l-11-6.423h-.068c-.068-.068-.137-.137-.2-.137a.944.944,0,0,1-.273-.2h0l-.273-.273a494.337,494.337,0,0,0-.137-.137c0-.068-.068-.068-.068-.137-.068-.068-.068-.137-.137-.273v-.137a.239.239,0,0,0-.068-.137v-6.9C62.683,320.742,62.683,320.878,62.751,321.015Z" transform="translate(-59.899 -311.688)" fill="#14939c"/>
      <g id="Group_17986" data-name="Group 17986" transform="translate(2.733)">
        <path id="Path_7937" data-name="Path 7937" d="M64.206,314.79c-1.708.957-1.708,2.528,0,3.553l11,6.423a6.8,6.8,0,0,0,6.081,0l11.069-6.423c1.708-.957,1.708-2.528,0-3.553l-11-6.423a6.8,6.8,0,0,0-6.081,0Z" transform="translate(-62.925 -307.65)" fill="#1cc6d3"/>
      </g>
    </g>
    <g id="Group_17990" data-name="Group 17990" transform="translate(39.219 206.445)">
      <g id="Group_17988" data-name="Group 17988" transform="translate(0 6.405)">
        <path id="Path_7938" data-name="Path 7938" d="M314.111,386.98c-1.981,1.162-1.981,3.006,0,4.168l12.982,7.584a7.821,7.821,0,0,0,7.174,0l13.118-7.584c1.981-1.161,1.981-3.006,0-4.168L334.4,379.4a7.821,7.821,0,0,0-7.174,0Z" transform="translate(-312.625 -378.525)" fill="#d5e1e7"/>
      </g>
      <path id="Path_7939" data-name="Path 7939" d="M316.53,382.515h0a3.337,3.337,0,0,0,.2.478.067.067,0,0,0,.068.068,1.81,1.81,0,0,0,.342.41c.068.068.2.137.273.2a.943.943,0,0,0,.273.2l11,6.423a2.424,2.424,0,0,0,.615.273.238.238,0,0,1,.137.068c.137.068.273.068.41.137s.273.068.41.137a1.332,1.332,0,0,0,.547.068h.137c.2,0,.478.068.752.068h.137a2.326,2.326,0,0,0,.683-.068h.137a2.428,2.428,0,0,0,.683-.137h.137l.615-.2c.068,0,.068,0,.137-.068a3.191,3.191,0,0,0,.683-.342l11.069-6.423a2.281,2.281,0,0,0,1.3-1.776V388.6a2.138,2.138,0,0,1-1.3,1.776l-11.069,6.423a2.429,2.429,0,0,1-.615.273h-.068c-.068,0-.068,0-.137.068-.137.068-.273.068-.41.137-.068,0-.137.068-.2.068H333.2c-.137,0-.273.068-.41.068H330.81a.512.512,0,0,1-.342-.068c-.068,0-.137,0-.137-.068a.971.971,0,0,1-.41-.137.251.251,0,0,1-.205-.068c-.068,0-.137-.068-.2-.068a.239.239,0,0,1-.137-.068c-.2-.068-.41-.2-.615-.273l-11-6.423h-.068c-.068-.068-.137-.137-.2-.137a.942.942,0,0,1-.273-.2h0l-.273-.273a432.861,432.861,0,0,0-.137-.137c0-.068-.068-.068-.068-.137-.068-.068-.068-.137-.137-.273v-.137a.239.239,0,0,0-.068-.137v-6.9A1.745,1.745,0,0,0,316.53,382.515Z" transform="translate(-313.678 -373.189)" fill="#14939c"/>
      <g id="Group_17989" data-name="Group 17989" transform="translate(2.801)">
        <path id="Path_7940" data-name="Path 7940" d="M317.906,376.29c-1.708.957-1.708,2.528,0,3.553l11,6.423a6.8,6.8,0,0,0,6.081,0l11.069-6.423c1.708-.957,1.708-2.528,0-3.553l-11-6.423a6.8,6.8,0,0,0-6.081,0Z" transform="translate(-316.625 -369.15)" fill="#1cc6d3"/>
      </g>
    </g>
    <g id="Group_17993" data-name="Group 17993" transform="translate(150.248 240.71)">
      <g id="Group_17991" data-name="Group 17991" transform="translate(0 3.655)">
        <path id="Path_7941" data-name="Path 7941" d="M173.9,429.467c-1.162.683-1.162,1.708,0,2.391l7.379,4.3a4.355,4.355,0,0,0,4.1,0l7.379-4.3c1.162-.683,1.162-1.708,0-2.391l-7.379-4.3a4.355,4.355,0,0,0-4.1,0Z" transform="translate(-173.025 -424.65)" fill="#d5e1e7"/>
      </g>
      <path id="Path_7942" data-name="Path 7942" d="M175.4,427.005h0c.068.137.068.2.137.273v.068l.2.2c.068.068.137.068.205.137l.137.137,6.218,3.621c.137.068.2.137.342.137a.067.067,0,0,1,.068.068c.068,0,.137.068.2.068s.137.068.273.068c.068,0,.2.068.273.068h1.025c.137,0,.273-.068.41-.068h.068c.137,0,.2-.068.342-.137h.068a1.493,1.493,0,0,0,.342-.2L192,427.825a1.231,1.231,0,0,0,.752-1.025v3.758a1.323,1.323,0,0,1-.752,1.025l-6.286,3.621c-.137.068-.2.137-.342.137h-.068c-.068,0-.137.068-.2.068h-.273a.516.516,0,0,0-.273.068h-1.367c-.068,0-.137-.068-.273-.068h-.137c-.068,0-.068,0-.068-.068a.067.067,0,0,1-.068-.068c-.137-.068-.2-.068-.342-.137l-6.218-3.621h0c-.068,0-.068-.068-.137-.068-.068-.068-.137-.068-.205-.137h0l-.137-.137v-.137a.067.067,0,0,0-.068-.068c0-.068-.068-.068-.068-.137h0v-.205h0v-3.758C175.4,426.8,175.4,426.868,175.4,427.005Z" transform="translate(-173.777 -421.676)" fill="#283448"/>
      <g id="Group_17992" data-name="Group 17992" transform="translate(1.589)">
        <path id="Path_7943" data-name="Path 7943" d="M176.167,423.331a1.043,1.043,0,0,0,0,1.981l6.218,3.621a3.764,3.764,0,0,0,3.416,0l6.286-3.621a1.043,1.043,0,0,0,0-1.981l-6.218-3.621a3.764,3.764,0,0,0-3.416,0Z" transform="translate(-175.45 -419.3)" fill="#617392"/>
      </g>
    </g>
    <g id="Group_17996" data-name="Group 17996" transform="translate(190.201 230.701)">
      <g id="Group_17994" data-name="Group 17994" transform="translate(0 2.682)">
        <path id="Path_7944" data-name="Path 7944" d="M123.315,412.077a.9.9,0,0,0,0,1.708l5.4,3.143a3.329,3.329,0,0,0,3.006,0l5.4-3.143a.9.9,0,0,0,0-1.708l-5.4-3.143a3.328,3.328,0,0,0-3.006,0Z" transform="translate(-122.7 -408.575)" fill="#d5e1e7"/>
      </g>
      <path id="Path_7945" data-name="Path 7945" d="M124.3,410.2h0c0,.068.068.137.068.2h0c.068.068.068.137.137.137s.068.068.137.068.068.068.137.068l4.578,2.665c.068.068.137.068.273.137h.068a.239.239,0,0,1,.137.068,863915550426.392,863915550426.392,0,0,1,.41.137H131a.411.411,0,0,0,.273-.068h.068c.068,0,.137-.068.273-.068h.068c.068-.068.2-.068.273-.137l4.578-2.665a.958.958,0,0,0,.547-.752v2.733a.958.958,0,0,1-.547.752l-4.578,2.665c-.068.068-.137.068-.273.137h-.068a.239.239,0,0,0-.137.068h-1.5a.251.251,0,0,1-.2-.068h-.205c-.068-.068-.2-.068-.273-.137l-4.578-2.665h0l-.068-.068c-.068,0-.068-.068-.137-.068h0l-.137-.137h0v-.068l-.068-.068h0v-.137h0V410.2C124.3,410.068,124.3,410.137,124.3,410.2Z" transform="translate(-123.139 -406.345)" fill="#3e52c6"/>
      <g id="Group_17995" data-name="Group 17995" transform="translate(1.196)">
        <path id="Path_7946" data-name="Path 7946" d="M124.862,407.622c-.683.41-.683,1.025,0,1.435l4.578,2.665a2.752,2.752,0,0,0,2.528,0l4.578-2.665c.683-.41.683-1.025,0-1.435l-4.578-2.665a2.752,2.752,0,0,0-2.528,0Z" transform="translate(-124.35 -404.65)" fill="#606bf1"/>
      </g>
    </g>
    <g id="Group_17999" data-name="Group 17999" transform="translate(0 208.734)">
      <g id="Group_17997" data-name="Group 17997" transform="translate(0 3.587)">
        <path id="Path_7947" data-name="Path 7947" d="M393.8,382.567c-1.162.683-1.162,1.708,0,2.391l7.379,4.3a4.355,4.355,0,0,0,4.1,0l7.379-4.3c1.162-.683,1.162-1.708,0-2.391l-7.379-4.3a4.355,4.355,0,0,0-4.1,0Z" transform="translate(-392.925 -377.75)" fill="#d5e1e7"/>
      </g>
      <path id="Path_7948" data-name="Path 7948" d="M395.345,380.1h0c.068.137.068.2.137.273v.068l.2.2c.068.068.137.068.2.137l.137.137,6.218,3.621c.137.068.2.137.342.137a.067.067,0,0,1,.068.068c.068,0,.137.068.2.068s.137.068.273.068c.068,0,.2.068.273.068h1.025c.137,0,.273-.068.41-.068h.068c.137,0,.2-.068.342-.137h.068a1.5,1.5,0,0,0,.342-.205l6.286-3.621a1.231,1.231,0,0,0,.752-1.025v3.758a1.323,1.323,0,0,1-.752,1.025l-6.286,3.621c-.137.068-.205.137-.342.137h-.068c-.068,0-.137.068-.2.068h-.273a.516.516,0,0,0-.273.068h-1.367c-.068,0-.137-.068-.273-.068h-.137c-.068,0-.068,0-.068-.068a.067.067,0,0,1-.068-.068c-.137-.068-.2-.068-.342-.137l-6.218-3.621h0c-.068,0-.068-.068-.137-.068-.068-.068-.137-.068-.2-.137h0l-.137-.137v-.137a.067.067,0,0,0-.068-.068c0-.068-.068-.068-.068-.137h0v-.2h0v-3.758C395.276,379.968,395.276,380.037,395.345,380.1Z" transform="translate(-393.722 -374.844)" fill="#3e52c6"/>
      <g id="Group_17998" data-name="Group 17998" transform="translate(1.589)">
        <path id="Path_7949" data-name="Path 7949" d="M396.067,376.531a1.043,1.043,0,0,0,0,1.981l6.218,3.621a3.764,3.764,0,0,0,3.416,0l6.286-3.621a1.043,1.043,0,0,0,0-1.981l-6.218-3.621a3.763,3.763,0,0,0-3.416,0Z" transform="translate(-395.35 -372.5)" fill="#606bf1"/>
      </g>
    </g>
    <g id="Group_18000" data-name="Group 18000" transform="translate(99.123 151.648)">
      <path id="Path_7950" data-name="Path 7950" d="M275.67,299.37l.615-1.025-2.255-1.3v-6.7a15.67,15.67,0,0,0,1.64.888l.683-1.025c-.068,0-.2-.137-2.118-1.161a1.164,1.164,0,0,0-.957,0,.948.948,0,0,0-.478.82v7.311a.948.948,0,0,0,.478.82Zm-1.845-2.391Z" transform="translate(-272.8 -288.95)" fill="url(#linear-gradient-15)"/>
    </g>
    <g id="XMLID_39_" transform="translate(100.763 149.154)">
      <g id="Group_18001" data-name="Group 18001" transform="translate(0)">
        <path id="Path_7951" data-name="Path 7951" d="M261.511,304.7c-4.031,0-7.311,1.64-7.311,3.621s3.28,3.621,7.311,3.621,7.311-1.64,7.311-3.621S265.542,304.7,261.511,304.7Z" transform="translate(-254.2 -291.445)" fill="#e6e7e8"/>
        <path id="Path_7952" data-name="Path 7952" d="M256.32,290.967c.957,1.025,3.075,1.708,5.534,1.708s4.509-.683,5.534-1.708a2.1,2.1,0,0,0,.615-1.3v13.187c0,1.64-2.733,3.006-6.081,3.006s-6.081-1.366-6.081-3.006V289.6A1.35,1.35,0,0,0,256.32,290.967Z" transform="translate(-254.476 -286.662)" fill="url(#linear-gradient-16)"/>
        <path id="Path_7953" data-name="Path 7953" d="M256.8,288.56a1.318,1.318,0,0,0,.2.683c.683-1.025,2.8-1.776,5.329-1.776s4.646.752,5.329,1.776a1.154,1.154,0,0,0,.2-.683c0-1.366-2.46-2.46-5.534-2.46C259.328,286.1,256.8,287.193,256.8,288.56Z" transform="translate(-255.024 -285.553)" fill="url(#linear-gradient-17)"/>
        <path id="Path_7954" data-name="Path 7954" d="M257,289.876c.683,1.025,2.8,1.776,5.329,1.776s4.646-.752,5.329-1.776c-.683-1.025-2.8-1.776-5.329-1.776S257.615,288.852,257,289.876Z" transform="translate(-254.95 -286.187)" fill="#053b7c"/>
        <path id="Path_7955" data-name="Path 7955" d="M261.913,285.847c3.075,0,5.534,1.093,5.534,2.46a1.318,1.318,0,0,1-.2.683c-.683,1.025-2.8,1.776-5.329,1.776s-4.646-.752-5.329-1.776a1.154,1.154,0,0,1-.2-.683C256.378,286.94,258.906,285.847,261.913,285.847Zm0,5.466c2.46,0,4.509-.683,5.534-1.708a2.1,2.1,0,0,0,.615-1.3c0-1.64-2.733-3.006-6.081-3.006s-6.081,1.367-6.081,3.006a1.79,1.79,0,0,0,.615,1.3C257.4,290.629,259.521,291.313,261.913,291.313Z" transform="translate(-254.602 -285.3)" fill="#f9f8f7"/>
      </g>
    </g>
    <path id="Path_7956" data-name="Path 7956" d="M365.042,345.69H364.5c-.273,0-.547-.068-.752-.068-.273-.068-.547-.068-.752-.137l-.82-.2a5.349,5.349,0,0,1-.957-.342,8.9,8.9,0,0,1-1.162-.547l-60.331-34.846a3.873,3.873,0,0,1-2.323-3.28l.068-16.466c0,1.162.752,2.323,2.323,3.28l60.331,34.846a6.058,6.058,0,0,0,1.162.547c.342.137.615.2.957.342l.82.2c.273.068.547.068.752.137a2.8,2.8,0,0,0,.752.068h.478V345.69Z" transform="translate(-279.174 -137.571)" fill="url(#linear-gradient-18)"/>
    <g id="Group_18002" data-name="Group 18002" transform="translate(150.066 7.609)">
      <path id="Path_7957" data-name="Path 7957" d="M197.012,157.847a.646.646,0,0,0,.683-.683V83.236a5.116,5.116,0,0,0-7.584-4.441l-4.441,2.46a.7.7,0,1,0,.683,1.23l4.441-2.46a3.578,3.578,0,0,1,3.69.068,3.727,3.727,0,0,1,1.845,3.211v73.928A.675.675,0,0,0,197.012,157.847Z" transform="translate(-185.3 -78.137)" fill="#e3e5e7"/>
    </g>
    <g id="Group_18003" data-name="Group 18003" transform="translate(100.08 14.963)">
      <path id="Path_7958" data-name="Path 7958" d="M242.193,112.609a3.546,3.546,0,0,0,1.845-.478l20.156-11.615a.7.7,0,1,0-.683-1.23L243.355,110.9a2.347,2.347,0,0,1-2.323,0,2.246,2.246,0,0,1-1.162-2.05V89.583a.683.683,0,0,0-1.367,0v19.268a3.817,3.817,0,0,0,3.69,3.758Z" transform="translate(-238.503 -88.9)" fill="#e3e5e7"/>
    </g>
    <g id="Group_18004" data-name="Group 18004" transform="translate(73.501 22.314)">
      <path id="Path_7959" data-name="Path 7959" d="M275.442,119.57a.645.645,0,0,0,.683-.683V117.11a2.788,2.788,0,0,1,1.435-2.46l24.665-13.665a.7.7,0,1,0-.683-1.23L276.877,113.42a4.192,4.192,0,0,0-2.118,3.621v1.776A.7.7,0,0,0,275.442,119.57Z" transform="translate(-274.759 -99.659)" fill="#e3e5e7"/>
    </g>
    <g id="Group_18005" data-name="Group 18005" transform="translate(56.556 59.855)">
      <path id="Path_7960" data-name="Path 7960" d="M326.887,179.608a.646.646,0,0,0,.683-.683v-15.51a5,5,0,0,1,2.6-4.441L335.5,155.9a.7.7,0,1,0-.683-1.23l-5.329,3.075a6.634,6.634,0,0,0-3.28,5.6v15.51A.7.7,0,0,0,326.887,179.608Z" transform="translate(-326.203 -154.603)" fill="#e3e5e7"/>
    </g>
    <g id="Group_18006" data-name="Group 18006" transform="translate(225.429 148.716)">
      <path id="Path_7961" data-name="Path 7961" d="M74.277,307.1a.616.616,0,0,0,.342-.068l4.031-2.186a3.512,3.512,0,0,0,1.776-2.938,3.3,3.3,0,0,0-1.708-2.938L54.053,284.755a.7.7,0,0,0-.683,1.23L78.035,300.2a2.039,2.039,0,0,1,1.025,1.776,1.93,1.93,0,0,1-1.025,1.708L74,305.868a.691.691,0,0,0-.273.957A.71.71,0,0,0,74.277,307.1Z" transform="translate(-53 -284.659)" fill="#e3e5e7"/>
    </g>
    <g id="Group_18007" data-name="Group 18007" transform="translate(200.589 187.009)">
      <path id="Path_7962" data-name="Path 7962" d="M77.681,385.044a.616.616,0,0,0,.342-.068L111.57,365.64a2.607,2.607,0,0,0,0-4.509l-23.641-13.6a1.279,1.279,0,0,1,0-2.186L93.737,342a.7.7,0,0,0-.683-1.23l-5.808,3.348a2.607,2.607,0,0,0,0,4.509l23.641,13.6a1.279,1.279,0,0,1,0,2.186L77.339,383.746a.756.756,0,0,0-.273.957A.717.717,0,0,0,77.681,385.044Z" transform="translate(-77 -340.703)" fill="#e3e5e7"/>
    </g>
    <g id="Group_18008" data-name="Group 18008" transform="translate(167.792 239.668)">
      <path id="Path_7963" data-name="Path 7963" d="M155.619,424.351a6.2,6.2,0,0,0,2.87-.752l6.286-3.621a.7.7,0,0,0-.683-1.23l-6.286,3.621a4.39,4.39,0,0,1-4.3,0l-6.628-3.826a5.614,5.614,0,0,0-5.671,0l-2.46,1.435a.7.7,0,1,0,.683,1.23l2.46-1.435a4.39,4.39,0,0,1,4.3,0l6.628,3.826A4.934,4.934,0,0,0,155.619,424.351Z" transform="translate(-138.403 -417.775)" fill="#e3e5e7"/>
    </g>
    <g id="Group_18009" data-name="Group 18009" transform="translate(66.231 231.185)">
      <path id="Path_7964" data-name="Path 7964" d="M262.836,439.618a11.44,11.44,0,0,0,5.739-1.5l17.97-10.18a.7.7,0,0,0-.683-1.23l-17.97,10.18a10.348,10.348,0,0,1-10.249-.068l-54.387-31.361a.7.7,0,1,0-.683,1.23l54.387,31.361A12.216,12.216,0,0,0,262.836,439.618Z" transform="translate(-202.203 -405.359)" fill="#e3e5e7"/>
    </g>
    <g id="Group_18010" data-name="Group 18010" transform="translate(15.973 206.274)">
      <path id="Path_7965" data-name="Path 7965" d="M387.349,379.764a.815.815,0,0,0,.615-.342.691.691,0,0,0-.273-.957l-15.168-8.746a6.3,6.3,0,0,0-6.218,0l-3.006,1.708a.7.7,0,0,0,.683,1.23l3.006-1.708a4.749,4.749,0,0,1,4.851,0l15.168,8.746A.512.512,0,0,0,387.349,379.764Z" transform="translate(-362.959 -368.9)" fill="#e3e5e7"/>
    </g>
  </g>
</svg>
