<svg xmlns="http://www.w3.org/2000/svg" xmlns:xlink="http://www.w3.org/1999/xlink" width="686.601" height="473.264" viewBox="0 0 686.601 473.264">
  <defs>
    <linearGradient id="linear-gradient" x1="0.5" y1="0.923" x2="0.5" gradientUnits="objectBoundingBox">
      <stop offset="0" stop-color="#5766e5" stop-opacity="0.078"/>
      <stop offset="0.126" stop-color="#5766e5" stop-opacity="0.102"/>
      <stop offset="0.305" stop-color="#5766e5" stop-opacity="0.2"/>
      <stop offset="0.516" stop-color="#5766e5" stop-opacity="0.502"/>
      <stop offset="0.752" stop-color="#5766e5" stop-opacity="0.502"/>
      <stop offset="1" stop-color="#5766e5"/>
    </linearGradient>
  </defs>
  <g id="Group_18111" data-name="Group 18111" transform="translate(-221.399 -366.184)">
    <g id="illustration_02" data-name="illustration 02" transform="translate(-445.601 102.641)">
      <path id="Path_8361" data-name="Path 8361" d="M784.423,727.993h278.269c62.032-42.757,102.6-113.288,102.6-193.018,0-130.46-108.206-254.875-241.645-254.875S682,404.6,682,534.975C681.912,614.793,722.391,685.324,784.423,727.993Z" transform="translate(-1.858 -2.05)" opacity="0.42" fill="url(#linear-gradient)"/>
      <ellipse id="Ellipse_223" data-name="Ellipse 223" cx="254.7" cy="10.076" rx="254.7" ry="10.076" transform="translate(667 716.656)" fill="#190b3d" opacity="0.09"/>
      <g id="Group_18072" data-name="Group 18072" transform="translate(779.359 444.871)">
        <rect id="Rectangle_7186" data-name="Rectangle 7186" width="11.565" height="110.834" transform="translate(47.628 161.038)" fill="#aac6ce"/>
        <rect id="Rectangle_7187" data-name="Rectangle 7187" width="11.565" height="15.596" transform="translate(47.628 161.038)" fill="#85b0ba"/>
        <path id="Path_8362" data-name="Path 8362" d="M903.769,780.8H797.315a2.038,2.038,0,0,0-2.015,2.015v8.148H905.871v-8.148A2.181,2.181,0,0,0,903.769,780.8Z" transform="translate(-795.248 -508.927)" fill="#aac6ce"/>
        <path id="Path_8363" data-name="Path 8363" d="M821.227,631.626h80.256c-29.176-10.514-17.874-109.345-12.529-146.845A12.562,12.562,0,0,0,876.513,470.5H823.067a21.911,21.911,0,0,0-21.729,18.925c-4.731,34.083-12.091,104.614,2.541,131.95A19.727,19.727,0,0,0,821.227,631.626Z" transform="translate(-795.24 -470.5)" fill="#aac6ce"/>
      </g>
      <g id="Group_18075" data-name="Group 18075" transform="translate(693.651 263.543)">
        <circle id="Ellipse_224" data-name="Ellipse 224" cx="56.25" cy="56.25" r="56.25" transform="matrix(0.976, -0.218, 0.218, 0.976, 0, 24.536)" fill="#1cc6d3"/>
        <circle id="Ellipse_225" data-name="Ellipse 225" cx="45.998" cy="45.998" r="45.998" transform="translate(21.188 21.165)" fill="#f9fbff"/>
        <path id="Path_8364" data-name="Path 8364" d="M774.1,302.4" transform="translate(-706.914 -268.355)" fill="none" stroke="#3e8ccc" stroke-width="1"/>
        <g id="Group_18074" data-name="Group 18074" transform="translate(51.262 31.591)">
          <g id="Group_18073" data-name="Group 18073">
            <path id="Path_8365" data-name="Path 8365" d="M758.794,350.855a2.662,2.662,0,0,1-2.015-.876,2.8,2.8,0,0,1,0-4.03l12-12V302.491a2.891,2.891,0,1,1,5.783,0v32.681a2.537,2.537,0,0,1-.876,2.015L760.9,349.979A2.848,2.848,0,0,1,758.794,350.855Z" transform="translate(-755.925 -299.6)" fill="#5766e5"/>
          </g>
          <path id="Path_8366" data-name="Path 8366" d="M779.142,338.371a6.571,6.571,0,1,0-6.571,6.571A6.619,6.619,0,0,0,779.142,338.371Z" transform="translate(-757.173 -303.588)" fill="#1cc6d3"/>
        </g>
      </g>
      <g id="Group_18077" data-name="Group 18077" transform="translate(976.372 383.101)">
        <path id="Path_8367" data-name="Path 8367" d="M1125.064,400h-96.027a8.974,8.974,0,0,0-8.937,8.937v43.282a8.974,8.974,0,0,0,8.937,8.937h6.746v10.426a1.67,1.67,0,0,0,2.8,1.227l12.967-11.741h73.6a8.975,8.975,0,0,0,8.937-8.937V408.849A9.092,9.092,0,0,0,1125.064,400Z" transform="translate(-1020.1 -400)" fill="#fff"/>
        <g id="Group_18076" data-name="Group 18076" transform="translate(29.702 27.336)">
          <circle id="Ellipse_226" data-name="Ellipse 226" cx="3.943" cy="3.943" r="3.943" fill="#1cc6d3"/>
          <circle id="Ellipse_227" data-name="Ellipse 227" cx="3.943" cy="3.943" r="3.943" transform="translate(24.094)" fill="#1cc6d3"/>
          <circle id="Ellipse_228" data-name="Ellipse 228" cx="3.943" cy="3.943" r="3.943" transform="translate(46.699)" fill="#1cc6d3"/>
        </g>
      </g>
      <g id="Group_18080" data-name="Group 18080" transform="translate(731.043 478.165)">
        <g id="Group_18078" data-name="Group 18078" transform="translate(2.283)">
          <path id="Path_8368" data-name="Path 8368" d="M776.169,529.7c0-10.6-7.447-21.2-16.735-21.2-9.2,0-16.735,10.6-16.735,21.2s7.447,19.188,16.735,19.188S776.169,540.3,776.169,529.7Z" transform="translate(-742.7 -508.5)" fill="#67b8ef"/>
          <path id="Path_8369" data-name="Path 8369" d="M761.293,508.5a12.018,12.018,0,0,0-4.293.789c7.185,2.629,12.442,11.478,12.442,20.415,0,8.849-5.257,16.384-12.442,18.487a14.212,14.212,0,0,0,4.293.7c9.2,0,16.735-8.586,16.735-19.188C777.94,519.1,770.493,508.5,761.293,508.5Z" transform="translate(-744.471 -508.5)" fill="#34648c" opacity="0.25"/>
        </g>
        <g id="Group_18079" data-name="Group 18079" transform="translate(0 30.928)">
          <path id="Path_8370" data-name="Path 8370" d="M740.1,546.6l2.979,27.073a6.657,6.657,0,0,0,6.659,5.958H767a6.657,6.657,0,0,0,6.659-5.958l2.979-27.073a2.49,2.49,0,0,0-2.453-2.8H742.64A2.711,2.711,0,0,0,740.1,546.6Z" transform="translate(-740.095 -543.8)" fill="#cee5ed"/>
          <path id="Path_8371" data-name="Path 8371" d="M742.651,547.918H774.28a2.557,2.557,0,0,1,2.19,1.4l.263-2.716a2.49,2.49,0,0,0-2.453-2.8H742.651a2.49,2.49,0,0,0-2.453,2.8l.263,2.716A2.451,2.451,0,0,1,742.651,547.918Z" transform="translate(-740.105 -543.8)" fill="#aac6ce"/>
          <path id="Path_8372" data-name="Path 8372" d="M776.536,543.9H765.584a2.49,2.49,0,0,1,2.453,2.8l-2.979,27.073a6.657,6.657,0,0,1-6.659,5.958h10.952a6.657,6.657,0,0,0,6.659-5.958L778.99,546.7A2.54,2.54,0,0,0,776.536,543.9Z" transform="translate(-742.362 -543.812)" fill="#aac6ce"/>
        </g>
      </g>
      <g id="Group_18085" data-name="Group 18085" transform="translate(787.971 385.726)">
        <g id="Group_18083" data-name="Group 18083" transform="translate(0.898 165.362)">
          <g id="Group_18081" data-name="Group 18081" transform="translate(46.334 12.193)">
            <path id="Path_8373" data-name="Path 8373" d="M936.939,761.828l-1.139,7.8,5.958,7.623,15.07-7.36,1.665-7.185-18.837-2.8Z" transform="translate(-868.49 -624.749)" fill="#f2bf75"/>
            <path id="Path_8374" data-name="Path 8374" d="M948.82,788.448l1.577-1.928a.747.747,0,0,1,1.139,0l1.577,1.84a3.447,3.447,0,0,0,2.541,1.139l35.134-.613a1.825,1.825,0,0,0,.088-2.628c-5.169-5.169-32.856-14.194-34.258-14.895-1.4-.789-9.813,5.87-21.115-.263a116.463,116.463,0,0,0-2.1,14.457,3.959,3.959,0,0,0,4.03,4.206l8.937-.175A3.259,3.259,0,0,0,948.82,788.448Z" transform="translate(-868.193 -626.136)" fill="#1e394c"/>
            <path id="Path_8375" data-name="Path 8375" d="M862.94,610.337s-14.544,16.121,12.091,33.645c18.75,12.266,33.469,8.5,45.3,16.034a10.293,10.293,0,0,1,5.082,7.623l.613,75.35,1.4.7a26.014,26.014,0,0,0,22.517.263h0l10.6-86.039c.35-5.958-2.8-10.952-6.484-15.6-20.414-26.022-56.6-34.784-65.712-36.273C876.433,604.029,862.94,610.337,862.94,610.337Z" transform="translate(-858.977 -605.647)" fill="#7f91af"/>
          </g>
          <g id="Group_18082" data-name="Group 18082">
            <path id="Path_8376" data-name="Path 8376" d="M870.627,761.828l-1.227,7.8,5.783,7.71,15.245-7.185,1.752-7.184L873.43,759.9Z" transform="translate(-813.934 -612.557)" fill="#f2bf75"/>
            <path id="Path_8377" data-name="Path 8377" d="M882.131,788.511l1.577-1.928a.747.747,0,0,1,1.139,0l1.577,1.84a2.917,2.917,0,0,0,2.541,1.139l35.134-.088a1.825,1.825,0,0,0,.088-2.628c-5.082-5.257-32.681-14.632-33.995-15.42-1.4-.789-9.9,5.7-21.115-.526a121.071,121.071,0,0,0-2.278,14.457,3.98,3.98,0,0,0,4.03,4.293h8.937A2.709,2.709,0,0,0,882.131,788.511Z" transform="translate(-813.61 -613.919)" fill="#1e394c"/>
            <path id="Path_8378" data-name="Path 8378" d="M812.057,594.508s-17.7,19.714,7.885,41.968c17.961,15.6,33.995,8.937,45.3,18.487,2.628,2.19,4.468,5.257,4.206,8.762l-8.061,76.664.613.438a24.294,24.294,0,0,0,23.569,1.577h0l19.976-80.782c1.227-6.133-1.4-11.916-4.556-17.348-17.7-30.228-45.56-48.276-55.023-51.168C833.7,589.338,812.057,594.508,812.057,594.508Z" transform="translate(-806.094 -591.731)" fill="#8b9cb8"/>
          </g>
          <path id="Path_8379" data-name="Path 8379" d="M918.689,657.893a22.815,22.815,0,0,0-4.118-1.4c-.7-3.592-2.541-7.1-4.468-10.426a136.813,136.813,0,0,0-30.4-35.572c6.4-1.051,9.638-2.453,11.478-4.293a131.056,131.056,0,0,1,19.188,5.169C919.04,625.826,918.952,649.482,918.689,657.893Z" transform="translate(-815.209 -593.523)" fill="#cbd5e6"/>
        </g>
        <path id="Path_8380" data-name="Path 8380" d="M859.555,475.868s-25.5-3.417-36.1,16.472S797.085,590.032,810.841,592.4c6.133,1.051,22.43,5.169,40.566,3.855,24.883-1.84,30.315-4.118,32.068-8.849l15.858-72.546a30.521,30.521,0,0,0-12-25.584C874.625,479.636,859.555,475.868,859.555,475.868Z" transform="translate(-805.119 -411.993)" fill="#cee5ed"/>
        <path id="Path_8381" data-name="Path 8381" d="M910.519,513.2s.35,43.72,14.106,46.349,50.292,1.84,50.292,1.84v13.843H896.5Z" transform="translate(-816.392 -416.643)" fill="#aac6ce"/>
        <path id="Path_8382" data-name="Path 8382" d="M887.953,486.166l3.067-15.42L870.955,455.5,867.1,473.724S873.408,501.5,887.953,486.166Z" transform="translate(-812.751 -409.498)" fill="#ea9249"/>
        <path id="Path_8383" data-name="Path 8383" d="M912.341,434.8s-10.514,5.082-25.847-4.293c0,0-3.592,6.4-13.843,12.091,0,0-5.345-8.937-8.411-2.278a12.838,12.838,0,0,0-1.4,5.52c-9.638-12.441-2.8-28.826,6.133-37.675,8.5-8.411,26.986-5.082,38.464-.438,12.266,4.907,14.457-3.68,14.457-3.68C937.4,425.867,912.341,434.8,912.341,434.8Z" transform="translate(-811.643 -402.996)" fill="#1e394c"/>
        <path id="Path_8384" data-name="Path 8384" d="M873.307,446.579s-5.345-8.937-8.411-2.278c-3.768,8.148.438,13.23,5.52,13.23,0,0,4.03,21.2,23.481,19.714s22.255-32.768,19.1-38.551c0,0-10.514,5.082-25.847-4.293C887.15,434.4,883.645,440.8,873.307,446.579Z" transform="translate(-812.299 -406.885)" fill="#f2bf75"/>
        <g id="Group_18084" data-name="Group 18084" transform="translate(89.308 89.284)">
          <path id="Path_8385" data-name="Path 8385" d="M1053.308,504.9H972a8.359,8.359,0,0,0-8.236,6.746l-10.864,53.1h98.568l10.163-49.678A8.553,8.553,0,0,0,1053.308,504.9Z" transform="translate(-912.684 -504.9)" fill="#fff"/>
          <path id="Path_8386" data-name="Path 8386" d="M1048.15,573.1H908.227A1.2,1.2,0,0,0,907,574.327v6.834a1.2,1.2,0,0,0,1.227,1.227h140.011a1.2,1.2,0,0,0,1.227-1.227v-6.834A1.405,1.405,0,0,0,1048.15,573.1Z" transform="translate(-907 -513.346)" fill="#8e9db5"/>
          <path id="Path_8387" data-name="Path 8387" d="M1050.957,573.1H951.6a4.077,4.077,0,0,1,4.03,4.03v1.314a4.077,4.077,0,0,1-4.03,4.03h99.357a4.077,4.077,0,0,0,4.03-4.03V577.13A4.136,4.136,0,0,0,1050.957,573.1Z" transform="translate(-912.523 -513.346)" fill="#cbd5e6"/>
        </g>
        <path id="Path_8388" data-name="Path 8388" d="M902.7,559.419c-15.858-1.84-60.28-6.4-67.9-7.185-9.638-.964,11.215-39.69,13.581-53.008,2.278-13.23-7.8-13.756-7.8-13.756-5.7-.7-11.916,0-17.173,8.061-10.864,16.384-22.955,64.4-16.56,76.226a4.32,4.32,0,0,0,3.768,2.278H902.7V559.419Z" transform="translate(-805.069 -413.184)" fill="#cee5ed"/>
        <path id="Path_8389" data-name="Path 8389" d="M906.085,559.426s-57.213-3.943-69.479-5.607c-9.55-1.314,10.339-41,12.7-54.234,2.278-13.23-7.973-12.7-7.973-12.7a24.1,24.1,0,0,0-8.937.876c3.855-2.541,7.8-2.716,11.653-2.19,0,0,10.076.526,7.8,13.756S831.7,550.49,837.657,551.979C845.1,553.731,890.227,557.586,906.085,559.426Z" transform="translate(-808.454 -413.192)" fill="#aac6ce"/>
        <path id="Path_8390" data-name="Path 8390" d="M916.488,582.974h21.291a2.031,2.031,0,0,0,1.665-3.154c-2.015-3.067-5.169-7.447-7.447-8.148-1.4-.438-11.741-.088-15.6.35v10.952Z" transform="translate(-818.856 -423.86)" fill="#f2bf75"/>
        <path id="Path_8391" data-name="Path 8391" d="M916.037,439.3a19.571,19.571,0,0,1-4.819,1.227c-.263,1.4-.7,4.206-.964,6.834-.35,3.767,1.49,15.333.35,15.42a35.224,35.224,0,0,1-3.592-.088s-1.752,16.822-18.575,14.106a.79.79,0,0,1-.438-.088,21.962,21.962,0,0,0,8.937,1.139C916.475,476.362,919.279,445.083,916.037,439.3Z" transform="translate(-815.339 -407.492)" fill="#ea9249" opacity="0.67"/>
      </g>
      <g id="Group_18090" data-name="Group 18090" transform="translate(1040.462 537.103)">
        <g id="Group_18086" data-name="Group 18086" transform="translate(59.146 16.493)">
          <path id="Path_8392" data-name="Path 8392" d="M1194.351,702.542s26.811-13.318,19.538-33.469-11.828-21.028,2.1-32.33c13.931-11.39,34.083-39.865,8.586-42.056-25.5-2.1-24.182,31.717-45.473,36.448C1157.9,635.954,1146.338,724.621,1194.351,702.542Z" transform="translate(-1160.754 -594.593)" fill="#67b8ef"/>
          <path id="Path_8393" data-name="Path 8393" d="M1175.1,704.559c5.169,2.366,12.091,2.19,21.115-2.015,0,0,26.81-13.318,19.538-33.469s-11.828-21.028,2.1-32.33c13.931-11.39,34.083-39.865,8.586-42.056a24.651,24.651,0,0,0-6.834.35c7.184,2.979,14.281,8.937,5.082,19.8-15.333,18.224-23.569,24.62-21.817,36.448C1204.627,662.941,1203.663,689.051,1175.1,704.559Z" transform="translate(-1162.531 -594.594)" fill="#34648c" opacity="0.25"/>
        </g>
        <g id="Group_18087" data-name="Group 18087" transform="translate(0 44.719)">
          <path id="Path_8394" data-name="Path 8394" d="M1140.606,705.918s-23.569-.876-22.255-17.786,1.927-17.611-12.88-22.955c-26.11-9.463-5.432-59.667,15.858-28.037,14.807,21.9,21.2,17,30.841,18.662C1161.809,657.554,1182.837,713.453,1140.606,705.918Z" transform="translate(-1093.248 -626.808)" fill="#67b8ef"/>
          <path id="Path_8395" data-name="Path 8395" d="M1152.426,655.807c-9.638-1.752-16.034,3.242-30.841-18.662-11.127-16.559-22.167-10.6-26.285.088,6.308-1.928,15.771-3.067,17,7.1,1.577,13.23,32.505,34.959,31.892,62.032a5.782,5.782,0,0,0,1.227.088c4.468-11.916,10.426-27.336,15.6-40.479C1158.121,660.363,1154.879,656.245,1152.426,655.807Z" transform="translate(-1093.502 -626.813)" fill="#34648c" opacity="0.29"/>
        </g>
        <g id="Group_18088" data-name="Group 18088" transform="translate(31.437)">
          <path id="Path_8396" data-name="Path 8396" d="M1150.482,698.9s-29.264-28.651-19.276-33.469,29.614,10.952,18.662-6.133-23.656-43.545-8.586-39.427,16.209,8.762,14.369-11.04c-2.453-25.672,11.916-38.9,25.409-30.578s-11.565,64.924-2.278,58.878c9.287-6.133,17-11.215,19.013-3.855,1.927,7.36-26.723,36.448-16.034,31.542,13.142-6.133,15.07,4.819,10.952,11.565C1188.42,683.126,1171.072,723.254,1150.482,698.9Z" transform="translate(-1129.128 -575.769)" fill="#34648c"/>
          <path id="Path_8397" data-name="Path 8397" d="M1196.572,676.381c4.206-6.746,2.278-17.7-10.952-11.565-10.6,4.906,18.049-24.094,16.034-31.542-1.928-7.36-9.638-2.278-19.013,3.855-9.287,6.133,15.771-50.467,2.278-58.878-6.308-3.855-12.7-3.067-17.611,1.49,7.009,1.752,12.617,7.36,8.674,22.517-8.236,32.155-13.23,58.966,1.752,51.08,14.106-7.447-16.384,26.723-16.735,51.343C1178.7,714.757,1192.8,682.339,1196.572,676.381Z" transform="translate(-1133.075 -575.771)" fill="#1e394c" opacity="0.48"/>
        </g>
        <g id="Group_18089" data-name="Group 18089" transform="translate(32.514 121.201)">
          <path id="Path_8398" data-name="Path 8398" d="M1130.395,719.357l5.7,51.255a12.688,12.688,0,0,0,12.529,11.3H1181.3a12.554,12.554,0,0,0,12.529-11.3l5.7-51.255a4.677,4.677,0,0,0-4.644-5.257h-59.754A4.694,4.694,0,0,0,1130.395,719.357Z" transform="translate(-1130.358 -714.1)" fill="#cee5ed"/>
          <path id="Path_8399" data-name="Path 8399" d="M1199.146,714.1H1178.38a4.677,4.677,0,0,1,4.644,5.257l-5.695,51.255a12.688,12.688,0,0,1-12.529,11.3h20.765a12.554,12.554,0,0,0,12.529-11.3l5.7-51.255A4.677,4.677,0,0,0,1199.146,714.1Z" transform="translate(-1134.623 -714.1)" fill="#aac6ce"/>
        </g>
      </g>
      <g id="Group_18109" data-name="Group 18109" transform="translate(705.288 544.665)">
        <g id="Group_18091" data-name="Group 18091" transform="translate(11.04 0)">
          <path id="Path_8400" data-name="Path 8400" d="M1085.855,584.4H725.49a2.169,2.169,0,0,0-2.19,2.19v12.179a2.169,2.169,0,0,0,2.19,2.19h360.277a2.169,2.169,0,0,0,2.19-2.19V586.59A2.1,2.1,0,0,0,1085.855,584.4Z" transform="translate(-723.3 -584.4)" fill="#cbd5e6"/>
          <path id="Path_8401" data-name="Path 8401" d="M1080.874,584.4H730.5a7.067,7.067,0,0,0-7.1,7.1v2.278a8.808,8.808,0,0,0,.35,2.19,7.072,7.072,0,0,1,6.746-4.994h350.377a7.073,7.073,0,0,1,6.746,4.994,8.811,8.811,0,0,0,.35-2.19V591.5A7.013,7.013,0,0,0,1080.874,584.4Z" transform="translate(-723.312 -584.4)" fill="#fff"/>
        </g>
        <g id="Group_18108" data-name="Group 18108" transform="translate(0 16.647)">
          <g id="Group_18093" data-name="Group 18093" transform="translate(35.747)">
            <g id="Group_18092" data-name="Group 18092">
              <path id="Path_8402" data-name="Path 8402" d="M844.724,768.381H832.983L751.5,603.4h11.741Z" transform="translate(-751.5 -603.4)" fill="#2e4d82"/>
            </g>
          </g>
          <g id="Group_18095" data-name="Group 18095">
            <g id="Group_18094" data-name="Group 18094">
              <path id="Path_8403" data-name="Path 8403" d="M710.7,768.381h11.741L803.924,603.4H792.183Z" transform="translate(-710.7 -603.4)" fill="#2e4d82"/>
            </g>
          </g>
          <g id="Group_18097" data-name="Group 18097" transform="translate(287.994)">
            <g id="Group_18096" data-name="Group 18096">
              <path id="Path_8404" data-name="Path 8404" d="M1132.624,768.381h-11.74L1039.4,603.4h11.741Z" transform="translate(-1039.4 -603.4)" fill="#2e4d82"/>
            </g>
          </g>
          <g id="Group_18099" data-name="Group 18099" transform="translate(252.247)">
            <g id="Group_18098" data-name="Group 18098">
              <path id="Path_8405" data-name="Path 8405" d="M998.6,768.381h11.741L1091.823,603.4h-11.741Z" transform="translate(-998.6 -603.4)" fill="#2e4d82"/>
            </g>
          </g>
          <g id="Group_18101" data-name="Group 18101" transform="translate(35.747)">
            <g id="Group_18100" data-name="Group 18100">
              <path id="Path_8406" data-name="Path 8406" d="M766.482,609.884l-3.242-6.484H751.5l3.242,6.484Z" transform="translate(-751.5 -603.4)" fill="#1a3651"/>
            </g>
          </g>
          <g id="Group_18103" data-name="Group 18103" transform="translate(78.241)">
            <g id="Group_18102" data-name="Group 18102">
              <path id="Path_8407" data-name="Path 8407" d="M811.741,609.884l3.242-6.484H803.242L800,609.884Z" transform="translate(-800 -603.4)" fill="#1a3651"/>
            </g>
          </g>
          <g id="Group_18105" data-name="Group 18105" transform="translate(287.994)">
            <g id="Group_18104" data-name="Group 18104">
              <path id="Path_8408" data-name="Path 8408" d="M1054.382,609.884l-3.242-6.484H1039.4l3.242,6.484Z" transform="translate(-1039.4 -603.4)" fill="#1a3651"/>
            </g>
          </g>
          <g id="Group_18107" data-name="Group 18107" transform="translate(330.576)">
            <g id="Group_18106" data-name="Group 18106">
              <path id="Path_8409" data-name="Path 8409" d="M1099.653,609.884l3.242-6.484h-11.741L1088,609.884Z" transform="translate(-1088 -603.4)" fill="#1a3651"/>
            </g>
          </g>
        </g>
      </g>
    </g>
    <g id="arrow" transform="translate(-122.611 105.027)">
      <path id="Path_8410" data-name="Path 8410" d="M972.461,518.4H945.8l18.225,22.287L945.8,563.078h26.661l18.226-22.391Z" transform="translate(0.634 0)" fill="#5766e5"/>
      <path id="Path_8411" data-name="Path 8411" d="M939.248,518.4H930.5l18.225,22.287L930.5,563.078h8.748l18.225-22.391Z" transform="translate(0 0)" fill="#1cc6d3"/>
    </g>
    <g id="arrow-2" data-name="arrow" transform="translate(-61.791 112.935)">
      <path id="Path_8410-2" data-name="Path 8410" d="M963.023,518.4H945.8l11.774,14.4L945.8,547.262h17.223L974.8,532.8Z" transform="translate(-5.006 0)" fill="#5766e5"/>
      <path id="Path_8411-2" data-name="Path 8411" d="M936.151,518.4H930.5l11.774,14.4L930.5,547.262h5.651L947.925,532.8Z" transform="translate(0 0)" fill="#1cc6d3"/>
    </g>
  </g>
</svg>
