<svg xmlns="http://www.w3.org/2000/svg" width="17" height="17" viewBox="0 0 17 17">
  <g id="vuesax_bold_play-add" data-name="vuesax/bold/play-add" transform="translate(-556 -444)">
    <g id="play-add" transform="translate(556 444)">
      <path id="Vector" d="M0,0H17V17H0Z" fill="none" opacity="0"/>
      <path id="Vector-2" data-name="Vector" d="M14.058,5.841A7.084,7.084,0,0,0,.019,7.6a7.127,7.127,0,0,0,5.823,6.453,6.989,6.989,0,0,0,2.366.014.348.348,0,0,0,.262-.475,3.9,3.9,0,0,1,3.57-5.454,3.78,3.78,0,0,1,1.551.326.351.351,0,0,0,.482-.262A6.948,6.948,0,0,0,14.058,5.841ZM8.852,8.193,8,8.682l-.85.489c-1.055.609-1.92.113-1.92-1.112V6.1c0-1.218.864-1.721,1.92-1.112L8,5.473l.85.489A1.182,1.182,0,0,1,8.852,8.193Z" transform="translate(1.419 1.419)" fill="#fff"/>
      <path id="Vector-3" data-name="Vector" d="M2.833,0A2.837,2.837,0,0,0,0,2.833,2.777,2.777,0,0,0,.411,4.292,2.812,2.812,0,0,0,2.833,5.667,2.766,2.766,0,0,0,4.7,4.958a2.545,2.545,0,0,0,.56-.666,2.777,2.777,0,0,0,.411-1.459A2.833,2.833,0,0,0,2.833,0ZM3.9,3.35H3.365V3.9A.531.531,0,0,1,2.3,3.9V3.35H1.771a.531.531,0,0,1,0-1.062H2.3v-.5a.531.531,0,1,1,1.063,0v.5H3.9a.531.531,0,0,1,0,1.063Z" transform="translate(10.625 10.625)" fill="#fff"/>
    </g>
  </g>
</svg>
