<svg xmlns="http://www.w3.org/2000/svg" width="47.968" height="64" viewBox="0 0 47.968 64">
  <g id="delete-button-svgrepo-com" transform="translate(-61.239)">
    <g id="Group_17625" data-name="Group 17625" transform="translate(61.239)">
      <path id="Path_7830" data-name="Path 7830" d="M122.424,111.948H86.587a3.173,3.173,0,0,0-3.13,3.264l1.22,40.276a3.143,3.143,0,0,0,3.129,3.051h2.636v-2.75a5.738,5.738,0,0,1,5.692-5.766h16.741a5.782,5.782,0,0,1,5.745,5.766v2.75H121.2a3.139,3.139,0,0,0,3.13-3.046l1.219-40.277a3.173,3.173,0,0,0-3.129-3.268Z" transform="translate(-80.548 -97.294)" fill="#f37389"/>
      <path id="Path_7831" data-name="Path 7831" d="M187.657,435.355H170.916a1.5,1.5,0,0,0-1.56,1.507v4.054a1.465,1.465,0,0,0,1.56,1.452h16.741a1.451,1.451,0,0,0,1.488-1.452v-4.054A1.5,1.5,0,0,0,187.657,435.355Z" transform="translate(-155.204 -378.369)" fill="#f37389"/>
      <path id="Path_7832" data-name="Path 7832" d="M109.207,3.548A3.548,3.548,0,0,0,105.659,0H64.787a3.548,3.548,0,0,0-3.548,3.548V7.6a3.548,3.548,0,0,0,3.548,3.548h40.872A3.548,3.548,0,0,0,109.207,7.6V3.548Z" transform="translate(-61.239)" fill="#f37389"/>
    </g>
  </g>
</svg>
