<svg version="1.2" baseProfile="tiny-ps" xmlns="http://www.w3.org/2000/svg" viewBox="0 0 51 51" width="24" height="24">
	<title>iconfinder-icon (2)-svg</title>
	<style>
		tspan { white-space:pre }
		.shp0 { fill: none } 
		.shp1 { fill: #617392 } 
	</style>
	<g id="Layer">
		<path id="canvas_background" class="shp0" d="M-229 -176L413 -176L413 306L-229 306L-229 -176Z" />
	</g>
	<g id="Layer">
		<path id="svg_2" class="shp1" d="M49.82 6.66L45.45 2.3C45 1.85 44.41 1.62 43.81 1.62C43.22 1.62 42.63 1.85 42.18 2.3L38.68 5.78L46.32 13.41L49.82 9.93C50.72 9.03 50.72 7.56 49.82 6.66ZM16 28.42L23.64 36.05L44.69 15.04L37.05 7.42L16 28.42ZM14.35 30.06L12.72 39.31L21.99 37.68L14.35 30.06ZM35.47 43.43L6.67 43.43L6.67 14.62L27 14.62L32.01 9.62L4.9 9.62C3.12 9.62 1.67 11.08 1.67 12.86L1.67 45.2C1.67 46.98 3.12 48.43 4.9 48.43L37.24 48.43C39.02 48.43 40.47 46.98 40.47 45.2L40.47 22.08L35.47 27.07L35.47 43.43L35.47 43.43Z" />
	</g>
</svg>