<svg id="edit" xmlns="http://www.w3.org/2000/svg" width="12.92" height="12.92" viewBox="0 0 12.92 12.92">
  <path id="Path_9768" data-name="Path 9768" d="M10.228,90.123a.538.538,0,0,0-.538.538v4.307a.539.539,0,0,1-.538.538H1.615a.539.539,0,0,1-.538-.538V87.431a.539.539,0,0,1,.538-.538H5.922a.538.538,0,0,0,0-1.077H1.615A1.617,1.617,0,0,0,0,87.431v7.537a1.617,1.617,0,0,0,1.615,1.615H9.152a1.617,1.617,0,0,0,1.615-1.615V90.661a.538.538,0,0,0-.538-.538Zm0,0" transform="translate(0 -83.663)" fill="#3eceda"/>
  <path id="Path_9769" data-name="Path 9769" d="M182.268,72.521a.273.273,0,0,0-.074.137l-.381,1.9a.269.269,0,0,0,.264.322.257.257,0,0,0,.053-.005l1.9-.381a.268.268,0,0,0,.138-.074l4.259-4.259-1.9-1.9Zm0,0" transform="translate(-177.221 -66.552)" fill="#3eceda"/>
  <path id="Path_9770" data-name="Path 9770" d="M394.094.895a1.347,1.347,0,0,0-1.9,0l-.745.745,1.9,1.9.745-.745a1.346,1.346,0,0,0,0-1.9Zm0,0" transform="translate(-381.568 -0.501)" fill="#3eceda"/>
</svg>
