<?xml version="1.0" encoding="utf-8"?>
<!-- Generator: Adobe Illustrator 23.0.3, SVG Export Plug-In . SVG Version: 6.00 Build 0)  -->
<svg version="1.1" id="Layer_1" xmlns="http://www.w3.org/2000/svg" xmlns:xlink="http://www.w3.org/1999/xlink" x="0px" y="0px"
	 viewBox="0 0 24 24" style="enable-background:new 0 0 24 24;" xml:space="preserve">
<style type="text/css">
	.st0{fill:#617392;}
</style>
<g>
	<g>
		<path class="st0" d="M24,18.95c-0.06-0.04-0.12-0.07-0.17-0.11c-2.35-2.19-4.7-4.39-7.05-6.58c-0.03-0.03-0.08-0.05-0.12-0.09
			c0.06-0.07,0.1-0.11,0.14-0.15c2.35-2.26,4.7-4.53,7.05-6.79C23.89,5.19,23.95,5.15,24,5.1C24,9.72,24,14.33,24,18.95z"/>
		<path class="st0" d="M23.18,3.7C19.45,7.3,15.73,10.88,12,14.47C8.2,10.93,4.41,7.39,0.62,3.85C0.88,3.62,1.17,3.5,1.49,3.46
			c0.14-0.02,0.28-0.02,0.42-0.02c6.73,0,13.47,0,20.2,0C22.48,3.44,22.83,3.47,23.18,3.7z"/>
		<path class="st0" d="M15.55,13.24c2.53,2.37,5.06,4.72,7.59,7.09c-0.31,0.2-0.63,0.23-0.96,0.23c-2.14,0-4.27,0-6.41,0
			c-4.62,0-9.25,0-13.87,0c-0.25,0-0.49-0.04-0.74-0.06c-0.01-0.02-0.01-0.05-0.02-0.07c2.44-2.36,4.89-4.71,7.34-7.08
			c0.31,0.29,0.61,0.56,0.91,0.84c0.66,0.62,1.33,1.24,1.99,1.86c0.43,0.4,0.83,0.4,1.26-0.01c0.9-0.87,1.8-1.74,2.71-2.6
			C15.41,13.37,15.47,13.31,15.55,13.24z"/>
		<path class="st0" d="M0,19.23c0-4.58,0-9.16,0-13.77c2.44,2.27,4.87,4.53,7.32,6.82c-2.42,2.33-4.84,4.66-7.25,6.98
			C0.05,19.24,0.02,19.24,0,19.23z"/>
	</g>
</g>
</svg>
