<svg xmlns="http://www.w3.org/2000/svg" width="19.594" height="19.594" viewBox="0 0 19.594 19.594"><defs><style>.a,.b{fill:none;}.a{stroke:#1cc6d3;stroke-linecap:round;stroke-linejoin:round;stroke-width:1.5px;}.b{opacity:0;}</style></defs><g transform="translate(-172 -188)"><g transform="translate(174.041 189.67)"><path class="a" d="M12.687,4.735a1.64,1.64,0,0,0-.49,1.331,1.741,1.741,0,0,0,1.764,1.527h1.551v.972a3.077,3.077,0,0,1-3.07,3.07H3.07A3.077,3.077,0,0,1,0,8.564V3.07A3.077,3.077,0,0,1,3.07,0h9.373a3.077,3.077,0,0,1,3.07,3.07V4.245H13.863A1.627,1.627,0,0,0,12.687,4.735Z" transform="translate(0 4.657)"/><path class="a" d="M0,8.462V4.731a2.325,2.325,0,0,1,1.5-2.18L7.985.1a1.551,1.551,0,0,1,2.1,1.453v3.1" transform="translate(0 0)"/></g><path class="a" d="M4.188.833V2.515a.838.838,0,0,1-.816.833h-1.6A1.741,1.741,0,0,1,.007,1.821,1.64,1.64,0,0,1,.5.49,1.627,1.627,0,0,1,1.673,0h1.7A.838.838,0,0,1,4.188.833Z" transform="translate(186.23 198.573)"/><path class="a" d="M0,0H5.715" transform="translate(177.715 197.797)"/><path class="b" d="M0,0H19.594V19.594H0Z" transform="translate(172 188)"/></g></svg>