<?xml version="1.0" encoding="utf-8"?>
<!-- Generator: Adobe Illustrator 25.2.0, SVG Export Plug-In . SVG Version: 6.00 Build 0)  -->
<svg version="1.1" id="Layer_1" xmlns="http://www.w3.org/2000/svg" xmlns:xlink="http://www.w3.org/1999/xlink" x="0px" y="0px"
	 viewBox="0 0 289 54" style="enable-background:new 0 0 289 54;" xml:space="preserve">
<style type="text/css">
	.st0{clip-path:url(#SVGID_2_);}
	.st1{fill:#D4D9E2;}
	.st2{clip-path:url(#SVGID_4_);}
	.st3{clip-path:url(#SVGID_6_);}
	.st4{clip-path:url(#SVGID_8_);}
</style>
<g id="Group_17942" transform="translate(-1011 -818)">
	<g>
		<defs>
			<rect id="SVGID_1_" x="1011" y="818" width="231" height="6"/>
		</defs>
		<clipPath id="SVGID_2_">
			<use xlink:href="#SVGID_1_"  style="overflow:visible;"/>
		</clipPath>
		<g id="Repeat_Grid_3" transform="translate(1011 851)" class="st0">
			<g transform="translate(-1011 -853)">
				<circle id="Ellipse_362" class="st1" cx="1014" cy="823" r="3"/>
			</g>
			<g transform="translate(-997 -853)">
				<circle id="Ellipse_362-2" class="st1" cx="1014" cy="823" r="3"/>
			</g>
			<g transform="translate(-983 -853)">
				<circle id="Ellipse_362-3" class="st1" cx="1014" cy="823" r="3"/>
			</g>
			<g transform="translate(-969 -853)">
				<circle id="Ellipse_362-4" class="st1" cx="1014" cy="823" r="3"/>
			</g>
			<g transform="translate(-955 -853)">
				<circle id="Ellipse_362-5" class="st1" cx="1014" cy="823" r="3"/>
			</g>
			<g transform="translate(-941 -853)">
				<circle id="Ellipse_362-6" class="st1" cx="1014" cy="823" r="3"/>
			</g>
			<g transform="translate(-927 -853)">
				<circle id="Ellipse_362-7" class="st1" cx="1014" cy="823" r="3"/>
			</g>
			<g transform="translate(-913 -853)">
				<circle id="Ellipse_362-8" class="st1" cx="1014" cy="823" r="3"/>
			</g>
			<g transform="translate(-899 -853)">
				<circle id="Ellipse_362-9" class="st1" cx="1014" cy="823" r="3"/>
			</g>
			<g transform="translate(-885 -853)">
				<circle id="Ellipse_362-10" class="st1" cx="1014" cy="823" r="3"/>
			</g>
			<g transform="translate(-871 -853)">
				<circle id="Ellipse_362-11" class="st1" cx="1014" cy="823" r="3"/>
			</g>
			<g transform="translate(-857 -853)">
				<circle id="Ellipse_362-12" class="st1" cx="1014" cy="823" r="3"/>
			</g>
			<g transform="translate(-843 -853)">
				<circle id="Ellipse_362-13" class="st1" cx="1014" cy="823" r="3"/>
			</g>
			<g transform="translate(-829 -853)">
				<circle id="Ellipse_362-14" class="st1" cx="1014" cy="823" r="3"/>
			</g>
			<g transform="translate(-815 -853)">
				<circle id="Ellipse_362-15" class="st1" cx="1014" cy="823" r="3"/>
			</g>
			<g transform="translate(-801 -853)">
				<circle id="Ellipse_362-16" class="st1" cx="1014" cy="823" r="3"/>
			</g>
			<g transform="translate(-787 -853)">
				<circle id="Ellipse_362-17" class="st1" cx="1014" cy="823" r="3"/>
			</g>
		</g>
	</g>
	<g>
		<defs>
			<rect id="SVGID_3_" x="1011" y="866" width="289" height="6"/>
		</defs>
		<clipPath id="SVGID_4_">
			<use xlink:href="#SVGID_3_"  style="overflow:visible;"/>
		</clipPath>
		<g id="Repeat_Grid_6" transform="translate(1011 899)" class="st2">
			<g transform="translate(-1011 -853)">
				<circle id="Ellipse_362-18" class="st1" cx="1014" cy="823" r="3"/>
			</g>
			<g transform="translate(-997 -853)">
				<circle id="Ellipse_362-19" class="st1" cx="1014" cy="823" r="3"/>
			</g>
			<g transform="translate(-983 -853)">
				<circle id="Ellipse_362-20" class="st1" cx="1014" cy="823" r="3"/>
			</g>
			<g transform="translate(-969 -853)">
				<circle id="Ellipse_362-21" class="st1" cx="1014" cy="823" r="3"/>
			</g>
			<g transform="translate(-955 -853)">
				<circle id="Ellipse_362-22" class="st1" cx="1014" cy="823" r="3"/>
			</g>
			<g transform="translate(-941 -853)">
				<circle id="Ellipse_362-23" class="st1" cx="1014" cy="823" r="3"/>
			</g>
			<g transform="translate(-927 -853)">
				<circle id="Ellipse_362-24" class="st1" cx="1014" cy="823" r="3"/>
			</g>
			<g transform="translate(-913 -853)">
				<circle id="Ellipse_362-25" class="st1" cx="1014" cy="823" r="3"/>
			</g>
			<g transform="translate(-899 -853)">
				<circle id="Ellipse_362-26" class="st1" cx="1014" cy="823" r="3"/>
			</g>
			<g transform="translate(-885 -853)">
				<circle id="Ellipse_362-27" class="st1" cx="1014" cy="823" r="3"/>
			</g>
			<g transform="translate(-871 -853)">
				<circle id="Ellipse_362-28" class="st1" cx="1014" cy="823" r="3"/>
			</g>
			<g transform="translate(-857 -853)">
				<circle id="Ellipse_362-29" class="st1" cx="1014" cy="823" r="3"/>
			</g>
			<g transform="translate(-843 -853)">
				<circle id="Ellipse_362-30" class="st1" cx="1014" cy="823" r="3"/>
			</g>
			<g transform="translate(-829 -853)">
				<circle id="Ellipse_362-31" class="st1" cx="1014" cy="823" r="3"/>
			</g>
			<g transform="translate(-815 -853)">
				<circle id="Ellipse_362-32" class="st1" cx="1014" cy="823" r="3"/>
			</g>
			<g transform="translate(-801 -853)">
				<circle id="Ellipse_362-33" class="st1" cx="1014" cy="823" r="3"/>
			</g>
			<g transform="translate(-787 -853)">
				<circle id="Ellipse_362-34" class="st1" cx="1014" cy="823" r="3"/>
			</g>
			<g transform="translate(-773 -853)">
				<circle id="Ellipse_362-35" class="st1" cx="1014" cy="823" r="3"/>
			</g>
			<g transform="translate(-759 -853)">
				<circle id="Ellipse_362-36" class="st1" cx="1014" cy="823" r="3"/>
			</g>
			<g transform="translate(-745 -853)">
				<circle id="Ellipse_362-37" class="st1" cx="1014" cy="823" r="3"/>
			</g>
			<g transform="translate(-731 -853)">
				<circle id="Ellipse_362-38" class="st1" cx="1014" cy="823" r="3"/>
			</g>
		</g>
	</g>
	<g>
		<defs>
			<rect id="SVGID_5_" x="1011" y="850" width="204" height="6"/>
		</defs>
		<clipPath id="SVGID_6_">
			<use xlink:href="#SVGID_5_"  style="overflow:visible;"/>
		</clipPath>
		<g id="Repeat_Grid_5" transform="translate(1011 883)" class="st3">
			<g transform="translate(-1011 -853)">
				<circle id="Ellipse_362-39" class="st1" cx="1014" cy="823" r="3"/>
			</g>
			<g transform="translate(-997 -853)">
				<circle id="Ellipse_362-40" class="st1" cx="1014" cy="823" r="3"/>
			</g>
			<g transform="translate(-983 -853)">
				<circle id="Ellipse_362-41" class="st1" cx="1014" cy="823" r="3"/>
			</g>
			<g transform="translate(-969 -853)">
				<circle id="Ellipse_362-42" class="st1" cx="1014" cy="823" r="3"/>
			</g>
			<g transform="translate(-955 -853)">
				<circle id="Ellipse_362-43" class="st1" cx="1014" cy="823" r="3"/>
			</g>
			<g transform="translate(-941 -853)">
				<circle id="Ellipse_362-44" class="st1" cx="1014" cy="823" r="3"/>
			</g>
			<g transform="translate(-927 -853)">
				<circle id="Ellipse_362-45" class="st1" cx="1014" cy="823" r="3"/>
			</g>
			<g transform="translate(-913 -853)">
				<circle id="Ellipse_362-46" class="st1" cx="1014" cy="823" r="3"/>
			</g>
			<g transform="translate(-899 -853)">
				<circle id="Ellipse_362-47" class="st1" cx="1014" cy="823" r="3"/>
			</g>
			<g transform="translate(-885 -853)">
				<circle id="Ellipse_362-48" class="st1" cx="1014" cy="823" r="3"/>
			</g>
			<g transform="translate(-871 -853)">
				<circle id="Ellipse_362-49" class="st1" cx="1014" cy="823" r="3"/>
			</g>
			<g transform="translate(-857 -853)">
				<circle id="Ellipse_362-50" class="st1" cx="1014" cy="823" r="3"/>
			</g>
			<g transform="translate(-843 -853)">
				<circle id="Ellipse_362-51" class="st1" cx="1014" cy="823" r="3"/>
			</g>
			<g transform="translate(-829 -853)">
				<circle id="Ellipse_362-52" class="st1" cx="1014" cy="823" r="3"/>
			</g>
			<g transform="translate(-815 -853)">
				<circle id="Ellipse_362-53" class="st1" cx="1014" cy="823" r="3"/>
			</g>
		</g>
	</g>
	<g>
		<defs>
			<rect id="SVGID_7_" x="1011" y="834" width="265" height="6"/>
		</defs>
		<clipPath id="SVGID_8_">
			<use xlink:href="#SVGID_7_"  style="overflow:visible;"/>
		</clipPath>
		<g id="Repeat_Grid_4" transform="translate(1011 867)" class="st4">
			<g transform="translate(-1011 -853)">
				<circle id="Ellipse_362-54" class="st1" cx="1014" cy="823" r="3"/>
			</g>
			<g transform="translate(-997 -853)">
				<circle id="Ellipse_362-55" class="st1" cx="1014" cy="823" r="3"/>
			</g>
			<g transform="translate(-983 -853)">
				<circle id="Ellipse_362-56" class="st1" cx="1014" cy="823" r="3"/>
			</g>
			<g transform="translate(-969 -853)">
				<circle id="Ellipse_362-57" class="st1" cx="1014" cy="823" r="3"/>
			</g>
			<g transform="translate(-955 -853)">
				<circle id="Ellipse_362-58" class="st1" cx="1014" cy="823" r="3"/>
			</g>
			<g transform="translate(-941 -853)">
				<circle id="Ellipse_362-59" class="st1" cx="1014" cy="823" r="3"/>
			</g>
			<g transform="translate(-927 -853)">
				<circle id="Ellipse_362-60" class="st1" cx="1014" cy="823" r="3"/>
			</g>
			<g transform="translate(-913 -853)">
				<circle id="Ellipse_362-61" class="st1" cx="1014" cy="823" r="3"/>
			</g>
			<g transform="translate(-899 -853)">
				<circle id="Ellipse_362-62" class="st1" cx="1014" cy="823" r="3"/>
			</g>
			<g transform="translate(-885 -853)">
				<circle id="Ellipse_362-63" class="st1" cx="1014" cy="823" r="3"/>
			</g>
			<g transform="translate(-871 -853)">
				<circle id="Ellipse_362-64" class="st1" cx="1014" cy="823" r="3"/>
			</g>
			<g transform="translate(-857 -853)">
				<circle id="Ellipse_362-65" class="st1" cx="1014" cy="823" r="3"/>
			</g>
			<g transform="translate(-843 -853)">
				<circle id="Ellipse_362-66" class="st1" cx="1014" cy="823" r="3"/>
			</g>
			<g transform="translate(-829 -853)">
				<circle id="Ellipse_362-67" class="st1" cx="1014" cy="823" r="3"/>
			</g>
			<g transform="translate(-815 -853)">
				<circle id="Ellipse_362-68" class="st1" cx="1014" cy="823" r="3"/>
			</g>
			<g transform="translate(-801 -853)">
				<circle id="Ellipse_362-69" class="st1" cx="1014" cy="823" r="3"/>
			</g>
			<g transform="translate(-787 -853)">
				<circle id="Ellipse_362-70" class="st1" cx="1014" cy="823" r="3"/>
			</g>
			<g transform="translate(-773 -853)">
				<circle id="Ellipse_362-71" class="st1" cx="1014" cy="823" r="3"/>
			</g>
			<g transform="translate(-759 -853)">
				<circle id="Ellipse_362-72" class="st1" cx="1014" cy="823" r="3"/>
			</g>
		</g>
	</g>
</g>
</svg>
