<svg xmlns="http://www.w3.org/2000/svg" width="19.348" height="19.348" viewBox="0 0 19.348 19.348"><defs><style>.a,.b,.c{fill:none;}.a,.b{stroke:#617392;stroke-linecap:round;stroke-width:1.5px;}.a{stroke-linejoin:round;}.c{opacity:0;}</style></defs><g transform="translate(-748 -252)"><g transform="translate(748 252)"><path class="a" d="M3.225,1.612A1.612,1.612,0,1,1,1.612,0,1.612,1.612,0,0,1,3.225,1.612Z" transform="translate(5.643 4.837)"/><path class="a" d="M8.868,0H5.643C1.612,0,0,1.612,0,5.643V10.48c0,4.031,1.612,5.643,5.643,5.643H10.48c4.031,0,5.643-1.612,5.643-5.643V6.449" transform="translate(1.612 1.612)"/><path class="b" d="M0,0H4.434" transform="translate(12.697 4.031)"/><path class="b" d="M0,4.434V0" transform="translate(14.914 1.814)"/><path class="a" d="M0,5.6,3.974,2.936A1.816,1.816,0,0,1,6.1,3.049l.266.234a1.8,1.8,0,0,0,2.273,0L12,.405a1.8,1.8,0,0,1,2.273,0l1.314,1.129" transform="translate(2.152 9.672)"/><path class="c" d="M0,0H19.348V19.348H0Z"/></g></g></svg>