<?xml version="1.0" encoding="utf-8"?>
<!-- Generator: Adobe Illustrator 23.0.3, SVG Export Plug-In . SVG Version: 6.00 Build 0)  -->
<svg version="1.1" id="Layer_1" xmlns="http://www.w3.org/2000/svg" xmlns:xlink="http://www.w3.org/1999/xlink" x="0px" y="0px"
	 viewBox="0 0 24 24" style="enable-background:new 0 0 24 24;" xml:space="preserve">
<style type="text/css">
	.st0{fill:#617392;}
</style>
<g>
	<path class="st0" d="M16.74,22.61c-2.05,0-4.1,0-6.15,0c-0.78,0-1.05-0.28-1.05-1.07c0-0.42-0.01-0.84,0-1.25
		c0.01-0.58,0.33-0.89,0.91-0.89c4.22,0,8.44,0,12.66,0c0.57,0,0.87,0.29,0.89,0.86c0.01,0.46,0.01,0.91,0,1.37
		c-0.01,0.69-0.3,0.97-0.98,0.97C20.92,22.61,18.83,22.61,16.74,22.61z"/>
	<path class="st0" d="M16.78,12.17c2.06,0,4.13,0,6.19,0c0.75,0,1.01,0.26,1.02,1.01c0,0.37,0,0.73,0,1.1
		c0,0.85-0.26,1.11-1.09,1.11c-3.34,0-6.69,0-10.03,0c-0.78,0-1.57,0-2.35,0c-0.67,0-0.98-0.31-0.98-0.98c0-0.43,0-0.86,0-1.29
		c0.01-0.64,0.3-0.94,0.94-0.94C12.58,12.17,14.68,12.17,16.78,12.17z"/>
	<path class="st0" d="M17.98,8.15c-1.66,0-3.32,0-4.98,0c-0.79,0-1.05-0.26-1.05-1.06c0-0.4,0-0.81,0-1.21
		c0.01-0.64,0.29-0.92,0.94-0.93c0.55-0.01,1.1,0,1.65,0c2.79,0,5.59,0,8.38,0c0.83,0,1.07,0.25,1.08,1.07c0,0.39,0.01,0.78,0,1.18
		c-0.01,0.67-0.29,0.95-0.96,0.96C21.35,8.15,19.66,8.15,17.98,8.15z"/>
	<path class="st0" d="M3.99,6.88c1.7-1.7,3.36-3.37,5.03-5.03c0.09-0.09,0.18-0.19,0.28-0.28c0.29-0.25,0.56-0.26,0.84-0.01
		c0.28,0.25,0.55,0.52,0.8,0.8c0.27,0.29,0.26,0.66-0.02,0.95C8.89,5.34,6.87,7.37,4.84,9.38C4.31,9.9,3.66,9.89,3.13,9.37
		C2.16,8.41,1.2,7.45,0.24,6.48c-0.32-0.33-0.32-0.63-0.01-0.96c0.23-0.25,0.48-0.49,0.72-0.72C1.3,4.47,1.59,4.47,1.94,4.81
		C2.61,5.48,3.28,6.17,3.99,6.88z"/>
	<path class="st0" d="M4.7,12.18c0.29,0,0.58-0.01,0.86,0C6,12.21,6.3,12.5,6.31,12.94c0.02,0.55,0.02,1.1,0,1.65
		c-0.01,0.45-0.3,0.77-0.76,0.79c-0.55,0.03-1.1,0.03-1.65,0c-0.49-0.02-0.78-0.35-0.8-0.85c-0.02-0.5-0.01-0.99,0-1.49
		c0.01-0.56,0.32-0.86,0.89-0.87C4.23,12.17,4.47,12.17,4.7,12.18C4.7,12.17,4.7,12.18,4.7,12.18z"/>
	<path class="st0" d="M6.31,21.02c0,0.26,0.01,0.52,0,0.78c-0.02,0.47-0.32,0.79-0.79,0.8c-0.54,0.02-1.07,0.02-1.61,0
		c-0.47-0.02-0.78-0.33-0.8-0.8c-0.02-0.53-0.02-1.07,0-1.61c0.02-0.49,0.35-0.79,0.84-0.8c0.52-0.01,1.05-0.01,1.57,0
		c0.47,0.01,0.78,0.32,0.8,0.79C6.32,20.47,6.31,20.75,6.31,21.02z"/>
</g>
</svg>
