<svg xmlns="http://www.w3.org/2000/svg" xmlns:xlink="http://www.w3.org/1999/xlink" width="289" height="87" viewBox="0 0 289 87">
  <defs>
    <linearGradient id="linear-gradient" x1="0.172" y1="0.1" x2="0.887" y2="0.802" gradientUnits="objectBoundingBox">
      <stop offset="0" stop-color="#3eceda"/>
      <stop offset="1" stop-color="#1f676d"/>
    </linearGradient>
    <clipPath id="clip-path">
      <rect width="231" height="6" fill="none"/>
    </clipPath>
    <clipPath id="clip-path-2">
      <rect width="289" height="6" fill="none"/>
    </clipPath>
    <clipPath id="clip-path-3">
      <rect width="204" height="6" fill="none"/>
    </clipPath>
    <clipPath id="clip-path-4">
      <rect width="265" height="6" fill="none"/>
    </clipPath>
  </defs>
  <g id="Group_17942" data-name="Group 17942" transform="translate(-1011 -818)">
    <g id="Group_17937" data-name="Group 17937" transform="translate(-3 -0.001)">
      <path id="Subtraction_1" data-name="Subtraction 1" d="M-11445.5-1163a6.508,6.508,0,0,1-6.5-6.5,6.507,6.507,0,0,1,6.5-6.5,6.506,6.506,0,0,1,6.5,6.5,6.676,6.676,0,0,1-.118,1.244l-1.558.074a5.046,5.046,0,0,0,.176-1.318,5,5,0,0,0-5-5,5,5,0,0,0-5,5,5.006,5.006,0,0,0,5,5,5.038,5.038,0,0,0,.837-.07l-.072,1.526A6.605,6.605,0,0,1-11445.5-1163Z" transform="translate(12466 1994)" fill="url(#linear-gradient)"/>
    </g>
    <g id="Repeat_Grid_3" data-name="Repeat Grid 3" transform="translate(1011 851)" clip-path="url(#clip-path)">
      <g transform="translate(-1011 -853)">
        <circle id="Ellipse_362" data-name="Ellipse 362" cx="3" cy="3" r="3" transform="translate(1011 853)" fill="#d4d9e2"/>
      </g>
      <g transform="translate(-997 -853)">
        <circle id="Ellipse_362-2" data-name="Ellipse 362" cx="3" cy="3" r="3" transform="translate(1011 853)" fill="#d4d9e2"/>
      </g>
      <g transform="translate(-983 -853)">
        <circle id="Ellipse_362-3" data-name="Ellipse 362" cx="3" cy="3" r="3" transform="translate(1011 853)" fill="#d4d9e2"/>
      </g>
      <g transform="translate(-969 -853)">
        <circle id="Ellipse_362-4" data-name="Ellipse 362" cx="3" cy="3" r="3" transform="translate(1011 853)" fill="#d4d9e2"/>
      </g>
      <g transform="translate(-955 -853)">
        <circle id="Ellipse_362-5" data-name="Ellipse 362" cx="3" cy="3" r="3" transform="translate(1011 853)" fill="#d4d9e2"/>
      </g>
      <g transform="translate(-941 -853)">
        <circle id="Ellipse_362-6" data-name="Ellipse 362" cx="3" cy="3" r="3" transform="translate(1011 853)" fill="#d4d9e2"/>
      </g>
      <g transform="translate(-927 -853)">
        <circle id="Ellipse_362-7" data-name="Ellipse 362" cx="3" cy="3" r="3" transform="translate(1011 853)" fill="#d4d9e2"/>
      </g>
      <g transform="translate(-913 -853)">
        <circle id="Ellipse_362-8" data-name="Ellipse 362" cx="3" cy="3" r="3" transform="translate(1011 853)" fill="#d4d9e2"/>
      </g>
      <g transform="translate(-899 -853)">
        <circle id="Ellipse_362-9" data-name="Ellipse 362" cx="3" cy="3" r="3" transform="translate(1011 853)" fill="#d4d9e2"/>
      </g>
      <g transform="translate(-885 -853)">
        <circle id="Ellipse_362-10" data-name="Ellipse 362" cx="3" cy="3" r="3" transform="translate(1011 853)" fill="#d4d9e2"/>
      </g>
      <g transform="translate(-871 -853)">
        <circle id="Ellipse_362-11" data-name="Ellipse 362" cx="3" cy="3" r="3" transform="translate(1011 853)" fill="#d4d9e2"/>
      </g>
      <g transform="translate(-857 -853)">
        <circle id="Ellipse_362-12" data-name="Ellipse 362" cx="3" cy="3" r="3" transform="translate(1011 853)" fill="#d4d9e2"/>
      </g>
      <g transform="translate(-843 -853)">
        <circle id="Ellipse_362-13" data-name="Ellipse 362" cx="3" cy="3" r="3" transform="translate(1011 853)" fill="#d4d9e2"/>
      </g>
      <g transform="translate(-829 -853)">
        <circle id="Ellipse_362-14" data-name="Ellipse 362" cx="3" cy="3" r="3" transform="translate(1011 853)" fill="#d4d9e2"/>
      </g>
      <g transform="translate(-815 -853)">
        <circle id="Ellipse_362-15" data-name="Ellipse 362" cx="3" cy="3" r="3" transform="translate(1011 853)" fill="#d4d9e2"/>
      </g>
      <g transform="translate(-801 -853)">
        <circle id="Ellipse_362-16" data-name="Ellipse 362" cx="3" cy="3" r="3" transform="translate(1011 853)" fill="#d4d9e2"/>
      </g>
      <g transform="translate(-787 -853)">
        <circle id="Ellipse_362-17" data-name="Ellipse 362" cx="3" cy="3" r="3" transform="translate(1011 853)" fill="#d4d9e2"/>
      </g>
    </g>
    <g id="Repeat_Grid_6" data-name="Repeat Grid 6" transform="translate(1011 899)" clip-path="url(#clip-path-2)">
      <g transform="translate(-1011 -853)">
        <circle id="Ellipse_362-18" data-name="Ellipse 362" cx="3" cy="3" r="3" transform="translate(1011 853)" fill="#d4d9e2"/>
      </g>
      <g transform="translate(-997 -853)">
        <circle id="Ellipse_362-19" data-name="Ellipse 362" cx="3" cy="3" r="3" transform="translate(1011 853)" fill="#d4d9e2"/>
      </g>
      <g transform="translate(-983 -853)">
        <circle id="Ellipse_362-20" data-name="Ellipse 362" cx="3" cy="3" r="3" transform="translate(1011 853)" fill="#d4d9e2"/>
      </g>
      <g transform="translate(-969 -853)">
        <circle id="Ellipse_362-21" data-name="Ellipse 362" cx="3" cy="3" r="3" transform="translate(1011 853)" fill="#d4d9e2"/>
      </g>
      <g transform="translate(-955 -853)">
        <circle id="Ellipse_362-22" data-name="Ellipse 362" cx="3" cy="3" r="3" transform="translate(1011 853)" fill="#d4d9e2"/>
      </g>
      <g transform="translate(-941 -853)">
        <circle id="Ellipse_362-23" data-name="Ellipse 362" cx="3" cy="3" r="3" transform="translate(1011 853)" fill="#d4d9e2"/>
      </g>
      <g transform="translate(-927 -853)">
        <circle id="Ellipse_362-24" data-name="Ellipse 362" cx="3" cy="3" r="3" transform="translate(1011 853)" fill="#d4d9e2"/>
      </g>
      <g transform="translate(-913 -853)">
        <circle id="Ellipse_362-25" data-name="Ellipse 362" cx="3" cy="3" r="3" transform="translate(1011 853)" fill="#d4d9e2"/>
      </g>
      <g transform="translate(-899 -853)">
        <circle id="Ellipse_362-26" data-name="Ellipse 362" cx="3" cy="3" r="3" transform="translate(1011 853)" fill="#d4d9e2"/>
      </g>
      <g transform="translate(-885 -853)">
        <circle id="Ellipse_362-27" data-name="Ellipse 362" cx="3" cy="3" r="3" transform="translate(1011 853)" fill="#d4d9e2"/>
      </g>
      <g transform="translate(-871 -853)">
        <circle id="Ellipse_362-28" data-name="Ellipse 362" cx="3" cy="3" r="3" transform="translate(1011 853)" fill="#d4d9e2"/>
      </g>
      <g transform="translate(-857 -853)">
        <circle id="Ellipse_362-29" data-name="Ellipse 362" cx="3" cy="3" r="3" transform="translate(1011 853)" fill="#d4d9e2"/>
      </g>
      <g transform="translate(-843 -853)">
        <circle id="Ellipse_362-30" data-name="Ellipse 362" cx="3" cy="3" r="3" transform="translate(1011 853)" fill="#d4d9e2"/>
      </g>
      <g transform="translate(-829 -853)">
        <circle id="Ellipse_362-31" data-name="Ellipse 362" cx="3" cy="3" r="3" transform="translate(1011 853)" fill="#d4d9e2"/>
      </g>
      <g transform="translate(-815 -853)">
        <circle id="Ellipse_362-32" data-name="Ellipse 362" cx="3" cy="3" r="3" transform="translate(1011 853)" fill="#d4d9e2"/>
      </g>
      <g transform="translate(-801 -853)">
        <circle id="Ellipse_362-33" data-name="Ellipse 362" cx="3" cy="3" r="3" transform="translate(1011 853)" fill="#d4d9e2"/>
      </g>
      <g transform="translate(-787 -853)">
        <circle id="Ellipse_362-34" data-name="Ellipse 362" cx="3" cy="3" r="3" transform="translate(1011 853)" fill="#d4d9e2"/>
      </g>
      <g transform="translate(-773 -853)">
        <circle id="Ellipse_362-35" data-name="Ellipse 362" cx="3" cy="3" r="3" transform="translate(1011 853)" fill="#d4d9e2"/>
      </g>
      <g transform="translate(-759 -853)">
        <circle id="Ellipse_362-36" data-name="Ellipse 362" cx="3" cy="3" r="3" transform="translate(1011 853)" fill="#d4d9e2"/>
      </g>
      <g transform="translate(-745 -853)">
        <circle id="Ellipse_362-37" data-name="Ellipse 362" cx="3" cy="3" r="3" transform="translate(1011 853)" fill="#d4d9e2"/>
      </g>
      <g transform="translate(-731 -853)">
        <circle id="Ellipse_362-38" data-name="Ellipse 362" cx="3" cy="3" r="3" transform="translate(1011 853)" fill="#d4d9e2"/>
      </g>
    </g>
    <g id="Repeat_Grid_5" data-name="Repeat Grid 5" transform="translate(1011 883)" clip-path="url(#clip-path-3)">
      <g transform="translate(-1011 -853)">
        <circle id="Ellipse_362-39" data-name="Ellipse 362" cx="3" cy="3" r="3" transform="translate(1011 853)" fill="#d4d9e2"/>
      </g>
      <g transform="translate(-997 -853)">
        <circle id="Ellipse_362-40" data-name="Ellipse 362" cx="3" cy="3" r="3" transform="translate(1011 853)" fill="#d4d9e2"/>
      </g>
      <g transform="translate(-983 -853)">
        <circle id="Ellipse_362-41" data-name="Ellipse 362" cx="3" cy="3" r="3" transform="translate(1011 853)" fill="#d4d9e2"/>
      </g>
      <g transform="translate(-969 -853)">
        <circle id="Ellipse_362-42" data-name="Ellipse 362" cx="3" cy="3" r="3" transform="translate(1011 853)" fill="#d4d9e2"/>
      </g>
      <g transform="translate(-955 -853)">
        <circle id="Ellipse_362-43" data-name="Ellipse 362" cx="3" cy="3" r="3" transform="translate(1011 853)" fill="#d4d9e2"/>
      </g>
      <g transform="translate(-941 -853)">
        <circle id="Ellipse_362-44" data-name="Ellipse 362" cx="3" cy="3" r="3" transform="translate(1011 853)" fill="#d4d9e2"/>
      </g>
      <g transform="translate(-927 -853)">
        <circle id="Ellipse_362-45" data-name="Ellipse 362" cx="3" cy="3" r="3" transform="translate(1011 853)" fill="#d4d9e2"/>
      </g>
      <g transform="translate(-913 -853)">
        <circle id="Ellipse_362-46" data-name="Ellipse 362" cx="3" cy="3" r="3" transform="translate(1011 853)" fill="#d4d9e2"/>
      </g>
      <g transform="translate(-899 -853)">
        <circle id="Ellipse_362-47" data-name="Ellipse 362" cx="3" cy="3" r="3" transform="translate(1011 853)" fill="#d4d9e2"/>
      </g>
      <g transform="translate(-885 -853)">
        <circle id="Ellipse_362-48" data-name="Ellipse 362" cx="3" cy="3" r="3" transform="translate(1011 853)" fill="#d4d9e2"/>
      </g>
      <g transform="translate(-871 -853)">
        <circle id="Ellipse_362-49" data-name="Ellipse 362" cx="3" cy="3" r="3" transform="translate(1011 853)" fill="#d4d9e2"/>
      </g>
      <g transform="translate(-857 -853)">
        <circle id="Ellipse_362-50" data-name="Ellipse 362" cx="3" cy="3" r="3" transform="translate(1011 853)" fill="#d4d9e2"/>
      </g>
      <g transform="translate(-843 -853)">
        <circle id="Ellipse_362-51" data-name="Ellipse 362" cx="3" cy="3" r="3" transform="translate(1011 853)" fill="#d4d9e2"/>
      </g>
      <g transform="translate(-829 -853)">
        <circle id="Ellipse_362-52" data-name="Ellipse 362" cx="3" cy="3" r="3" transform="translate(1011 853)" fill="#d4d9e2"/>
      </g>
      <g transform="translate(-815 -853)">
        <circle id="Ellipse_362-53" data-name="Ellipse 362" cx="3" cy="3" r="3" transform="translate(1011 853)" fill="#d4d9e2"/>
      </g>
    </g>
    <g id="Repeat_Grid_4" data-name="Repeat Grid 4" transform="translate(1011 867)" clip-path="url(#clip-path-4)">
      <g transform="translate(-1011 -853)">
        <circle id="Ellipse_362-54" data-name="Ellipse 362" cx="3" cy="3" r="3" transform="translate(1011 853)" fill="#d4d9e2"/>
      </g>
      <g transform="translate(-997 -853)">
        <circle id="Ellipse_362-55" data-name="Ellipse 362" cx="3" cy="3" r="3" transform="translate(1011 853)" fill="#d4d9e2"/>
      </g>
      <g transform="translate(-983 -853)">
        <circle id="Ellipse_362-56" data-name="Ellipse 362" cx="3" cy="3" r="3" transform="translate(1011 853)" fill="#d4d9e2"/>
      </g>
      <g transform="translate(-969 -853)">
        <circle id="Ellipse_362-57" data-name="Ellipse 362" cx="3" cy="3" r="3" transform="translate(1011 853)" fill="#d4d9e2"/>
      </g>
      <g transform="translate(-955 -853)">
        <circle id="Ellipse_362-58" data-name="Ellipse 362" cx="3" cy="3" r="3" transform="translate(1011 853)" fill="#d4d9e2"/>
      </g>
      <g transform="translate(-941 -853)">
        <circle id="Ellipse_362-59" data-name="Ellipse 362" cx="3" cy="3" r="3" transform="translate(1011 853)" fill="#d4d9e2"/>
      </g>
      <g transform="translate(-927 -853)">
        <circle id="Ellipse_362-60" data-name="Ellipse 362" cx="3" cy="3" r="3" transform="translate(1011 853)" fill="#d4d9e2"/>
      </g>
      <g transform="translate(-913 -853)">
        <circle id="Ellipse_362-61" data-name="Ellipse 362" cx="3" cy="3" r="3" transform="translate(1011 853)" fill="#d4d9e2"/>
      </g>
      <g transform="translate(-899 -853)">
        <circle id="Ellipse_362-62" data-name="Ellipse 362" cx="3" cy="3" r="3" transform="translate(1011 853)" fill="#d4d9e2"/>
      </g>
      <g transform="translate(-885 -853)">
        <circle id="Ellipse_362-63" data-name="Ellipse 362" cx="3" cy="3" r="3" transform="translate(1011 853)" fill="#d4d9e2"/>
      </g>
      <g transform="translate(-871 -853)">
        <circle id="Ellipse_362-64" data-name="Ellipse 362" cx="3" cy="3" r="3" transform="translate(1011 853)" fill="#d4d9e2"/>
      </g>
      <g transform="translate(-857 -853)">
        <circle id="Ellipse_362-65" data-name="Ellipse 362" cx="3" cy="3" r="3" transform="translate(1011 853)" fill="#d4d9e2"/>
      </g>
      <g transform="translate(-843 -853)">
        <circle id="Ellipse_362-66" data-name="Ellipse 362" cx="3" cy="3" r="3" transform="translate(1011 853)" fill="#d4d9e2"/>
      </g>
      <g transform="translate(-829 -853)">
        <circle id="Ellipse_362-67" data-name="Ellipse 362" cx="3" cy="3" r="3" transform="translate(1011 853)" fill="#d4d9e2"/>
      </g>
      <g transform="translate(-815 -853)">
        <circle id="Ellipse_362-68" data-name="Ellipse 362" cx="3" cy="3" r="3" transform="translate(1011 853)" fill="#d4d9e2"/>
      </g>
      <g transform="translate(-801 -853)">
        <circle id="Ellipse_362-69" data-name="Ellipse 362" cx="3" cy="3" r="3" transform="translate(1011 853)" fill="#d4d9e2"/>
      </g>
      <g transform="translate(-787 -853)">
        <circle id="Ellipse_362-70" data-name="Ellipse 362" cx="3" cy="3" r="3" transform="translate(1011 853)" fill="#d4d9e2"/>
      </g>
      <g transform="translate(-773 -853)">
        <circle id="Ellipse_362-71" data-name="Ellipse 362" cx="3" cy="3" r="3" transform="translate(1011 853)" fill="#d4d9e2"/>
      </g>
      <g transform="translate(-759 -853)">
        <circle id="Ellipse_362-72" data-name="Ellipse 362" cx="3" cy="3" r="3" transform="translate(1011 853)" fill="#d4d9e2"/>
      </g>
    </g>
  </g>
</svg>
