<svg xmlns="http://www.w3.org/2000/svg" xmlns:xlink="http://www.w3.org/1999/xlink" width="47.443" height="38.693" viewBox="0 0 47.443 38.693"><defs><style>.a{fill:#fff;}.b{filter:url(#g);}.c{filter:url(#e);}.d{filter:url(#c);}.e{filter:url(#a);}</style><filter id="a" x="0" y="0" width="23.853" height="32.781" filterUnits="userSpaceOnUse"><feOffset dy="7" input="SourceAlpha"/><feGaussianBlur stdDeviation="3" result="b"/><feFlood flood-opacity="0.161"/><feComposite operator="in" in2="b"/><feComposite in="SourceGraphic"/></filter><filter id="c" x="9.53" y="3.104" width="33.391" height="29.381" filterUnits="userSpaceOnUse"><feOffset dy="7" input="SourceAlpha"/><feGaussianBlur stdDeviation="3" result="d"/><feFlood flood-opacity="0.161"/><feComposite operator="in" in2="d"/><feComposite in="SourceGraphic"/></filter><filter id="e" x="22.112" y="1.478" width="25.331" height="32.781" filterUnits="userSpaceOnUse"><feOffset dy="7" input="SourceAlpha"/><feGaussianBlur stdDeviation="3" result="f"/><feFlood flood-opacity="0.161"/><feComposite operator="in" in2="f"/><feComposite in="SourceGraphic"/></filter><filter id="g" x="4.671" y="4.434" width="37.194" height="34.259" filterUnits="userSpaceOnUse"><feOffset dy="7" input="SourceAlpha"/><feGaussianBlur stdDeviation="3" result="h"/><feFlood flood-opacity="0.161"/><feComposite operator="in" in2="h"/><feComposite in="SourceGraphic"/></filter></defs><g transform="translate(6 -104.666)"><g transform="translate(3 106.666)"><g transform="translate(0 0)"><g class="e" transform="matrix(1, 0, 0, 1, -9, -2)"><path class="a" d="M8.558,108.292c-1.182-1.182-3.193-1.478-4.819-1.626a.543.543,0,0,0-.443.148,1.121,1.121,0,0,0-.3.591v13.3a.7.7,0,0,0,.739.739H5.158A.813.813,0,0,0,5.9,121c0-.443,2.661-8.277,2.956-12.12A.59.59,0,0,0,8.558,108.292Z" transform="translate(6 -104.67)"/></g></g></g><g transform="translate(12.53 109.77)"><g class="d" transform="matrix(1, 0, 0, 1, -18.53, -5.1)"><path class="a" d="M192.9,153.536c-1.478-.443-2.808-1.035-3.991-1.478-2.661-1.182-3.843-.591-6.208,1.774-1.035,1.035-1.774,2.513-1.626,3.1,0,.148,0,.148.3.3.739.3,1.774.443,2.808-1.183a.768.768,0,0,1,.591-.3,2.739,2.739,0,0,0,1.035-.3,7.2,7.2,0,0,1,1.035-.443h.3c.148,0,.443.148.591.148.739.739,2.069,1.774,3.4,2.956a33.859,33.859,0,0,1,5.173,4.73h.148C195.417,159.892,193.644,154.866,192.9,153.536Z" transform="translate(-162.53 -146.36)"/></g></g><g transform="translate(25.112 108.144)"><g transform="translate(0 0)"><g class="c" transform="matrix(1, 0, 0, 1, -31.11, -3.48)"><path class="a" d="M369.258,128c-5.765,0-6,1.478-6.149,1.478l-.443.443a.889.889,0,0,0,.148.591,83.252,83.252,0,0,1,4.286,11.677.982.982,0,0,0,.739.591h1.419a.7.7,0,0,0,.739-.739v-13.3A.7.7,0,0,0,369.258,128Z" transform="translate(-331.55 -124.52)"/></g></g></g><g transform="translate(7.671 111.1)"><g transform="translate(0 0)"><g class="b" transform="matrix(1, 0, 0, 1, -13.67, -6.43)"><path class="a" d="M130,182.2c-.591-1.33-3.1-3.252-5.321-5.025-1.182-1.035-2.365-1.922-3.252-2.661-.148.148-.443.148-.443.3a2.785,2.785,0,0,1-1.182.3,3.651,3.651,0,0,1-4.286,1.478,1.747,1.747,0,0,1-1.33-1.33c-.3-1.478,1.035-3.547,2.069-4.582H113.3a75.355,75.355,0,0,1-2.365,8.868,16.713,16.713,0,0,0,1.626,1.626c2.808,2.365,6.06,4.73,6.651,5.173a4.2,4.2,0,0,0,1.774.591h.443l-2.365-2.365a.732.732,0,0,1,1.035-1.035l2.956,2.956c.3.3.591.148.887.148.443-.148.591-.443.739-.887l-3.4-3.4a.732.732,0,1,1,1.035-1.035l3.7,3.7a1.58,1.58,0,0,0,1.182,0c.148-.148.443-.3.591-.591l-4.139-4.139a.732.732,0,0,1,1.035-1.035l4.286,4.286a.977.977,0,0,0,.887-.148A1,1,0,0,0,130,182.2Z" transform="translate(-97.26 -164.23)"/></g></g></g></g></svg>