<svg xmlns="http://www.w3.org/2000/svg" width="12.364" height="17" viewBox="0 0 12.364 17">
  <g id="g3003" transform="translate(0 1344)">
    <path id="path3005" d="M12.364-1333.182a.743.743,0,0,1-.229.543l-5.409,5.409a.742.742,0,0,1-.543.229.742.742,0,0,1-.543-.229l-5.409-5.409a.743.743,0,0,1-.229-.543.743.743,0,0,1,.229-.543.743.743,0,0,1,.543-.229H11.591a.743.743,0,0,1,.543.229A.743.743,0,0,1,12.364-1333.182Zm0-4.636a.742.742,0,0,1-.229.543.743.743,0,0,1-.543.229H.773a.743.743,0,0,1-.543-.229.742.742,0,0,1-.229-.543.743.743,0,0,1,.229-.543l5.409-5.409a.743.743,0,0,1,.543-.229.743.743,0,0,1,.543.229l5.409,5.409A.743.743,0,0,1,12.364-1337.818Z" transform="translate(0 0)" fill="#fff"/>
  </g>
</svg>
