<?xml version="1.0" encoding="utf-8"?>
<!-- Generator: Adobe Illustrator 25.2.0, SVG Export Plug-In . SVG Version: 6.00 Build 0)  -->
<svg version="1.1" id="Layer_1" xmlns="http://www.w3.org/2000/svg" xmlns:xlink="http://www.w3.org/1999/xlink" x="0px" y="0px"
	 viewBox="0 0 576 512" style="enable-background:new 0 0 576 512;" xml:space="preserve">
<style type="text/css">
	.st0{fill:#FFFFFF;}
</style>
<path class="st0" d="M192,312c0-13.2,10.8-24,24-24h168V160H256c-17.7,0-32-14.3-32-32V0H48C21.5,0,0,21.5,0,48v416
	c0,26.5,21.5,48,48,48h288c26.5,0,48-21.5,48-48V336H216C202.8,336,192,325.3,192,312z M256,0v128h128L256,0z M568.1,295l-80-80
	c-9.4-9.4-24.6-9.4-33.9,0s-9.4,24.6,0,33.9l39.9,39.1H384v48h110.1l-39,39c-4.8,4.7-7.1,10.8-7.1,17s2.3,12.3,7,17
	c9.4,9.4,24.6,9.4,33.9,0l80-80C578.3,319.6,578.3,304.4,568.1,295z"/>
</svg>
