<svg xmlns="http://www.w3.org/2000/svg" width="33.52" height="23.045" viewBox="0 0 33.52 23.045"><defs><style>.a{fill:#0722d5;}</style></defs><g transform="translate(0 -80)"><g transform="translate(22.219 84.249)"><path class="a" d="M339.392,152.342l11.3,7.144V144.9Z" transform="translate(-339.392 -144.896)"/></g><g transform="translate(0 84.249)"><path class="a" d="M0,144.9v14.589l11.3-7.144Z" transform="translate(0 -144.896)"/></g><g transform="translate(0.063 80)"><path class="a" d="M32.322,80H2.992A2.069,2.069,0,0,0,.96,81.783l16.7,11,16.7-11A2.069,2.069,0,0,0,32.322,80Z" transform="translate(-0.96 -80)"/></g><g transform="translate(0.067 92.957)"><path class="a" d="M21.257,277.922l-2.964,1.953a1.052,1.052,0,0,1-1.152,0l-2.964-1.955L1.024,286.239a2.066,2.066,0,0,0,2.028,1.768h29.33a2.066,2.066,0,0,0,2.028-1.768Z" transform="translate(-1.024 -277.92)"/></g></g></svg>