<svg xmlns="http://www.w3.org/2000/svg" xmlns:xlink="http://www.w3.org/1999/xlink" width="50" height="50" viewBox="0 0 50 50"><defs><style>.a,.b{fill:#0722d5;}.b{stroke:#707070;}.c{clip-path:url(#a);}.d{clip-path:url(#b);}</style><clipPath id="a"><circle class="a" cx="25" cy="25" r="25" transform="translate(0 0.339)"/></clipPath><clipPath id="b"><circle class="b" cx="22" cy="22" r="22" transform="translate(0.039 0.417)"/></clipPath></defs><g transform="translate(-1446 -130.339)"><g transform="translate(1427.953 134.339)"><path class="a" d="M58.846,320.057,58.8,320a16.642,16.642,0,0,0-6.382-4.64,14.093,14.093,0,0,1-19.154.112A16.623,16.623,0,0,0,27.142,320l-.049.059a16.282,16.282,0,0,0-4.046,10.731v1.288H62.893v-1.288A16.284,16.284,0,0,0,58.846,320.057Z" transform="translate(0 -288.272)"/><path class="a" d="M61.364,20.614h2.828a11.447,11.447,0,0,1-.587-2.577h9.809v2.577H64.192a11.475,11.475,0,0,0,.69,1.566,11.642,11.642,0,0,0,3.54,4.02A11.514,11.514,0,0,0,81.8,26.159a11.678,11.678,0,0,0,3.019-3.189,11.508,11.508,0,0,0,1.15-2.355H88.9a2.985,2.985,0,0,0,2.982-2.982v-.884a16.749,16.749,0,0,0-33.5,0v.884a2.985,2.985,0,0,0,2.982,2.982ZM75.131,2.577A14.2,14.2,0,0,1,88.767,12.884H85.943a11.542,11.542,0,0,0-21.731,0H61.5A14.2,14.2,0,0,1,75.131,2.577Z" transform="translate(-32.301)"/></g></g></svg>