<svg xmlns="http://www.w3.org/2000/svg" width="18.493" height="23.355" viewBox="0 0 18.493 23.355"><defs>
<style>.a{fill:#1CC6D3;}</style></defs><g transform="translate(-1802.95 -261.031)">
<path class="a" d="M92.97,179.332a2.129,2.129,0,0,0,2.131,2.027h10.308a2.129,2.129,0,0,0,2.131-2.027L107.958,165H92.552Zm10.247-10.776h1.423v7.824h-1.423Zm-3.673,0h1.423v7.824H99.544Zm-3.673,0h1.423v7.824H95.871Z" transform="translate(1711.941 103.026)"/><path class="a" d="M72.8,4.556V3.134A2.136,2.136,0,0,0,70.669,1H67.824A2.136,2.136,0,0,0,65.69,3.134V4.556H60V6.573H78.493V4.556Zm-5.69,0V3.134a.712.712,0,0,1,.711-.711h2.845a.712.712,0,0,1,.711.711V4.556Z" transform="translate(1742.95 260.031)"/></g></svg>