<svg xmlns="http://www.w3.org/2000/svg" width="40.098" height="40.834" viewBox="0 0 40.098 40.834"><defs><style>.a{fill:#0722d5;}</style></defs><g transform="translate(-3.366)"><g transform="translate(3.366)"><path class="a" d="M23.508,0h-.066A20.032,20.032,0,0,0,7.731,32.516L4.81,39.31a1.089,1.089,0,0,0,.569,1.433A1.112,1.112,0,0,0,6,40.82l10.711-1.882a19.3,19.3,0,0,0,6.674,1.16A20.049,20.049,0,0,0,23.508,0ZM16.637,16.039h5.908a1.094,1.094,0,0,1,0,2.188H16.637a1.094,1.094,0,0,1,0-2.188ZM30.2,23.7H16.637a1.094,1.094,0,0,1,0-2.188H30.2a1.094,1.094,0,1,1,0,2.188Z" transform="translate(-3.366)"/></g></g></svg>