<svg xmlns="http://www.w3.org/2000/svg" xmlns:xlink="http://www.w3.org/1999/xlink" width="52" height="50" viewBox="0 0 52 50"><defs><style>.a{fill:#1aceb1;}.b{clip-path:url(#a);}.c{fill:#0722d5;}</style><clipPath id="a"><circle class="a" cx="25" cy="25" r="25" transform="translate(0 0.339)"/></clipPath></defs><g transform="translate(-1444 -130.339)"><path class="c" d="M21.157,0A21.157,21.157,0,1,0,42.313,21.157,21.18,21.18,0,0,0,21.157,0ZM31.219,32.1a1.761,1.761,0,0,1-2.493,0L19.91,23.285a1.755,1.755,0,0,1-.517-1.246V10.578a1.763,1.763,0,1,1,3.526,0v10.73l8.3,8.3a1.761,1.761,0,0,1,0,2.493Zm0,0" transform="translate(1444 133.804)"/></g></svg>