<?xml version="1.0" encoding="utf-8"?>
<!-- Generator: Adobe Illustrator 25.2.0, SVG Export Plug-In . SVG Version: 6.00 Build 0)  -->
<svg version="1.1" id="Layer_1" xmlns="http://www.w3.org/2000/svg" xmlns:xlink="http://www.w3.org/1999/xlink" x="0px" y="0px"
	 viewBox="0 0 64 64" style="enable-background:new 0 0 64 64;" xml:space="preserve">
<style type="text/css">
	.st0{fill:#1CC6D3;}
</style>
<path class="st0" d="M32,61C16,61,3,48,3,32S16,3,32,3s29,13,29,29S48,61,32,61z M32,6C17.6,6,6,17.6,6,32s11.6,26,26,26
	s26-11.7,26-26S46.3,6,32,6z"/>
<path class="st0" d="M32,45c-0.9,0-1.5-0.7-1.5-1.5v-13c0-0.9,0.6-1.5,1.5-1.5c0.8,0,1.5,0.6,1.5,1.5v13C33.5,44.3,32.8,45,32,45z"
	/>
<path class="st0" d="M32,24.5c-0.9,0-1.5-0.6-1.5-1.5v-2.5c0-0.9,0.6-1.5,1.5-1.5c0.8,0,1.5,0.6,1.5,1.5V23
	C33.5,23.9,32.8,24.5,32,24.5z"/>
</svg>
