<svg xmlns="http://www.w3.org/2000/svg" width="40" height="40" viewBox="0 0 40 40"><defs><style>.a{fill:#56d88e;}.b{fill:#fff;}</style></defs><g transform="translate(-335 -8286)"><circle class="a" cx="20" cy="20" r="20" transform="translate(335 8286)"/><g transform="translate(346.878 8297)"><path class="b" d="M20.273,20.058h0v-6.69c0-3.273-.7-5.794-4.53-5.794A3.972,3.972,0,0,0,12.17,9.54h-.053V7.88H8.489V20.057h3.777v-6.03c0-1.588.3-3.123,2.267-3.123,1.937,0,1.966,1.812,1.966,3.225v5.929Z" transform="translate(-2.037 -1.818)"/><path class="b" d="M.4,7.977H4.178V20.155H.4Z" transform="translate(-0.095 -1.914)"/><path class="b" d="M2.19,0a2.2,2.2,0,1,0,2.19,2.19A2.191,2.191,0,0,0,2.19,0Z"/></g></g></svg>