<svg xmlns="http://www.w3.org/2000/svg" width="15.575" height="20.607" viewBox="0 0 15.575 20.607"><defs><style>.a{fill:#81859a;}</style></defs><g transform="translate(-62.512)"><g transform="translate(62.512 7.907)"><g transform="translate(0)"><path class="a" d="M76.889,196.465H63.71a1.2,1.2,0,0,0-1.2,1.2v10.3a1.2,1.2,0,0,0,1.2,1.2H76.889a1.2,1.2,0,0,0,1.2-1.2v-10.3A1.2,1.2,0,0,0,76.889,196.465Zm-.24,11.262H63.95V197.9h12.7v9.824Z" transform="translate(-62.512 -196.465)"/></g></g><g transform="translate(64.429)"><g transform="translate(0)"><path class="a" d="M116.011,0a5.9,5.9,0,0,0-5.871,5.919V8.387h1.438V5.919a4.433,4.433,0,1,1,8.866,0V8.387h1.438V5.919A5.9,5.9,0,0,0,116.011,0Z" transform="translate(-110.14)"/></g></g><g transform="translate(69.461 13.418)"><g transform="translate(0)"><path class="a" d="M235.882,333.395a.719.719,0,0,0-.719.719v1.677a.719.719,0,1,0,1.438,0v-1.677A.719.719,0,0,0,235.882,333.395Z" transform="translate(-235.163 -333.395)"/></g></g></g></svg>