<svg xmlns="http://www.w3.org/2000/svg" xmlns:xlink="http://www.w3.org/1999/xlink" width="263" height="841" viewBox="0 0 263 841">
  <defs>
    <clipPath id="clip-path">
      <rect id="Rectangle_7189" data-name="Rectangle 7189" width="263" height="841" transform="translate(1657 110)" fill="#fff" stroke="#707070" stroke-width="1"/>
    </clipPath>
  </defs>
  <g id="Mask_Group_48" data-name="Mask Group 48" transform="translate(-1657 -110)" clip-path="url(#clip-path)">
    <g id="Group_17563" data-name="Group 17563" transform="translate(0 1.288)" style="mix-blend-mode: darken;isolation: isolate">
      <g id="deal-svgrepo-com_1_" data-name="deal-svgrepo-com (1)" transform="translate(1764 505.152)" opacity="0.5">
        <g id="Group_17551" data-name="Group 17551" transform="translate(0 61.467)">
          <g id="Group_17550" data-name="Group 17550">
            <path id="Path_4820" data-name="Path 4820" d="M104.912,132.911l-1.491,1.491a1,1,0,1,0,1.42,1.42l1.491-1.491a1,1,0,1,0-1.42-1.42Z" transform="translate(-93.118 -125.711)" fill="#cbd5e6"/>
            <path id="Path_4821" data-name="Path 4821" d="M58.3,184.858l-.918.918a1,1,0,1,0,1.42,1.42l.918-.918a1,1,0,1,0-1.42-1.42Z" transform="translate(-51.545 -172.616)" fill="#cbd5e6"/>
            <path id="Path_4822" data-name="Path 4822" d="M49.4,73.4,37.759,61.761a1,1,0,0,0-1.42,0l-4.72,4.72a1,1,0,0,0,0,1.42l.4.4-1.408,1.408a3.361,3.361,0,0,1-1.982.923l-8,.011a2.542,2.542,0,0,0-1.482.476L18.5,70.48l.393-.393a1,1,0,0,0,0-1.42l-5.541-5.541a1,1,0,0,0-1.42,0L.294,74.767a1,1,0,0,0,0,1.42l5.541,5.541a1,1,0,0,0,1.42,0l.331-.331,1.474,1.474a5.023,5.023,0,0,1,1.118,1.7l.057.142A7.019,7.019,0,0,0,11.8,87.08L23.087,98.368a2.95,2.95,0,0,0,4.817-.98,2.955,2.955,0,0,0,3.889-1.515,2.954,2.954,0,0,0,4-4,2.9,2.9,0,0,0,.884-.605l.009-.009a2.964,2.964,0,0,0,0-4.188L36.617,87l1.9-1.9a8.553,8.553,0,0,0,1.762-2.569l.061-.148a5.024,5.024,0,0,1,1.119-1.7l1.474-1.474.328.328a1,1,0,0,0,1.42,0l4.72-4.72A1,1,0,0,0,49.4,73.4ZM6.876,79.267l0,0-.33.33-4.12-4.121L12.645,65.257l4.12,4.12-.391.391,0,0Zm28.4,10.571-.009.009a.928.928,0,0,1-1.327-.01L28.066,84a1,1,0,0,0-1.71.806q0,.048.014.1a1,1,0,0,0,.276.518s7.278,7.27,7.32,7.3a.953.953,0,0,1-.106,1.22.939.939,0,0,1-1.327,0L24.757,86.21a1,1,0,0,0-1.42,1.42L29.9,94.193a.952.952,0,0,1-.145,1.161.938.938,0,0,1-1.327,0L21.2,88.171a1,1,0,0,0-1.42,0q-.037.037-.069.076a1,1,0,0,0,.069,1.344l6.2,6.2a.952.952,0,0,1-.145,1.162.939.939,0,0,1-1.327,0L13.219,85.66a5.023,5.023,0,0,1-1.118-1.7l-.057-.142a7.021,7.021,0,0,0-1.563-2.37L9.007,79.976,17.083,71.9l1,1a2.6,2.6,0,0,0-.019.3c0,.009,0,.017,0,.026a3.851,3.851,0,0,0,3.81,3.759l1.879-.008,11.52,11.52A.953.953,0,0,1,35.273,89.837ZM40.037,79.27a7.012,7.012,0,0,0-1.561,2.364l-.061.149a6.518,6.518,0,0,1-1.32,1.9l-1.894,1.9-5.337-5.337a7.34,7.34,0,0,0,2.977-.6l-.915-1.788.01-.005a7.288,7.288,0,0,1-4.288.178l-2.773-2.773-.009,0a.989.989,0,0,0-.694-.26h0l-2.3-.01a1.846,1.846,0,0,1-1.8-1.8.562.562,0,0,1,.553-.544l8.077-.011a1,1,0,0,0,.136-.009,5.371,5.371,0,0,0,3.192-1.5l1.408-1.407L41.512,77.8Zm3.933-1.857-.328-.328h0l-9.5-9.5h0l-.4-.4,3.3-3.3L47.27,74.112Z" transform="translate(0 -61.467)" fill="#cbd5e6"/>
          </g>
        </g>
      </g>
      <path id="Product-595b40b85ba036ed117dc3a1" d="M9.208,2A4,4,0,0,0,6.2,3.365L2.99,7.036H2.984A4.023,4.023,0,0,0,2,9.672V30a4.02,4.02,0,0,0,4,4H30a4.02,4.02,0,0,0,4-4V9.672a4.023,4.023,0,0,0-.984-2.635H33.01L29.8,3.365A4,4,0,0,0,26.791,2Zm0,2.667H26.791a1.325,1.325,0,0,1,1,.453l1.937,2.214H6.271L8.208,5.12A1.315,1.315,0,0,1,9.208,4.667ZM4.667,10H31.333V30A1.315,1.315,0,0,1,30,31.333H6A1.315,1.315,0,0,1,4.667,30Zm8,2.667v2.667H23.333V12.667ZM22,18l-1.333,2.667v2.667h2.667V20.666Zm5.333,0L26,20.666v2.667h2.667V20.666Zm-6.667,8v2.667h8V26Z" transform="translate(1809 154)" fill="#cbd5e6" opacity="0.5"/>
      <path id="Shopping_Cart-595b40b85ba036ed117dc464" data-name="Shopping Cart-595b40b85ba036ed117dc464" d="M1,.994V3.532H6.075a1.258,1.258,0,0,1,1.19.872L9.634,25.543a3.826,3.826,0,0,0,3.787,3.38H28.914V26.386H13.421a1.255,1.255,0,0,1-1.264-1.125L12,23.848H28.1a3.819,3.819,0,0,0,3.732-3.058L34.267,8.622H10.288l-.54-4.837-.04-.114A3.814,3.814,0,0,0,6.075.994ZM26.377,28.923a2.538,2.538,0,1,0,2.538,2.538A2.538,2.538,0,0,0,26.377,28.923Zm-12.688,0a2.538,2.538,0,1,0,2.538,2.538A2.538,2.538,0,0,0,13.688,28.923ZM10.576,11.16h20.6l-1.829,9.13A1.253,1.253,0,0,1,28.1,21.31H11.716Z" transform="matrix(0.788, -0.616, 0.616, 0.788, 1762.6, 938.572)" fill="#cbd5e6" opacity="0.5"/>
      <g id="amazon-icon-1" transform="matrix(0.914, -0.407, 0.407, 0.914, 1839.184, 783.779)" opacity="0.5">
        <path id="Path_4823" data-name="Path 4823" d="M34.481,193.035c-14.544,6.922-23.57,1.131-29.348-2.387-.358-.222-.965.052-.438.657,1.925,2.334,8.233,7.96,16.467,7.96s13.142-4.5,13.755-5.28.179-1.207-.437-.95Zm4.085-2.256c-.391-.509-2.375-.6-3.624-.45s-3.128.913-2.965,1.372c.084.172.255.095,1.114.018s3.275-.391,3.778.267-.77,3.816-1,4.324.086.64.509.3a6.6,6.6,0,0,0,1.678-2.456c.5-1.248.81-2.988.513-3.375Z" transform="translate(0 -163.59)" fill="#dbdbdb"/>
        <path id="Path_4824" data-name="Path 4824" d="M65.09,15.321c0,1.816.046,3.331-.872,4.944a3.78,3.78,0,0,1-3.226,2.118c-1.79,0-2.832-1.364-2.832-3.377,0-3.973,3.56-4.695,6.93-4.695Zm4.7,11.363a.973.973,0,0,1-1.1.111,11.475,11.475,0,0,1-2.675-3.108c-2.557,2.61-4.367,3.39-7.684,3.39-3.921,0-6.976-2.419-6.976-7.265a7.921,7.921,0,0,1,4.97-7.619c2.531-1.115,6.065-1.311,8.766-1.619v-.6a6,6,0,0,0-.564-3.377A3.119,3.119,0,0,0,61.91,5.382a3.553,3.553,0,0,0-3.75,2.8.975.975,0,0,1-.806.852l-4.524-.485a.826.826,0,0,1-.695-.977C53.177,2.09,58.127.438,62.559.438c2.269,0,5.232.6,7.022,2.321,2.269,2.118,2.052,4.944,2.052,8.019v7.265c0,2.183.9,3.141,1.757,4.321a.876.876,0,0,1-.013,1.239c-.951.793-2.642,2.269-3.573,3.095l-.013-.013" transform="translate(-40.388)" fill="#dbdbdb" fill-rule="evenodd"/>
        <path id="Path_4825" data-name="Path 4825" d="M34.481,193.035c-14.544,6.922-23.57,1.131-29.348-2.387-.358-.222-.965.052-.438.657,1.925,2.334,8.233,7.96,16.467,7.96s13.142-4.5,13.755-5.28.179-1.207-.437-.95Zm4.085-2.256c-.391-.509-2.375-.6-3.624-.45s-3.128.913-2.965,1.372c.084.172.255.095,1.114.018s3.275-.391,3.778.267-.77,3.816-1,4.324.086.64.509.3a6.6,6.6,0,0,0,1.678-2.456c.5-1.248.81-2.988.513-3.375Z" transform="translate(0 -163.59)" fill="#dbdbdb"/>
        <path id="Path_4826" data-name="Path 4826" d="M65.09,15.321c0,1.816.046,3.331-.872,4.944a3.78,3.78,0,0,1-3.226,2.118c-1.79,0-2.832-1.364-2.832-3.377,0-3.973,3.56-4.695,6.93-4.695Zm4.7,11.363a.973.973,0,0,1-1.1.111,11.475,11.475,0,0,1-2.675-3.108c-2.557,2.61-4.367,3.39-7.684,3.39-3.921,0-6.976-2.419-6.976-7.265a7.921,7.921,0,0,1,4.97-7.619c2.531-1.115,6.065-1.311,8.766-1.619v-.6a6,6,0,0,0-.564-3.377A3.119,3.119,0,0,0,61.91,5.382a3.553,3.553,0,0,0-3.75,2.8.975.975,0,0,1-.806.852l-4.524-.485a.826.826,0,0,1-.695-.977C53.177,2.09,58.127.438,62.559.438c2.269,0,5.232.6,7.022,2.321,2.269,2.118,2.052,4.944,2.052,8.019v7.265c0,2.183.9,3.141,1.757,4.321a.876.876,0,0,1-.013,1.239c-.951.793-2.642,2.269-3.573,3.095l-.013-.013" transform="translate(-40.388)" fill="#dbdbdb" fill-rule="evenodd"/>
      </g>
      <g id="smiley-svgrepo-com" transform="translate(1863.206 1042.329) rotate(-45)" opacity="0.5">
        <path id="Path_4827" data-name="Path 4827" d="M27.875,4.783A16.329,16.329,0,0,0,4.783,27.875,16.329,16.329,0,0,0,27.875,4.783ZM16.329,30.638A14.309,14.309,0,1,1,30.638,16.329,14.325,14.325,0,0,1,16.329,30.638Z" transform="translate(0 0)" fill="#cbd5e6"/>
        <path id="Path_4828" data-name="Path 4828" d="M285.871,166.2a2.357,2.357,0,1,0-2.357-2.357A2.359,2.359,0,0,0,285.871,166.2Z" transform="translate(-264.423 -150.612)" fill="#cbd5e6"/>
        <path id="Path_4829" data-name="Path 4829" d="M133.843,166.2a2.357,2.357,0,1,0-2.357-2.357A2.359,2.359,0,0,0,133.843,166.2Z" transform="translate(-122.632 -150.612)" fill="#cbd5e6"/>
        <path id="Path_4830" data-name="Path 4830" d="M117.754,286.26a7.61,7.61,0,0,1-7.111-4.963l-1.9.7a9.6,9.6,0,0,0,18.013,0l-1.9-.7A7.61,7.61,0,0,1,117.754,286.26Z" transform="translate(-101.425 -262.356)" fill="#cbd5e6"/>
      </g>
      <g id="smile-wink_2" transform="translate(1823.719 353.125) rotate(-13)" opacity="0.5">
        <path id="Path_4831" data-name="Path 4831" d="M16.462,0A16.462,16.462,0,1,0,32.925,16.462,16.478,16.478,0,0,0,16.462,0Zm0,2.746A13.717,13.717,0,1,1,2.746,16.462,13.7,13.7,0,0,1,16.462,2.746Zm-6.173,8.231a2.058,2.058,0,1,0,2.058,2.058A2.056,2.056,0,0,0,10.289,10.977Zm8.919,1.37v2.746H26.07V12.347Zm4.071,5.53a6.326,6.326,0,0,1-2.27,5.061,7.413,7.413,0,0,1-4.546,1.756,8.7,8.7,0,0,1-6.431-2.7L8.1,23.967a11.7,11.7,0,0,0,8.36,3.473,9.968,9.968,0,0,0,6.347-2.4,9.251,9.251,0,0,0,3.215-7.157H23.279Z" fill="#dbdbdb"/>
      </g>
      <g id="Group_17554" data-name="Group 17554" transform="translate(715.287 1719.083) rotate(-60)">
        <path id="Path_4836" data-name="Path 4836" d="M9.409,0A9.409,9.409,0,1,1,0,9.409,9.409,9.409,0,0,1,9.409,0Z" transform="translate(1646.188 387.818)" fill="#dbdbdb" opacity="0.5"/>
        <g id="bell" transform="translate(1650.634 391.555)">
          <path id="Path_4635" data-name="Path 4635" d="M31.007,8.444A3.344,3.344,0,0,1,29.82,5.886V4.494a3.5,3.5,0,0,0-3-3.455V.5a.5.5,0,0,0-1,0v.539a3.5,3.5,0,0,0-3,3.455V5.886a3.348,3.348,0,0,1-1.192,2.563.874.874,0,0,0,.568,1.537h8.238a.874.874,0,0,0,.564-1.541Zm0,0" transform="translate(-21.332 0)" fill="#fff"/>
          <path id="Path_4636" data-name="Path 4636" d="M158.123,449.5a1.875,1.875,0,0,0,1.834-1.5h-3.669A1.875,1.875,0,0,0,158.123,449.5Zm0,0" transform="translate(-153.131 -437.516)" fill="#fff"/>
        </g>
      </g>
      <g id="Group_17555" data-name="Group 17555" transform="translate(573.287 1524.028) rotate(-60)">
        <path id="Path_4836-2" data-name="Path 4836" d="M9.409,0A9.409,9.409,0,1,1,0,9.409,9.409,9.409,0,0,1,9.409,0Z" transform="translate(1646.188 387.818)" fill="#cbd5e6" opacity="0.5"/>
        <g id="bell-2" data-name="bell" transform="translate(1650.634 391.555)">
          <path id="Path_4635-2" data-name="Path 4635" d="M31.007,8.444A3.344,3.344,0,0,1,29.82,5.886V4.494a3.5,3.5,0,0,0-3-3.455V.5a.5.5,0,0,0-1,0v.539a3.5,3.5,0,0,0-3,3.455V5.886a3.348,3.348,0,0,1-1.192,2.563.874.874,0,0,0,.568,1.537h8.238a.874.874,0,0,0,.564-1.541Zm0,0" transform="translate(-21.332 0)" fill="#fff"/>
          <path id="Path_4636-2" data-name="Path 4636" d="M158.123,449.5a1.875,1.875,0,0,0,1.834-1.5h-3.669A1.875,1.875,0,0,0,158.123,449.5Zm0,0" transform="translate(-153.131 -437.516)" fill="#fff"/>
        </g>
      </g>
      <g id="Group_17556" data-name="Group 17556" transform="translate(592.194 1976.028) rotate(-60)">
        <path id="Path_4836-3" data-name="Path 4836" d="M9.409,0A9.409,9.409,0,1,1,0,9.409,9.409,9.409,0,0,1,9.409,0Z" transform="translate(1646.188 387.818)" fill="#cbd5e6" opacity="0.5"/>
        <g id="bell-3" data-name="bell" transform="translate(1650.634 391.555)">
          <path id="Path_4635-3" data-name="Path 4635" d="M31.007,8.444A3.344,3.344,0,0,1,29.82,5.886V4.494a3.5,3.5,0,0,0-3-3.455V.5a.5.5,0,0,0-1,0v.539a3.5,3.5,0,0,0-3,3.455V5.886a3.348,3.348,0,0,1-1.192,2.563.874.874,0,0,0,.568,1.537h8.238a.874.874,0,0,0,.564-1.541Zm0,0" transform="translate(-21.332 0)" fill="#fff"/>
          <path id="Path_4636-3" data-name="Path 4636" d="M158.123,449.5a1.875,1.875,0,0,0,1.834-1.5h-3.669A1.875,1.875,0,0,0,158.123,449.5Zm0,0" transform="translate(-153.131 -437.516)" fill="#fff"/>
        </g>
      </g>
      <g id="Group_17557" data-name="Group 17557" transform="translate(702.434 2166.287) rotate(-60)">
        <path id="Path_4836-4" data-name="Path 4836" d="M9.409,0A9.409,9.409,0,1,1,0,9.409,9.409,9.409,0,0,1,9.409,0Z" transform="translate(1646.188 387.818)" fill="#dbdbdb" opacity="0.5"/>
        <g id="bell-4" data-name="bell" transform="translate(1650.634 391.555)">
          <path id="Path_4635-4" data-name="Path 4635" d="M31.007,8.444A3.344,3.344,0,0,1,29.82,5.886V4.494a3.5,3.5,0,0,0-3-3.455V.5a.5.5,0,0,0-1,0v.539a3.5,3.5,0,0,0-3,3.455V5.886a3.348,3.348,0,0,1-1.192,2.563.874.874,0,0,0,.568,1.537h8.238a.874.874,0,0,0,.564-1.541Zm0,0" transform="translate(-21.332 0)" fill="#fff"/>
          <path id="Path_4636-4" data-name="Path 4636" d="M158.123,449.5a1.875,1.875,0,0,0,1.834-1.5h-3.669A1.875,1.875,0,0,0,158.123,449.5Zm0,0" transform="translate(-153.131 -437.516)" fill="#fff"/>
        </g>
      </g>
      <g id="in-love-smile-svgrepo-com" transform="translate(1694.79 452.479) rotate(30)" opacity="0.5">
        <g id="Group_17553" data-name="Group 17553">
          <g id="Group_17552" data-name="Group 17552">
            <path id="Path_4832" data-name="Path 4832" d="M11.5,0a11.5,11.5,0,1,0,11.5,11.5A11.5,11.5,0,0,0,11.5,0Zm0,21.089A9.586,9.586,0,1,1,21.089,11.5,9.586,9.586,0,0,1,11.5,21.089Z" fill="#cbd5e6"/>
            <path id="Path_4833" data-name="Path 4833" d="M119.129,256a.959.959,0,0,0-.959.959,4.793,4.793,0,1,1-9.586,0,.959.959,0,0,0-1.917,0,6.71,6.71,0,0,0,13.42,0A.959.959,0,0,0,119.129,256Z" transform="translate(-101.874 -244.497)" fill="#cbd5e6"/>
            <path id="Path_4834" data-name="Path 4834" d="M110.526,128.917l1.923,1.686,1.957-1.686a2.4,2.4,0,0,0,.76-1.224,1.381,1.381,0,0,0,.046-.544,1.5,1.5,0,0,0-1.441-1.442,1.442,1.442,0,0,0-1.322.865,1.4,1.4,0,0,0-1.288-.865,1.5,1.5,0,0,0-1.442,1.442,1.373,1.373,0,0,0,.047.544A2.385,2.385,0,0,0,110.526,128.917Z" transform="translate(-104.78 -120.058)" fill="#cbd5e6"/>
            <path id="Path_4835" data-name="Path 4835" d="M281.193,128.917l1.923,1.686,1.956-1.686a2.4,2.4,0,0,0,.76-1.224,1.381,1.381,0,0,0,.046-.544,1.5,1.5,0,0,0-1.441-1.442,1.442,1.442,0,0,0-1.322.865,1.4,1.4,0,0,0-1.288-.865,1.5,1.5,0,0,0-1.442,1.442,1.373,1.373,0,0,0,.047.544A2.385,2.385,0,0,0,281.193,128.917Z" transform="translate(-267.778 -120.058)" fill="#cbd5e6"/>
          </g>
        </g>
      </g>
    </g>
  </g>
</svg>
