<?xml version="1.0" encoding="utf-8"?>
<!-- Generator: Adobe Illustrator 25.2.0, SVG Export Plug-In . SVG Version: 6.00 Build 0)  -->
<svg version="1.1" id="Layer_1" xmlns="http://www.w3.org/2000/svg" xmlns:xlink="http://www.w3.org/1999/xlink" x="0px" y="0px"
	 viewBox="0 0 881.3 717" style="enable-background:new 0 0 881.3 717;" xml:space="preserve">
<style type="text/css">
	.st0{opacity:0.2;}
	.st1{filter:url(#Path_4648);}
	.st2{fill:#FFFFFF;}
	.st3{fill:#34CBD7;}
	.st4{fill:#DFDFDF;}
	.st5{opacity:0.9;}
	.st6{filter:url(#Path_4648-2);}
	.st7{fill:#06C1CF;}
	.st8{filter:url(#Path_4648-3);}
	.st9{fill:#EE3E38;}
	.st10{fill:#A6BCE1;}
	.st11{fill:url(#Path_4667_1_);}
	.st12{filter:url(#Path_4648-4);}
	.st13{fill:#F2C85B;}
	.st14{filter:url(#Path_4648-5);}
	.st15{filter:url(#Path_4648-6);}
	.st16{filter:url(#Path_4648-7);}
	.st17{fill:#F86E51;}
	.st18{filter:url(#Path_4648-8);}
	.st19{fill:#FBA465;}
	.st20{filter:url(#Path_4648-9);}
	.st21{opacity:0.21;fill:#FFFFFF;enable-background:new    ;}
	.st22{opacity:0.99;}
	.st23{filter:url(#Path_4648-10);}
	.st24{fill:url(#Path_4652-10_1_);}
</style>
<filter  filterUnits="userSpaceOnUse" height="203.33" id="Path_4648-9" width="444.331" x="366.017" y="513.713">
	<feOffset  dx="20" dy="23" input="SourceAlpha"></feOffset>
	<feGaussianBlur  result="blur-9" stdDeviation="22.5"></feGaussianBlur>
	<feFlood  flood-opacity="0.059"></feFlood>
	<feComposite  in2="blur-9" operator="in"></feComposite>
	<feComposite  in="SourceGraphic" operator="over"></feComposite>
</filter>
<filter  filterUnits="userSpaceOnUse" height="203.33" id="Path_4648-8" width="444.331" x="366.017" y="426.115">
	<feOffset  dx="20" dy="23" input="SourceAlpha"></feOffset>
	<feGaussianBlur  result="blur-8" stdDeviation="22.5"></feGaussianBlur>
	<feFlood  flood-opacity="0.059"></feFlood>
	<feComposite  in2="blur-8" operator="in"></feComposite>
	<feComposite  in="SourceGraphic" operator="over"></feComposite>
</filter>
<filter  filterUnits="userSpaceOnUse" height="203.33" id="Path_4648-7" width="444.331" x="366.017" y="338.075">
	<feOffset  dx="20" dy="23" input="SourceAlpha"></feOffset>
	<feGaussianBlur  result="blur-7" stdDeviation="22.5"></feGaussianBlur>
	<feFlood  flood-opacity="0.059"></feFlood>
	<feComposite  in2="blur-7" operator="in"></feComposite>
	<feComposite  in="SourceGraphic" operator="over"></feComposite>
</filter>
<filter  filterUnits="userSpaceOnUse" height="203.33" id="Path_4648-6" width="444.331" x="36.428" y="513.713">
	<feOffset  dx="20" dy="23" input="SourceAlpha"></feOffset>
	<feGaussianBlur  result="blur-6" stdDeviation="22.5"></feGaussianBlur>
	<feFlood  flood-opacity="0.059"></feFlood>
	<feComposite  in2="blur-6" operator="in"></feComposite>
	<feComposite  in="SourceGraphic" operator="over"></feComposite>
</filter>
<filter  filterUnits="userSpaceOnUse" height="203.33" id="Path_4648-5" width="444.331" x="37.523" y="423.925">
	<feOffset  dx="20" dy="23" input="SourceAlpha"></feOffset>
	<feGaussianBlur  result="blur-5" stdDeviation="22.5"></feGaussianBlur>
	<feFlood  flood-opacity="0.059"></feFlood>
	<feComposite  in2="blur-5" operator="in"></feComposite>
	<feComposite  in="SourceGraphic" operator="over"></feComposite>
</filter>
<filter  filterUnits="userSpaceOnUse" height="203.33" id="Path_4648-4" width="444.331" x="37.523" y="336.327">
	<feOffset  dx="20" dy="23" input="SourceAlpha"></feOffset>
	<feGaussianBlur  result="blur-4" stdDeviation="22.5"></feGaussianBlur>
	<feFlood  flood-opacity="0.059"></feFlood>
	<feComposite  in2="blur-4" operator="in"></feComposite>
	<feComposite  in="SourceGraphic" operator="over"></feComposite>
</filter>
<filter  filterUnits="userSpaceOnUse" height="215.216" id="Path_4648-3" width="498.137" x="383.149" y="97.453">
	<feOffset  dx="20" dy="23" input="SourceAlpha"></feOffset>
	<feGaussianBlur  result="blur-3" stdDeviation="22.5"></feGaussianBlur>
	<feFlood  flood-opacity="0.059"></feFlood>
	<feComposite  in2="blur-3" operator="in"></feComposite>
	<feComposite  in="SourceGraphic" operator="over"></feComposite>
</filter>
<filter  filterUnits="userSpaceOnUse" height="215.216" id="Path_4648-2" width="498.137" x="382.054" y="0">
	<feOffset  dx="20" dy="23" input="SourceAlpha"></feOffset>
	<feGaussianBlur  result="blur-2" stdDeviation="22.5"></feGaussianBlur>
	<feFlood  flood-opacity="0.059"></feFlood>
	<feComposite  in2="blur-2" operator="in"></feComposite>
	<feComposite  in="SourceGraphic" operator="over"></feComposite>
</filter>
<filter  filterUnits="userSpaceOnUse" height="215.216" id="Path_4648-10" width="498.137" x="0" y="0">
	<feOffset  dx="20" dy="23" input="SourceAlpha"></feOffset>
	<feGaussianBlur  result="blur-10" stdDeviation="22.5"></feGaussianBlur>
	<feFlood  flood-opacity="0.059"></feFlood>
	<feComposite  in2="blur-10" operator="in"></feComposite>
	<feComposite  in="SourceGraphic" operator="over"></feComposite>
</filter>
<filter  filterUnits="userSpaceOnUse" height="215.216" id="Path_4648" width="498.137" x="0" y="97.453">
	<feOffset  dx="20" dy="23" input="SourceAlpha"></feOffset>
	<feGaussianBlur  result="blur" stdDeviation="22.5"></feGaussianBlur>
	<feFlood  flood-opacity="0.059"></feFlood>
	<feComposite  in2="blur" operator="in"></feComposite>
	<feComposite  in="SourceGraphic" operator="over"></feComposite>
</filter>
<g id="Group_17562" transform="translate(-44.731 -281.21)">
	<g id="Component_22_55" transform="translate(92.231 423.163)" class="st0">
		<g id="Group_17229">
			<g id="Group_17226">
				<g id="Group_17225">
					<g transform="matrix(1, 0, 0, 1, -47.5, -141.95)" class="st1">
						<path id="Path_4648-11_1_" class="st2" d="M70.4,201.9h317.3c12.7,0,22.9,10.3,22.9,22.9c0,0,0,0,0,0v34.4
							c0,12.7-10.3,22.9-22.9,22.9l0,0H70.4c-12.7,0-22.9-10.3-22.9-22.9c0,0,0,0,0,0v-34.4C47.5,212.2,57.8,201.9,70.4,201.9
							C70.4,201.9,70.4,201.9,70.4,201.9z"/>
					</g>
					<path id="Path_4652" class="st3" d="M39,76c13.3,0,24.1,10.8,24.1,24.1S52.4,124.1,39,124.1S15,113.4,15,100.1c0,0,0,0,0,0
						C15,86.7,25.7,76,39,76z"/>
				</g>
				<g id="bell" transform="translate(26.339 25.531)">
					<path id="Path_4635" class="st2" d="M24.8,81.6c-1.9-1.6-3-4-3-6.6v-3.6c0-4.4-3.3-8.2-7.7-8.8v-1.4c0-0.7-0.6-1.3-1.3-1.3
						s-1.3,0.6-1.3,1.3v1.4c-4.4,0.6-7.7,4.4-7.7,8.8v3.6c0,2.5-1.1,4.9-3.1,6.6c-0.9,0.8-1,2.2-0.2,3.2c0.4,0.5,1,0.8,1.7,0.8h21.1
						c1.2,0,2.2-1,2.2-2.2C25.6,82.7,25.3,82,24.8,81.6z"/>
					<path id="Path_4636" class="st2" d="M12.8,90.7c2.3,0,4.2-1.6,4.7-3.8H8.1C8.5,89.1,10.5,90.7,12.8,90.7z"/>
				</g>
			</g>
			<path id="Path_4649" class="st4" d="M85.8,82.5h247.3c2,0,3.6,1.6,3.6,3.6c0,0,0,0,0,0v2.4c0,2-1.6,3.6-3.6,3.6l0,0H85.8
				c-2,0-3.6-1.6-3.6-3.6v-2.4C82.2,84.1,83.8,82.5,85.8,82.5C85.8,82.5,85.8,82.5,85.8,82.5z"/>
			<path id="Path_4650" class="st4" d="M85.8,106.9h169.2c2,0,3.6,1.6,3.6,3.7v2.4c0,2-1.6,3.6-3.6,3.7H85.8c-2,0-3.7-1.6-3.7-3.7
				v-2.4C82.2,108.6,83.8,106.9,85.8,106.9C85.8,106.9,85.8,106.9,85.8,106.9z"/>
		</g>
	</g>
	<g id="Component_22_56" transform="translate(474.286 325.71)" class="st5">
		<g id="Group_17229-2">
			<g id="Group_17226-2">
				<g id="Group_17225-2">
					<g transform="matrix(1, 0, 0, 1, -429.55, -44.5)" class="st6">
						<path id="Path_4648-12_1_" class="st2" d="M452.5,104.5h317.3c12.7,0,22.9,10.3,22.9,22.9c0,0,0,0,0,0v34.4
							c0,12.7-10.3,22.9-22.9,22.9l0,0H452.5c-12.7,0-22.9-10.3-22.9-22.9c0,0,0,0,0,0v-34.4C429.5,114.8,439.8,104.5,452.5,104.5
							C452.5,104.5,452.5,104.5,452.5,104.5z"/>
					</g>
					<path id="Path_4652-2" class="st7" d="M39,76c13.3,0,24.1,10.8,24.1,24.1S52.4,124.1,39,124.1S15,113.4,15,100.1c0,0,0,0,0,0
						C15,86.7,25.7,76,39,76z"/>
				</g>
				<g id="bell-2" transform="translate(26.339 25.531)">
					<path id="Path_4635-2" class="st2" d="M24.8,81.6c-1.9-1.6-3-4-3-6.6v-3.6c0-4.4-3.3-8.2-7.7-8.8v-1.4c0-0.7-0.6-1.3-1.3-1.3
						s-1.3,0.6-1.3,1.3v1.4c-4.4,0.6-7.7,4.4-7.7,8.8v3.6c0,2.5-1.1,4.9-3.1,6.6c-0.9,0.8-1,2.2-0.2,3.2c0.4,0.5,1,0.8,1.7,0.8h21.1
						c1.2,0,2.2-1,2.2-2.2C25.6,82.7,25.3,82,24.8,81.6z"/>
					<path id="Path_4636-2" class="st2" d="M12.8,90.7c2.3,0,4.2-1.6,4.7-3.8H8.1C8.5,89.1,10.5,90.7,12.8,90.7z"/>
				</g>
			</g>
			<path id="Path_4649-2" class="st4" d="M85.8,82.5h247.3c2,0,3.6,1.6,3.6,3.6c0,0,0,0,0,0v2.4c0,2-1.6,3.6-3.6,3.6l0,0H85.8
				c-2,0-3.6-1.6-3.6-3.6v-2.4C82.2,84.1,83.8,82.5,85.8,82.5C85.8,82.5,85.8,82.5,85.8,82.5z"/>
			<path id="Path_4650-2" class="st4" d="M85.8,106.9h169.2c2,0,3.6,1.6,3.6,3.7v2.4c0,2-1.6,3.6-3.6,3.7H85.8c-2,0-3.7-1.6-3.7-3.7
				v-2.4C82.2,108.6,83.8,106.9,85.8,106.9C85.8,106.9,85.8,106.9,85.8,106.9z"/>
		</g>
	</g>
	<g id="Component_22_57" transform="translate(475.381 423.163)" class="st0">
		<g id="Group_17229-3">
			<g id="Group_17226-3">
				<g id="Group_17225-3">
					<g transform="matrix(1, 0, 0, 1, -430.65, -141.95)" class="st8">
						<path id="Path_4648-13_1_" class="st2" d="M453.6,201.9h317.3c12.7,0,22.9,10.3,22.9,22.9c0,0,0,0,0,0v34.4
							c0,12.7-10.3,22.9-22.9,22.9l0,0H453.6c-12.7,0-22.9-10.3-22.9-22.9c0,0,0,0,0,0v-34.4C430.6,212.2,440.9,201.9,453.6,201.9
							C453.6,201.9,453.6,201.9,453.6,201.9z"/>
					</g>
					<path id="Path_4652-3" class="st9" d="M39,76c13.3,0,24.1,10.8,24.1,24.1S52.4,124.1,39,124.1S15,113.4,15,100.1c0,0,0,0,0,0
						C15,86.7,25.7,76,39,76z"/>
				</g>
				<g id="bell-3" transform="translate(26.339 25.531)">
					<path id="Path_4635-3" class="st2" d="M24.8,81.6c-1.9-1.6-3-4-3-6.6v-3.6c0-4.4-3.3-8.2-7.7-8.8v-1.4c0-0.7-0.6-1.3-1.3-1.3
						s-1.3,0.6-1.3,1.3v1.4c-4.4,0.6-7.7,4.4-7.7,8.8v3.6c0,2.5-1.1,4.9-3.1,6.6c-0.9,0.8-1,2.2-0.2,3.2c0.4,0.5,1,0.8,1.7,0.8h21.1
						c1.2,0,2.2-1,2.2-2.2C25.6,82.7,25.3,82,24.8,81.6z"/>
					<path id="Path_4636-3" class="st2" d="M12.8,90.7c2.3,0,4.2-1.6,4.7-3.8H8.1C8.5,89.1,10.5,90.7,12.8,90.7z"/>
				</g>
			</g>
			<path id="Path_4649-3" class="st4" d="M85.8,82.5h247.3c2,0,3.6,1.6,3.6,3.6c0,0,0,0,0,0v2.4c0,2-1.6,3.6-3.6,3.6l0,0H85.8
				c-2,0-3.6-1.6-3.6-3.6v-2.4C82.2,84.1,83.8,82.5,85.8,82.5C85.8,82.5,85.8,82.5,85.8,82.5z"/>
			<path id="Path_4650-3" class="st4" d="M85.8,106.9h169.2c2,0,3.6,1.6,3.6,3.7v2.4c0,2-1.6,3.6-3.6,3.7H85.8c-2,0-3.7-1.6-3.7-3.7
				v-2.4C82.2,108.6,83.8,106.9,85.8,106.9C85.8,106.9,85.8,106.9,85.8,106.9z"/>
		</g>
	</g>
	<path id="Path_4668" class="st10" d="M83.2,602.7h755.5c18.1,0,32.8,14.7,32.8,32.8V998H51.5V634.4
		C51.5,616.9,65.7,602.7,83.2,602.7C83.2,602.7,83.2,602.7,83.2,602.7z"/>
	
		<linearGradient id="Path_4667_1_" gradientUnits="userSpaceOnUse" x1="185.5944" y1="940.2093" x2="186.8334" y2="938.7973" gradientTransform="matrix(782.909 0 0 -352.516 -145199.3906 332084.5312)">
		<stop  offset="0" style="stop-color:#19D8E7"/>
		<stop  offset="0.161" style="stop-color:#4CD6E0"/>
		<stop  offset="1" style="stop-color:#752EFF"/>
	</linearGradient>
	<path id="Path_4667" class="st11" d="M101.8,646.5h718.3c18.1,0,32.8,14.7,32.8,32.8V999H70.1V678.2
		C70.1,660.7,84.3,646.5,101.8,646.5C101.8,646.5,101.8,646.5,101.8,646.5z"/>
	<g id="Component_22_58" transform="translate(129.755 662.037)">
		<g id="Group_17229-4">
			<g id="Group_17226-4">
				<g id="Group_17225-4">
					<g transform="matrix(1, 0, 0, 1, -85.02, -380.83)" class="st12">
						<path id="Path_4648-14_1_" class="st2" d="M104.5,440.8h270.3c10.8,0,19.5,8.7,19.5,19.5c0,0,0,0,0,0v29.3
							c0,10.8-8.7,19.5-19.5,19.5l0,0H104.5c-10.8,0-19.5-8.7-19.5-19.5c0,0,0,0,0,0v-29.3C85,449.6,93.8,440.8,104.5,440.8
							C104.5,440.8,104.5,440.8,104.5,440.8z"/>
					</g>
					<path id="Path_4652-4" class="st13" d="M33.3,73.6c11.3,0,20.5,9.2,20.5,20.5s-9.2,20.5-20.5,20.5s-20.5-9.2-20.5-20.5
						S21.9,73.6,33.3,73.6C33.3,73.6,33.3,73.6,33.3,73.6z"/>
				</g>
				<g id="bell-4" transform="translate(22.437 21.748)">
					<path id="Path_4635-4" class="st2" d="M21.1,78.4c-1.6-1.4-2.6-3.4-2.6-5.6v-3c0-3.8-2.8-7-6.5-7.5v-1.2c0-0.6-0.5-1.1-1.1-1.1
						c-0.6,0-1.1,0.5-1.1,1.1v1.2c-3.7,0.5-6.5,3.8-6.5,7.5v3c0,2.2-1,4.2-2.6,5.6c-0.8,0.7-0.9,1.9-0.2,2.7
						c0.4,0.4,0.9,0.7,1.4,0.7h18c1.1,0,1.9-0.9,1.9-1.9C21.8,79.3,21.5,78.8,21.1,78.4L21.1,78.4z"/>
					<path id="Path_4636-4" class="st2" d="M10.9,86.1c1.9,0,3.6-1.4,4-3.3h-8C7.3,84.8,8.9,86.1,10.9,86.1z"/>
				</g>
			</g>
			<path id="Path_4649-4" class="st4" d="M70.4,78.9h212.4c2.6,0,4.7,2.1,4.7,4.7c0,0,0,0,0,0v3.1c0,2.6-2.1,4.7-4.7,4.7l0,0H70.4
				c-2.6,0-4.7-2.1-4.7-4.7v-3.1C65.7,81,67.8,78.9,70.4,78.9z"/>
			<path id="Path_4650-4" class="st4" d="M70.4,99h105.7c2.6,0,4.7,2.1,4.7,4.7v3.1c0,2.6-2.1,4.7-4.7,4.7c0,0,0,0,0,0H70.4
				c-2.6,0-4.7-2.1-4.7-4.7c0,0,0,0,0,0v-3.1C65.7,101.2,67.8,99,70.4,99z"/>
		</g>
	</g>
	<g id="Component_22_59" transform="translate(129.755 749.635)">
		<g id="Group_17229-5">
			<g id="Group_17226-5">
				<g id="Group_17225-5">
					<g transform="matrix(1, 0, 0, 1, -85.02, -468.43)" class="st14">
						<path id="Path_4648-15_1_" class="st2" d="M104.5,528.4h270.3c10.8,0,19.5,8.7,19.5,19.5c0,0,0,0,0,0v29.3
							c0,10.8-8.7,19.5-19.5,19.5l0,0H104.5c-10.8,0-19.5-8.7-19.5-19.5c0,0,0,0,0,0V548C85,537.2,93.8,528.4,104.5,528.4
							C104.5,528.4,104.5,528.4,104.5,528.4z"/>
					</g>
					<path id="Path_4652-5" class="st9" d="M33.3,73.6c11.3,0,20.5,9.2,20.5,20.5s-9.2,20.5-20.5,20.5s-20.5-9.2-20.5-20.5
						S21.9,73.6,33.3,73.6C33.3,73.6,33.3,73.6,33.3,73.6z"/>
				</g>
				<g id="bell-5" transform="translate(22.437 21.748)">
					<path id="Path_4635-5" class="st2" d="M21.1,78.4c-1.6-1.4-2.6-3.4-2.6-5.6v-3c0-3.8-2.8-7-6.5-7.5v-1.2c0-0.6-0.5-1.1-1.1-1.1
						c-0.6,0-1.1,0.5-1.1,1.1v1.2c-3.7,0.5-6.5,3.8-6.5,7.5v3c0,2.2-1,4.2-2.6,5.6c-0.8,0.7-0.9,1.9-0.2,2.7
						c0.4,0.4,0.9,0.7,1.4,0.7h18c1.1,0,1.9-0.9,1.9-1.9C21.8,79.3,21.5,78.8,21.1,78.4L21.1,78.4z"/>
					<path id="Path_4636-5" class="st2" d="M10.9,86.1c1.9,0,3.6-1.4,4-3.3h-8C7.3,84.8,8.9,86.1,10.9,86.1z"/>
				</g>
			</g>
			<path id="Path_4649-5" class="st4" d="M70.4,78.9h212.4c2.6,0,4.7,2.1,4.7,4.7c0,0,0,0,0,0v3.1c0,2.6-2.1,4.7-4.7,4.7l0,0H70.4
				c-2.6,0-4.7-2.1-4.7-4.7v-3.1C65.7,81,67.8,78.9,70.4,78.9z"/>
			<path id="Path_4650-5" class="st4" d="M70.4,99h105.7c2.6,0,4.7,2.1,4.7,4.7v3.1c0,2.6-2.1,4.7-4.7,4.7c0,0,0,0,0,0H70.4
				c-2.6,0-4.7-2.1-4.7-4.7c0,0,0,0,0,0v-3.1C65.7,101.2,67.8,99,70.4,99z"/>
		</g>
	</g>
	<g id="Component_22_60" transform="translate(128.66 839.424)">
		<g id="Group_17229-6">
			<g id="Group_17226-6">
				<g id="Group_17225-6">
					<g transform="matrix(1, 0, 0, 1, -83.93, -558.21)" class="st15">
						<path id="Path_4648-16_1_" class="st2" d="M103.5,618.2h270.3c10.8,0,19.5,8.7,19.5,19.5c0,0,0,0,0,0V667
							c0,10.8-8.7,19.5-19.5,19.5l0,0H103.5c-10.8,0-19.5-8.7-19.5-19.5c0,0,0,0,0,0v-29.3C83.9,627,92.7,618.2,103.5,618.2
							C103.5,618.2,103.5,618.2,103.5,618.2z"/>
					</g>
					<path id="Path_4652-6" class="st13" d="M33.3,73.6c11.3,0,20.5,9.2,20.5,20.5s-9.2,20.5-20.5,20.5s-20.5-9.2-20.5-20.5
						C12.7,82.8,21.9,73.6,33.3,73.6C33.3,73.6,33.3,73.6,33.3,73.6z"/>
				</g>
				<g id="bell-6" transform="translate(22.437 21.748)">
					<path id="Path_4635-6" class="st2" d="M21.1,78.4c-1.6-1.4-2.6-3.4-2.6-5.6v-3c0-3.8-2.8-7-6.5-7.5v-1.2c0-0.6-0.5-1.1-1.1-1.1
						c-0.6,0-1.1,0.5-1.1,1.1v1.2c-3.7,0.5-6.5,3.8-6.5,7.5v3c0,2.2-1,4.2-2.6,5.6c-0.8,0.7-0.9,1.9-0.2,2.7
						c0.4,0.4,0.9,0.7,1.4,0.7h18c1.1,0,1.9-0.9,1.9-1.9C21.8,79.3,21.5,78.8,21.1,78.4L21.1,78.4z"/>
					<path id="Path_4636-6" class="st2" d="M10.9,86.1c1.9,0,3.6-1.4,4-3.3h-8C7.3,84.8,8.9,86.1,10.9,86.1z"/>
				</g>
			</g>
			<path id="Path_4649-6" class="st4" d="M70.4,78.9h212.4c2.6,0,4.7,2.1,4.7,4.7c0,0,0,0,0,0v3.1c0,2.6-2.1,4.7-4.7,4.7l0,0H70.4
				c-2.6,0-4.7-2.1-4.7-4.7v-3.1C65.7,81,67.8,78.9,70.4,78.9z"/>
			<path id="Path_4650-6" class="st4" d="M70.4,99h105.7c2.6,0,4.7,2.1,4.7,4.7v3.1c0,2.6-2.1,4.7-4.7,4.7c0,0,0,0,0,0H70.4
				c-2.6,0-4.7-2.1-4.7-4.7c0,0,0,0,0,0v-3.1C65.7,101.2,67.8,99,70.4,99z"/>
		</g>
	</g>
	<g id="Group_17225-7" transform="translate(458.248 663.786)">
		<g transform="matrix(1, 0, 0, 1, -413.52, -382.58)" class="st16">
			<path id="Path_4648-17_1_" class="st2" d="M433,442.6h270.3c10.8,0,19.5,8.7,19.5,19.5c0,0,0,0,0,0v29.3
				c0,10.8-8.7,19.5-19.5,19.5l0,0H433c-10.8,0-19.5-8.7-19.5-19.5c0,0,0,0,0,0v-29.3C413.5,451.3,422.3,442.6,433,442.6
				C433,442.6,433,442.6,433,442.6z"/>
		</g>
	</g>
	<g id="Group_17487" transform="translate(470.988 677.382)">
		<path id="Path_4652-7" class="st17" d="M20.5,60C31.9,60,41,69.2,41,80.5S31.9,101,20.5,101S0,91.9,0,80.5C0,69.2,9.2,60,20.5,60
			C20.5,60,20.5,60,20.5,60z"/>
		<g id="bell-7" transform="translate(9.697 7.056)">
			<path id="Path_4635-7" class="st2" d="M21.1,78.4c-1.6-1.4-2.6-3.4-2.6-5.6v-3c0-3.8-2.8-7-6.5-7.5v-1.2c0-0.6-0.5-1.1-1.1-1.1
				c-0.6,0-1.1,0.5-1.1,1.1v1.2c-3.7,0.5-6.5,3.8-6.5,7.5v3c0,2.2-1,4.2-2.6,5.6c-0.8,0.7-0.9,1.9-0.2,2.7c0.4,0.4,0.9,0.7,1.4,0.7
				h18c1.1,0,1.9-0.9,1.9-1.9C21.8,79.3,21.5,78.8,21.1,78.4L21.1,78.4z"/>
			<path id="Path_4636-7" class="st2" d="M10.9,86.1c1.9,0,3.6-1.4,4-3.3h-8C7.3,84.8,8.9,86.1,10.9,86.1z"/>
		</g>
	</g>
	<path id="Path_4649-7" class="st4" d="M528.7,742.7H741c2.6,0,4.7,2.1,4.7,4.7c0,0,0,0,0,0v3.1c0,2.6-2.1,4.7-4.7,4.7l0,0H528.7
		c-2.6,0-4.7-2.1-4.7-4.7v-3.1C523.9,744.8,526.1,742.7,528.7,742.7z"/>
	<path id="Path_4650-7" class="st4" d="M528.7,762.8h105.7c2.6,0,4.7,2.1,4.7,4.7v3.1c0,2.6-2.1,4.7-4.7,4.7c0,0,0,0,0,0H528.7
		c-2.6,0-4.7-2.1-4.7-4.7c0,0,0,0,0,0v-3.1C523.9,764.9,526.1,762.8,528.7,762.8z"/>
	<g id="Component_22_61" transform="translate(458.248 751.825)">
		<g id="Group_17229-7">
			<g id="Group_17226-7">
				<g id="Group_17225-8">
					<g transform="matrix(1, 0, 0, 1, -413.52, -470.62)" class="st18">
						<path id="Path_4648-18_1_" class="st2" d="M433,530.6h270.3c10.8,0,19.5,8.7,19.5,19.5c0,0,0,0,0,0v29.3
							c0,10.8-8.7,19.5-19.5,19.5l0,0H433c-10.8,0-19.5-8.7-19.5-19.5c0,0,0,0,0,0v-29.3C413.5,539.4,422.3,530.6,433,530.6
							C433,530.6,433,530.6,433,530.6z"/>
					</g>
					<path id="Path_4652-8" class="st19" d="M33.3,73.6c11.3,0,20.5,9.2,20.5,20.5s-9.2,20.5-20.5,20.5s-20.5-9.2-20.5-20.5
						S21.9,73.6,33.3,73.6C33.3,73.6,33.3,73.6,33.3,73.6z"/>
				</g>
				<g id="bell-8" transform="translate(22.437 21.748)">
					<path id="Path_4635-8" class="st2" d="M21.1,78.4c-1.6-1.4-2.6-3.4-2.6-5.6v-3c0-3.8-2.8-7-6.5-7.5v-1.2c0-0.6-0.5-1.1-1.1-1.1
						c-0.6,0-1.1,0.5-1.1,1.1v1.2c-3.7,0.5-6.5,3.8-6.5,7.5v3c0,2.2-1,4.2-2.6,5.6c-0.8,0.7-0.9,1.9-0.2,2.7
						c0.4,0.4,0.9,0.7,1.4,0.7h18c1.1,0,1.9-0.9,1.9-1.9C21.8,79.3,21.5,78.8,21.1,78.4L21.1,78.4z"/>
					<path id="Path_4636-8" class="st2" d="M10.9,86.1c1.9,0,3.6-1.4,4-3.3h-8C7.3,84.8,8.9,86.1,10.9,86.1z"/>
				</g>
			</g>
			<path id="Path_4649-8" class="st4" d="M70.4,78.9h212.4c2.6,0,4.7,2.1,4.7,4.7c0,0,0,0,0,0v3.1c0,2.6-2.1,4.7-4.7,4.7l0,0H70.4
				c-2.6,0-4.7-2.1-4.7-4.7v-3.1C65.7,81,67.8,78.9,70.4,78.9z"/>
			<path id="Path_4650-8" class="st4" d="M70.4,99h105.7c2.6,0,4.7,2.1,4.7,4.7v3.1c0,2.6-2.1,4.7-4.7,4.7c0,0,0,0,0,0H70.4
				c-2.6,0-4.7-2.1-4.7-4.7c0,0,0,0,0,0v-3.1C65.7,101.2,67.8,99,70.4,99z"/>
		</g>
	</g>
	<g id="Component_22_62" transform="translate(458.248 839.424)">
		<g id="Group_17229-8">
			<g id="Group_17226-8">
				<g id="Group_17225-9">
					<g transform="matrix(1, 0, 0, 1, -413.52, -558.21)" class="st20">
						<path id="Path_4648-19_1_" class="st2" d="M433,618.2h270.3c10.8,0,19.5,8.7,19.5,19.5c0,0,0,0,0,0V667
							c0,10.8-8.7,19.5-19.5,19.5l0,0H433c-10.8,0-19.5-8.7-19.5-19.5c0,0,0,0,0,0v-29.3C413.5,627,422.3,618.2,433,618.2
							C433,618.2,433,618.2,433,618.2z"/>
					</g>
					<path id="Path_4652-9" class="st13" d="M33.3,73.6c11.3,0,20.5,9.2,20.5,20.5s-9.2,20.5-20.5,20.5s-20.5-9.2-20.5-20.5
						S21.9,73.6,33.3,73.6C33.3,73.6,33.3,73.6,33.3,73.6z"/>
				</g>
				<g id="bell-9" transform="translate(22.437 21.748)">
					<path id="Path_4635-9" class="st2" d="M21.1,78.4c-1.6-1.4-2.6-3.4-2.6-5.6v-3c0-3.8-2.8-7-6.5-7.5v-1.2c0-0.6-0.5-1.1-1.1-1.1
						c-0.6,0-1.1,0.5-1.1,1.1v1.2c-3.7,0.5-6.5,3.8-6.5,7.5v3c0,2.2-1,4.2-2.6,5.6c-0.8,0.7-0.9,1.9-0.2,2.7
						c0.4,0.4,0.9,0.7,1.4,0.7h18c1.1,0,1.9-0.9,1.9-1.9C21.8,79.3,21.5,78.8,21.1,78.4L21.1,78.4z"/>
					<path id="Path_4636-9" class="st2" d="M10.9,86.1c1.9,0,3.6-1.4,4-3.3h-8C7.3,84.8,8.9,86.1,10.9,86.1z"/>
				</g>
			</g>
			<path id="Path_4649-9" class="st4" d="M70.4,78.9h212.4c2.6,0,4.7,2.1,4.7,4.7c0,0,0,0,0,0v3.1c0,2.6-2.1,4.7-4.7,4.7l0,0H70.4
				c-2.6,0-4.7-2.1-4.7-4.7v-3.1C65.7,81,67.8,78.9,70.4,78.9z"/>
			<path id="Path_4650-9" class="st4" d="M70.4,99h105.7c2.6,0,4.7,2.1,4.7,4.7v3.1c0,2.6-2.1,4.7-4.7,4.7c0,0,0,0,0,0H70.4
				c-2.6,0-4.7-2.1-4.7-4.7c0,0,0,0,0,0v-3.1C65.7,101.2,67.8,99,70.4,99z"/>
		</g>
	</g>
	<ellipse id="Ellipse_13" class="st2" cx="779.5" cy="624.6" rx="6.5" ry="7"/>
	<ellipse id="Ellipse_14" class="st2" cx="804.5" cy="624.6" rx="6.5" ry="7"/>
	<circle id="Ellipse_15" class="st2" cx="830" cy="624.6" r="7"/>
	<path id="Path_4666" class="st21" d="M83,618.3h212.4c2.6,0,4.7,2.1,4.7,4.7c0,0,0,0,0,0v3.1c0,2.6-2.1,4.7-4.7,4.7l0,0H83
		c-2.6,0-4.7-2.1-4.7-4.7V623C78.3,620.4,80.4,618.3,83,618.3z"/>
	<g id="Component_22_63" transform="translate(92.231 325.71)" class="st22">
		<g id="Group_17229-9">
			<g id="Group_17226-9">
				<g id="Group_17225-10">
					<g transform="matrix(1, 0, 0, 1, -47.5, -44.5)" class="st23">
						<path id="Path_4648-20_1_" class="st2" d="M70.4,104.5h317.3c12.7,0,22.9,10.3,22.9,22.9c0,0,0,0,0,0v34.4
							c0,12.7-10.3,22.9-22.9,22.9l0,0H70.4c-12.7,0-22.9-10.3-22.9-22.9c0,0,0,0,0,0v-34.4C47.5,114.8,57.8,104.5,70.4,104.5
							C70.4,104.5,70.4,104.5,70.4,104.5z"/>
					</g>
					
						<linearGradient id="Path_4652-10_1_" gradientUnits="userSpaceOnUse" x1="90.5735" y1="613.9792" x2="91.5735" y2="613.9792" gradientTransform="matrix(48.18 0 0 -48.18 -4348.873 29681.5723)">
						<stop  offset="0" style="stop-color:#FF1847"/>
						<stop  offset="1" style="stop-color:#F53100"/>
					</linearGradient>
					<path id="Path_4652-10" class="st24" d="M39,76c13.3,0,24.1,10.8,24.1,24.1S52.4,124.1,39,124.1S15,113.4,15,100.1c0,0,0,0,0,0
						C15,86.7,25.7,76,39,76z"/>
				</g>
				<g id="bell-10" transform="translate(26.339 25.531)">
					<path id="Path_4635-10" class="st2" d="M24.8,81.6c-1.9-1.6-3-4-3-6.6v-3.6c0-4.4-3.3-8.2-7.7-8.8v-1.4c0-0.7-0.6-1.3-1.3-1.3
						s-1.3,0.6-1.3,1.3v1.4c-4.4,0.6-7.7,4.4-7.7,8.8v3.6c0,2.5-1.1,4.9-3.1,6.6c-0.9,0.8-1,2.2-0.2,3.2c0.4,0.5,1,0.8,1.7,0.8h21.1
						c1.2,0,2.2-1,2.2-2.2C25.6,82.7,25.3,82,24.8,81.6z"/>
					<path id="Path_4636-10" class="st2" d="M12.8,90.7c2.3,0,4.2-1.6,4.7-3.8H8.1C8.5,89.1,10.5,90.7,12.8,90.7z"/>
				</g>
			</g>
			<path id="Path_4649-10" class="st4" d="M85.8,82.5h247.3c2,0,3.6,1.6,3.6,3.6c0,0,0,0,0,0v2.4c0,2-1.6,3.6-3.6,3.6l0,0H85.8
				c-2,0-3.6-1.6-3.6-3.6v-2.4C82.2,84.1,83.8,82.5,85.8,82.5C85.8,82.5,85.8,82.5,85.8,82.5z"/>
			<path id="Path_4650-10" class="st4" d="M85.8,106.9h169.2c2,0,3.6,1.6,3.6,3.7v2.4c0,2-1.6,3.6-3.6,3.7H85.8
				c-2,0-3.7-1.6-3.7-3.7v-2.4C82.2,108.6,83.8,106.9,85.8,106.9C85.8,106.9,85.8,106.9,85.8,106.9z"/>
		</g>
	</g>
</g>
</svg>
