<svg xmlns="http://www.w3.org/2000/svg" xmlns:xlink="http://www.w3.org/1999/xlink" width="227.442" height="74.029" viewBox="0 0 227.442 74.029">
  <defs>
    <linearGradient id="linear-gradient" x1="0.5" y1="-0.394" x2="0.191" y2="-0.441" gradientUnits="objectBoundingBox">
      <stop offset="0" stop-color="#7b01d9"/>
      <stop offset="1" stop-color="#1cc6d3"/>
    </linearGradient>
  </defs>
  <g id="Group_17517" data-name="Group 17517" transform="translate(-390.41 -773.358)">
    <g id="Group_17512" data-name="Group 17512" transform="translate(390.41 773.358)">
      <g id="Group_17509" data-name="Group 17509" transform="translate(0 0)">
        <g id="Group_17508" data-name="Group 17508" transform="translate(0 0)">
          <g id="Group_17229" data-name="Group 17229" transform="translate(0 8.464)">
            <g id="Group_17226" data-name="Group 17226">
              <g id="Group_17225" data-name="Group 17225">
                <path id="Path_4648" data-name="Path 4648" d="M47.39,0H220.052a27.319,27.319,0,0,1,27.39,27.247v11.07a27.319,27.319,0,0,1-27.39,27.247H47.39A27.319,27.319,0,0,1,20,38.317V27.247A27.319,27.319,0,0,1,47.39,0Z" transform="translate(-20 0)" fill="#eef3fc"/>
              </g>
            </g>
          </g>
          <path id="Path_7787" data-name="Path 7787" d="M14.947,0A14.869,14.869,0,1,1,0,14.869,14.908,14.908,0,0,1,14.947,0Z" transform="translate(197.547 0)" fill="#f86e51"/>
          <g id="bell" transform="translate(204.609 5.402)">
            <g id="Group_17507" data-name="Group 17507" transform="translate(0 0)">
              <path id="Path_4635" data-name="Path 4635" d="M36.7,13.345A5.273,5.273,0,0,1,34.816,9.3V7.1a5.537,5.537,0,0,0-4.759-5.46V.789a.793.793,0,0,0-1.586,0v.852A5.536,5.536,0,0,0,23.712,7.1V9.3a5.279,5.279,0,0,1-1.894,4.05,1.379,1.379,0,0,0,.9,2.429H35.807a1.379,1.379,0,0,0,.9-2.436Zm0,0" transform="translate(-21.332 0)" fill="#fff"/>
              <path id="Path_4636" data-name="Path 4636" d="M159.2,450.367A2.975,2.975,0,0,0,162.117,448h-5.828A2.975,2.975,0,0,0,159.2,450.367Zm0,0" transform="translate(-151.272 -431.431)" fill="#fff"/>
            </g>
          </g>
        </g>
      </g>
    </g>
    <path id="Union_11" data-name="Union 11" d="M17992.074,9168.679V9128.89h5.094v2.489h.076a6.324,6.324,0,0,1,5.809-3.02,7.916,7.916,0,0,1,6.719,3.169,11.8,11.8,0,0,1,2.15,7.32,11.124,11.124,0,0,1-2.15,6.981,7.614,7.614,0,0,1-6.414,3.092,6.563,6.563,0,0,1-5.85-2.942h-.072v22.7Zm6.189-34.316a8.183,8.183,0,0,0-1.02,4.337,7.73,7.73,0,0,0,1.055,4.265,4,4,0,0,0,3.623,1.92q4.638,0,4.641-6.185a7.882,7.882,0,0,0-1.055-4.3,4.016,4.016,0,0,0-3.623-2A3.914,3.914,0,0,0,17998.264,9134.362Zm-156.943,12.617a8.451,8.451,0,0,1-3.469-7.274h5.732a4.447,4.447,0,0,0,1.807,3.843,6.862,6.862,0,0,0,4.146,1.132,7.872,7.872,0,0,0,3.391-.643,2.842,2.842,0,0,0,1.852-2.712q0-2.3-4.146-3.468-7.163-2.038-7.732-2.336a6.6,6.6,0,0,1-4.143-6.3,7.132,7.132,0,0,1,3.205-6.144,11.69,11.69,0,0,1,6.859-2,12.864,12.864,0,0,1,7.5,2,7.64,7.64,0,0,1,3.277,6.673h-5.727q-.231-4.074-5.32-4.074a5.246,5.246,0,0,0-2.748.679,2.643,2.643,0,0,0-1.322,2.377,2.25,2.25,0,0,0,1.473,2.146,54.912,54.912,0,0,0,6.559,1.925,15.9,15.9,0,0,1,4.713,1.811,6.754,6.754,0,0,1,2.949,3.731,10.143,10.143,0,0,1,2.76-6.806,9.456,9.456,0,0,1,7.18-2.92,8.577,8.577,0,0,1,7.352,3.545,11.755,11.755,0,0,1,2.111,8.026h-14.062q.231,4.937,4.791,4.939a4.905,4.905,0,0,0,2.787-.829,2.942,2.942,0,0,0,1.432-1.7h4.717q-2.153,6.56-9.127,6.56a9.309,9.309,0,0,1-9.666-7.478,7.469,7.469,0,0,1-2.811,5.142q-3.015,2.445-8.33,2.449A13.168,13.168,0,0,1,17841.32,9146.979Zm25.18-12.816a4.514,4.514,0,0,0-.982,2.64h8.711q-.753-4.15-4.26-4.146A4.187,4.187,0,0,0,17866.5,9134.163Zm30.441,12.155a11.345,11.345,0,0,1,.072-14.776,9.456,9.456,0,0,1,7.18-2.92,8.577,8.577,0,0,1,7.352,3.545,11.777,11.777,0,0,1,2.115,8.026H17899.6q.226,4.937,4.785,4.939a4.907,4.907,0,0,0,2.789-.829,2.965,2.965,0,0,0,1.436-1.7h4.713q-2.153,6.56-9.127,6.56A9.516,9.516,0,0,1,17896.941,9146.318Zm3.635-12.155a4.484,4.484,0,0,0-.979,2.64h8.707q-.756-4.15-4.26-4.146A4.187,4.187,0,0,0,17900.576,9134.163Zm32.451,12.572a8.463,8.463,0,0,1-3.469-7.284h5.736a4.475,4.475,0,0,0,1.807,3.853,6.905,6.905,0,0,0,4.15,1.132,7.985,7.985,0,0,0,3.4-.643,2.853,2.853,0,0,0,1.852-2.717q0-2.3-4.152-3.473-7.163-2.036-7.732-2.34a6.6,6.6,0,0,1-4.15-6.3,7.148,7.148,0,0,1,3.205-6.152,11.712,11.712,0,0,1,6.867-2,12.872,12.872,0,0,1,7.506,2,7.648,7.648,0,0,1,3.287,6.678h-5.736q-.223-4.074-5.318-4.074a5.282,5.282,0,0,0-2.758.679,2.655,2.655,0,0,0-1.316,2.377,2.245,2.245,0,0,0,1.471,2.15,55.044,55.044,0,0,0,6.564,1.924,15.764,15.764,0,0,1,4.713,1.815,6.759,6.759,0,0,1,3.287,6.035,7.6,7.6,0,0,1-2.871,6.188q-3.015,2.451-8.338,2.449A13.176,13.176,0,0,1,17933.027,9146.735Zm88.908-.661a11.373,11.373,0,0,1,.078-14.79,9.468,9.468,0,0,1,7.188-2.925,8.587,8.587,0,0,1,7.357,3.55,11.761,11.761,0,0,1,2.109,8.035h-14.07q.226,4.944,4.789,4.939a4.937,4.937,0,0,0,2.795-.828,2.946,2.946,0,0,0,1.434-1.7h4.713q-2.145,6.567-9.127,6.564A9.53,9.53,0,0,1,18021.936,9146.074Zm3.645-12.169a4.483,4.483,0,0,0-.982,2.644h8.715q-.753-4.148-4.264-4.151A4.18,4.18,0,0,0,18025.58,9133.905Zm-111.092,14.731v-19.489h5.088v3.621h.072a6.325,6.325,0,0,1,2.49-2.979,6.682,6.682,0,0,1,3.73-1.168,3.748,3.748,0,0,1,1.168.186v4.98a8.616,8.616,0,0,0-1.92-.19q-5.276,0-5.277,6.256v8.783Zm-26.539,0v-45.263h5.352v45.263Zm-7.387,0v-45.263h5.35v45.263Zm132.379-.24v-26.94h5.355v26.94Zm-28.109,0v-11.055a8.19,8.19,0,0,0-.49-3.359,2.838,2.838,0,0,0-2.793-1.395q-3.586,0-3.586,4.939V9148.4h-5.355v-10.941a10.226,10.226,0,0,0-.34-3.282,2.812,2.812,0,0,0-2.906-1.585,3.214,3.214,0,0,0-2.186.828,4.451,4.451,0,0,0-1.436,3.658V9148.4h-5.355V9128.89h5.057v2.639h.072a6.947,6.947,0,0,1,5.963-3.169q4.225,0,5.7,3.246a6.712,6.712,0,0,1,5.885-3.246q7.137,0,7.135,6.981V9148.4Zm-31.846,0V9128.89h5.361V9148.4Zm0-22.527v-4.413h5.361v4.413Z" transform="translate(-17431.98 -8321.593)" fill="url(#linear-gradient)"/>
  </g>
</svg>
