<?xml version="1.0" encoding="utf-8"?>
<!-- Generator: Adobe Illustrator 26.0.1, SVG Export Plug-In . SVG Version: 6.00 Build 0)  -->
<svg version="1.1" id="Layer_1" xmlns="http://www.w3.org/2000/svg" xmlns:xlink="http://www.w3.org/1999/xlink" x="0px" y="0px"
	 viewBox="0 0 576 360" style="enable-background:new 0 0 576 360;" xml:space="preserve">
<style type="text/css">
	.st0{fill:#607291;}
	.st1{fill:url(#SVGID_1_);}
	.st2{fill:url(#SVGID_00000151542484659989583770000015463172722584626567_);}
</style>
<g>
	<g>
		<path class="st0" d="M103.5,202.2l15-1.4c0.9,4.9,2.7,8.4,5.5,10.7c2.8,2.3,6.5,3.4,11.1,3.4c5,0,8.7-1,11.2-3
			c2.5-2,3.8-4.4,3.8-7.1c0-1.7-0.5-3.2-1.6-4.4c-1.1-1.2-2.9-2.3-5.5-3.2c-1.8-0.6-5.9-1.7-12.3-3.2c-8.2-2-14-4.4-17.4-7.3
			c-4.7-4-7-9-7-14.8c0-3.7,1.1-7.3,3.3-10.5c2.2-3.3,5.4-5.7,9.5-7.5c4.1-1.7,9.1-2.6,15-2.6c9.6,0,16.8,2,21.6,6.1
			c4.8,4,7.4,9.5,7.6,16.2l-15.4,0.7c-0.7-3.8-2.1-6.5-4.2-8.2c-2.2-1.7-5.4-2.5-9.7-2.5c-4.5,0-8,0.9-10.5,2.7
			c-1.6,1.1-2.4,2.7-2.4,4.6c0,1.7,0.8,3.2,2.3,4.5c1.9,1.6,6.7,3.2,14.1,4.9c7.5,1.7,13,3.5,16.6,5.3c3.6,1.8,6.4,4.3,8.4,7.5
			c2,3.2,3,7.1,3,11.7c0,4.2-1.2,8.2-3.6,11.8c-2.4,3.7-5.9,6.4-10.3,8.2c-4.4,1.8-10,2.7-16.6,2.7c-9.6,0-17-2.1-22.2-6.4
			C107.6,216.7,104.5,210.4,103.5,202.2z"/>
	</g>
	<g>
		<path class="st0" d="M104,135.5l7-0.7c0.4,2.3,1.3,4.1,2.6,5.2c1.3,1.1,3,1.6,5.2,1.6c2.3,0,4-0.5,5.2-1.5c1.2-1,1.8-2.1,1.8-3.4
			c0-0.8-0.2-1.6-0.7-2.1c-0.5-0.6-1.4-1.1-2.6-1.5c-0.8-0.3-2.8-0.8-5.7-1.5c-3.8-1-6.5-2.1-8.1-3.5c-2.2-2-3.3-4.3-3.3-7.1
			c0-1.8,0.5-3.5,1.5-5.1c1-1.6,2.5-2.8,4.4-3.6c1.9-0.8,4.3-1.2,7-1.2c4.5,0,7.8,1,10.1,2.9c2.3,2,3.4,4.6,3.5,7.8l-7.2,0.3
			c-0.3-1.8-1-3.1-2-3.9c-1-0.8-2.5-1.2-4.5-1.2c-2.1,0-3.7,0.4-4.9,1.3c-0.8,0.5-1.1,1.3-1.1,2.2c0,0.8,0.4,1.6,1.1,2.2
			c0.9,0.8,3.1,1.5,6.6,2.4c3.5,0.8,6.1,1.7,7.7,2.6c1.7,0.9,3,2.1,3.9,3.6c0.9,1.5,1.4,3.4,1.4,5.7c0,2-0.6,3.9-1.7,5.7
			c-1.1,1.8-2.7,3.1-4.8,4c-2.1,0.9-4.6,1.3-7.7,1.3c-4.5,0-7.9-1-10.3-3.1C105.9,142.5,104.5,139.5,104,135.5z"/>
	</g>
	<g>
		<path class="st0" d="M236.8,147.7h-9v-33.9h8.3v4.8c1.4-2.3,2.7-3.8,3.9-4.5c1.1-0.7,2.4-1.1,3.9-1.1c2,0,4,0.6,5.9,1.7l-2.8,7.8
			c-1.5-1-2.9-1.5-4.2-1.5c-1.3,0-2.3,0.3-3.2,1c-0.9,0.7-1.6,1.9-2.1,3.8c-0.5,1.8-0.8,5.6-0.8,11.4V147.7z"/>
	</g>
	<g>
		<linearGradient id="SVGID_1_" gradientUnits="userSpaceOnUse" x1="240.3161" y1="134.4288" x2="376.3161" y2="134.4288">
			<stop  offset="0" style="stop-color:#7D0DD7"/>
			<stop  offset="1" style="stop-color:#40CED9"/>
		</linearGradient>
		<rect x="240.3" y="131.4" class="st1" width="136" height="6"/>
		
			<linearGradient id="SVGID_00000070839462596237259070000007236932906306861705_" gradientUnits="userSpaceOnUse" x1="240.3161" y1="144.4288" x2="376.3161" y2="144.4288">
			<stop  offset="0" style="stop-color:#7D0DD7"/>
			<stop  offset="1" style="stop-color:#40CED9"/>
		</linearGradient>
		
			<rect x="240.3" y="141.4" style="fill:url(#SVGID_00000070839462596237259070000007236932906306861705_);" width="136" height="6"/>
	</g>
	<path class="st0" d="M341.2,151.6c-7.3,0-14.1,3-19.4,8v-6.9h-17.1v107.1h17.1v-40c5.4,5,12.1,8,19.4,8c17.5,0,31.7-17.1,31.7-38.1
		C372.9,168.6,358.7,151.6,341.2,151.6z M340.3,212c-10,0-18.1-10.1-18.1-22.5s8.1-22.5,18.1-22.5s18.1,10.1,18.1,22.5
		S350.3,212,340.3,212z"/>
	<path class="st0" d="M209.3,110.3c-10.5,0-19,8.7-18.7,19.2c0.3,9.6,7.9,17.5,17.5,18.1c7.4,0.4,13.9-3.4,17.3-9.3l-8.5-3.6
		c-1.7,3.6-4.9,6-8.5,6c-4.6,0-8.5-3.9-9.5-9.2h26.9v-4.4c0-8.9-6.9-16.5-15.8-16.8C209.8,110.4,209.5,110.3,209.3,110.3z
		 M199.3,124.6C199.4,124.6,199.3,124.6,199.3,124.6c1.4-4.6,5-7.9,9.2-7.9c4.2,0,7.8,3.3,9.2,7.9H199.3z"/>
	<path class="st0" d="M151.7,110.3c-10.5,0-19,8.7-18.7,19.2c0.3,9.6,7.9,17.5,17.5,18.1c7.4,0.4,13.9-3.4,17.3-9.3l-8.5-3.6
		c-1.7,3.6-4.9,6-8.5,6c-4.6,0-8.5-3.9-9.5-9.2h26.9v-4.4c0-8.9-6.9-16.5-15.8-16.8C152.2,110.4,152,110.3,151.7,110.3z
		 M141.7,124.6C141.8,124.6,141.7,124.6,141.7,124.6c1.4-4.6,5-7.9,9.2-7.9c4.2,0,7.8,3.3,9.2,7.9H141.7z"/>
	<path class="st0" d="M438.4,150.6c-21.5,0-38.9,17.7-38.2,39.4c0.6,19.6,16.3,35.9,35.9,37c15.2,0.9,28.6-7,35.5-19.1l-17.4-7.3
		c-3.5,7.4-10,12.4-17.4,12.4c-9.4,0-17.3-8-19.5-18.8h55.1v-9c0-18.3-14.2-33.8-32.5-34.5C439.5,150.6,439,150.6,438.4,150.6z
		 M418,179.8C418.2,179.8,418,179.8,418,179.8c2.8-9.4,10.2-16.2,18.8-16.2c8.6,0,16,6.7,18.8,16.2H418z"/>
	<rect x="379.7" y="126.9" class="st0" width="15.9" height="97.7"/>
	<rect x="171" y="100.1" class="st0" width="7.7" height="47.5"/>
	<rect x="180.7" y="100.1" class="st0" width="7.7" height="47.5"/>
	<rect x="172.3" y="173.6" class="st0" width="15.9" height="51"/>
	<rect x="172.3" y="153.9" class="st0" width="15.9" height="14.1"/>
	<path class="st0" d="M274.4,150.9h-0.7c-11.4,0-20.9,8.8-22.4,20.2c-1.5-11.4-11-20.2-22.4-20.2h-0.7c-7.8,0-14.7,4.1-18.7,10.3
		v-10.8h-13.9v75.3h10.1v0.1h5.8v-49c0-7.8,6.3-14,14-14c0.1,0,0.2,0,0.3,0c0.1,0,0.3,0,0.4,0c7.4,0,13.4,6.2,13.4,13.9v49.1h11.4
		h0.4h5.3v-49.1c0-7.7,6-13.9,13.4-13.9s13.4,6.2,13.4,13.9v49.1H297v-51.6C297,161.4,286.9,150.9,274.4,150.9z"/>
</g>
</svg>
