<svg version="1.2" baseProfile="tiny-ps" xmlns="http://www.w3.org/2000/svg" viewBox="0 0 376 168" width="376" height="168">
	<title>logo-svg</title>
	<defs>
		<linearGradient id="grd1" gradientUnits="userSpaceOnUse"  x1="141.316" y1="39.429" x2="277.316" y2="39.429">
			<stop offset="0" stop-color="#7d0dd7"  />
			<stop offset="1" stop-color="#40ced9"  />
		</linearGradient>
		<linearGradient id="grd2" gradientUnits="userSpaceOnUse"  x1="141.316" y1="49.429" x2="277.316" y2="49.429">
			<stop offset="0" stop-color="#7d0dd7"  />
			<stop offset="1" stop-color="#40ced9"  />
		</linearGradient>
	</defs>
	<style>
		tspan { white-space:pre }
		.shp0 { fill: #607291 } 
		.shp1 { fill: url(#grd1) } 
		.shp2 { fill: url(#grd2) } 
	</style>
	<g id="Layer">
		<g id="Layer">
			<path id="Layer" class="shp0" d="M4.5 107.2L19.5 105.8C20.4 110.7 22.2 114.2 25 116.5C27.8 118.8 31.5 119.9 36.1 119.9C41.1 119.9 44.8 118.9 47.3 116.9C49.8 114.9 51.1 112.5 51.1 109.8C51.1 108.1 50.6 106.6 49.5 105.4C48.4 104.2 46.6 103.1 44 102.2C42.2 101.6 38.1 100.5 31.7 99C23.5 97 17.7 94.6 14.3 91.7C9.6 87.7 7.3 82.7 7.3 76.9C7.3 73.2 8.4 69.6 10.6 66.4C12.8 63.1 16 60.7 20.1 58.9C24.2 57.2 29.2 56.3 35.1 56.3C44.7 56.3 51.9 58.3 56.7 62.4C61.5 66.4 64.1 71.9 64.3 78.6L48.9 79.3C48.2 75.5 46.8 72.8 44.7 71.1C42.5 69.4 39.3 68.6 35 68.6C30.5 68.6 27 69.5 24.5 71.3C22.9 72.4 22.1 74 22.1 75.9C22.1 77.6 22.9 79.1 24.4 80.4C26.3 82 31.1 83.6 38.5 85.3C46 87 51.5 88.8 55.1 90.6C58.7 92.4 61.5 94.9 63.5 98.1C65.5 101.3 66.5 105.2 66.5 109.8C66.5 114 65.3 118 62.9 121.6C60.5 125.3 57 128 52.6 129.8C48.2 131.6 42.6 132.5 36 132.5C26.4 132.5 19 130.4 13.8 126.1C8.6 121.7 5.5 115.4 4.5 107.2Z" />
		</g>
		<g id="Layer">
			<path id="Layer" class="shp0" d="M5 40.5L12 39.8C12.4 42.1 13.3 43.9 14.6 45C15.9 46.1 17.6 46.6 19.8 46.6C22.1 46.6 23.8 46.1 25 45.1C26.2 44.1 26.8 43 26.8 41.7C26.8 40.9 26.6 40.1 26.1 39.6C25.6 39 24.7 38.5 23.5 38.1C22.7 37.8 20.7 37.3 17.8 36.6C14 35.6 11.3 34.5 9.7 33.1C7.5 31.1 6.4 28.8 6.4 26C6.4 24.2 6.9 22.5 7.9 20.9C8.9 19.3 10.4 18.1 12.3 17.3C14.2 16.5 16.6 16.1 19.3 16.1C23.8 16.1 27.1 17.1 29.4 19C31.7 21 32.8 23.6 32.9 26.8L25.7 27.1C25.4 25.3 24.7 24 23.7 23.2C22.7 22.4 21.2 22 19.2 22C17.1 22 15.5 22.4 14.3 23.3C13.5 23.8 13.2 24.6 13.2 25.5C13.2 26.3 13.6 27.1 14.3 27.7C15.2 28.5 17.4 29.2 20.9 30.1C24.4 30.9 27 31.8 28.6 32.7C30.3 33.6 31.6 34.8 32.5 36.3C33.4 37.8 33.9 39.7 33.9 42C33.9 44 33.3 45.9 32.2 47.7C31.1 49.5 29.5 50.8 27.4 51.7C25.3 52.6 22.8 53 19.7 53C15.2 53 11.8 52 9.4 49.9C6.9 47.5 5.5 44.5 5 40.5Z" />
		</g>
		<g id="Layer">
			<path id="Layer" class="shp0" d="M137.8 52.7L128.8 52.7L128.8 18.8L137.1 18.8L137.1 23.6C138.5 21.3 139.8 19.8 141 19.1C142.1 18.4 143.4 18 144.9 18C146.9 18 148.9 18.6 150.8 19.7L148 27.5C146.5 26.5 145.1 26 143.8 26C142.5 26 141.5 26.3 140.6 27C139.7 27.7 139 28.9 138.5 30.8C138 32.6 137.7 36.4 137.7 42.2L137.7 52.7L137.8 52.7Z" />
		</g>
		<g id="Layer">
			<path id="Layer" class="shp1" d="M141.3 36.4L277.3 36.4L277.3 42.4L141.3 42.4L141.3 36.4Z" />
			<path id="Layer" class="shp2" d="M141.3 46.4L277.3 46.4L277.3 52.4L141.3 52.4L141.3 46.4Z" />
		</g>
		<path id="Layer" fill-rule="evenodd" class="shp0" d="M273.9 94.7C273.9 115.7 259.7 132.8 242.2 132.8C234.9 132.8 228.2 129.8 222.8 124.8L222.8 164.8L205.7 164.8L205.7 57.7L222.8 57.7L222.8 64.6C228.1 59.6 234.9 56.6 242.2 56.6C259.7 56.6 273.9 73.6 273.9 94.7ZM259.4 94.5C259.4 82.1 251.3 72 241.3 72C231.3 72 223.2 82.1 223.2 94.5C223.2 106.9 231.3 117 241.3 117C251.3 117 259.4 106.9 259.4 94.5Z" />
		<path id="Layer" fill-rule="evenodd" class="shp0" d="M111 15.3C119.9 15.6 126.8 23.2 126.8 32.1L126.8 36.5L99.9 36.5C100.9 41.8 104.8 45.7 109.4 45.7C113 45.7 116.2 43.3 117.9 39.7L126.4 43.3C123 49.2 116.5 53 109.1 52.6C99.5 52 91.9 44.1 91.6 34.5C91.3 24 99.8 15.3 110.3 15.3C110.5 15.3 110.8 15.4 111 15.3ZM118.7 29.6C117.3 25 113.7 21.7 109.5 21.7C105.3 21.7 101.7 25 100.3 29.6C100.3 29.6 100.4 29.6 100.3 29.6L118.7 29.6Z" />
		<path id="Layer" fill-rule="evenodd" class="shp0" d="M53.4 15.3C62.3 15.6 69.2 23.2 69.2 32.1L69.2 36.5L42.3 36.5C43.3 41.8 47.2 45.7 51.8 45.7C55.4 45.7 58.6 43.3 60.3 39.7L68.8 43.3C65.4 49.2 58.9 53 51.5 52.6C41.9 52 34.3 44.1 34 34.5C33.7 24 42.2 15.3 52.7 15.3C53 15.3 53.2 15.4 53.4 15.3ZM61.1 29.6C59.7 25 56.1 21.7 51.9 21.7C47.7 21.7 44.1 25 42.7 29.6C42.7 29.6 42.8 29.6 42.7 29.6L61.1 29.6Z" />
		<path id="Layer" fill-rule="evenodd" class="shp0" d="M340.9 55.7C359.2 56.4 373.4 71.9 373.4 90.2L373.4 99.2L318.3 99.2C320.5 110 328.4 118 337.8 118C345.2 118 351.7 113 355.2 105.6L372.6 112.9C365.7 125 352.3 132.9 337.1 132C317.5 130.9 301.8 114.6 301.2 95C300.5 73.3 317.9 55.6 339.4 55.6C340 55.6 340.5 55.6 340.9 55.7ZM356.6 84.8C353.8 75.3 346.4 68.6 337.8 68.6C329.2 68.6 321.8 75.4 319 84.8C319 84.8 319.2 84.8 319 84.8L356.6 84.8Z" />
		<path id="Layer" class="shp0" d="M280.7 31.9L296.6 31.9L296.6 129.6L280.7 129.6L280.7 31.9Z" />
		<path id="Layer" class="shp0" d="M72 5.1L79.7 5.1L79.7 52.6L72 52.6L72 5.1Z" />
		<path id="Layer" class="shp0" d="M81.7 5.1L89.4 5.1L89.4 52.6L81.7 52.6L81.7 5.1Z" />
		<path id="Layer" class="shp0" d="M73.3 78.6L89.2 78.6L89.2 129.6L73.3 129.6L73.3 78.6Z" />
		<path id="Layer" class="shp0" d="M73.3 58.9L89.2 58.9L89.2 73L73.3 73L73.3 58.9Z" />
		<path id="Layer" class="shp0" d="M198 79.2L198 130.8L184.5 130.8L184.5 81.7C184.5 74 178.5 67.8 171.1 67.8C163.7 67.8 157.7 74 157.7 81.7L157.7 130.8L152.4 130.8L152 130.8L140.6 130.8L140.6 81.7C140.6 74 134.6 67.8 127.2 67.8C127.1 67.8 126.9 67.8 126.8 67.8C126.7 67.8 126.6 67.8 126.5 67.8C118.8 67.8 112.5 74 112.5 81.8L112.5 130.8L106.7 130.8L106.7 130.7L96.6 130.7L96.6 55.4L110.5 55.4L110.5 66.2C114.5 60 121.4 55.9 129.2 55.9L129.9 55.9C141.3 55.9 150.8 64.7 152.3 76.1C153.8 64.7 163.3 55.9 174.7 55.9L175.4 55.9C187.9 55.9 198 66.4 198 79.2Z" />
	</g>
</svg>