<svg xmlns="http://www.w3.org/2000/svg" width="20.994" height="20.994" viewBox="0 0 20.994 20.994"><defs><style>.a{fill:none;stroke:#617392;stroke-linecap:round;stroke-linejoin:round;stroke-miterlimit:10;stroke-width:2px;}</style></defs><g transform="translate(1 1)"><circle class="a" cx="3" cy="3" r="3" transform="translate(6.515 6.285)"/><path class="a" d="M15.886,12.087a1.425,1.425,0,0,0,.285,1.571l.052.052a1.728,1.728,0,1,1-2.443,2.443l-.052-.052a1.436,1.436,0,0,0-2.435,1.019v.147a1.727,1.727,0,1,1-3.453,0v-.078a1.425,1.425,0,0,0-.932-1.3,1.425,1.425,0,0,0-1.571.285l-.052.052A1.728,1.728,0,1,1,2.84,13.779l.052-.052a1.436,1.436,0,0,0-1.019-2.435H1.727a1.727,1.727,0,0,1,0-3.453H1.8a1.425,1.425,0,0,0,1.3-.932,1.425,1.425,0,0,0-.285-1.571l-.052-.052A1.728,1.728,0,1,1,5.215,2.84l.052.052a1.425,1.425,0,0,0,1.571.285h.069a1.425,1.425,0,0,0,.863-1.3V1.727a1.727,1.727,0,0,1,3.453,0V1.8a1.436,1.436,0,0,0,2.435,1.019l.052-.052a1.728,1.728,0,1,1,2.443,2.443l-.052.052a1.425,1.425,0,0,0-.285,1.571v.069a1.425,1.425,0,0,0,1.3.863h.147a1.727,1.727,0,1,1,0,3.453h-.078A1.425,1.425,0,0,0,15.886,12.087Z" transform="translate(0)"/></g></svg>