<svg xmlns="http://www.w3.org/2000/svg" width="20" height="18.501" viewBox="0 0 20 18.501"><defs><style>.a{fill:#617392;}</style></defs><path class="a" d="M134.3,419.218h.095a2.415,2.415,0,0,1-1.795-.918h-5.113a2.415,2.415,0,0,1-1.795.918h.062a.556.556,0,1,0,0,1.112H134.3a.556.556,0,1,0,0-1.112Z" transform="translate(-120.046 -401.828)"/><path class="a" d="M145.456,85.756l-.811-.14a3.275,3.275,0,0,0-.358-.877l.478-.667a.312.312,0,0,0-.033-.4l-.284-.288-.284-.288a.307.307,0,0,0-.4-.033l-.671.473a3.252,3.252,0,0,0-.9-.371l-.132-.8a.314.314,0,0,0-.309-.263h-.815a.31.31,0,0,0-.309.259l-.144.815a3.338,3.338,0,0,0-.873.362l-.659-.482a.312.312,0,0,0-.4.033l-.288.284-.288.284a.307.307,0,0,0-.033.4l.478.675a3.305,3.305,0,0,0-.358.873l-.8.132a.314.314,0,0,0-.263.309v.815a.31.31,0,0,0,.259.309l.815.144a3.338,3.338,0,0,0,.362.873l-.478.663a.312.312,0,0,0,.033.4l.284.288.284.288a.307.307,0,0,0,.4.033l.675-.478a3.3,3.3,0,0,0,.852.354l.132.811a.314.314,0,0,0,.309.263h.815a.31.31,0,0,0,.309-.259l.14-.811a3.275,3.275,0,0,0,.877-.358l.667.478a.312.312,0,0,0,.4-.033l.288-.284.288-.284a.307.307,0,0,0,.033-.4l-.465-.671a3.47,3.47,0,0,0,.366-.873l.811-.132a.314.314,0,0,0,.263-.309v-.815A.324.324,0,0,0,145.456,85.756ZM141.829,88.5a2.1,2.1,0,1,1,1.581-2.52A2.1,2.1,0,0,1,141.829,88.5Z" transform="translate(-131.36 -79.469)"/><path class="a" d="M20,30.123V19.653A1.453,1.453,0,0,0,18.547,18.2H1.453A1.453,1.453,0,0,0,0,19.653V32.523H0a1.28,1.28,0,0,0,1.28,1.231H18.716A1.283,1.283,0,0,0,20,32.523h0l0-2.4Zm-1.453.51H1.453a.257.257,0,0,1-.255-.255V19.653a.257.257,0,0,1,.255-.255H18.543a.257.257,0,0,1,.255.255V30.378h0A.253.253,0,0,1,18.547,30.633Z" transform="translate(0 -18.2)"/></svg>