<svg xmlns="http://www.w3.org/2000/svg" width="20.33" height="20.332" viewBox="0 0 20.33 20.332"><defs><style>.a,.b{fill:#617392;stroke:#617392;}.a{stroke-width:0.55px;}.b{stroke-width:0.33px;}</style></defs><g transform="translate(0.165 0.167)"><g transform="matrix(0.996, -0.087, 0.087, 0.996, 3.405, 12.714)"><path class="a" d="M2.792,1.112.72.05A.49.49,0,0,0,.041.381.676.676,0,0,0,.316,1.2L2.388,2.262a.44.44,0,0,0,.2.05.525.525,0,0,0,.477-.381A.676.676,0,0,0,2.792,1.112Z"/></g><path class="b" d="M19.991,4.356a.638.638,0,0,0-.031-.191.561.561,0,0,0-.059-.094c-.014-.023-.024-.043-.039-.062a.6.6,0,0,0-.26-.2s0-.005-.009-.006L9.594.053a.611.611,0,0,0-.465.009L.379,3.81c-.009,0-.012.014-.021.017a.605.605,0,0,0-.219.184.653.653,0,0,0-.048.068.509.509,0,0,0-.041.06A.627.627,0,0,0,0,4.384H0v11.25a.626.626,0,0,0,.379.575l8.75,3.75h0a.622.622,0,0,0,.245.05.634.634,0,0,0,.22-.04l.023-.009h0L19.6,16.22a.625.625,0,0,0,.4-.585V4.385C20,4.374,19.991,4.366,19.991,4.356ZM8.75,18.436l-7.5-3.214V5.334l7.5,3.214ZM9.39,7.461,2.212,4.385,9.39,1.31,17.6,4.385,14.561,5.532l-3.4-1.367a1.055,1.055,0,0,0-.721-.073l-.446.193A.627.627,0,0,0,10,5.442l2.274.939Zm4.14-.211.392-.145v3.046l.686-.268Zm.456-1.514-2.138-.881L10.8,5.215l2.1.94ZM18.75,15.2,10,18.483V8.568l3.358-1.262v3.48a.625.625,0,0,0,.625.625.639.639,0,0,0,.22-.04l.564-.2a.626.626,0,0,0,.4-.585V6.637l3.578-1.35Z" transform="translate(0 -0.011)"/></g></svg>