<svg xmlns="http://www.w3.org/2000/svg" width="20" height="20" viewBox="0 0 20 20"><defs><style>.a{fill:#617392;}</style></defs><path class="a" d="M13.375,3.375a10,10,0,1,0,10,10A10,10,0,0,0,13.375,3.375Zm-8.654,10a8.655,8.655,0,0,1,17.3-.365,2.927,2.927,0,0,0-2.106-1.154c-1.322,0-2,1.236-2.452,2.053-.067.12-.13.236-.187.337a2.38,2.38,0,0,1-2.043,1.389,1.946,1.946,0,0,1-1.548-1.385,3.75,3.75,0,0,0-2.543-2.365A2.289,2.289,0,0,0,9,12.913c-.154.192-.332.452-.534.75-.5.745-1.26,1.865-1.832,1.962a2.2,2.2,0,0,1-1.75-.591A8.622,8.622,0,0,1,4.721,13.375Z" transform="translate(-3.375 -3.375)"/></svg>