<svg xmlns="http://www.w3.org/2000/svg" width="20.761" height="19.939" viewBox="0 0 20.761 19.939"><defs><style>.a{fill:#617392;stroke:#f9fbff;stroke-width:0.33px;}</style></defs><path class="a" d="M27.161,19.576a3.2,3.2,0,0,1-1.482-.366l-2.436-1.272a.893.893,0,0,0-.826,0L19.981,19.21a3.181,3.181,0,0,1-4.616-3.344l.465-2.694a.859.859,0,0,0-.251-.763L13.609,10.5a3.166,3.166,0,0,1,1.763-5.409L18.1,4.7a.88.88,0,0,0,.664-.477l1.218-2.451a3.19,3.19,0,0,1,5.707,0L26.9,4.222a.88.88,0,0,0,.664.477l2.724.393A3.166,3.166,0,0,1,32.052,10.5l-1.971,1.908a.859.859,0,0,0-.251.763l.465,2.694a3.145,3.145,0,0,1-1.255,3.093,3.18,3.18,0,0,1-1.879.617ZM22.83,15.535a3.194,3.194,0,0,1,1.479.363l2.436,1.272a.869.869,0,0,0,.938-.07.841.841,0,0,0,.344-.842l-.465-2.694a3.16,3.16,0,0,1,.918-2.809l1.971-1.908a.836.836,0,0,0,.222-.881.853.853,0,0,0-.712-.6l-2.724-.393a3.182,3.182,0,0,1-2.4-1.731L23.622,2.8a.887.887,0,0,0-1.583,0L20.821,5.247a3.182,3.182,0,0,1-2.4,1.731L15.7,7.371a.853.853,0,0,0-.712.6.836.836,0,0,0,.222.881l1.971,1.908a3.159,3.159,0,0,1,.918,2.809l-.465,2.694a.84.84,0,0,0,.344.842.869.869,0,0,0,.938.07L21.352,15.9a3.194,3.194,0,0,1,1.478-.362ZM21.008,2.283h0Z" transform="translate(-12.45 0.158)"/></svg>