<svg xmlns="http://www.w3.org/2000/svg" width="20.292" height="20.292" viewBox="0 0 20.292 20.292"><defs><style>.a{fill:#1cc6d3;}.b{fill:none;opacity:0;}</style></defs><g transform="translate(-108 -188)"><g transform="translate(108 188)"><path class="a" d="M14.162,10.154l-.955-1.59a3.345,3.345,0,0,1-.4-1.42V5.563a5.559,5.559,0,1,0-11.118,0V7.136A3.46,3.46,0,0,1,1.3,8.556l-.955,1.59a2.246,2.246,0,0,0-.22,1.928A2.224,2.224,0,0,0,1.547,13.4a18.7,18.7,0,0,0,2.773.685c.093.017.186.025.279.042l.372.051c.22.034.44.059.668.076.533.051,1.074.076,1.615.076s1.065-.025,1.59-.076c.194-.017.389-.034.575-.059.152-.017.3-.034.457-.059.093-.008.186-.025.279-.042a17.808,17.808,0,0,0,2.8-.693,2.24,2.24,0,0,0,1.387-1.336A2.206,2.206,0,0,0,14.162,10.154ZM7.871,6.722a.643.643,0,0,1-1.285,0V4.1a.643.643,0,1,1,1.285,0Z" transform="translate(2.909 1.733)"/><path class="a" d="M4.777.008A2.549,2.549,0,0,1,2.384,1.691,2.507,2.507,0,0,1,.592.938,2.334,2.334,0,0,1,0,0C.11.017.22.025.338.042c.194.025.4.051.6.068C1.42.152,1.911.178,2.4.178S3.365.152,3.838.11c.178-.017.355-.025.524-.051Z" transform="translate(7.762 16.91)"/><path class="b" d="M0,0H20.292V20.292H0Z" transform="translate(20.292 20.292) rotate(180)"/></g></g></svg>