<svg xmlns="http://www.w3.org/2000/svg" width="22.452" height="23.574" viewBox="0 0 22.452 23.574"><defs><style>.a{fill:#617392;}</style></defs><g transform="translate(468.172 -148.598)"><path class="a" d="M15.549,25.781a3.41,3.41,0,0,1-.753.892,3.33,3.33,0,0,1-1.014.592,3.524,3.524,0,0,1-2.33,0,3.281,3.281,0,0,1-1.012-.592,3.4,3.4,0,0,1-.753-.892,3.319,3.319,0,0,1-.394-1.1.359.359,0,0,1,.289-.416l.063-.006h5.947a.361.361,0,0,1,.361.361.522.522,0,0,1-.016.1h0A6.276,6.276,0,0,1,15.549,25.781Zm-.188-20.3a7.958,7.958,0,0,1,1.165.577c.014.01.03.018.044.028a7.893,7.893,0,0,1,.995.723,7.559,7.559,0,0,1,1.625,1.963,8.181,8.181,0,0,1,.551,1.161h0a7.275,7.275,0,0,1,.353,1.27,7.653,7.653,0,0,1,.117,1.339V14q0,.7.008,1.359v0h0a10.271,10.271,0,0,0,.077,1.2,9.575,9.575,0,0,0,.214,1.153h0a6.061,6.061,0,0,0,.376,1.054,6.824,6.824,0,0,0,.592,1.018h0a6.139,6.139,0,0,0,.862.965,10.092,10.092,0,0,0,1.24.963.589.589,0,0,1-.329,1.078v0H1.98a.59.59,0,0,1-.305-1.1,10.368,10.368,0,0,0,1.23-.961,5.887,5.887,0,0,0,.856-.971.15.15,0,0,1,.022-.028,6.973,6.973,0,0,0,.569-.993,6.2,6.2,0,0,0,.384-1.058c0-.008,0-.016.006-.022a8.632,8.632,0,0,0,.208-1.115,10.107,10.107,0,0,0,.073-1.216V12.545A7.455,7.455,0,0,1,5.144,11.2,7.09,7.09,0,0,1,5.5,9.928a8,8,0,0,1,.557-1.169A7.5,7.5,0,0,1,7.694,6.79,7.7,7.7,0,0,1,8.74,6.039a7.314,7.314,0,0,1,2.045-.84,1.77,1.77,0,0,1,.523-.862,1.916,1.916,0,0,1,1.345-.448,1.941,1.941,0,0,1,1.333.46c1.191,1.06-.291.477,1.375,1.135Z" transform="translate(-469.563 144.709)"/></g></svg>