<svg version="1.2" baseProfile="tiny-ps" xmlns="http://www.w3.org/2000/svg" viewBox="0 0 21 21" width="21" height="21">
	<title>notification-bing-svg</title>
	<style>
		tspan { white-space:pre }
		.shp0 { fill: #1cc6d3 } 
		.shp1 { opacity: 0;fill: none } 
		.shp2 { fill: #ffffff } 
	</style>
	<g id="Layer">
		<g id="Layer">
			<path id="Layer" fill-rule="evenodd" class="shp0" d="M17.07 11.89C17.16 12.03 17.23 12.18 17.28 12.34C17.33 12.49 17.36 12.66 17.38 12.82C17.4 12.99 17.39 13.15 17.37 13.32C17.35 13.48 17.31 13.64 17.25 13.8C17.19 13.95 17.12 14.1 17.03 14.24C16.93 14.38 16.83 14.51 16.71 14.62C16.59 14.74 16.46 14.84 16.31 14.93C16.17 15.01 16.02 15.08 15.86 15.13C15.64 15.21 15.41 15.28 15.18 15.35C14.94 15.42 14.71 15.48 14.48 15.54C14.24 15.6 14.01 15.65 13.77 15.7C13.54 15.74 13.3 15.79 13.06 15.83C12.97 15.84 12.88 15.86 12.79 15.87C12.63 15.89 12.48 15.91 12.33 15.93C12.14 15.95 11.95 15.97 11.75 15.99C11.23 16.04 10.7 16.06 10.16 16.06C9.62 16.06 9.08 16.04 8.55 15.99C8.32 15.97 8.1 15.95 7.88 15.91L7.51 15.86C7.42 15.84 7.32 15.84 7.23 15.82C6.99 15.78 6.76 15.73 6.53 15.69C6.29 15.64 6.06 15.59 5.83 15.53C5.6 15.47 5.37 15.41 5.14 15.34C4.91 15.28 4.68 15.21 4.46 15.13C4.3 15.08 4.14 15.02 4 14.93C3.85 14.85 3.72 14.75 3.59 14.63C3.47 14.52 3.36 14.39 3.27 14.25C3.17 14.11 3.09 13.96 3.03 13.81C2.98 13.65 2.94 13.48 2.92 13.32C2.91 13.15 2.91 12.98 2.93 12.82C2.94 12.65 2.98 12.49 3.04 12.33C3.09 12.17 3.17 12.02 3.25 11.88L4.21 10.29C4.27 10.18 4.32 10.07 4.36 9.95C4.41 9.84 4.45 9.72 4.48 9.6C4.51 9.48 4.54 9.36 4.56 9.24C4.58 9.12 4.59 8.99 4.6 8.87L4.6 7.3C4.6 5.82 5.18 4.41 6.23 3.37C7.27 2.32 8.68 1.74 10.16 1.74C11.63 1.74 13.05 2.32 14.09 3.37C15.13 4.41 15.72 5.82 15.72 7.3L15.72 8.88C15.72 9 15.74 9.12 15.76 9.25C15.78 9.37 15.8 9.49 15.84 9.61C15.87 9.73 15.91 9.85 15.96 9.96C16 10.08 16.06 10.19 16.12 10.3L17.07 11.89ZM10.78 5.83C10.79 5.66 10.72 5.49 10.6 5.36C10.48 5.24 10.31 5.16 10.14 5.16C9.96 5.16 9.8 5.24 9.67 5.36C9.55 5.49 9.49 5.66 9.5 5.83L9.5 8.46C9.5 8.62 9.57 8.78 9.69 8.89C9.81 9.01 9.97 9.07 10.14 9.07C10.3 9.07 10.46 9.01 10.58 8.89C10.7 8.78 10.77 8.62 10.78 8.46L10.78 5.83Z" />
			<path id="Layer" class="shp0" d="M12.54 16.92C12.45 17.16 12.33 17.39 12.17 17.6C12.01 17.81 11.82 17.99 11.61 18.14C11.4 18.29 11.16 18.4 10.91 18.48C10.66 18.56 10.41 18.6 10.15 18.6C9.98 18.6 9.81 18.58 9.65 18.55C9.49 18.52 9.33 18.47 9.17 18.41C9.02 18.34 8.87 18.26 8.74 18.17C8.6 18.07 8.47 17.97 8.35 17.85C8.29 17.78 8.22 17.71 8.16 17.64C8.11 17.57 8.05 17.49 8 17.41C7.95 17.34 7.91 17.25 7.87 17.17C7.83 17.09 7.79 17 7.76 16.91C7.87 16.93 7.98 16.93 8.1 16.95C8.29 16.98 8.5 17 8.7 17.02C9.18 17.06 9.67 17.09 10.16 17.09C10.65 17.09 11.13 17.06 11.6 17.02C11.78 17 11.95 17 12.12 16.97L12.54 16.92Z" />
			<path id="Layer" class="shp1" d="M20.29 20.29L0 20.29L0 0L20.29 0L20.29 20.29Z" />
		</g>
		<path id="Shape 1" class="shp2" d="M3 5L19 14L18 16L2 7L3 5Z" />
	</g>
</svg>