<svg xmlns="http://www.w3.org/2000/svg" width="23.706" height="23.708" viewBox="0 0 23.706 23.708">
  <g id="offer_1" transform="translate(-0.019 0.003)">
    <path id="Path_7968" data-name="Path 7968" d="M22.256,11.851l1.311-2.263a1.189,1.189,0,0,0-.433-1.622L20.866,6.655V4.046a1.185,1.185,0,0,0-1.187-1.187h-2.61L15.761.593A1.192,1.192,0,0,0,15.04.04a1.179,1.179,0,0,0-.9.118L11.872,1.468,9.606.157a1.184,1.184,0,0,0-1.62.435L6.675,2.859H4.065A1.185,1.185,0,0,0,2.878,4.046V6.654L.613,7.965a1.183,1.183,0,0,0-.553.721,1.2,1.2,0,0,0,.119.9l1.309,2.263L.179,14.116a1.2,1.2,0,0,0-.12.9,1.181,1.181,0,0,0,.551.721l2.267,1.311v2.609a1.185,1.185,0,0,0,1.187,1.187H6.675l1.311,2.267a1.193,1.193,0,0,0,.721.553l.306.041a1.189,1.189,0,0,0,.595-.16l2.265-1.311,2.267,1.311a1.189,1.189,0,0,0,1.622-.433l1.309-2.267h2.61a1.185,1.185,0,0,0,1.187-1.187V17.05l2.267-1.311a1.189,1.189,0,0,0,.433-1.622ZM8.9,5.906a1.78,1.78,0,1,1-1.78,1.78A1.781,1.781,0,0,1,8.9,5.906ZM9.261,17.3l-1.9-1.423,7.121-9.494,1.9,1.423Zm5.578.474a1.78,1.78,0,1,1,1.78-1.78A1.781,1.781,0,0,1,14.838,17.773Z" transform="translate(0 0)" fill="#fff"/>
  </g>
</svg>
