<svg xmlns="http://www.w3.org/2000/svg" width="26.715" height="30" viewBox="0 0 26.715 30"><defs><style>.a{fill:#fff;}</style></defs><g transform="translate(-0.5 0)"><path class="a" d="M1.053,18.855A2.744,2.744,0,0,0,.5,20.52v24.46a2.75,2.75,0,0,0,.48,1.564L14.29,32.662Zm0,0" transform="translate(0 -17.751)"/><path class="a" d="M48.108,13.64l4.318-4.5L37.248.374A2.734,2.734,0,0,0,35.129.1Zm0,0" transform="translate(-32.6 0)"/><path class="a" d="M46,276.18l-13.11,13.675a2.722,2.722,0,0,0,.868.143,2.76,2.76,0,0,0,1.383-.375L50.428,280.8Zm0,0" transform="translate(-30.493 -259.998)"/><path class="a" d="M286.542,173.956l-4.437-2.562-4.668,4.869,4.777,4.983,4.328-2.5a2.766,2.766,0,0,0,0-4.791Zm0,0" transform="translate(-260.71 -161.352)"/></g></svg>