<svg xmlns="http://www.w3.org/2000/svg" width="20.734" height="20.734" viewBox="0 0 20.734 20.734"><defs><style>.a,.b,.c{fill:none;}.a,.c{stroke:#1cc6d3;stroke-linecap:round;stroke-linejoin:round;}.a{stroke-width:1.5px;}.b{opacity:0;}.c{stroke-width:2px;}</style></defs><g transform="translate(-300 -188)"><path class="a" d="M5.183,3.456V5.546A2.078,2.078,0,0,1,2.955,7.775H0V1.736A1.744,1.744,0,0,1,1.745,0,3.451,3.451,0,0,1,5.183,3.456Z" transform="translate(313.823 189.728)"/><path class="a" d="M0,4.32V16.414a.861.861,0,0,0,1.382.691L2.86,16A.87.87,0,0,1,4,16.086l1.434,1.443a.871.871,0,0,0,1.227,0l1.451-1.451A.856.856,0,0,1,9.235,16l1.477,1.106a.866.866,0,0,0,1.382-.691V1.728A1.733,1.733,0,0,1,13.823,0H3.456C.864,0,0,1.546,0,3.456Z" transform="translate(301.728 189.728)"/><path class="a" d="M0,0H2.592" transform="translate(307.775 199.239)"/><path class="a" d="M0,0H2.592" transform="translate(307.775 195.784)"/><path class="b" d="M0,0H20.734V20.734H0Z" transform="translate(300 188)"/><path class="c" d="M0,0H.008" transform="translate(305.18 199.231)"/><path class="c" d="M0,0H.008" transform="translate(305.18 195.775)"/></g></svg>