<svg xmlns="http://www.w3.org/2000/svg" xmlns:xlink="http://www.w3.org/1999/xlink" width="47.594" height="47.594" viewBox="0 0 47.594 47.594"><defs><style>.a{fill:#fff;}.b{filter:url(#c);}.c{filter:url(#a);}</style><filter id="a" x="6.994" y="0" width="33.606" height="33.664" filterUnits="userSpaceOnUse"><feOffset dy="7" input="SourceAlpha"/><feGaussianBlur stdDeviation="3" result="b"/><feFlood flood-opacity="0.161"/><feComposite operator="in" in2="b"/><feComposite in="SourceGraphic"/></filter><filter id="c" x="0" y="17.03" width="47.594" height="30.563" filterUnits="userSpaceOnUse"><feOffset dy="7" input="SourceAlpha"/><feGaussianBlur stdDeviation="3" result="d"/><feFlood flood-opacity="0.161"/><feComposite operator="in" in2="d"/><feComposite in="SourceGraphic"/></filter></defs><g transform="translate(9.001 2)"><g class="c" transform="matrix(1, 0, 0, 1, -9, -2)"><path class="a" d="M136.606,7.861a7.8,7.8,0,1,0-7.8,7.8A7.861,7.861,0,0,0,136.606,7.861Zm-8.67,5.2v-.77a2.6,2.6,0,0,1-1.743-2.444.867.867,0,0,1,1.734,0,.867.867,0,1,0,.867-.867,2.594,2.594,0,0,1-.858-5.045V2.659a.867.867,0,0,1,1.734,0V3.942a2.6,2.6,0,0,1,1.725,2.438.867.867,0,1,1-1.734,0,.867.867,0,1,0-.867.867,2.595,2.595,0,0,1,.876,5.039v.776a.867.867,0,0,1-1.734,0Zm0,0" transform="translate(-105.01 2)"/></g><g class="b" transform="matrix(1, 0, 0, 1, -9, -2)"><path class="a" d="M.866,305.412l5.121-.017c.154.026,8.263,1.5,10.059,1.8a.836.836,0,0,0,.628-.14c1.953-1.367,13.337-9.418,12.555-8.87a.877.877,0,0,0,.208-1.214,2.62,2.62,0,0,0-3.624-.624c-.173.121-8.6,5.974-8.069,5.6H11.328a.867.867,0,0,1,0-1.734h5.2a1.734,1.734,0,1,0,0-3.468H15.455a.863.863,0,0,1-.572-.208,6.932,6.932,0,0,0-2.41-1.526c-3.937-1.392-6.438,1.609-6.676,1.734H.866a.867.867,0,0,0-.867.867v6.939a.864.864,0,0,0,.867.864Zm0,0" transform="translate(9 -275.61)"/></g></g></svg>