<svg xmlns="http://www.w3.org/2000/svg" width="17.456" height="14.183" viewBox="0 0 17.456 14.183"><defs><style>.a{fill:#06b2ff;}</style></defs><path class="a" d="M17.456,49.679a7.461,7.461,0,0,1-2.062.565,3.559,3.559,0,0,0,1.574-1.978,7.152,7.152,0,0,1-2.269.866A3.578,3.578,0,0,0,8.509,51.58a3.685,3.685,0,0,0,.083.816,10.13,10.13,0,0,1-7.376-3.743,3.58,3.58,0,0,0,1.1,4.783A3.534,3.534,0,0,1,.7,52.995v.039A3.6,3.6,0,0,0,3.565,56.55a3.572,3.572,0,0,1-.938.118,3.164,3.164,0,0,1-.678-.061A3.613,3.613,0,0,0,5.294,59.1,7.191,7.191,0,0,1,.856,60.626,6.7,6.7,0,0,1,0,60.577a10.075,10.075,0,0,0,5.49,1.606A10.116,10.116,0,0,0,15.676,52c0-.158-.005-.311-.013-.463A7.139,7.139,0,0,0,17.456,49.679Z" transform="translate(0 -48)"/></svg>