<svg xmlns="http://www.w3.org/2000/svg" xmlns:xlink="http://www.w3.org/1999/xlink" width="43.809" height="43.161" viewBox="0 0 43.809 43.161"><defs><style>.a{fill:#fff;}.b{filter:url(#c);}.c{filter:url(#a);}</style><filter id="a" x="1.5" y="0" width="38.255" height="34.184" filterUnits="userSpaceOnUse"><feOffset dy="7" input="SourceAlpha"/><feGaussianBlur stdDeviation="3" result="b"/><feFlood flood-opacity="0.161"/><feComposite operator="in" in2="b"/><feComposite in="SourceGraphic"/></filter><filter id="c" x="0" y="7.195" width="43.809" height="35.966" filterUnits="userSpaceOnUse"><feOffset dy="7" input="SourceAlpha"/><feGaussianBlur stdDeviation="3" result="d"/><feFlood flood-opacity="0.161"/><feComposite operator="in" in2="d"/><feComposite in="SourceGraphic"/></filter></defs><g transform="translate(9 -4.423)"><g class="c" transform="matrix(1, 0, 0, 1, -9, 4.42)"><path class="a" d="M35.445,16.311h7.71l5-7.088.356,2.078,1.491-.255-.791-4.623-4.623.791L44.846,8.7l2.078-.356L42.372,14.8H34.664L29.75,21.733l1.234.874Z" transform="translate(-19.25 -4.42)"/></g><g class="b" transform="matrix(1, 0, 0, 1, -9, 4.42)"><path class="a" d="M24.221,165.621V149.167H19.508l-2.478,3.511v12.943H15.517V153.876H9.72v11.745H8.208V154.249l-6.62,9.3v2.074H0v1.512H25.809v-1.512Z" transform="translate(9 -139.97)"/></g></g></svg>