<svg xmlns="http://www.w3.org/2000/svg" xmlns:xlink="http://www.w3.org/1999/xlink" width="322.321" height="268.6" viewBox="0 0 322.321 268.6">
  <defs>
    <linearGradient id="linear-gradient" x1="0.5" x2="0.5" y2="1" gradientUnits="objectBoundingBox">
      <stop offset="0" stop-color="#0db4d0"/>
      <stop offset="1" stop-color="#770ad8"/>
    </linearGradient>
    <linearGradient id="linear-gradient-2" x1="0.5" x2="0.5" y2="1" gradientUnits="objectBoundingBox">
      <stop offset="0" stop-color="#11b0d0"/>
      <stop offset="1" stop-color="#740ed8"/>
    </linearGradient>
    <linearGradient id="linear-gradient-3" x1="0.5" x2="0.5" y2="1" gradientUnits="objectBoundingBox">
      <stop offset="0" stop-color="#6920d7"/>
      <stop offset="1" stop-color="#1e9bd1"/>
    </linearGradient>
  </defs>
  <g id="subscribe" transform="translate(-30.025 -50.825)">
    <path id="Path_4779" data-name="Path 4779" d="M122.51,169.19c-5.513,7.821-10.257,16.284-17.951,22.695-13.078,10.77-33.08,13.591-44.107,26.669-11.8,13.976-6.539,33.85,6.026,45.646,8.462,7.821,19.746,12.822,31.413,15.771,25.387,6.539,195.148-.769,203.482-4.488,11.283-5,16.284-14.489,15.514-25.259-1.282-17.694-16.412-32.055-32.824-41.8-16.54-9.745-35.26-16.54-50.646-27.567-8.847-6.283-16.284-13.976-24.746-20.643-7.052-5.642-14.873-10.642-23.72-13.591C162,138.675,134.819,151.753,122.51,169.19Z" transform="translate(6.618 26.255)" fill="#e7ebf6"/>
    <path id="Path_4780" data-name="Path 4780" d="M140.674,68.421c4.1,10.257,2.436,24.618-7.437,28.593s-24.1-3.975-28.208-14.232.513-21.925,10.386-25.9C125.16,53.035,136.571,58.163,140.674,68.421Z" transform="translate(20.637 1.243)" fill="#fff" stroke="#788198" stroke-linecap="round" stroke-linejoin="round" stroke-width="0.75"/>
    <path id="Path_4781" data-name="Path 4781" d="M198.29,92.93c-6.667,11.411-21.284,20.258-32.311,13.976-10.9-6.283-13.976-25.515-7.308-36.927s20.9-15.514,31.8-9.232C201.5,67.158,204.958,81.519,198.29,92.93Z" transform="translate(35.207 1.864)" fill="#fff" stroke="#788198" stroke-linecap="round" stroke-linejoin="round" stroke-width="0.75"/>
    <path id="Path_4782" data-name="Path 4782" d="M213.588,191.925l-50.133-33.85a6.741,6.741,0,0,0-7.821,0L105.5,191.925v61.032a8.9,8.9,0,0,0,2.693,6.411c.385.385.9.769,1.282,1.154a2.683,2.683,0,0,1,.769.513,7.937,7.937,0,0,0,2.436.9,8.464,8.464,0,0,0,1.8.128h90.009a7.832,7.832,0,0,0,4.231-1.026c.256-.128.513-.385.769-.513a11.565,11.565,0,0,0,1.282-1.154,8.417,8.417,0,0,0,2.564-6.026v-.385l.256-61.032Z" transform="translate(21.192 29.805)" stroke="#111" stroke-linecap="round" stroke-linejoin="round" stroke-width="0.75" fill="url(#linear-gradient)"/>
    <path id="Path_4783" data-name="Path 4783" d="M213.531,241.839v.385a9.239,9.239,0,0,1-2.564,6.026c-.385.385-.9.769-1.282,1.154a2.683,2.683,0,0,0-.769.513,7.831,7.831,0,0,1-4.231,1.026H114.675a7.832,7.832,0,0,1-4.231-1.026,2.683,2.683,0,0,1-.769-.513,11.562,11.562,0,0,1-1.282-1.154,8.9,8.9,0,0,1-2.693-6.411l31.8-28.208L155.32,197.86a6.629,6.629,0,0,1,8.719,0l17.822,15.771,31.67,28.208Z" transform="translate(21.248 40.923)" fill="none" stroke="#111" stroke-linecap="round" stroke-linejoin="round" stroke-width="0.75"/>
    <path id="Path_4784" data-name="Path 4784" d="M196.987,227.688H126.723a1.972,1.972,0,0,1-1.923-1.923V168.323a1.972,1.972,0,0,1,1.923-1.923h70.264a1.972,1.972,0,0,1,1.923,1.923v57.442A1.972,1.972,0,0,1,196.987,227.688Z" transform="translate(26.638 32.507)" fill="#fff" stroke="#111" stroke-linecap="round" stroke-linejoin="round" stroke-width="0.75"/>
    <path id="Path_4785" data-name="Path 4785" d="M189.961,251.636H120.723a1.972,1.972,0,0,1-1.923-1.923v-76.29a1.972,1.972,0,0,1,1.923-1.923h69.238a1.972,1.972,0,0,1,1.923,1.923v76.29A1.972,1.972,0,0,1,189.961,251.636Z" transform="translate(24.945 33.946)" fill="#fff" stroke="#111" stroke-linecap="round" stroke-linejoin="round" stroke-width="0.75"/>
    <line id="Line_1" data-name="Line 1" x2="54.877" transform="translate(152.848 217.627)" fill="none" stroke="#111" stroke-linecap="round" stroke-linejoin="round" stroke-width="0.75"/>
    <line id="Line_2" data-name="Line 2" x2="54.877" transform="translate(152.848 228.141)" fill="none" stroke="#111" stroke-linecap="round" stroke-linejoin="round" stroke-width="0.75"/>
    <line id="Line_3" data-name="Line 3" x2="54.877" transform="translate(152.848 238.783)" fill="none" stroke="#111" stroke-linecap="round" stroke-linejoin="round" stroke-width="0.75"/>
    <path id="Path_4786" data-name="Path 4786" d="M143.612,94.285c3.718,11.8-1.8,26.028-13.078,29.618s-23.977-5-27.7-16.8,2.436-24.233,13.719-27.7C127.841,75.821,139.894,82.617,143.612,94.285Z" transform="translate(20.135 7.689)" fill="#12aed0" stroke="#111" stroke-linecap="round" stroke-linejoin="round" stroke-width="0.75"/>
    <path id="Path_4787" data-name="Path 4787" d="M130.59,123.521c5.257-6.154,7.18-15.643,4.616-23.977-3.718-11.8-15.771-18.463-27.054-14.873-.769.256-1.41.513-2.051.769a20.734,20.734,0,0,1,9.232-6.026c11.283-3.59,23.464,3.077,27.182,14.873C145.976,105.7,140.975,119.29,130.59,123.521Z" transform="translate(21.361 7.687)" fill="#6f17d8"/>
    <path id="Path_4788" data-name="Path 4788" d="M143.612,94.285c3.718,11.8-1.8,26.028-13.078,29.618s-23.977-5-27.7-16.8,2.436-24.233,13.719-27.7C127.841,75.821,139.894,82.617,143.612,94.285Z" transform="translate(20.135 7.689)" fill="none" stroke="#111" stroke-linecap="round" stroke-linejoin="round" stroke-width="0.75"/>
    <line id="Line_4" data-name="Line 4" x2="34.619" transform="translate(162.977 249.169)" fill="none" stroke="#111" stroke-linecap="round" stroke-linejoin="round" stroke-width="0.75"/>
    <path id="Path_4789" data-name="Path 4789" d="M223.3,270.927l24.233-48.595a1.945,1.945,0,0,1,3.462,0l25.387,48.595" transform="translate(54.433 47.992)" fill="none" stroke="#788198" stroke-linecap="round" stroke-linejoin="round" stroke-width="0.75"/>
    <path id="Path_4790" data-name="Path 4790" d="M181.3,277.206l38.209-76.546a3.035,3.035,0,0,1,5.385,0l40,76.546" transform="translate(42.581 41.713)" fill="#fff" stroke="#788198" stroke-linecap="round" stroke-linejoin="round" stroke-width="0.75"/>
    <path id="Path_4791" data-name="Path 4791" d="M61.2,268.614l19.233-38.465a1.118,1.118,0,0,1,2.051,0l20.13,38.465" transform="translate(8.691 50.306)" fill="none" stroke="#788198" stroke-linecap="round" stroke-linejoin="round" stroke-width="0.75"/>
    <path id="Path_4792" data-name="Path 4792" d="M78.9,273.255l29.49-58.98a2.308,2.308,0,0,1,4.1,0l30.772,58.98" transform="translate(13.686 45.664)" fill="#fff" stroke="#788198" stroke-linecap="round" stroke-linejoin="round" stroke-width="0.75"/>
    <path id="Path_4793" data-name="Path 4793" d="M199.507,110.976c-4.488,11.155-17.566,18.463-28.208,14.232-10.642-4.359-15-18.592-10.514-29.747s16.8-16.8,27.567-12.437C198.994,87.256,203.995,99.821,199.507,110.976Z" transform="translate(36.298 8.564)" fill="#10aecf" stroke="#111" stroke-linecap="round" stroke-linejoin="round" stroke-width="0.75"/>
    <path id="Path_4794" data-name="Path 4794" d="M196.949,110.962c-4.488,11.155-17.566,18.463-28.208,14.232-.256-.128-.513-.128-.641-.256,8.975,0,17.951-6.539,21.541-15.514,4.488-11.027-.385-23.464-10.77-27.823a19.082,19.082,0,0,1,6.924,1.41C196.436,87.242,201.437,99.807,196.949,110.962Z" transform="translate(38.856 8.578)" fill="#6f17d8"/>
    <path id="Path_4795" data-name="Path 4795" d="M199.507,110.976c-4.488,11.155-17.566,18.463-28.208,14.232-10.642-4.359-15-18.592-10.514-29.747s16.8-16.8,27.567-12.437C198.994,87.256,203.995,99.821,199.507,110.976Z" transform="translate(36.298 8.564)" fill="none" stroke="#111" stroke-linecap="round" stroke-linejoin="round" stroke-width="0.75"/>
    <path id="Path_4796" data-name="Path 4796" d="M163,119.575l7.052-3.975,2.308,7.821Z" transform="translate(37.417 18.172)" fill="#10aecf" stroke="#111" stroke-linecap="round" stroke-linejoin="round" stroke-width="0.75"/>
    <path id="Path_4797" data-name="Path 4797" d="M147.7,109.3c1.026,18.463,1.41,42.44,1.282,60.9" transform="translate(33.1 16.395)" fill="none" stroke="#788198" stroke-linecap="round" stroke-linejoin="round" stroke-width="0.75"/>
    <path id="Path_4798" data-name="Path 4798" d="M170.753,120.3c-5.513,14.36-13.078,34.234-22.053,46.8" transform="translate(33.382 19.499)" fill="none" stroke="#788198" stroke-linecap="round" stroke-linejoin="round" stroke-width="0.75"/>
    <path id="Path_4799" data-name="Path 4799" d="M126.9,116.3c9.488,15.514,18.592,36.414,27.952,51.928" transform="translate(27.23 18.37)" fill="none" stroke="#788198" stroke-linecap="round" stroke-linejoin="round" stroke-width="0.75"/>
    <path id="Path_4800" data-name="Path 4800" d="M84.392,159.531a4.735,4.735,0,0,0-3.462,1.41,6.566,6.566,0,0,0-6.283-5.642,6.471,6.471,0,0,0-6.283,5.77,6.108,6.108,0,0,0-3.718-1.154,6.712,6.712,0,0,0-6.539,5.513c-.128.256.128.513.513.513H89.777A5.691,5.691,0,0,0,84.392,159.531Z" transform="translate(7.809 29.375)" fill="none" stroke="#788198" stroke-linecap="round" stroke-linejoin="round" stroke-width="0.75"/>
    <path id="Path_4801" data-name="Path 4801" d="M201.594,143.331a4.735,4.735,0,0,1,3.462,1.41,6.566,6.566,0,0,1,6.283-5.642,6.471,6.471,0,0,1,6.283,5.77,6.108,6.108,0,0,1,3.718-1.154,6.712,6.712,0,0,1,6.539,5.513c.128.256-.128.513-.513.513H196.208A5.626,5.626,0,0,1,201.594,143.331Z" transform="translate(46.777 24.804)" fill="none" stroke="#788198" stroke-linecap="round" stroke-linejoin="round" stroke-width="0.75"/>
    <path id="Path_4802" data-name="Path 4802" d="M227.524,172.162a3.462,3.462,0,1,1-3.462-3.462A3.447,3.447,0,0,1,227.524,172.162Z" transform="translate(53.671 33.156)" fill="none" stroke="#6f17d8" stroke-width="1"/>
    <path id="Path_4803" data-name="Path 4803" d="M276.124,218.962a3.462,3.462,0,1,1-3.462-3.462A3.447,3.447,0,0,1,276.124,218.962Z" transform="translate(67.385 46.362)" fill="none" stroke="#6f17d8" stroke-width="1"/>
    <path id="Path_4804" data-name="Path 4804" d="M109.945,140.172a4.872,4.872,0,1,1-4.872-4.872A4.87,4.87,0,0,1,109.945,140.172Z" transform="translate(19.696 23.731)" fill="none" stroke="#6f17d8" stroke-width="1"/>
    <path id="Path_4805" data-name="Path 4805" d="M49.024,207.262a3.462,3.462,0,1,1-3.462-3.462A3.447,3.447,0,0,1,49.024,207.262Z" transform="translate(3.302 43.061)" fill="none" stroke="#6f17d8" stroke-width="1"/>
    <line id="Line_5" data-name="Line 5" x2="18.848" transform="translate(300.684 193.009)" fill="none" stroke="#788198" stroke-linecap="round" stroke-linejoin="round" stroke-width="0.75"/>
    <line id="Line_6" data-name="Line 6" x2="23.079" transform="translate(328.892 200.574)" fill="none" stroke="#788198" stroke-linecap="round" stroke-linejoin="round" stroke-width="0.75"/>
    <line id="Line_7" data-name="Line 7" x2="5.77" transform="translate(317.224 200.574)" fill="none" stroke="#788198" stroke-linecap="round" stroke-linejoin="round" stroke-width="0.75"/>
    <line id="Line_8" data-name="Line 8" x2="18.848" transform="translate(55.659 162.237)" fill="none" stroke="#788198" stroke-linecap="round" stroke-linejoin="round" stroke-width="0.75"/>
    <line id="Line_9" data-name="Line 9" x2="21.156" transform="translate(43.991 169.802)" fill="none" stroke="#788198" stroke-linecap="round" stroke-linejoin="round" stroke-width="0.75"/>
    <line id="Line_10" data-name="Line 10" x2="6.796" transform="translate(30.4 169.802)" fill="none" stroke="#788198" stroke-linecap="round" stroke-linejoin="round" stroke-width="0.75"/>
    <line id="Line_11" data-name="Line 11" x2="16.668" transform="translate(162.465 301.61)" fill="none" stroke="#788198" stroke-linecap="round" stroke-linejoin="round" stroke-width="0.75"/>
    <line id="Line_12" data-name="Line 12" x2="8.206" transform="translate(190.544 301.61)" fill="none" stroke="#788198" stroke-linecap="round" stroke-linejoin="round" stroke-width="0.75"/>
    <line id="Line_13" data-name="Line 13" x2="3.718" transform="translate(182.851 301.61)" fill="none" stroke="#788198" stroke-linecap="round" stroke-linejoin="round" stroke-width="0.75"/>
    <line id="Line_14" data-name="Line 14" x2="1.539" transform="translate(191.442 310.713)" fill="none" stroke="#788198" stroke-linecap="round" stroke-linejoin="round" stroke-width="0.75"/>
    <line id="Line_15" data-name="Line 15" x2="15.258" transform="translate(172.978 310.713)" fill="none" stroke="#788198" stroke-linecap="round" stroke-linejoin="round" stroke-width="0.75"/>
    <path id="Path_4806" data-name="Path 4806" d="M173.556,254.235h-58.98a7.831,7.831,0,0,1-4.231-1.026,2.682,2.682,0,0,1-.769-.513,11.562,11.562,0,0,1-1.282-1.154,8.9,8.9,0,0,1-2.693-6.411V184.1l31.8,32.824,22.182,22.823Z" transform="translate(21.22 37.502)" stroke="#111" stroke-linecap="round" stroke-linejoin="round" stroke-width="0.75" fill="url(#linear-gradient-2)"/>
    <path id="Path_4807" data-name="Path 4807" d="M204.756,184.2v61.545a9.238,9.238,0,0,1-2.564,6.026c-.385.385-.9.769-1.282,1.154a2.683,2.683,0,0,0-.769.513,7.831,7.831,0,0,1-4.231,1.026H136.8l13.976-14.36,22.182-22.823,31.67-32.567Z" transform="translate(30.024 37.53)" stroke="#111" stroke-linecap="round" stroke-linejoin="round" stroke-width="0.75" fill="url(#linear-gradient-3)"/>
    <path id="Path_4808" data-name="Path 4808" d="M204.756,184.2v61.545a9.238,9.238,0,0,1-2.564,6.026c-.385.385-.9.769-1.282,1.154a2.683,2.683,0,0,0-.769.513,7.831,7.831,0,0,1-4.231,1.026H136.8l6.154-6.411H187.19a7.831,7.831,0,0,0,4.231-1.026c.256-.128.513-.385.769-.513a5.512,5.512,0,0,0,1.282-1.154,8.417,8.417,0,0,0,2.564-6.026V193.047l8.334-8.591Z" transform="translate(30.024 37.53)" fill="#3c39bf"/>
    <path id="Path_4809" data-name="Path 4809" d="M204.756,184.2v61.545a9.238,9.238,0,0,1-2.564,6.026c-.385.385-.9.769-1.282,1.154a2.683,2.683,0,0,0-.769.513,7.831,7.831,0,0,1-4.231,1.026H136.8l13.976-14.36,22.182-22.823,31.67-32.567Z" transform="translate(30.024 37.53)" fill="none" stroke="#111" stroke-linecap="round" stroke-linejoin="round" stroke-width="0.75"/>
    <path id="Path_4810" data-name="Path 4810" d="M124.1,120.68l2.051-7.18,6.539,3.718Z" transform="translate(26.44 17.58)" fill="#12aed0" stroke="#111" stroke-linecap="round" stroke-linejoin="round" stroke-width="0.75"/>
    <path id="Path_4811" data-name="Path 4811" d="M212.327,239.763A18.463,18.463,0,1,1,193.863,221.3,18.387,18.387,0,0,1,212.327,239.763Z" transform="translate(40.916 47.999)" fill="#fff" stroke="#788198" stroke-linecap="round" stroke-linejoin="round" stroke-width="0.75"/>
    <path id="Path_4812" data-name="Path 4812" d="M181.09,83.767c0,17.951-12.437,35.388-27.7,35.388s-27.7-17.438-27.7-35.388S138.137,51.2,153.4,51.2,181.09,65.817,181.09,83.767Z" transform="translate(26.892)" fill="#6f17d8" stroke="#111" stroke-linecap="round" stroke-linejoin="round" stroke-width="0.75"/>
    <path id="Path_4813" data-name="Path 4813" d="M177.591,83.739c0,17.566-11.8,34.491-26.541,35.26,9.873-5.77,16.8-18.848,16.8-32.311,0-17.951-12.437-32.439-27.7-32.439a11.03,11.03,0,0,0-2.051.128A23.476,23.476,0,0,1,149.9,51.3C165.154,51.172,177.591,65.789,177.591,83.739Z" transform="translate(30.391 0.028)" fill="#10b0d0"/>
    <path id="Path_4814" data-name="Path 4814" d="M181.09,83.767c0,17.951-12.437,35.388-27.7,35.388s-27.7-17.438-27.7-35.388S138.137,51.2,153.4,51.2,181.09,65.817,181.09,83.767Z" transform="translate(26.892)" fill="none" stroke="#111" stroke-linecap="round" stroke-linejoin="round" stroke-width="0.75"/>
    <path id="Path_4815" data-name="Path 4815" d="M142.7,112.306l6.283-8.206,6.411,8.206Z" transform="translate(31.689 14.927)" fill="#6f17d8" stroke="#111" stroke-linecap="round" stroke-linejoin="round" stroke-width="0.75"/>
    <path id="Path_4816" data-name="Path 4816" d="M108.733,75.46a9.807,9.807,0,0,1,1.41-9.36" transform="translate(21.934 4.204)" fill="#fff" stroke="#788198" stroke-linecap="round" stroke-linejoin="round" stroke-width="0.75"/>
    <g id="Group_17379" data-name="Group 17379" transform="translate(162.849 61.714)">
      <path id="Path_4817" data-name="Path 4817" d="M133.7,71.973s-.128-6.8,5.9-9.873" transform="translate(-133.7 -58.638)" fill="none" stroke="#111" stroke-linecap="round" stroke-linejoin="round" stroke-width="0.75"/>
      <path id="Path_4818" data-name="Path 4818" d="M140.7,61.067a8.931,8.931,0,0,1,4.231-1.667" transform="translate(-131.725 -59.4)" fill="none" stroke="#111" stroke-linecap="round" stroke-linejoin="round" stroke-width="0.75"/>
    </g>
    <path id="Path_4819" data-name="Path 4819" d="M171.4,88.633a8.529,8.529,0,0,1,8.206-1.539" transform="translate(39.787 10.007)" fill="none" stroke="#fff" stroke-linecap="round" stroke-linejoin="round" stroke-width="0.75"/>
    <path id="Path_4820" data-name="Path 4820" d="M105.988,101a8.674,8.674,0,0,1,0-9.1" transform="translate(20.96 11.485)" fill="none" stroke="#fff" stroke-linecap="round" stroke-linejoin="round" stroke-width="0.75"/>
    <path id="Path_4821" data-name="Path 4821" d="M169.7,64.236s2.693-3.59,9.1-2.051" transform="translate(39.308 2.991)" fill="none" stroke="#788198" stroke-linecap="round" stroke-linejoin="round" stroke-width="0.75"/>
    <path id="Path_4822" data-name="Path 4822" d="M138.337,67.435a2.215,2.215,0,0,0,1.923,3.077,4.1,4.1,0,0,0,1.8-.385,5.317,5.317,0,0,0,2.436-3.077,5.056,5.056,0,0,0-.128-3.077c-.385-1.154-1.282-.769-2.308-.513A6.337,6.337,0,0,0,138.337,67.435Z" transform="translate(30.41 3.382)" fill="#fdf8ce"/>
    <path id="Path_4823" data-name="Path 4823" d="M111.2,215.954c.128,1.026.513,2.18,1.539,2.308a1.382,1.382,0,0,0,1.41-.769,6.348,6.348,0,0,0,.513-1.667,36.578,36.578,0,0,0-.256-13.463,5.744,5.744,0,0,0-1.154-2.693c-.769-.9-2.308-1.154-2.693,0-.513,1.41-.128,3.847-.128,5.385A51.392,51.392,0,0,0,111.2,215.954Z" transform="translate(22.544 41.677)" fill="#fdf8ce"/>
    <path id="Path_4824" data-name="Path 4824" d="M199.971,236.9c-2.18,3.205-5.129,5.642-8.078,8.078-2.949-2.436-6.026-4.872-8.078-8.078-1.154-1.667-2.051-4.1-.9-5.77a4.139,4.139,0,0,1,5.385-.9,14.13,14.13,0,0,1,3.462,3.334l.128-.128a.126.126,0,0,0,.128.128,14.131,14.131,0,0,1,3.462-3.334c1.8-1.026,4.359-.769,5.385.9C202.023,232.926,201.125,235.234,199.971,236.9Z" transform="translate(42.886 50.348)" fill="#7212d8" stroke="#111" stroke-linecap="round" stroke-linejoin="round" stroke-width="0.75"/>
  </g>
</svg>
