<svg xmlns="http://www.w3.org/2000/svg" width="40" height="40" viewBox="0 0 40 40"><defs><style>.a{fill:#00b8d5;}.b{fill:#fff;}</style></defs><g transform="translate(-269 -8286)"><path class="a" d="M20,0A20,20,0,1,1,0,20,20,20,0,0,1,20,0Z" transform="translate(269 8286)"/><g transform="translate(279.638 8298)"><path class="b" d="M19.989,49.923a8.544,8.544,0,0,1-2.361.647,4.075,4.075,0,0,0,1.8-2.265,8.189,8.189,0,0,1-2.6.992,4.1,4.1,0,0,0-7.089,2.8,4.22,4.22,0,0,0,.095.934,11.6,11.6,0,0,1-8.447-4.286,4.1,4.1,0,0,0,1.259,5.477,4.047,4.047,0,0,1-1.851-.5v.045a4.117,4.117,0,0,0,3.283,4.027,4.09,4.09,0,0,1-1.074.135,3.623,3.623,0,0,1-.776-.07A4.137,4.137,0,0,0,6.062,60.71,8.234,8.234,0,0,1,.981,62.458,7.675,7.675,0,0,1,0,62.4a11.537,11.537,0,0,0,6.287,1.839A11.583,11.583,0,0,0,17.95,52.58c0-.181-.006-.356-.015-.53A8.175,8.175,0,0,0,19.989,49.923Z" transform="translate(0 -48)"/></g></g></svg>