<svg xmlns="http://www.w3.org/2000/svg" width="10.664" height="14.32" viewBox="0 0 10.664 14.32">
  <g id="uppercase-1.1s-200px" transform="translate(-20 -9.716)">
    <path id="XMLID_3_" d="M30.487,15.987a.258.258,0,0,0,.181-.43L25.6,9.8a.239.239,0,0,0-.363,0l-5.066,5.758a.258.258,0,0,0,.181.43h3.523V20.43a.352.352,0,0,0,.344.359h2.4a.352.352,0,0,0,.344-.359V15.987Z" transform="translate(-0.089)" fill="#617392"/>
    <g id="Group_17623" data-name="Group 17623" transform="translate(20 21.903)">
      <path id="Path_7829" data-name="Path 7829" d="M30.334,80.417h-10a.33.33,0,0,1-.33-.33V78.614a.33.33,0,0,1,.33-.33h10a.33.33,0,0,1,.33.33v1.472A.33.33,0,0,1,30.334,80.417Z" transform="translate(-20 -78.284)" fill="#617392"/>
    </g>
  </g>
</svg>
