<svg xmlns="http://www.w3.org/2000/svg" xmlns:xlink="http://www.w3.org/1999/xlink" width="45.439" height="43.7" viewBox="0 0 45.439 43.7"><defs><style>.a{fill:#e6ecf8;}.b{fill:#4374d5;}.c{fill:#3867c4;}.d{fill:#1cc6d3;}.e{fill:#fff;}.f{opacity:0.22;fill:url(#a);}</style><linearGradient id="a" x1="0.36" y1="0.423" x2="1.094" y2="0.841" gradientUnits="objectBoundingBox"><stop offset="0" stop-color="#fff" stop-opacity="0"/><stop offset="1" stop-color="#fff" stop-opacity="0.969"/><stop offset="1" stop-color="#9eeeff"/></linearGradient></defs><g transform="translate(-1652 -346)"><path class="a" d="M336.339,373.629v39.642a2.02,2.02,0,0,1-2.029,2.029H292.929a2.077,2.077,0,0,1-.644-.1,2.022,2.022,0,0,1-1.385-1.932V373.629a1.955,1.955,0,0,1,.386-1.192,2,2,0,0,1,1.675-.837h41.414a2.023,2.023,0,0,1,1.417.58A2.3,2.3,0,0,1,336.339,373.629Z" transform="translate(1361.1 -25.6)"/><g transform="translate(1654.948 349.685)"><path class="b" d="M338.978,382v35.681H299.4V382Z" transform="translate(-299.4 -382)"/><path class="c" d="M299.4,417.827V440.4a1.837,1.837,0,0,0,2.029,1.932h35.52c1.224,0,2.029.064,2.029-1.159V425.2a18.141,18.141,0,0,1-13.88.644C317.241,422.754,311.315,416.99,299.4,417.827Z" transform="translate(-299.4 -408.234)"/><path class="d" d="M338.978,417.827V440.4a1.837,1.837,0,0,1-2.029,1.932h-35.52c-1.224,0-2.029.064-2.029-1.159V425.2a18.141,18.141,0,0,0,13.88.644C321.137,422.754,327.063,416.99,338.978,417.827Z" transform="translate(-299.4 -406.234)"/><circle class="e" cx="2.737" cy="2.737" r="2.737" transform="translate(9.726 3.088)"/></g><path class="f" d="M339.254,374.849v39.642a2.02,2.02,0,0,1-2.029,2.029H295.844a2.077,2.077,0,0,1-.644-.1c9.79-9.693,33.749-33.363,43.475-43.024A2.162,2.162,0,0,1,339.254,374.849Z" transform="translate(1358.185 -26.931)"/></g></svg>