<svg xmlns="http://www.w3.org/2000/svg" xmlns:xlink="http://www.w3.org/1999/xlink" width="43.629" height="43.629" viewBox="0 0 43.629 43.629"><defs><style>.a{fill:none;opacity:0;}.b{fill:url(#a);}</style><linearGradient id="a" x1="0.5" x2="1.587" y2="1.888" gradientUnits="objectBoundingBox"><stop offset="0" stop-color="#1cc6d3"/><stop offset="1" stop-color="#7b01d9"/></linearGradient></defs><g transform="translate(-556 -188)"><g transform="translate(556 188)"><path class="a" d="M0,0H43.629V43.629H0Z"/><path class="b" d="M21.814,8.485A3.6,3.6,0,0,0,20.2,5.467L12.925.614a3.625,3.625,0,0,0-4.036,0L1.618,5.467A3.645,3.645,0,0,0,0,8.485V18.81a.9.9,0,0,0,.909.909h20a.9.9,0,0,0,.909-.909Zm-10.907,6.69a3.181,3.181,0,1,1,3.181-3.181A3.2,3.2,0,0,1,10.907,15.175Z" transform="translate(5.454 4.367)"/><path class="b" d="M37.721,17.506H35.412V12.052a4.313,4.313,0,0,0,2.981-4.09V4.327a4.327,4.327,0,0,0-8.653,0V7.962a4.323,4.323,0,0,0,2.927,4.072v5.472H25V6.6a.9.9,0,0,0-.909-.909h-20a.9.9,0,0,0-.909.909V17.506H1.363a1.363,1.363,0,0,0,0,2.727H33.958c.036,0,.055.018.091.018s.055-.018.091-.018h3.581a1.363,1.363,0,0,0,0-2.727Zm-25-5.454a1.363,1.363,0,1,1,2.727,0v5.454H12.725Z" transform="translate(2.272 21.124)"/></g></g></svg>