<svg xmlns="http://www.w3.org/2000/svg" width="40" height="40" viewBox="0 0 40 40"><defs><style>.a{fill:#ff2c2c;}.b{fill:#fff;}</style></defs><g transform="translate(-940 -520)"><g transform="translate(605 -7766)"><circle class="a" cx="20" cy="20" r="20" transform="translate(335 8286)"/></g><path class="b" d="M24.723,7.16a3.038,3.038,0,0,0-2.138-2.151C20.7,4.5,13.139,4.5,13.139,4.5s-7.561,0-9.446.508A3.038,3.038,0,0,0,1.555,7.16a31.869,31.869,0,0,0-.505,5.857,31.869,31.869,0,0,0,.505,5.857,2.993,2.993,0,0,0,2.138,2.117c1.886.508,9.446.508,9.446.508s7.561,0,9.446-.508a2.993,2.993,0,0,0,2.138-2.117,31.869,31.869,0,0,0,.505-5.857,31.869,31.869,0,0,0-.505-5.857ZM10.666,16.612V9.422l6.319,3.6-6.319,3.595Z" transform="translate(946.95 527.5)"/></g></svg>